G04 #@! TF.GenerationSoftware,KiCad,Pcbnew,6.0.1-79c1e3a40b~116~ubuntu20.04.1*
G04 #@! TF.CreationDate,2022-03-15T20:21:40+00:00*
G04 #@! TF.ProjectId,batmon,6261746d-6f6e-42e6-9b69-6361645f7063,rev?*
G04 #@! TF.SameCoordinates,Original*
G04 #@! TF.FileFunction,Legend,Bot*
G04 #@! TF.FilePolarity,Positive*
%FSLAX46Y46*%
G04 Gerber Fmt 4.6, Leading zero omitted, Abs format (unit mm)*
G04 Created by KiCad (PCBNEW 6.0.1-79c1e3a40b~116~ubuntu20.04.1) date 2022-03-15 20:21:40*
%MOMM*%
%LPD*%
G01*
G04 APERTURE LIST*
G04 Aperture macros list*
%AMRoundRect*
0 Rectangle with rounded corners*
0 $1 Rounding radius*
0 $2 $3 $4 $5 $6 $7 $8 $9 X,Y pos of 4 corners*
0 Add a 4 corners polygon primitive as box body*
4,1,4,$2,$3,$4,$5,$6,$7,$8,$9,$2,$3,0*
0 Add four circle primitives for the rounded corners*
1,1,$1+$1,$2,$3*
1,1,$1+$1,$4,$5*
1,1,$1+$1,$6,$7*
1,1,$1+$1,$8,$9*
0 Add four rect primitives between the rounded corners*
20,1,$1+$1,$2,$3,$4,$5,0*
20,1,$1+$1,$4,$5,$6,$7,0*
20,1,$1+$1,$6,$7,$8,$9,0*
20,1,$1+$1,$8,$9,$2,$3,0*%
G04 Aperture macros list end*
%ADD10C,0.150000*%
%ADD11C,0.120000*%
%ADD12RoundRect,0.250000X-0.600000X-0.725000X0.600000X-0.725000X0.600000X0.725000X-0.600000X0.725000X0*%
%ADD13O,1.700000X1.950000*%
%ADD14R,1.700000X1.700000*%
%ADD15O,1.700000X1.700000*%
%ADD16R,1.275000X1.800000*%
%ADD17O,1.275000X1.800000*%
%ADD18R,2.000000X2.000000*%
%ADD19C,2.000000*%
%ADD20RoundRect,1.500000X1.500000X-1.500000X1.500000X1.500000X-1.500000X1.500000X-1.500000X-1.500000X0*%
%ADD21C,6.000000*%
%ADD22R,1.905000X2.000000*%
%ADD23O,1.905000X2.000000*%
%ADD24C,6.400000*%
%ADD25RoundRect,0.250000X-0.650000X0.412500X-0.650000X-0.412500X0.650000X-0.412500X0.650000X0.412500X0*%
%ADD26R,2.000000X1.500000*%
%ADD27R,2.000000X3.800000*%
%ADD28RoundRect,0.250000X-0.925000X0.875000X-0.925000X-0.875000X0.925000X-0.875000X0.925000X0.875000X0*%
G04 APERTURE END LIST*
D10*
X216357142Y-116107142D02*
X216404761Y-116059523D01*
X216452380Y-115916666D01*
X216452380Y-115821428D01*
X216404761Y-115678571D01*
X216309523Y-115583333D01*
X216214285Y-115535714D01*
X216023809Y-115488095D01*
X215880952Y-115488095D01*
X215690476Y-115535714D01*
X215595238Y-115583333D01*
X215500000Y-115678571D01*
X215452380Y-115821428D01*
X215452380Y-115916666D01*
X215500000Y-116059523D01*
X215547619Y-116107142D01*
X216452380Y-117059523D02*
X216452380Y-116488095D01*
X216452380Y-116773809D02*
X215452380Y-116773809D01*
X215595238Y-116678571D01*
X215690476Y-116583333D01*
X215738095Y-116488095D01*
X215785714Y-117916666D02*
X216452380Y-117916666D01*
X215404761Y-117678571D02*
X216119047Y-117440476D01*
X216119047Y-118059523D01*
X227011904Y-116096380D02*
X227011904Y-116905904D01*
X226964285Y-117001142D01*
X226916666Y-117048761D01*
X226821428Y-117096380D01*
X226630952Y-117096380D01*
X226535714Y-117048761D01*
X226488095Y-117001142D01*
X226440476Y-116905904D01*
X226440476Y-116096380D01*
X225535714Y-116429714D02*
X225535714Y-117096380D01*
X225773809Y-116048761D02*
X226011904Y-116763047D01*
X225392857Y-116763047D01*
X220607142Y-115583333D02*
X220654761Y-115535714D01*
X220702380Y-115392857D01*
X220702380Y-115297619D01*
X220654761Y-115154761D01*
X220559523Y-115059523D01*
X220464285Y-115011904D01*
X220273809Y-114964285D01*
X220130952Y-114964285D01*
X219940476Y-115011904D01*
X219845238Y-115059523D01*
X219750000Y-115154761D01*
X219702380Y-115297619D01*
X219702380Y-115392857D01*
X219750000Y-115535714D01*
X219797619Y-115583333D01*
X219702380Y-115916666D02*
X219702380Y-116583333D01*
X220702380Y-116154761D01*
X233607142Y-117461333D02*
X233654761Y-117413714D01*
X233702380Y-117270857D01*
X233702380Y-117175619D01*
X233654761Y-117032761D01*
X233559523Y-116937523D01*
X233464285Y-116889904D01*
X233273809Y-116842285D01*
X233130952Y-116842285D01*
X232940476Y-116889904D01*
X232845238Y-116937523D01*
X232750000Y-117032761D01*
X232702380Y-117175619D01*
X232702380Y-117270857D01*
X232750000Y-117413714D01*
X232797619Y-117461333D01*
X233702380Y-117937523D02*
X233702380Y-118128000D01*
X233654761Y-118223238D01*
X233607142Y-118270857D01*
X233464285Y-118366095D01*
X233273809Y-118413714D01*
X232892857Y-118413714D01*
X232797619Y-118366095D01*
X232750000Y-118318476D01*
X232702380Y-118223238D01*
X232702380Y-118032761D01*
X232750000Y-117937523D01*
X232797619Y-117889904D01*
X232892857Y-117842285D01*
X233130952Y-117842285D01*
X233226190Y-117889904D01*
X233273809Y-117937523D01*
X233321428Y-118032761D01*
X233321428Y-118223238D01*
X233273809Y-118318476D01*
X233226190Y-118366095D01*
X233130952Y-118413714D01*
D11*
X216910000Y-120288748D02*
X216910000Y-121711252D01*
X215090000Y-120288748D02*
X215090000Y-121711252D01*
X224750000Y-117590000D02*
X228510000Y-117590000D01*
X228510000Y-124410000D02*
X228510000Y-123150000D01*
X228510000Y-117590000D02*
X228510000Y-118850000D01*
X222500000Y-124410000D02*
X228510000Y-124410000D01*
X217540000Y-117065000D02*
X220960000Y-117065000D01*
X217540000Y-124000000D02*
X217540000Y-117065000D01*
X220960000Y-117065000D02*
X220960000Y-124000000D01*
X234160000Y-120788748D02*
X234160000Y-122211252D01*
X232340000Y-120788748D02*
X232340000Y-122211252D01*
%LPC*%
D12*
X215500000Y-127075000D03*
D13*
X218000000Y-127075000D03*
X220500000Y-127075000D03*
D14*
X213058000Y-107696000D03*
D15*
X213058000Y-110236000D03*
X213058000Y-112776000D03*
X213058000Y-115316000D03*
X213058000Y-117856000D03*
X213058000Y-120396000D03*
D16*
X191100000Y-103945000D03*
D17*
X192800000Y-103945000D03*
X194500000Y-103945000D03*
X196200000Y-103945000D03*
X197900000Y-103945000D03*
D18*
X199000000Y-113000000D03*
D19*
X194000000Y-113000000D03*
D20*
X171000000Y-113100000D03*
D21*
X171000000Y-105900000D03*
D14*
X204000000Y-107696000D03*
D15*
X204000000Y-110236000D03*
X204000000Y-112776000D03*
X204000000Y-115316000D03*
X204000000Y-117856000D03*
X204000000Y-120396000D03*
D18*
X182000000Y-103132323D03*
D19*
X182000000Y-108132323D03*
D12*
X228250000Y-127075000D03*
D13*
X230750000Y-127075000D03*
X233250000Y-127075000D03*
X235750000Y-127075000D03*
D22*
X181500000Y-128000000D03*
D23*
X178960000Y-128000000D03*
X176420000Y-128000000D03*
D24*
X169500000Y-128000000D03*
D12*
X243364000Y-127100000D03*
D13*
X245864000Y-127100000D03*
X248364000Y-127100000D03*
D25*
X216000000Y-119437500D03*
X216000000Y-122562500D03*
D26*
X223450000Y-123300000D03*
D27*
X229750000Y-121000000D03*
D26*
X223450000Y-121000000D03*
X223450000Y-118700000D03*
D28*
X219250000Y-118450000D03*
X219250000Y-123550000D03*
D25*
X233250000Y-119937500D03*
X233250000Y-123062500D03*
M02*
