M48
; DRILL file {KiCad 6.0.4-6f826c9f35~116~ubuntu20.04.1} date Mon 16 May 2022 06:11:29 BST
; FORMAT={-:-/ absolute / inch / decimal}
; #@! TF.CreationDate,2022-05-16T06:11:29+01:00
; #@! TF.GenerationSoftware,Kicad,Pcbnew,6.0.4-6f826c9f35~116~ubuntu20.04.1
; #@! TF.FileFunction,Plated,1,2,PTH
FMAT,2
INCH
; #@! TA.AperFunction,Plated,PTH,ViaDrill
T1C0.0157
; #@! TA.AperFunction,Plated,PTH,ComponentDrill
T2C0.0374
; #@! TA.AperFunction,Plated,PTH,ComponentDrill
T3C0.0394
; #@! TA.AperFunction,Plated,PTH,ComponentDrill
T4C0.0433
; #@! TA.AperFunction,Plated,PTH,ComponentDrill
T5C0.1260
; #@! TA.AperFunction,Plated,PTH,ComponentDrill
T6C0.1772
%
G90
G05
T1
X7.4409Y-5.0945
X7.5197Y-4.9843
X7.6772Y-4.8819
X7.7244Y-5.0394
X7.7362Y-4.8534
X7.811Y-5.0551
X7.8425Y-4.9843
X7.8504Y-4.7795
X7.8819Y-4.8661
X7.9724Y-4.577
X7.9724Y-4.7047
X7.9921Y-4.8425
X8.4843Y-4.3602
X8.5236Y-4.8228
X8.5512Y-4.1171
X8.5531Y-4.252
X8.5531Y-4.3209
X8.6122Y-4.4488
X8.655Y-4.252
X8.6711Y-4.3622
X8.7323Y-4.1142
X8.7402Y-4.5827
X8.8287Y-4.2224
X8.8681Y-4.252
X8.9272Y-4.2126
X8.9272Y-4.439
X8.9567Y-4.252
X8.9567Y-4.872
X9.0157Y-4.5768
X9.0748Y-4.1279
X9.2126Y-4.9409
X9.252Y-4.5768
X9.2717Y-4.439
X9.311Y-4.252
X9.3491Y-4.5558
X9.6457Y-4.3012
X9.7047Y-4.2421
X9.7835Y-4.3504
X9.8425Y-4.2717
X9.8524Y-4.7539
T2
X8.4843Y-5.003
X8.5827Y-5.003
X8.6811Y-5.003
X8.9862Y-5.003
X9.0846Y-5.003
X9.1831Y-5.003
X9.2815Y-5.003
X9.5813Y-5.0039
X9.6797Y-5.0039
X9.7781Y-5.0039
T3
X7.1654Y-4.0603
X7.1654Y-4.2572
X7.6378Y-4.4488
X7.8346Y-4.4488
X8.0315Y-4.24
X8.0315Y-4.34
X8.0315Y-4.44
X8.0315Y-4.54
X8.0315Y-4.64
X8.0315Y-4.74
X8.3881Y-4.24
X8.3881Y-4.34
X8.3881Y-4.44
X8.3881Y-4.54
X8.3881Y-4.64
X8.3881Y-4.74
T4
X6.9457Y-5.0394
X7.0457Y-5.0394
X7.1457Y-5.0394
X7.5236Y-4.0923
X7.5906Y-4.0923
X7.6575Y-4.0923
X7.7244Y-4.0923
X7.7913Y-4.0923
T5
X6.6732Y-5.0394
T6
X6.7323Y-4.1693
X6.7323Y-4.4528
T0
M30
