G04 #@! TF.GenerationSoftware,KiCad,Pcbnew,6.0.1-79c1e3a40b~116~ubuntu20.04.1*
G04 #@! TF.CreationDate,2022-04-23T14:55:23+01:00*
G04 #@! TF.ProjectId,batmon,6261746d-6f6e-42e6-9b69-6361645f7063,3.1*
G04 #@! TF.SameCoordinates,Original*
G04 #@! TF.FileFunction,Legend,Top*
G04 #@! TF.FilePolarity,Positive*
%FSLAX46Y46*%
G04 Gerber Fmt 4.6, Leading zero omitted, Abs format (unit mm)*
G04 Created by KiCad (PCBNEW 6.0.1-79c1e3a40b~116~ubuntu20.04.1) date 2022-04-23 14:55:23*
%MOMM*%
%LPD*%
G01*
G04 APERTURE LIST*
G04 Aperture macros list*
%AMRoundRect*
0 Rectangle with rounded corners*
0 $1 Rounding radius*
0 $2 $3 $4 $5 $6 $7 $8 $9 X,Y pos of 4 corners*
0 Add a 4 corners polygon primitive as box body*
4,1,4,$2,$3,$4,$5,$6,$7,$8,$9,$2,$3,0*
0 Add four circle primitives for the rounded corners*
1,1,$1+$1,$2,$3*
1,1,$1+$1,$4,$5*
1,1,$1+$1,$6,$7*
1,1,$1+$1,$8,$9*
0 Add four rect primitives between the rounded corners*
20,1,$1+$1,$2,$3,$4,$5,0*
20,1,$1+$1,$4,$5,$6,$7,0*
20,1,$1+$1,$6,$7,$8,$9,0*
20,1,$1+$1,$8,$9,$2,$3,0*%
G04 Aperture macros list end*
%ADD10C,0.150000*%
%ADD11C,0.300000*%
%ADD12C,0.120000*%
%ADD13RoundRect,0.237500X-0.300000X-0.237500X0.300000X-0.237500X0.300000X0.237500X-0.300000X0.237500X0*%
%ADD14RoundRect,0.237500X0.250000X0.237500X-0.250000X0.237500X-0.250000X-0.237500X0.250000X-0.237500X0*%
%ADD15RoundRect,0.237500X-0.237500X0.250000X-0.237500X-0.250000X0.237500X-0.250000X0.237500X0.250000X0*%
%ADD16RoundRect,0.250000X-0.600000X-0.725000X0.600000X-0.725000X0.600000X0.725000X-0.600000X0.725000X0*%
%ADD17O,1.700000X1.950000*%
%ADD18RoundRect,0.237500X-0.250000X-0.237500X0.250000X-0.237500X0.250000X0.237500X-0.250000X0.237500X0*%
%ADD19RoundRect,0.150000X0.587500X0.150000X-0.587500X0.150000X-0.587500X-0.150000X0.587500X-0.150000X0*%
%ADD20R,1.700000X1.700000*%
%ADD21O,1.700000X1.700000*%
%ADD22RoundRect,0.150000X0.150000X-0.587500X0.150000X0.587500X-0.150000X0.587500X-0.150000X-0.587500X0*%
%ADD23R,1.275000X1.800000*%
%ADD24O,1.275000X1.800000*%
%ADD25RoundRect,0.237500X-0.237500X0.300000X-0.237500X-0.300000X0.237500X-0.300000X0.237500X0.300000X0*%
%ADD26R,2.000000X2.000000*%
%ADD27C,2.000000*%
%ADD28R,0.900000X2.000000*%
%ADD29R,2.000000X0.900000*%
%ADD30R,5.000000X5.000000*%
%ADD31RoundRect,0.237500X0.300000X0.237500X-0.300000X0.237500X-0.300000X-0.237500X0.300000X-0.237500X0*%
%ADD32R,1.800000X1.500000*%
%ADD33RoundRect,0.250000X0.625000X-0.400000X0.625000X0.400000X-0.625000X0.400000X-0.625000X-0.400000X0*%
%ADD34RoundRect,1.500000X1.500000X-1.500000X1.500000X1.500000X-1.500000X1.500000X-1.500000X-1.500000X0*%
%ADD35C,6.000000*%
%ADD36RoundRect,0.237500X0.237500X-0.250000X0.237500X0.250000X-0.237500X0.250000X-0.237500X-0.250000X0*%
%ADD37R,3.000000X2.800000*%
%ADD38R,1.100000X0.250000*%
%ADD39RoundRect,0.237500X0.237500X-0.300000X0.237500X0.300000X-0.237500X0.300000X-0.237500X-0.300000X0*%
%ADD40R,3.000000X3.000000*%
%ADD41R,0.650000X1.220000*%
%ADD42R,1.905000X2.000000*%
%ADD43O,1.905000X2.000000*%
%ADD44R,2.700000X1.500000*%
%ADD45C,6.400000*%
%ADD46RoundRect,0.250001X-0.462499X-0.624999X0.462499X-0.624999X0.462499X0.624999X-0.462499X0.624999X0*%
G04 APERTURE END LIST*
D10*
X234107142Y-131952380D02*
X233630952Y-131952380D01*
X233630952Y-130952380D01*
X234440476Y-131428571D02*
X234773809Y-131428571D01*
X234916666Y-131952380D02*
X234440476Y-131952380D01*
X234440476Y-130952380D01*
X234916666Y-130952380D01*
X235345238Y-131952380D02*
X235345238Y-130952380D01*
X235583333Y-130952380D01*
X235726190Y-131000000D01*
X235821428Y-131095238D01*
X235869047Y-131190476D01*
X235916666Y-131380952D01*
X235916666Y-131523809D01*
X235869047Y-131714285D01*
X235821428Y-131809523D01*
X235726190Y-131904761D01*
X235583333Y-131952380D01*
X235345238Y-131952380D01*
D11*
X224500000Y-115178571D02*
X224857142Y-116678571D01*
X225142857Y-115607142D01*
X225428571Y-116678571D01*
X225785714Y-115178571D01*
X226357142Y-116678571D02*
X226357142Y-115678571D01*
X226357142Y-115178571D02*
X226285714Y-115250000D01*
X226357142Y-115321428D01*
X226428571Y-115250000D01*
X226357142Y-115178571D01*
X226357142Y-115321428D01*
X227571428Y-115892857D02*
X227071428Y-115892857D01*
X227071428Y-116678571D02*
X227071428Y-115178571D01*
X227785714Y-115178571D01*
X228357142Y-116678571D02*
X228357142Y-115678571D01*
X228357142Y-115178571D02*
X228285714Y-115250000D01*
X228357142Y-115321428D01*
X228428571Y-115250000D01*
X228357142Y-115178571D01*
X228357142Y-115321428D01*
D10*
X228142857Y-131904761D02*
X228285714Y-131952380D01*
X228523809Y-131952380D01*
X228619047Y-131904761D01*
X228666666Y-131857142D01*
X228714285Y-131761904D01*
X228714285Y-131666666D01*
X228666666Y-131571428D01*
X228619047Y-131523809D01*
X228523809Y-131476190D01*
X228333333Y-131428571D01*
X228238095Y-131380952D01*
X228190476Y-131333333D01*
X228142857Y-131238095D01*
X228142857Y-131142857D01*
X228190476Y-131047619D01*
X228238095Y-131000000D01*
X228333333Y-130952380D01*
X228571428Y-130952380D01*
X228714285Y-131000000D01*
X229047619Y-130952380D02*
X229285714Y-131952380D01*
X229476190Y-131238095D01*
X229666666Y-131952380D01*
X229904761Y-130952380D01*
D11*
X231049999Y-102135714D02*
X230978571Y-102207142D01*
X230764285Y-102278571D01*
X230621428Y-102278571D01*
X230407142Y-102207142D01*
X230264285Y-102064285D01*
X230192857Y-101921428D01*
X230121428Y-101635714D01*
X230121428Y-101421428D01*
X230192857Y-101135714D01*
X230264285Y-100992857D01*
X230407142Y-100850000D01*
X230621428Y-100778571D01*
X230764285Y-100778571D01*
X230978571Y-100850000D01*
X231049999Y-100921428D01*
X231549999Y-100778571D02*
X231907142Y-102278571D01*
X232192857Y-101207142D01*
X232478571Y-102278571D01*
X232835714Y-100778571D01*
X233335714Y-102207142D02*
X233549999Y-102278571D01*
X233907142Y-102278571D01*
X234049999Y-102207142D01*
X234121428Y-102135714D01*
X234192857Y-101992857D01*
X234192857Y-101850000D01*
X234121428Y-101707142D01*
X234049999Y-101635714D01*
X233907142Y-101564285D01*
X233621428Y-101492857D01*
X233478571Y-101421428D01*
X233407142Y-101350000D01*
X233335714Y-101207142D01*
X233335714Y-101064285D01*
X233407142Y-100921428D01*
X233478571Y-100850000D01*
X233621428Y-100778571D01*
X233978571Y-100778571D01*
X234192857Y-100850000D01*
X234835714Y-102135714D02*
X234907142Y-102207142D01*
X234835714Y-102278571D01*
X234764285Y-102207142D01*
X234835714Y-102135714D01*
X234835714Y-102278571D01*
X234835714Y-101350000D02*
X234907142Y-101421428D01*
X234835714Y-101492857D01*
X234764285Y-101421428D01*
X234835714Y-101350000D01*
X234835714Y-101492857D01*
X237192857Y-101492857D02*
X237407142Y-101564285D01*
X237478571Y-101635714D01*
X237549999Y-101778571D01*
X237549999Y-101992857D01*
X237478571Y-102135714D01*
X237407142Y-102207142D01*
X237264285Y-102278571D01*
X236692857Y-102278571D01*
X236692857Y-100778571D01*
X237192857Y-100778571D01*
X237335714Y-100850000D01*
X237407142Y-100921428D01*
X237478571Y-101064285D01*
X237478571Y-101207142D01*
X237407142Y-101350000D01*
X237335714Y-101421428D01*
X237192857Y-101492857D01*
X236692857Y-101492857D01*
X238835714Y-102278571D02*
X238835714Y-101492857D01*
X238764285Y-101350000D01*
X238621428Y-101278571D01*
X238335714Y-101278571D01*
X238192857Y-101350000D01*
X238835714Y-102207142D02*
X238692857Y-102278571D01*
X238335714Y-102278571D01*
X238192857Y-102207142D01*
X238121428Y-102064285D01*
X238121428Y-101921428D01*
X238192857Y-101778571D01*
X238335714Y-101707142D01*
X238692857Y-101707142D01*
X238835714Y-101635714D01*
X239335714Y-101278571D02*
X239907142Y-101278571D01*
X239549999Y-100778571D02*
X239549999Y-102064285D01*
X239621428Y-102207142D01*
X239764285Y-102278571D01*
X239907142Y-102278571D01*
X240407142Y-102278571D02*
X240407142Y-101278571D01*
X240407142Y-101421428D02*
X240478571Y-101350000D01*
X240621428Y-101278571D01*
X240835714Y-101278571D01*
X240978571Y-101350000D01*
X241049999Y-101492857D01*
X241049999Y-102278571D01*
X241049999Y-101492857D02*
X241121428Y-101350000D01*
X241264285Y-101278571D01*
X241478571Y-101278571D01*
X241621428Y-101350000D01*
X241692857Y-101492857D01*
X241692857Y-102278571D01*
X242621428Y-102278571D02*
X242478571Y-102207142D01*
X242407142Y-102135714D01*
X242335714Y-101992857D01*
X242335714Y-101564285D01*
X242407142Y-101421428D01*
X242478571Y-101350000D01*
X242621428Y-101278571D01*
X242835714Y-101278571D01*
X242978571Y-101350000D01*
X243049999Y-101421428D01*
X243121428Y-101564285D01*
X243121428Y-101992857D01*
X243049999Y-102135714D01*
X242978571Y-102207142D01*
X242835714Y-102278571D01*
X242621428Y-102278571D01*
X243764285Y-101278571D02*
X243764285Y-102278571D01*
X243764285Y-101421428D02*
X243835714Y-101350000D01*
X243978571Y-101278571D01*
X244192857Y-101278571D01*
X244335714Y-101350000D01*
X244407142Y-101492857D01*
X244407142Y-102278571D01*
X246049999Y-100778571D02*
X246549999Y-102278571D01*
X247049999Y-100778571D01*
X247407142Y-100778571D02*
X248335714Y-100778571D01*
X247835714Y-101350000D01*
X248049999Y-101350000D01*
X248192857Y-101421428D01*
X248264285Y-101492857D01*
X248335714Y-101635714D01*
X248335714Y-101992857D01*
X248264285Y-102135714D01*
X248192857Y-102207142D01*
X248049999Y-102278571D01*
X247621428Y-102278571D01*
X247478571Y-102207142D01*
X247407142Y-102135714D01*
X248978571Y-102135714D02*
X249049999Y-102207142D01*
X248978571Y-102278571D01*
X248907142Y-102207142D01*
X248978571Y-102135714D01*
X248978571Y-102278571D01*
X250478571Y-102278571D02*
X249621428Y-102278571D01*
X250049999Y-102278571D02*
X250049999Y-100778571D01*
X249907142Y-100992857D01*
X249764285Y-101135714D01*
X249621428Y-101207142D01*
X177035714Y-115642857D02*
X177107142Y-115714285D01*
X177178571Y-115928571D01*
X177178571Y-116071428D01*
X177107142Y-116285714D01*
X176964285Y-116428571D01*
X176821428Y-116500000D01*
X176535714Y-116571428D01*
X176321428Y-116571428D01*
X176035714Y-116500000D01*
X175892857Y-116428571D01*
X175750000Y-116285714D01*
X175678571Y-116071428D01*
X175678571Y-115928571D01*
X175750000Y-115714285D01*
X175821428Y-115642857D01*
X177178571Y-115000000D02*
X175678571Y-115000000D01*
X177178571Y-114357142D02*
X176392857Y-114357142D01*
X176250000Y-114428571D01*
X176178571Y-114571428D01*
X176178571Y-114785714D01*
X176250000Y-114928571D01*
X176321428Y-115000000D01*
X177178571Y-113000000D02*
X176392857Y-113000000D01*
X176250000Y-113071428D01*
X176178571Y-113214285D01*
X176178571Y-113500000D01*
X176250000Y-113642857D01*
X177107142Y-113000000D02*
X177178571Y-113142857D01*
X177178571Y-113500000D01*
X177107142Y-113642857D01*
X176964285Y-113714285D01*
X176821428Y-113714285D01*
X176678571Y-113642857D01*
X176607142Y-113500000D01*
X176607142Y-113142857D01*
X176535714Y-113000000D01*
X177178571Y-112285714D02*
X176178571Y-112285714D01*
X176464285Y-112285714D02*
X176321428Y-112214285D01*
X176250000Y-112142857D01*
X176178571Y-112000000D01*
X176178571Y-111857142D01*
X176178571Y-110714285D02*
X177392857Y-110714285D01*
X177535714Y-110785714D01*
X177607142Y-110857142D01*
X177678571Y-111000000D01*
X177678571Y-111214285D01*
X177607142Y-111357142D01*
X177107142Y-110714285D02*
X177178571Y-110857142D01*
X177178571Y-111142857D01*
X177107142Y-111285714D01*
X177035714Y-111357142D01*
X176892857Y-111428571D01*
X176464285Y-111428571D01*
X176321428Y-111357142D01*
X176250000Y-111285714D01*
X176178571Y-111142857D01*
X176178571Y-110857142D01*
X176250000Y-110714285D01*
X177107142Y-109428571D02*
X177178571Y-109571428D01*
X177178571Y-109857142D01*
X177107142Y-110000000D01*
X176964285Y-110071428D01*
X176392857Y-110071428D01*
X176250000Y-110000000D01*
X176178571Y-109857142D01*
X176178571Y-109571428D01*
X176250000Y-109428571D01*
X176392857Y-109357142D01*
X176535714Y-109357142D01*
X176678571Y-110071428D01*
X177178571Y-108714285D02*
X176178571Y-108714285D01*
X176464285Y-108714285D02*
X176321428Y-108642857D01*
X176250000Y-108571428D01*
X176178571Y-108428571D01*
X176178571Y-108285714D01*
D10*
X215011904Y-131952380D02*
X215011904Y-130952380D01*
X215345238Y-131666666D01*
X215678571Y-130952380D01*
X215678571Y-131952380D01*
X216726190Y-131857142D02*
X216678571Y-131904761D01*
X216535714Y-131952380D01*
X216440476Y-131952380D01*
X216297619Y-131904761D01*
X216202380Y-131809523D01*
X216154761Y-131714285D01*
X216107142Y-131523809D01*
X216107142Y-131380952D01*
X216154761Y-131190476D01*
X216202380Y-131095238D01*
X216297619Y-131000000D01*
X216440476Y-130952380D01*
X216535714Y-130952380D01*
X216678571Y-131000000D01*
X216726190Y-131047619D01*
X217154761Y-131952380D02*
X217154761Y-130952380D01*
X217535714Y-130952380D01*
X217630952Y-131000000D01*
X217678571Y-131047619D01*
X217726190Y-131142857D01*
X217726190Y-131285714D01*
X217678571Y-131380952D01*
X217630952Y-131428571D01*
X217535714Y-131476190D01*
X217154761Y-131476190D01*
X218202380Y-131952380D02*
X218392857Y-131952380D01*
X218488095Y-131904761D01*
X218535714Y-131857142D01*
X218630952Y-131714285D01*
X218678571Y-131523809D01*
X218678571Y-131142857D01*
X218630952Y-131047619D01*
X218583333Y-131000000D01*
X218488095Y-130952380D01*
X218297619Y-130952380D01*
X218202380Y-131000000D01*
X218154761Y-131047619D01*
X218107142Y-131142857D01*
X218107142Y-131380952D01*
X218154761Y-131476190D01*
X218202380Y-131523809D01*
X218297619Y-131571428D01*
X218488095Y-131571428D01*
X218583333Y-131523809D01*
X218630952Y-131476190D01*
X218678571Y-131380952D01*
X219011904Y-130952380D02*
X219678571Y-130952380D01*
X219250000Y-131952380D01*
X220250000Y-130952380D02*
X220345238Y-130952380D01*
X220440476Y-131000000D01*
X220488095Y-131047619D01*
X220535714Y-131142857D01*
X220583333Y-131333333D01*
X220583333Y-131571428D01*
X220535714Y-131761904D01*
X220488095Y-131857142D01*
X220440476Y-131904761D01*
X220345238Y-131952380D01*
X220250000Y-131952380D01*
X220154761Y-131904761D01*
X220107142Y-131857142D01*
X220059523Y-131761904D01*
X220011904Y-131571428D01*
X220011904Y-131333333D01*
X220059523Y-131142857D01*
X220107142Y-131047619D01*
X220154761Y-131000000D01*
X220250000Y-130952380D01*
X221202380Y-130952380D02*
X221297619Y-130952380D01*
X221392857Y-131000000D01*
X221440476Y-131047619D01*
X221488095Y-131142857D01*
X221535714Y-131333333D01*
X221535714Y-131571428D01*
X221488095Y-131761904D01*
X221440476Y-131857142D01*
X221392857Y-131904761D01*
X221297619Y-131952380D01*
X221202380Y-131952380D01*
X221107142Y-131904761D01*
X221059523Y-131857142D01*
X221011904Y-131761904D01*
X220964285Y-131571428D01*
X220964285Y-131333333D01*
X221011904Y-131142857D01*
X221059523Y-131047619D01*
X221107142Y-131000000D01*
X221202380Y-130952380D01*
D11*
X224642857Y-104678571D02*
X224142857Y-103964285D01*
X223785714Y-104678571D02*
X223785714Y-103178571D01*
X224357142Y-103178571D01*
X224500000Y-103250000D01*
X224571428Y-103321428D01*
X224642857Y-103464285D01*
X224642857Y-103678571D01*
X224571428Y-103821428D01*
X224500000Y-103892857D01*
X224357142Y-103964285D01*
X223785714Y-103964285D01*
X225857142Y-104607142D02*
X225714285Y-104678571D01*
X225428571Y-104678571D01*
X225285714Y-104607142D01*
X225214285Y-104464285D01*
X225214285Y-103892857D01*
X225285714Y-103750000D01*
X225428571Y-103678571D01*
X225714285Y-103678571D01*
X225857142Y-103750000D01*
X225928571Y-103892857D01*
X225928571Y-104035714D01*
X225214285Y-104178571D01*
X226500000Y-104607142D02*
X226642857Y-104678571D01*
X226928571Y-104678571D01*
X227071428Y-104607142D01*
X227142857Y-104464285D01*
X227142857Y-104392857D01*
X227071428Y-104250000D01*
X226928571Y-104178571D01*
X226714285Y-104178571D01*
X226571428Y-104107142D01*
X226500000Y-103964285D01*
X226500000Y-103892857D01*
X226571428Y-103750000D01*
X226714285Y-103678571D01*
X226928571Y-103678571D01*
X227071428Y-103750000D01*
X228357142Y-104607142D02*
X228214285Y-104678571D01*
X227928571Y-104678571D01*
X227785714Y-104607142D01*
X227714285Y-104464285D01*
X227714285Y-103892857D01*
X227785714Y-103750000D01*
X227928571Y-103678571D01*
X228214285Y-103678571D01*
X228357142Y-103750000D01*
X228428571Y-103892857D01*
X228428571Y-104035714D01*
X227714285Y-104178571D01*
X228857142Y-103678571D02*
X229428571Y-103678571D01*
X229071428Y-103178571D02*
X229071428Y-104464285D01*
X229142857Y-104607142D01*
X229285714Y-104678571D01*
X229428571Y-104678571D01*
D10*
X243773809Y-131904761D02*
X243916666Y-131952380D01*
X244154761Y-131952380D01*
X244250000Y-131904761D01*
X244297619Y-131857142D01*
X244345238Y-131761904D01*
X244345238Y-131666666D01*
X244297619Y-131571428D01*
X244250000Y-131523809D01*
X244154761Y-131476190D01*
X243964285Y-131428571D01*
X243869047Y-131380952D01*
X243821428Y-131333333D01*
X243773809Y-131238095D01*
X243773809Y-131142857D01*
X243821428Y-131047619D01*
X243869047Y-131000000D01*
X243964285Y-130952380D01*
X244202380Y-130952380D01*
X244345238Y-131000000D01*
X245154761Y-131904761D02*
X245059523Y-131952380D01*
X244869047Y-131952380D01*
X244773809Y-131904761D01*
X244726190Y-131809523D01*
X244726190Y-131428571D01*
X244773809Y-131333333D01*
X244869047Y-131285714D01*
X245059523Y-131285714D01*
X245154761Y-131333333D01*
X245202380Y-131428571D01*
X245202380Y-131523809D01*
X244726190Y-131619047D01*
X245630952Y-131952380D02*
X245630952Y-131285714D01*
X245630952Y-131476190D02*
X245678571Y-131380952D01*
X245726190Y-131333333D01*
X245821428Y-131285714D01*
X245916666Y-131285714D01*
X246250000Y-131952380D02*
X246250000Y-131285714D01*
X246250000Y-130952380D02*
X246202380Y-131000000D01*
X246250000Y-131047619D01*
X246297619Y-131000000D01*
X246250000Y-130952380D01*
X246250000Y-131047619D01*
X247154761Y-131952380D02*
X247154761Y-131428571D01*
X247107142Y-131333333D01*
X247011904Y-131285714D01*
X246821428Y-131285714D01*
X246726190Y-131333333D01*
X247154761Y-131904761D02*
X247059523Y-131952380D01*
X246821428Y-131952380D01*
X246726190Y-131904761D01*
X246678571Y-131809523D01*
X246678571Y-131714285D01*
X246726190Y-131619047D01*
X246821428Y-131571428D01*
X247059523Y-131571428D01*
X247154761Y-131523809D01*
X247773809Y-131952380D02*
X247678571Y-131904761D01*
X247630952Y-131809523D01*
X247630952Y-130952380D01*
X219057142Y-103427142D02*
X219009523Y-103474761D01*
X218866666Y-103522380D01*
X218771428Y-103522380D01*
X218628571Y-103474761D01*
X218533333Y-103379523D01*
X218485714Y-103284285D01*
X218438095Y-103093809D01*
X218438095Y-102950952D01*
X218485714Y-102760476D01*
X218533333Y-102665238D01*
X218628571Y-102570000D01*
X218771428Y-102522380D01*
X218866666Y-102522380D01*
X219009523Y-102570000D01*
X219057142Y-102617619D01*
X220009523Y-103522380D02*
X219438095Y-103522380D01*
X219723809Y-103522380D02*
X219723809Y-102522380D01*
X219628571Y-102665238D01*
X219533333Y-102760476D01*
X219438095Y-102808095D01*
X220866666Y-102522380D02*
X220676190Y-102522380D01*
X220580952Y-102570000D01*
X220533333Y-102617619D01*
X220438095Y-102760476D01*
X220390476Y-102950952D01*
X220390476Y-103331904D01*
X220438095Y-103427142D01*
X220485714Y-103474761D01*
X220580952Y-103522380D01*
X220771428Y-103522380D01*
X220866666Y-103474761D01*
X220914285Y-103427142D01*
X220961904Y-103331904D01*
X220961904Y-103093809D01*
X220914285Y-102998571D01*
X220866666Y-102950952D01*
X220771428Y-102903333D01*
X220580952Y-102903333D01*
X220485714Y-102950952D01*
X220438095Y-102998571D01*
X220390476Y-103093809D01*
X200833333Y-108452380D02*
X200500000Y-107976190D01*
X200261904Y-108452380D02*
X200261904Y-107452380D01*
X200642857Y-107452380D01*
X200738095Y-107500000D01*
X200785714Y-107547619D01*
X200833333Y-107642857D01*
X200833333Y-107785714D01*
X200785714Y-107880952D01*
X200738095Y-107928571D01*
X200642857Y-107976190D01*
X200261904Y-107976190D01*
X201785714Y-108452380D02*
X201214285Y-108452380D01*
X201500000Y-108452380D02*
X201500000Y-107452380D01*
X201404761Y-107595238D01*
X201309523Y-107690476D01*
X201214285Y-107738095D01*
X200952380Y-103166666D02*
X200476190Y-103500000D01*
X200952380Y-103738095D02*
X199952380Y-103738095D01*
X199952380Y-103357142D01*
X200000000Y-103261904D01*
X200047619Y-103214285D01*
X200142857Y-103166666D01*
X200285714Y-103166666D01*
X200380952Y-103214285D01*
X200428571Y-103261904D01*
X200476190Y-103357142D01*
X200476190Y-103738095D01*
X199952380Y-102833333D02*
X199952380Y-102214285D01*
X200333333Y-102547619D01*
X200333333Y-102404761D01*
X200380952Y-102309523D01*
X200428571Y-102261904D01*
X200523809Y-102214285D01*
X200761904Y-102214285D01*
X200857142Y-102261904D01*
X200904761Y-102309523D01*
X200952380Y-102404761D01*
X200952380Y-102690476D01*
X200904761Y-102785714D01*
X200857142Y-102833333D01*
X246333333Y-104107142D02*
X246285714Y-104154761D01*
X246142857Y-104202380D01*
X246047619Y-104202380D01*
X245904761Y-104154761D01*
X245809523Y-104059523D01*
X245761904Y-103964285D01*
X245714285Y-103773809D01*
X245714285Y-103630952D01*
X245761904Y-103440476D01*
X245809523Y-103345238D01*
X245904761Y-103250000D01*
X246047619Y-103202380D01*
X246142857Y-103202380D01*
X246285714Y-103250000D01*
X246333333Y-103297619D01*
X246904761Y-103630952D02*
X246809523Y-103583333D01*
X246761904Y-103535714D01*
X246714285Y-103440476D01*
X246714285Y-103392857D01*
X246761904Y-103297619D01*
X246809523Y-103250000D01*
X246904761Y-103202380D01*
X247095238Y-103202380D01*
X247190476Y-103250000D01*
X247238095Y-103297619D01*
X247285714Y-103392857D01*
X247285714Y-103440476D01*
X247238095Y-103535714D01*
X247190476Y-103583333D01*
X247095238Y-103630952D01*
X246904761Y-103630952D01*
X246809523Y-103678571D01*
X246761904Y-103726190D01*
X246714285Y-103821428D01*
X246714285Y-104011904D01*
X246761904Y-104107142D01*
X246809523Y-104154761D01*
X246904761Y-104202380D01*
X247095238Y-104202380D01*
X247190476Y-104154761D01*
X247238095Y-104107142D01*
X247285714Y-104011904D01*
X247285714Y-103821428D01*
X247238095Y-103726190D01*
X247190476Y-103678571D01*
X247095238Y-103630952D01*
X211466666Y-126827380D02*
X211466666Y-127541666D01*
X211419047Y-127684523D01*
X211323809Y-127779761D01*
X211180952Y-127827380D01*
X211085714Y-127827380D01*
X211990476Y-127827380D02*
X212180952Y-127827380D01*
X212276190Y-127779761D01*
X212323809Y-127732142D01*
X212419047Y-127589285D01*
X212466666Y-127398809D01*
X212466666Y-127017857D01*
X212419047Y-126922619D01*
X212371428Y-126875000D01*
X212276190Y-126827380D01*
X212085714Y-126827380D01*
X211990476Y-126875000D01*
X211942857Y-126922619D01*
X211895238Y-127017857D01*
X211895238Y-127255952D01*
X211942857Y-127351190D01*
X211990476Y-127398809D01*
X212085714Y-127446428D01*
X212276190Y-127446428D01*
X212371428Y-127398809D01*
X212419047Y-127351190D01*
X212466666Y-127255952D01*
X216733333Y-106652380D02*
X216400000Y-106176190D01*
X216161904Y-106652380D02*
X216161904Y-105652380D01*
X216542857Y-105652380D01*
X216638095Y-105700000D01*
X216685714Y-105747619D01*
X216733333Y-105842857D01*
X216733333Y-105985714D01*
X216685714Y-106080952D01*
X216638095Y-106128571D01*
X216542857Y-106176190D01*
X216161904Y-106176190D01*
X217066666Y-105652380D02*
X217733333Y-105652380D01*
X217304761Y-106652380D01*
X224061904Y-121752380D02*
X224061904Y-120752380D01*
X224300000Y-120752380D01*
X224442857Y-120800000D01*
X224538095Y-120895238D01*
X224585714Y-120990476D01*
X224633333Y-121180952D01*
X224633333Y-121323809D01*
X224585714Y-121514285D01*
X224538095Y-121609523D01*
X224442857Y-121704761D01*
X224300000Y-121752380D01*
X224061904Y-121752380D01*
X225490476Y-121085714D02*
X225490476Y-121752380D01*
X225252380Y-120704761D02*
X225014285Y-121419047D01*
X225633333Y-121419047D01*
X212724666Y-104818380D02*
X212724666Y-105532666D01*
X212677047Y-105675523D01*
X212581809Y-105770761D01*
X212438952Y-105818380D01*
X212343714Y-105818380D01*
X213629428Y-104818380D02*
X213438952Y-104818380D01*
X213343714Y-104866000D01*
X213296095Y-104913619D01*
X213200857Y-105056476D01*
X213153238Y-105246952D01*
X213153238Y-105627904D01*
X213200857Y-105723142D01*
X213248476Y-105770761D01*
X213343714Y-105818380D01*
X213534190Y-105818380D01*
X213629428Y-105770761D01*
X213677047Y-105723142D01*
X213724666Y-105627904D01*
X213724666Y-105389809D01*
X213677047Y-105294571D01*
X213629428Y-105246952D01*
X213534190Y-105199333D01*
X213343714Y-105199333D01*
X213248476Y-105246952D01*
X213200857Y-105294571D01*
X213153238Y-105389809D01*
X218861904Y-118252380D02*
X218861904Y-117252380D01*
X219100000Y-117252380D01*
X219242857Y-117300000D01*
X219338095Y-117395238D01*
X219385714Y-117490476D01*
X219433333Y-117680952D01*
X219433333Y-117823809D01*
X219385714Y-118014285D01*
X219338095Y-118109523D01*
X219242857Y-118204761D01*
X219100000Y-118252380D01*
X218861904Y-118252380D01*
X220338095Y-117252380D02*
X219861904Y-117252380D01*
X219814285Y-117728571D01*
X219861904Y-117680952D01*
X219957142Y-117633333D01*
X220195238Y-117633333D01*
X220290476Y-117680952D01*
X220338095Y-117728571D01*
X220385714Y-117823809D01*
X220385714Y-118061904D01*
X220338095Y-118157142D01*
X220290476Y-118204761D01*
X220195238Y-118252380D01*
X219957142Y-118252380D01*
X219861904Y-118204761D01*
X219814285Y-118157142D01*
X187238095Y-101452380D02*
X187238095Y-102261904D01*
X187285714Y-102357142D01*
X187333333Y-102404761D01*
X187428571Y-102452380D01*
X187619047Y-102452380D01*
X187714285Y-102404761D01*
X187761904Y-102357142D01*
X187809523Y-102261904D01*
X187809523Y-101452380D01*
X188238095Y-101547619D02*
X188285714Y-101500000D01*
X188380952Y-101452380D01*
X188619047Y-101452380D01*
X188714285Y-101500000D01*
X188761904Y-101547619D01*
X188809523Y-101642857D01*
X188809523Y-101738095D01*
X188761904Y-101880952D01*
X188190476Y-102452380D01*
X188809523Y-102452380D01*
X191833333Y-108357142D02*
X191785714Y-108404761D01*
X191642857Y-108452380D01*
X191547619Y-108452380D01*
X191404761Y-108404761D01*
X191309523Y-108309523D01*
X191261904Y-108214285D01*
X191214285Y-108023809D01*
X191214285Y-107880952D01*
X191261904Y-107690476D01*
X191309523Y-107595238D01*
X191404761Y-107500000D01*
X191547619Y-107452380D01*
X191642857Y-107452380D01*
X191785714Y-107500000D01*
X191833333Y-107547619D01*
X192690476Y-107785714D02*
X192690476Y-108452380D01*
X192452380Y-107404761D02*
X192214285Y-108119047D01*
X192833333Y-108119047D01*
X232918095Y-103172380D02*
X232918095Y-103981904D01*
X232965714Y-104077142D01*
X233013333Y-104124761D01*
X233108571Y-104172380D01*
X233299047Y-104172380D01*
X233394285Y-104124761D01*
X233441904Y-104077142D01*
X233489523Y-103981904D01*
X233489523Y-103172380D01*
X233870476Y-103172380D02*
X234489523Y-103172380D01*
X234156190Y-103553333D01*
X234299047Y-103553333D01*
X234394285Y-103600952D01*
X234441904Y-103648571D01*
X234489523Y-103743809D01*
X234489523Y-103981904D01*
X234441904Y-104077142D01*
X234394285Y-104124761D01*
X234299047Y-104172380D01*
X234013333Y-104172380D01*
X233918095Y-104124761D01*
X233870476Y-104077142D01*
X195157142Y-123452380D02*
X194823809Y-122976190D01*
X194585714Y-123452380D02*
X194585714Y-122452380D01*
X194966666Y-122452380D01*
X195061904Y-122500000D01*
X195109523Y-122547619D01*
X195157142Y-122642857D01*
X195157142Y-122785714D01*
X195109523Y-122880952D01*
X195061904Y-122928571D01*
X194966666Y-122976190D01*
X194585714Y-122976190D01*
X196109523Y-123452380D02*
X195538095Y-123452380D01*
X195823809Y-123452380D02*
X195823809Y-122452380D01*
X195728571Y-122595238D01*
X195633333Y-122690476D01*
X195538095Y-122738095D01*
X196490476Y-122547619D02*
X196538095Y-122500000D01*
X196633333Y-122452380D01*
X196871428Y-122452380D01*
X196966666Y-122500000D01*
X197014285Y-122547619D01*
X197061904Y-122642857D01*
X197061904Y-122738095D01*
X197014285Y-122880952D01*
X196442857Y-123452380D01*
X197061904Y-123452380D01*
X220557142Y-116957142D02*
X220509523Y-117004761D01*
X220366666Y-117052380D01*
X220271428Y-117052380D01*
X220128571Y-117004761D01*
X220033333Y-116909523D01*
X219985714Y-116814285D01*
X219938095Y-116623809D01*
X219938095Y-116480952D01*
X219985714Y-116290476D01*
X220033333Y-116195238D01*
X220128571Y-116100000D01*
X220271428Y-116052380D01*
X220366666Y-116052380D01*
X220509523Y-116100000D01*
X220557142Y-116147619D01*
X221509523Y-117052380D02*
X220938095Y-117052380D01*
X221223809Y-117052380D02*
X221223809Y-116052380D01*
X221128571Y-116195238D01*
X221033333Y-116290476D01*
X220938095Y-116338095D01*
X222128571Y-116052380D02*
X222223809Y-116052380D01*
X222319047Y-116100000D01*
X222366666Y-116147619D01*
X222414285Y-116242857D01*
X222461904Y-116433333D01*
X222461904Y-116671428D01*
X222414285Y-116861904D01*
X222366666Y-116957142D01*
X222319047Y-117004761D01*
X222223809Y-117052380D01*
X222128571Y-117052380D01*
X222033333Y-117004761D01*
X221985714Y-116957142D01*
X221938095Y-116861904D01*
X221890476Y-116671428D01*
X221890476Y-116433333D01*
X221938095Y-116242857D01*
X221985714Y-116147619D01*
X222033333Y-116100000D01*
X222128571Y-116052380D01*
X189444642Y-123452380D02*
X189111309Y-122976190D01*
X188873214Y-123452380D02*
X188873214Y-122452380D01*
X189254166Y-122452380D01*
X189349404Y-122500000D01*
X189397023Y-122547619D01*
X189444642Y-122642857D01*
X189444642Y-122785714D01*
X189397023Y-122880952D01*
X189349404Y-122928571D01*
X189254166Y-122976190D01*
X188873214Y-122976190D01*
X190397023Y-123452380D02*
X189825595Y-123452380D01*
X190111309Y-123452380D02*
X190111309Y-122452380D01*
X190016071Y-122595238D01*
X189920833Y-122690476D01*
X189825595Y-122738095D01*
X190873214Y-123452380D02*
X191063690Y-123452380D01*
X191158928Y-123404761D01*
X191206547Y-123357142D01*
X191301785Y-123214285D01*
X191349404Y-123023809D01*
X191349404Y-122642857D01*
X191301785Y-122547619D01*
X191254166Y-122500000D01*
X191158928Y-122452380D01*
X190968452Y-122452380D01*
X190873214Y-122500000D01*
X190825595Y-122547619D01*
X190777976Y-122642857D01*
X190777976Y-122880952D01*
X190825595Y-122976190D01*
X190873214Y-123023809D01*
X190968452Y-123071428D01*
X191158928Y-123071428D01*
X191254166Y-123023809D01*
X191301785Y-122976190D01*
X191349404Y-122880952D01*
X225186666Y-107592761D02*
X225329523Y-107640380D01*
X225567619Y-107640380D01*
X225662857Y-107592761D01*
X225710476Y-107545142D01*
X225758095Y-107449904D01*
X225758095Y-107354666D01*
X225710476Y-107259428D01*
X225662857Y-107211809D01*
X225567619Y-107164190D01*
X225377142Y-107116571D01*
X225281904Y-107068952D01*
X225234285Y-107021333D01*
X225186666Y-106926095D01*
X225186666Y-106830857D01*
X225234285Y-106735619D01*
X225281904Y-106688000D01*
X225377142Y-106640380D01*
X225615238Y-106640380D01*
X225758095Y-106688000D01*
X226091428Y-106640380D02*
X226329523Y-107640380D01*
X226520000Y-106926095D01*
X226710476Y-107640380D01*
X226948571Y-106640380D01*
X227853333Y-107640380D02*
X227281904Y-107640380D01*
X227567619Y-107640380D02*
X227567619Y-106640380D01*
X227472380Y-106783238D01*
X227377142Y-106878476D01*
X227281904Y-106926095D01*
X165152380Y-109833333D02*
X165866666Y-109833333D01*
X166009523Y-109880952D01*
X166104761Y-109976190D01*
X166152380Y-110119047D01*
X166152380Y-110214285D01*
X166152380Y-108833333D02*
X166152380Y-109404761D01*
X166152380Y-109119047D02*
X165152380Y-109119047D01*
X165295238Y-109214285D01*
X165390476Y-109309523D01*
X165438095Y-109404761D01*
X175952380Y-123592857D02*
X175476190Y-123926190D01*
X175952380Y-124164285D02*
X174952380Y-124164285D01*
X174952380Y-123783333D01*
X175000000Y-123688095D01*
X175047619Y-123640476D01*
X175142857Y-123592857D01*
X175285714Y-123592857D01*
X175380952Y-123640476D01*
X175428571Y-123688095D01*
X175476190Y-123783333D01*
X175476190Y-124164285D01*
X175952380Y-122640476D02*
X175952380Y-123211904D01*
X175952380Y-122926190D02*
X174952380Y-122926190D01*
X175095238Y-123021428D01*
X175190476Y-123116666D01*
X175238095Y-123211904D01*
X175285714Y-121783333D02*
X175952380Y-121783333D01*
X174904761Y-122021428D02*
X175619047Y-122259523D01*
X175619047Y-121640476D01*
X185833333Y-131357142D02*
X185785714Y-131404761D01*
X185642857Y-131452380D01*
X185547619Y-131452380D01*
X185404761Y-131404761D01*
X185309523Y-131309523D01*
X185261904Y-131214285D01*
X185214285Y-131023809D01*
X185214285Y-130880952D01*
X185261904Y-130690476D01*
X185309523Y-130595238D01*
X185404761Y-130500000D01*
X185547619Y-130452380D01*
X185642857Y-130452380D01*
X185785714Y-130500000D01*
X185833333Y-130547619D01*
X186738095Y-130452380D02*
X186261904Y-130452380D01*
X186214285Y-130928571D01*
X186261904Y-130880952D01*
X186357142Y-130833333D01*
X186595238Y-130833333D01*
X186690476Y-130880952D01*
X186738095Y-130928571D01*
X186785714Y-131023809D01*
X186785714Y-131261904D01*
X186738095Y-131357142D01*
X186690476Y-131404761D01*
X186595238Y-131452380D01*
X186357142Y-131452380D01*
X186261904Y-131404761D01*
X186214285Y-131357142D01*
X167666666Y-121928571D02*
X167333333Y-121928571D01*
X167333333Y-122452380D02*
X167333333Y-121452380D01*
X167809523Y-121452380D01*
X168714285Y-122452380D02*
X168142857Y-122452380D01*
X168428571Y-122452380D02*
X168428571Y-121452380D01*
X168333333Y-121595238D01*
X168238095Y-121690476D01*
X168142857Y-121738095D01*
X203666666Y-104818380D02*
X203666666Y-105532666D01*
X203619047Y-105675523D01*
X203523809Y-105770761D01*
X203380952Y-105818380D01*
X203285714Y-105818380D01*
X204619047Y-104818380D02*
X204142857Y-104818380D01*
X204095238Y-105294571D01*
X204142857Y-105246952D01*
X204238095Y-105199333D01*
X204476190Y-105199333D01*
X204571428Y-105246952D01*
X204619047Y-105294571D01*
X204666666Y-105389809D01*
X204666666Y-105627904D01*
X204619047Y-105723142D01*
X204571428Y-105770761D01*
X204476190Y-105818380D01*
X204238095Y-105818380D01*
X204142857Y-105770761D01*
X204095238Y-105723142D01*
X217238095Y-111202380D02*
X217238095Y-112011904D01*
X217285714Y-112107142D01*
X217333333Y-112154761D01*
X217428571Y-112202380D01*
X217619047Y-112202380D01*
X217714285Y-112154761D01*
X217761904Y-112107142D01*
X217809523Y-112011904D01*
X217809523Y-111202380D01*
X218761904Y-111202380D02*
X218285714Y-111202380D01*
X218238095Y-111678571D01*
X218285714Y-111630952D01*
X218380952Y-111583333D01*
X218619047Y-111583333D01*
X218714285Y-111630952D01*
X218761904Y-111678571D01*
X218809523Y-111773809D01*
X218809523Y-112011904D01*
X218761904Y-112107142D01*
X218714285Y-112154761D01*
X218619047Y-112202380D01*
X218380952Y-112202380D01*
X218285714Y-112154761D01*
X218238095Y-112107142D01*
X192833333Y-121357142D02*
X192785714Y-121404761D01*
X192642857Y-121452380D01*
X192547619Y-121452380D01*
X192404761Y-121404761D01*
X192309523Y-121309523D01*
X192261904Y-121214285D01*
X192214285Y-121023809D01*
X192214285Y-120880952D01*
X192261904Y-120690476D01*
X192309523Y-120595238D01*
X192404761Y-120500000D01*
X192547619Y-120452380D01*
X192642857Y-120452380D01*
X192785714Y-120500000D01*
X192833333Y-120547619D01*
X193214285Y-120547619D02*
X193261904Y-120500000D01*
X193357142Y-120452380D01*
X193595238Y-120452380D01*
X193690476Y-120500000D01*
X193738095Y-120547619D01*
X193785714Y-120642857D01*
X193785714Y-120738095D01*
X193738095Y-120880952D01*
X193166666Y-121452380D01*
X193785714Y-121452380D01*
X225186666Y-113180761D02*
X225329523Y-113228380D01*
X225567619Y-113228380D01*
X225662857Y-113180761D01*
X225710476Y-113133142D01*
X225758095Y-113037904D01*
X225758095Y-112942666D01*
X225710476Y-112847428D01*
X225662857Y-112799809D01*
X225567619Y-112752190D01*
X225377142Y-112704571D01*
X225281904Y-112656952D01*
X225234285Y-112609333D01*
X225186666Y-112514095D01*
X225186666Y-112418857D01*
X225234285Y-112323619D01*
X225281904Y-112276000D01*
X225377142Y-112228380D01*
X225615238Y-112228380D01*
X225758095Y-112276000D01*
X226091428Y-112228380D02*
X226329523Y-113228380D01*
X226520000Y-112514095D01*
X226710476Y-113228380D01*
X226948571Y-112228380D01*
X227281904Y-112323619D02*
X227329523Y-112276000D01*
X227424761Y-112228380D01*
X227662857Y-112228380D01*
X227758095Y-112276000D01*
X227805714Y-112323619D01*
X227853333Y-112418857D01*
X227853333Y-112514095D01*
X227805714Y-112656952D01*
X227234285Y-113228380D01*
X227853333Y-113228380D01*
X176833333Y-101857142D02*
X176785714Y-101904761D01*
X176642857Y-101952380D01*
X176547619Y-101952380D01*
X176404761Y-101904761D01*
X176309523Y-101809523D01*
X176261904Y-101714285D01*
X176214285Y-101523809D01*
X176214285Y-101380952D01*
X176261904Y-101190476D01*
X176309523Y-101095238D01*
X176404761Y-101000000D01*
X176547619Y-100952380D01*
X176642857Y-100952380D01*
X176785714Y-101000000D01*
X176833333Y-101047619D01*
X177785714Y-101952380D02*
X177214285Y-101952380D01*
X177500000Y-101952380D02*
X177500000Y-100952380D01*
X177404761Y-101095238D01*
X177309523Y-101190476D01*
X177214285Y-101238095D01*
X223966666Y-127452380D02*
X223966666Y-128166666D01*
X223919047Y-128309523D01*
X223823809Y-128404761D01*
X223680952Y-128452380D01*
X223585714Y-128452380D01*
X224347619Y-127452380D02*
X225014285Y-127452380D01*
X224585714Y-128452380D01*
X205882380Y-103166666D02*
X205406190Y-103500000D01*
X205882380Y-103738095D02*
X204882380Y-103738095D01*
X204882380Y-103357142D01*
X204930000Y-103261904D01*
X204977619Y-103214285D01*
X205072857Y-103166666D01*
X205215714Y-103166666D01*
X205310952Y-103214285D01*
X205358571Y-103261904D01*
X205406190Y-103357142D01*
X205406190Y-103738095D01*
X205215714Y-102309523D02*
X205882380Y-102309523D01*
X204834761Y-102547619D02*
X205549047Y-102785714D01*
X205549047Y-102166666D01*
X189357142Y-129452380D02*
X189023809Y-128976190D01*
X188785714Y-129452380D02*
X188785714Y-128452380D01*
X189166666Y-128452380D01*
X189261904Y-128500000D01*
X189309523Y-128547619D01*
X189357142Y-128642857D01*
X189357142Y-128785714D01*
X189309523Y-128880952D01*
X189261904Y-128928571D01*
X189166666Y-128976190D01*
X188785714Y-128976190D01*
X189738095Y-128547619D02*
X189785714Y-128500000D01*
X189880952Y-128452380D01*
X190119047Y-128452380D01*
X190214285Y-128500000D01*
X190261904Y-128547619D01*
X190309523Y-128642857D01*
X190309523Y-128738095D01*
X190261904Y-128880952D01*
X189690476Y-129452380D01*
X190309523Y-129452380D01*
X190928571Y-128452380D02*
X191023809Y-128452380D01*
X191119047Y-128500000D01*
X191166666Y-128547619D01*
X191214285Y-128642857D01*
X191261904Y-128833333D01*
X191261904Y-129071428D01*
X191214285Y-129261904D01*
X191166666Y-129357142D01*
X191119047Y-129404761D01*
X191023809Y-129452380D01*
X190928571Y-129452380D01*
X190833333Y-129404761D01*
X190785714Y-129357142D01*
X190738095Y-129261904D01*
X190690476Y-129071428D01*
X190690476Y-128833333D01*
X190738095Y-128642857D01*
X190785714Y-128547619D01*
X190833333Y-128500000D01*
X190928571Y-128452380D01*
X193357142Y-126427142D02*
X193309523Y-126474761D01*
X193166666Y-126522380D01*
X193071428Y-126522380D01*
X192928571Y-126474761D01*
X192833333Y-126379523D01*
X192785714Y-126284285D01*
X192738095Y-126093809D01*
X192738095Y-125950952D01*
X192785714Y-125760476D01*
X192833333Y-125665238D01*
X192928571Y-125570000D01*
X193071428Y-125522380D01*
X193166666Y-125522380D01*
X193309523Y-125570000D01*
X193357142Y-125617619D01*
X194309523Y-126522380D02*
X193738095Y-126522380D01*
X194023809Y-126522380D02*
X194023809Y-125522380D01*
X193928571Y-125665238D01*
X193833333Y-125760476D01*
X193738095Y-125808095D01*
X195214285Y-125522380D02*
X194738095Y-125522380D01*
X194690476Y-125998571D01*
X194738095Y-125950952D01*
X194833333Y-125903333D01*
X195071428Y-125903333D01*
X195166666Y-125950952D01*
X195214285Y-125998571D01*
X195261904Y-126093809D01*
X195261904Y-126331904D01*
X195214285Y-126427142D01*
X195166666Y-126474761D01*
X195071428Y-126522380D01*
X194833333Y-126522380D01*
X194738095Y-126474761D01*
X194690476Y-126427142D01*
X193333333Y-106952380D02*
X193000000Y-106476190D01*
X192761904Y-106952380D02*
X192761904Y-105952380D01*
X193142857Y-105952380D01*
X193238095Y-106000000D01*
X193285714Y-106047619D01*
X193333333Y-106142857D01*
X193333333Y-106285714D01*
X193285714Y-106380952D01*
X193238095Y-106428571D01*
X193142857Y-106476190D01*
X192761904Y-106476190D01*
X193714285Y-106047619D02*
X193761904Y-106000000D01*
X193857142Y-105952380D01*
X194095238Y-105952380D01*
X194190476Y-106000000D01*
X194238095Y-106047619D01*
X194285714Y-106142857D01*
X194285714Y-106238095D01*
X194238095Y-106380952D01*
X193666666Y-106952380D01*
X194285714Y-106952380D01*
X217650380Y-121454857D02*
X217174190Y-121788190D01*
X217650380Y-122026285D02*
X216650380Y-122026285D01*
X216650380Y-121645333D01*
X216698000Y-121550095D01*
X216745619Y-121502476D01*
X216840857Y-121454857D01*
X216983714Y-121454857D01*
X217078952Y-121502476D01*
X217126571Y-121550095D01*
X217174190Y-121645333D01*
X217174190Y-122026285D01*
X217650380Y-120502476D02*
X217650380Y-121073904D01*
X217650380Y-120788190D02*
X216650380Y-120788190D01*
X216793238Y-120883428D01*
X216888476Y-120978666D01*
X216936095Y-121073904D01*
X217650380Y-119550095D02*
X217650380Y-120121523D01*
X217650380Y-119835809D02*
X216650380Y-119835809D01*
X216793238Y-119931047D01*
X216888476Y-120026285D01*
X216936095Y-120121523D01*
X187952380Y-123592857D02*
X187476190Y-123926190D01*
X187952380Y-124164285D02*
X186952380Y-124164285D01*
X186952380Y-123783333D01*
X187000000Y-123688095D01*
X187047619Y-123640476D01*
X187142857Y-123592857D01*
X187285714Y-123592857D01*
X187380952Y-123640476D01*
X187428571Y-123688095D01*
X187476190Y-123783333D01*
X187476190Y-124164285D01*
X187952380Y-122640476D02*
X187952380Y-123211904D01*
X187952380Y-122926190D02*
X186952380Y-122926190D01*
X187095238Y-123021428D01*
X187190476Y-123116666D01*
X187238095Y-123211904D01*
X186952380Y-122307142D02*
X186952380Y-121640476D01*
X187952380Y-122069047D01*
X189833333Y-110452380D02*
X189357142Y-110452380D01*
X189357142Y-109452380D01*
X190690476Y-110452380D02*
X190119047Y-110452380D01*
X190404761Y-110452380D02*
X190404761Y-109452380D01*
X190309523Y-109595238D01*
X190214285Y-109690476D01*
X190119047Y-109738095D01*
X193833333Y-131187142D02*
X193785714Y-131234761D01*
X193642857Y-131282380D01*
X193547619Y-131282380D01*
X193404761Y-131234761D01*
X193309523Y-131139523D01*
X193261904Y-131044285D01*
X193214285Y-130853809D01*
X193214285Y-130710952D01*
X193261904Y-130520476D01*
X193309523Y-130425238D01*
X193404761Y-130330000D01*
X193547619Y-130282380D01*
X193642857Y-130282380D01*
X193785714Y-130330000D01*
X193833333Y-130377619D01*
X194166666Y-130282380D02*
X194785714Y-130282380D01*
X194452380Y-130663333D01*
X194595238Y-130663333D01*
X194690476Y-130710952D01*
X194738095Y-130758571D01*
X194785714Y-130853809D01*
X194785714Y-131091904D01*
X194738095Y-131187142D01*
X194690476Y-131234761D01*
X194595238Y-131282380D01*
X194309523Y-131282380D01*
X194214285Y-131234761D01*
X194166666Y-131187142D01*
X215971142Y-108402380D02*
X215637809Y-107926190D01*
X215399714Y-108402380D02*
X215399714Y-107402380D01*
X215780666Y-107402380D01*
X215875904Y-107450000D01*
X215923523Y-107497619D01*
X215971142Y-107592857D01*
X215971142Y-107735714D01*
X215923523Y-107830952D01*
X215875904Y-107878571D01*
X215780666Y-107926190D01*
X215399714Y-107926190D01*
X216923523Y-108402380D02*
X216352095Y-108402380D01*
X216637809Y-108402380D02*
X216637809Y-107402380D01*
X216542571Y-107545238D01*
X216447333Y-107640476D01*
X216352095Y-107688095D01*
X217542571Y-107402380D02*
X217637809Y-107402380D01*
X217733047Y-107450000D01*
X217780666Y-107497619D01*
X217828285Y-107592857D01*
X217875904Y-107783333D01*
X217875904Y-108021428D01*
X217828285Y-108211904D01*
X217780666Y-108307142D01*
X217733047Y-108354761D01*
X217637809Y-108402380D01*
X217542571Y-108402380D01*
X217447333Y-108354761D01*
X217399714Y-108307142D01*
X217352095Y-108211904D01*
X217304476Y-108021428D01*
X217304476Y-107783333D01*
X217352095Y-107592857D01*
X217399714Y-107497619D01*
X217447333Y-107450000D01*
X217542571Y-107402380D01*
X204904761Y-127047619D02*
X204809523Y-127000000D01*
X204714285Y-126904761D01*
X204571428Y-126761904D01*
X204476190Y-126714285D01*
X204380952Y-126714285D01*
X204428571Y-126952380D02*
X204333333Y-126904761D01*
X204238095Y-126809523D01*
X204190476Y-126619047D01*
X204190476Y-126285714D01*
X204238095Y-126095238D01*
X204333333Y-126000000D01*
X204428571Y-125952380D01*
X204619047Y-125952380D01*
X204714285Y-126000000D01*
X204809523Y-126095238D01*
X204857142Y-126285714D01*
X204857142Y-126619047D01*
X204809523Y-126809523D01*
X204714285Y-126904761D01*
X204619047Y-126952380D01*
X204428571Y-126952380D01*
X205238095Y-126047619D02*
X205285714Y-126000000D01*
X205380952Y-125952380D01*
X205619047Y-125952380D01*
X205714285Y-126000000D01*
X205761904Y-126047619D01*
X205809523Y-126142857D01*
X205809523Y-126238095D01*
X205761904Y-126380952D01*
X205190476Y-126952380D01*
X205809523Y-126952380D01*
X201833333Y-123522380D02*
X201500000Y-123046190D01*
X201261904Y-123522380D02*
X201261904Y-122522380D01*
X201642857Y-122522380D01*
X201738095Y-122570000D01*
X201785714Y-122617619D01*
X201833333Y-122712857D01*
X201833333Y-122855714D01*
X201785714Y-122950952D01*
X201738095Y-122998571D01*
X201642857Y-123046190D01*
X201261904Y-123046190D01*
X202738095Y-122522380D02*
X202261904Y-122522380D01*
X202214285Y-122998571D01*
X202261904Y-122950952D01*
X202357142Y-122903333D01*
X202595238Y-122903333D01*
X202690476Y-122950952D01*
X202738095Y-122998571D01*
X202785714Y-123093809D01*
X202785714Y-123331904D01*
X202738095Y-123427142D01*
X202690476Y-123474761D01*
X202595238Y-123522380D01*
X202357142Y-123522380D01*
X202261904Y-123474761D01*
X202214285Y-123427142D01*
X185404761Y-127547619D02*
X185309523Y-127500000D01*
X185214285Y-127404761D01*
X185071428Y-127261904D01*
X184976190Y-127214285D01*
X184880952Y-127214285D01*
X184928571Y-127452380D02*
X184833333Y-127404761D01*
X184738095Y-127309523D01*
X184690476Y-127119047D01*
X184690476Y-126785714D01*
X184738095Y-126595238D01*
X184833333Y-126500000D01*
X184928571Y-126452380D01*
X185119047Y-126452380D01*
X185214285Y-126500000D01*
X185309523Y-126595238D01*
X185357142Y-126785714D01*
X185357142Y-127119047D01*
X185309523Y-127309523D01*
X185214285Y-127404761D01*
X185119047Y-127452380D01*
X184928571Y-127452380D01*
X186309523Y-127452380D02*
X185738095Y-127452380D01*
X186023809Y-127452380D02*
X186023809Y-126452380D01*
X185928571Y-126595238D01*
X185833333Y-126690476D01*
X185738095Y-126738095D01*
X178952380Y-115738095D02*
X177952380Y-115738095D01*
X177952380Y-115500000D01*
X178000000Y-115357142D01*
X178095238Y-115261904D01*
X178190476Y-115214285D01*
X178380952Y-115166666D01*
X178523809Y-115166666D01*
X178714285Y-115214285D01*
X178809523Y-115261904D01*
X178904761Y-115357142D01*
X178952380Y-115500000D01*
X178952380Y-115738095D01*
X178952380Y-114214285D02*
X178952380Y-114785714D01*
X178952380Y-114500000D02*
X177952380Y-114500000D01*
X178095238Y-114595238D01*
X178190476Y-114690476D01*
X178238095Y-114785714D01*
X216833333Y-110179656D02*
X216500000Y-109703466D01*
X216261904Y-110179656D02*
X216261904Y-109179656D01*
X216642857Y-109179656D01*
X216738095Y-109227276D01*
X216785714Y-109274895D01*
X216833333Y-109370133D01*
X216833333Y-109512990D01*
X216785714Y-109608228D01*
X216738095Y-109655847D01*
X216642857Y-109703466D01*
X216261904Y-109703466D01*
X217309523Y-110179656D02*
X217500000Y-110179656D01*
X217595238Y-110132037D01*
X217642857Y-110084418D01*
X217738095Y-109941561D01*
X217785714Y-109751085D01*
X217785714Y-109370133D01*
X217738095Y-109274895D01*
X217690476Y-109227276D01*
X217595238Y-109179656D01*
X217404761Y-109179656D01*
X217309523Y-109227276D01*
X217261904Y-109274895D01*
X217214285Y-109370133D01*
X217214285Y-109608228D01*
X217261904Y-109703466D01*
X217309523Y-109751085D01*
X217404761Y-109798704D01*
X217595238Y-109798704D01*
X217690476Y-109751085D01*
X217738095Y-109703466D01*
X217785714Y-109608228D01*
X224557142Y-126042857D02*
X224604761Y-126090476D01*
X224652380Y-126233333D01*
X224652380Y-126328571D01*
X224604761Y-126471428D01*
X224509523Y-126566666D01*
X224414285Y-126614285D01*
X224223809Y-126661904D01*
X224080952Y-126661904D01*
X223890476Y-126614285D01*
X223795238Y-126566666D01*
X223700000Y-126471428D01*
X223652380Y-126328571D01*
X223652380Y-126233333D01*
X223700000Y-126090476D01*
X223747619Y-126042857D01*
X224652380Y-125090476D02*
X224652380Y-125661904D01*
X224652380Y-125376190D02*
X223652380Y-125376190D01*
X223795238Y-125471428D01*
X223890476Y-125566666D01*
X223938095Y-125661904D01*
X223652380Y-124757142D02*
X223652380Y-124138095D01*
X224033333Y-124471428D01*
X224033333Y-124328571D01*
X224080952Y-124233333D01*
X224128571Y-124185714D01*
X224223809Y-124138095D01*
X224461904Y-124138095D01*
X224557142Y-124185714D01*
X224604761Y-124233333D01*
X224652380Y-124328571D01*
X224652380Y-124614285D01*
X224604761Y-124709523D01*
X224557142Y-124757142D01*
X197761904Y-123452380D02*
X197761904Y-122452380D01*
X198000000Y-122452380D01*
X198142857Y-122500000D01*
X198238095Y-122595238D01*
X198285714Y-122690476D01*
X198333333Y-122880952D01*
X198333333Y-123023809D01*
X198285714Y-123214285D01*
X198238095Y-123309523D01*
X198142857Y-123404761D01*
X198000000Y-123452380D01*
X197761904Y-123452380D01*
X198714285Y-122547619D02*
X198761904Y-122500000D01*
X198857142Y-122452380D01*
X199095238Y-122452380D01*
X199190476Y-122500000D01*
X199238095Y-122547619D01*
X199285714Y-122642857D01*
X199285714Y-122738095D01*
X199238095Y-122880952D01*
X198666666Y-123452380D01*
X199285714Y-123452380D01*
X189444642Y-126452380D02*
X189111309Y-125976190D01*
X188873214Y-126452380D02*
X188873214Y-125452380D01*
X189254166Y-125452380D01*
X189349404Y-125500000D01*
X189397023Y-125547619D01*
X189444642Y-125642857D01*
X189444642Y-125785714D01*
X189397023Y-125880952D01*
X189349404Y-125928571D01*
X189254166Y-125976190D01*
X188873214Y-125976190D01*
X190397023Y-126452380D02*
X189825595Y-126452380D01*
X190111309Y-126452380D02*
X190111309Y-125452380D01*
X190016071Y-125595238D01*
X189920833Y-125690476D01*
X189825595Y-125738095D01*
X190968452Y-125880952D02*
X190873214Y-125833333D01*
X190825595Y-125785714D01*
X190777976Y-125690476D01*
X190777976Y-125642857D01*
X190825595Y-125547619D01*
X190873214Y-125500000D01*
X190968452Y-125452380D01*
X191158928Y-125452380D01*
X191254166Y-125500000D01*
X191301785Y-125547619D01*
X191349404Y-125642857D01*
X191349404Y-125690476D01*
X191301785Y-125785714D01*
X191254166Y-125833333D01*
X191158928Y-125880952D01*
X190968452Y-125880952D01*
X190873214Y-125928571D01*
X190825595Y-125976190D01*
X190777976Y-126071428D01*
X190777976Y-126261904D01*
X190825595Y-126357142D01*
X190873214Y-126404761D01*
X190968452Y-126452380D01*
X191158928Y-126452380D01*
X191254166Y-126404761D01*
X191301785Y-126357142D01*
X191349404Y-126261904D01*
X191349404Y-126071428D01*
X191301785Y-125976190D01*
X191254166Y-125928571D01*
X191158928Y-125880952D01*
X239166666Y-127252380D02*
X239166666Y-127966666D01*
X239119047Y-128109523D01*
X239023809Y-128204761D01*
X238880952Y-128252380D01*
X238785714Y-128252380D01*
X239785714Y-127680952D02*
X239690476Y-127633333D01*
X239642857Y-127585714D01*
X239595238Y-127490476D01*
X239595238Y-127442857D01*
X239642857Y-127347619D01*
X239690476Y-127300000D01*
X239785714Y-127252380D01*
X239976190Y-127252380D01*
X240071428Y-127300000D01*
X240119047Y-127347619D01*
X240166666Y-127442857D01*
X240166666Y-127490476D01*
X240119047Y-127585714D01*
X240071428Y-127633333D01*
X239976190Y-127680952D01*
X239785714Y-127680952D01*
X239690476Y-127728571D01*
X239642857Y-127776190D01*
X239595238Y-127871428D01*
X239595238Y-128061904D01*
X239642857Y-128157142D01*
X239690476Y-128204761D01*
X239785714Y-128252380D01*
X239976190Y-128252380D01*
X240071428Y-128204761D01*
X240119047Y-128157142D01*
X240166666Y-128061904D01*
X240166666Y-127871428D01*
X240119047Y-127776190D01*
X240071428Y-127728571D01*
X239976190Y-127680952D01*
X211653142Y-123547142D02*
X211605523Y-123594761D01*
X211462666Y-123642380D01*
X211367428Y-123642380D01*
X211224571Y-123594761D01*
X211129333Y-123499523D01*
X211081714Y-123404285D01*
X211034095Y-123213809D01*
X211034095Y-123070952D01*
X211081714Y-122880476D01*
X211129333Y-122785238D01*
X211224571Y-122690000D01*
X211367428Y-122642380D01*
X211462666Y-122642380D01*
X211605523Y-122690000D01*
X211653142Y-122737619D01*
X212605523Y-123642380D02*
X212034095Y-123642380D01*
X212319809Y-123642380D02*
X212319809Y-122642380D01*
X212224571Y-122785238D01*
X212129333Y-122880476D01*
X212034095Y-122928095D01*
X212986476Y-122737619D02*
X213034095Y-122690000D01*
X213129333Y-122642380D01*
X213367428Y-122642380D01*
X213462666Y-122690000D01*
X213510285Y-122737619D01*
X213557904Y-122832857D01*
X213557904Y-122928095D01*
X213510285Y-123070952D01*
X212938857Y-123642380D01*
X213557904Y-123642380D01*
X230163333Y-116276380D02*
X229830000Y-115800190D01*
X229591904Y-116276380D02*
X229591904Y-115276380D01*
X229972857Y-115276380D01*
X230068095Y-115324000D01*
X230115714Y-115371619D01*
X230163333Y-115466857D01*
X230163333Y-115609714D01*
X230115714Y-115704952D01*
X230068095Y-115752571D01*
X229972857Y-115800190D01*
X229591904Y-115800190D01*
X230734761Y-115704952D02*
X230639523Y-115657333D01*
X230591904Y-115609714D01*
X230544285Y-115514476D01*
X230544285Y-115466857D01*
X230591904Y-115371619D01*
X230639523Y-115324000D01*
X230734761Y-115276380D01*
X230925238Y-115276380D01*
X231020476Y-115324000D01*
X231068095Y-115371619D01*
X231115714Y-115466857D01*
X231115714Y-115514476D01*
X231068095Y-115609714D01*
X231020476Y-115657333D01*
X230925238Y-115704952D01*
X230734761Y-115704952D01*
X230639523Y-115752571D01*
X230591904Y-115800190D01*
X230544285Y-115895428D01*
X230544285Y-116085904D01*
X230591904Y-116181142D01*
X230639523Y-116228761D01*
X230734761Y-116276380D01*
X230925238Y-116276380D01*
X231020476Y-116228761D01*
X231068095Y-116181142D01*
X231115714Y-116085904D01*
X231115714Y-115895428D01*
X231068095Y-115800190D01*
X231020476Y-115752571D01*
X230925238Y-115704952D01*
X226011904Y-117952380D02*
X226011904Y-116952380D01*
X226250000Y-116952380D01*
X226392857Y-117000000D01*
X226488095Y-117095238D01*
X226535714Y-117190476D01*
X226583333Y-117380952D01*
X226583333Y-117523809D01*
X226535714Y-117714285D01*
X226488095Y-117809523D01*
X226392857Y-117904761D01*
X226250000Y-117952380D01*
X226011904Y-117952380D01*
X226916666Y-116952380D02*
X227535714Y-116952380D01*
X227202380Y-117333333D01*
X227345238Y-117333333D01*
X227440476Y-117380952D01*
X227488095Y-117428571D01*
X227535714Y-117523809D01*
X227535714Y-117761904D01*
X227488095Y-117857142D01*
X227440476Y-117904761D01*
X227345238Y-117952380D01*
X227059523Y-117952380D01*
X226964285Y-117904761D01*
X226916666Y-117857142D01*
D12*
X219553733Y-105010000D02*
X219846267Y-105010000D01*
X219553733Y-103990000D02*
X219846267Y-103990000D01*
X200254724Y-105977500D02*
X199745276Y-105977500D01*
X200254724Y-107022500D02*
X199745276Y-107022500D01*
X202772500Y-102745276D02*
X202772500Y-103254724D01*
X201727500Y-102745276D02*
X201727500Y-103254724D01*
X249103733Y-104260000D02*
X249396267Y-104260000D01*
X249103733Y-103240000D02*
X249396267Y-103240000D01*
X221250000Y-124625000D02*
X221250000Y-125375000D01*
X223050000Y-124625000D02*
X221250000Y-124625000D01*
X219750000Y-124625000D02*
X216250000Y-124625000D01*
X223060000Y-130585000D02*
X223060000Y-124615000D01*
X213700000Y-129825000D02*
X218000000Y-129825000D01*
X212950000Y-125375000D02*
X214750000Y-125375000D01*
X213700000Y-126875000D02*
X213700000Y-129825000D01*
X212940000Y-130585000D02*
X223060000Y-130585000D01*
X219750000Y-125375000D02*
X219750000Y-124625000D01*
X213900000Y-124325000D02*
X212650000Y-124325000D01*
X223060000Y-124615000D02*
X212940000Y-124615000D01*
X223050000Y-126875000D02*
X222300000Y-126875000D01*
X212650000Y-124325000D02*
X212650000Y-125575000D01*
X214750000Y-124625000D02*
X212950000Y-124625000D01*
X222300000Y-129825000D02*
X218000000Y-129825000D01*
X223050000Y-125375000D02*
X223050000Y-124625000D01*
X221250000Y-125375000D02*
X223050000Y-125375000D01*
X212950000Y-124625000D02*
X212950000Y-125375000D01*
X214750000Y-125375000D02*
X214750000Y-124625000D01*
X212940000Y-124615000D02*
X212940000Y-130585000D01*
X216250000Y-125375000D02*
X219750000Y-125375000D01*
X222300000Y-126875000D02*
X222300000Y-129825000D01*
X212950000Y-126875000D02*
X213700000Y-126875000D01*
X216250000Y-124625000D02*
X216250000Y-125375000D01*
X219407276Y-105649500D02*
X219916724Y-105649500D01*
X219407276Y-106694500D02*
X219916724Y-106694500D01*
X221600000Y-121760000D02*
X220950000Y-121760000D01*
X221600000Y-118640000D02*
X222250000Y-118640000D01*
X221600000Y-118640000D02*
X220950000Y-118640000D01*
X221600000Y-121760000D02*
X223275000Y-121760000D01*
X211728000Y-108966000D02*
X211728000Y-121726000D01*
X211728000Y-106366000D02*
X213058000Y-106366000D01*
X214388000Y-108966000D02*
X214388000Y-121726000D01*
X211728000Y-107696000D02*
X211728000Y-106366000D01*
X211728000Y-121726000D02*
X214388000Y-121726000D01*
X211728000Y-108966000D02*
X214388000Y-108966000D01*
X218560000Y-116400000D02*
X218560000Y-115750000D01*
X215440000Y-116400000D02*
X215440000Y-118075000D01*
X215440000Y-116400000D02*
X215440000Y-115750000D01*
X218560000Y-116400000D02*
X218560000Y-117050000D01*
X189379000Y-100675000D02*
X189379000Y-105316000D01*
X199620000Y-100675000D02*
X199620000Y-105316000D01*
X189379000Y-100675000D02*
X199620000Y-100675000D01*
X189379000Y-105316000D02*
X199620000Y-105316000D01*
X189379000Y-102185000D02*
X199620000Y-102185000D01*
X192650000Y-100675000D02*
X192650000Y-102185000D01*
X196350000Y-100675000D02*
X196350000Y-102185000D01*
X218090000Y-120053733D02*
X218090000Y-120346267D01*
X219110000Y-120053733D02*
X219110000Y-120346267D01*
X196220000Y-118073000D02*
X196220000Y-107927000D01*
X192299000Y-115889000D02*
X192299000Y-110111000D01*
X193499000Y-111759000D02*
X193499000Y-108890000D01*
X194619000Y-117723000D02*
X194619000Y-114241000D01*
X193619000Y-117194000D02*
X193619000Y-114241000D01*
X194299000Y-117584000D02*
X194299000Y-114241000D01*
X192699000Y-116392000D02*
X192699000Y-109608000D01*
X201979646Y-115875000D02*
X200979646Y-115875000D01*
X195940000Y-118050000D02*
X195940000Y-107950000D01*
X192019000Y-115439000D02*
X192019000Y-110561000D01*
X193139000Y-116824000D02*
X193139000Y-114241000D01*
X192459000Y-116106000D02*
X192459000Y-109894000D01*
X191499000Y-114062000D02*
X191499000Y-111938000D01*
X194699000Y-111759000D02*
X194699000Y-108246000D01*
X193059000Y-116753000D02*
X193059000Y-114241000D01*
X191779000Y-114944000D02*
X191779000Y-111056000D01*
X195980000Y-118054000D02*
X195980000Y-107946000D01*
X192779000Y-111759000D02*
X192779000Y-109522000D01*
X201479646Y-116375000D02*
X201479646Y-115375000D01*
X193939000Y-117395000D02*
X193939000Y-114241000D01*
X193019000Y-111759000D02*
X193019000Y-109284000D01*
X195379000Y-117956000D02*
X195379000Y-108044000D01*
X192419000Y-116054000D02*
X192419000Y-109946000D01*
X194739000Y-117768000D02*
X194739000Y-114241000D01*
X194179000Y-117525000D02*
X194179000Y-114241000D01*
X194059000Y-117462000D02*
X194059000Y-114241000D01*
X195860000Y-118040000D02*
X195860000Y-107960000D01*
X192259000Y-115830000D02*
X192259000Y-110170000D01*
X193819000Y-111759000D02*
X193819000Y-108677000D01*
X193539000Y-111759000D02*
X193539000Y-108862000D01*
X191819000Y-115037000D02*
X191819000Y-110963000D01*
X194699000Y-117754000D02*
X194699000Y-114241000D01*
X193379000Y-117020000D02*
X193379000Y-114241000D01*
X194139000Y-111759000D02*
X194139000Y-108496000D01*
X195019000Y-111759000D02*
X195019000Y-108138000D01*
X196340000Y-118078000D02*
X196340000Y-107922000D01*
X193739000Y-111759000D02*
X193739000Y-108727000D01*
X192979000Y-111759000D02*
X192979000Y-109321000D01*
X191739000Y-114846000D02*
X191739000Y-111154000D01*
X193379000Y-111759000D02*
X193379000Y-108980000D01*
X191699000Y-114742000D02*
X191699000Y-111258000D01*
X195619000Y-118004000D02*
X195619000Y-107996000D01*
X195419000Y-117965000D02*
X195419000Y-108035000D01*
X193899000Y-111759000D02*
X193899000Y-108629000D01*
X191579000Y-114378000D02*
X191579000Y-111622000D01*
X194499000Y-111759000D02*
X194499000Y-108326000D01*
X193019000Y-116716000D02*
X193019000Y-114241000D01*
X194459000Y-117657000D02*
X194459000Y-114241000D01*
X193459000Y-117080000D02*
X193459000Y-114241000D01*
X194819000Y-111759000D02*
X194819000Y-108203000D01*
X192499000Y-116156000D02*
X192499000Y-109844000D01*
X196180000Y-118070000D02*
X196180000Y-107930000D01*
X192579000Y-116254000D02*
X192579000Y-109746000D01*
X192899000Y-111759000D02*
X192899000Y-109399000D01*
X193779000Y-111759000D02*
X193779000Y-108702000D01*
X194339000Y-117603000D02*
X194339000Y-114241000D01*
X193859000Y-117347000D02*
X193859000Y-114241000D01*
X194019000Y-117440000D02*
X194019000Y-114241000D01*
X192619000Y-116301000D02*
X192619000Y-109699000D01*
X194619000Y-111759000D02*
X194619000Y-108277000D01*
X196380000Y-118079000D02*
X196380000Y-107921000D01*
X193579000Y-117166000D02*
X193579000Y-114241000D01*
X194379000Y-117621000D02*
X194379000Y-114241000D01*
X195219000Y-117918000D02*
X195219000Y-114241000D01*
X192339000Y-115945000D02*
X192339000Y-110055000D01*
X194819000Y-117797000D02*
X194819000Y-114241000D01*
X192219000Y-115770000D02*
X192219000Y-110230000D01*
X195900000Y-118045000D02*
X195900000Y-107955000D01*
X194459000Y-111759000D02*
X194459000Y-108343000D01*
X195139000Y-111759000D02*
X195139000Y-108103000D01*
X193059000Y-111759000D02*
X193059000Y-109247000D01*
X192379000Y-116000000D02*
X192379000Y-110000000D01*
X193899000Y-117371000D02*
X193899000Y-114241000D01*
X193819000Y-117323000D02*
X193819000Y-114241000D01*
X193259000Y-116925000D02*
X193259000Y-114241000D01*
X194939000Y-117837000D02*
X194939000Y-114241000D01*
X192539000Y-116206000D02*
X192539000Y-109794000D01*
X196260000Y-118075000D02*
X196260000Y-107925000D01*
X194659000Y-111759000D02*
X194659000Y-108262000D01*
X192979000Y-116679000D02*
X192979000Y-114241000D01*
X193459000Y-111759000D02*
X193459000Y-108920000D01*
X195779000Y-118030000D02*
X195779000Y-107970000D01*
X193139000Y-111759000D02*
X193139000Y-109176000D01*
X193699000Y-117247000D02*
X193699000Y-114241000D01*
X194099000Y-117483000D02*
X194099000Y-114241000D01*
X194939000Y-111759000D02*
X194939000Y-108163000D01*
X195299000Y-117938000D02*
X195299000Y-108062000D01*
X195059000Y-111759000D02*
X195059000Y-108126000D01*
X193739000Y-117273000D02*
X193739000Y-114241000D01*
X191539000Y-114230000D02*
X191539000Y-111770000D01*
X196020000Y-118058000D02*
X196020000Y-107942000D01*
X194859000Y-111759000D02*
X194859000Y-108189000D01*
X195179000Y-111759000D02*
X195179000Y-108093000D01*
X196500000Y-118080000D02*
X196500000Y-107920000D01*
X194259000Y-111759000D02*
X194259000Y-108436000D01*
X192819000Y-116520000D02*
X192819000Y-114241000D01*
X193259000Y-111759000D02*
X193259000Y-109075000D01*
X195099000Y-117885000D02*
X195099000Y-114241000D01*
X193499000Y-117110000D02*
X193499000Y-114241000D01*
X195219000Y-111759000D02*
X195219000Y-108082000D01*
X194419000Y-111759000D02*
X194419000Y-108361000D01*
X192659000Y-116347000D02*
X192659000Y-109653000D01*
X193699000Y-111759000D02*
X193699000Y-108753000D01*
X195579000Y-117997000D02*
X195579000Y-108003000D01*
X192099000Y-115579000D02*
X192099000Y-110421000D01*
X195659000Y-118011000D02*
X195659000Y-107989000D01*
X193219000Y-116892000D02*
X193219000Y-114241000D01*
X193779000Y-117298000D02*
X193779000Y-114241000D01*
X195139000Y-117897000D02*
X195139000Y-114241000D01*
X193979000Y-117417000D02*
X193979000Y-114241000D01*
X194219000Y-117545000D02*
X194219000Y-114241000D01*
X194579000Y-117707000D02*
X194579000Y-114241000D01*
X194339000Y-111759000D02*
X194339000Y-108397000D01*
X195539000Y-117990000D02*
X195539000Y-108010000D01*
X196100000Y-118065000D02*
X196100000Y-107935000D01*
X194899000Y-117824000D02*
X194899000Y-114241000D01*
X194979000Y-117850000D02*
X194979000Y-114241000D01*
X191979000Y-115365000D02*
X191979000Y-110635000D01*
X192739000Y-116436000D02*
X192739000Y-109564000D01*
X193939000Y-111759000D02*
X193939000Y-108605000D01*
X194299000Y-111759000D02*
X194299000Y-108416000D01*
X191899000Y-115209000D02*
X191899000Y-110791000D01*
X193979000Y-111759000D02*
X193979000Y-108583000D01*
X193419000Y-117050000D02*
X193419000Y-114241000D01*
X192179000Y-115709000D02*
X192179000Y-110291000D01*
X191619000Y-114510000D02*
X191619000Y-111490000D01*
X194659000Y-117738000D02*
X194659000Y-114241000D01*
X194579000Y-111759000D02*
X194579000Y-108293000D01*
X191939000Y-115289000D02*
X191939000Y-110711000D01*
X194979000Y-111759000D02*
X194979000Y-108150000D01*
X192899000Y-116601000D02*
X192899000Y-114241000D01*
X194259000Y-117564000D02*
X194259000Y-114241000D01*
X193219000Y-111759000D02*
X193219000Y-109108000D01*
X193179000Y-111759000D02*
X193179000Y-109142000D01*
X193539000Y-117138000D02*
X193539000Y-114241000D01*
X193619000Y-111759000D02*
X193619000Y-108806000D01*
X194499000Y-117674000D02*
X194499000Y-114241000D01*
X192859000Y-116561000D02*
X192859000Y-114241000D01*
X194139000Y-117504000D02*
X194139000Y-114241000D01*
X194219000Y-111759000D02*
X194219000Y-108455000D01*
X194539000Y-111759000D02*
X194539000Y-108310000D01*
X195339000Y-117947000D02*
X195339000Y-108053000D01*
X195059000Y-117874000D02*
X195059000Y-114241000D01*
X192859000Y-111759000D02*
X192859000Y-109439000D01*
X192139000Y-115645000D02*
X192139000Y-110355000D01*
X194179000Y-111759000D02*
X194179000Y-108475000D01*
X194779000Y-117783000D02*
X194779000Y-114241000D01*
X194379000Y-111759000D02*
X194379000Y-108379000D01*
X194419000Y-117639000D02*
X194419000Y-114241000D01*
X191659000Y-114630000D02*
X191659000Y-111370000D01*
X196300000Y-118077000D02*
X196300000Y-107923000D01*
X192939000Y-116640000D02*
X192939000Y-114241000D01*
X194019000Y-111759000D02*
X194019000Y-108560000D01*
X195019000Y-117862000D02*
X195019000Y-114241000D01*
X193579000Y-111759000D02*
X193579000Y-108834000D01*
X192819000Y-111759000D02*
X192819000Y-109480000D01*
X194739000Y-111759000D02*
X194739000Y-108232000D01*
X193859000Y-111759000D02*
X193859000Y-108653000D01*
X191419000Y-113599000D02*
X191419000Y-112401000D01*
X193099000Y-116789000D02*
X193099000Y-114241000D01*
X192779000Y-116478000D02*
X192779000Y-114241000D01*
X195099000Y-111759000D02*
X195099000Y-108115000D01*
X192059000Y-115510000D02*
X192059000Y-110490000D01*
X194099000Y-111759000D02*
X194099000Y-108517000D01*
X196460000Y-118080000D02*
X196460000Y-107920000D01*
X193339000Y-111759000D02*
X193339000Y-109011000D01*
X193299000Y-116957000D02*
X193299000Y-114241000D01*
X191459000Y-113862000D02*
X191459000Y-112138000D01*
X191859000Y-115125000D02*
X191859000Y-110875000D01*
X193659000Y-117221000D02*
X193659000Y-114241000D01*
X193339000Y-116989000D02*
X193339000Y-114241000D01*
X192939000Y-111759000D02*
X192939000Y-109360000D01*
X195459000Y-117974000D02*
X195459000Y-108026000D01*
X195179000Y-117907000D02*
X195179000Y-114241000D01*
X196140000Y-118068000D02*
X196140000Y-107932000D01*
X195739000Y-118024000D02*
X195739000Y-107976000D01*
X194899000Y-111759000D02*
X194899000Y-108176000D01*
X195259000Y-117928000D02*
X195259000Y-108072000D01*
X196420000Y-118080000D02*
X196420000Y-107920000D01*
X195499000Y-117982000D02*
X195499000Y-108018000D01*
X193419000Y-111759000D02*
X193419000Y-108950000D01*
X195699000Y-118018000D02*
X195699000Y-107982000D01*
X194859000Y-117811000D02*
X194859000Y-114241000D01*
X194059000Y-111759000D02*
X194059000Y-108538000D01*
X194779000Y-111759000D02*
X194779000Y-108217000D01*
X193299000Y-111759000D02*
X193299000Y-109043000D01*
X193659000Y-111759000D02*
X193659000Y-108779000D01*
X196060000Y-118062000D02*
X196060000Y-107938000D01*
X193099000Y-111759000D02*
X193099000Y-109211000D01*
X193179000Y-116858000D02*
X193179000Y-114241000D01*
X194539000Y-117690000D02*
X194539000Y-114241000D01*
X195820000Y-118035000D02*
X195820000Y-107965000D01*
X201620000Y-113000000D02*
G75*
G03*
X201620000Y-113000000I-5120000J0D01*
G01*
X257975000Y-123450000D02*
X251555000Y-123450000D01*
X257975000Y-105210000D02*
X257975000Y-123450000D01*
X232230000Y-105210000D02*
X232230000Y-106210000D01*
X233010000Y-105210000D02*
X232230000Y-105210000D01*
X233010000Y-123450000D02*
X232230000Y-123450000D01*
X232230000Y-123450000D02*
X232230000Y-122450000D01*
X257975000Y-105210000D02*
X251555000Y-105210000D01*
X251555000Y-105210000D02*
X251555000Y-104830000D01*
X195745276Y-121077500D02*
X196254724Y-121077500D01*
X195745276Y-122122500D02*
X196254724Y-122122500D01*
X221346267Y-115710000D02*
X221053733Y-115710000D01*
X221346267Y-114690000D02*
X221053733Y-114690000D01*
X189832776Y-122022500D02*
X190342224Y-122022500D01*
X189832776Y-120977500D02*
X190342224Y-120977500D01*
X229620000Y-105288000D02*
X223420000Y-105288000D01*
X223420000Y-105288000D02*
X223420000Y-106288000D01*
X229620000Y-109088000D02*
X229620000Y-108088000D01*
X229620000Y-106288000D02*
X229620000Y-105288000D01*
X223420000Y-109088000D02*
X223420000Y-108088000D01*
X229620000Y-109088000D02*
X223420000Y-109088000D01*
X183910000Y-123627064D02*
X183910000Y-122172936D01*
X182090000Y-123627064D02*
X182090000Y-122172936D01*
X218899276Y-122667500D02*
X219408724Y-122667500D01*
X218899276Y-123712500D02*
X219408724Y-123712500D01*
X175150000Y-101650000D02*
X166850000Y-101650000D01*
X166850000Y-101650000D02*
X166850000Y-114500000D01*
X169400000Y-117350000D02*
X172550000Y-117350000D01*
X175150000Y-114500000D02*
X175150000Y-101650000D01*
X166850000Y-114500000D02*
X169400000Y-117350000D01*
X172550000Y-117350000D02*
X175150000Y-114500000D01*
X222978500Y-110236724D02*
X222978500Y-109727276D01*
X221933500Y-110236724D02*
X221933500Y-109727276D01*
X177090000Y-123677064D02*
X177090000Y-122222936D01*
X178910000Y-123677064D02*
X178910000Y-122222936D01*
X186353733Y-128490000D02*
X186646267Y-128490000D01*
X186353733Y-129510000D02*
X186646267Y-129510000D01*
X167800000Y-117900000D02*
X175200000Y-117900000D01*
X175200000Y-121100000D02*
X167800000Y-121100000D01*
X202670000Y-106366000D02*
X204000000Y-106366000D01*
X205330000Y-108966000D02*
X205330000Y-121726000D01*
X202670000Y-107696000D02*
X202670000Y-106366000D01*
X202670000Y-108966000D02*
X205330000Y-108966000D01*
X202670000Y-108966000D02*
X202670000Y-121726000D01*
X202670000Y-121726000D02*
X205330000Y-121726000D01*
D10*
X216513000Y-110897000D02*
X216513000Y-111072000D01*
X216513000Y-110897000D02*
X219763000Y-110897000D01*
X216513000Y-111072000D02*
X215438000Y-111072000D01*
X216513000Y-114147000D02*
X216513000Y-113872000D01*
X219763000Y-114147000D02*
X219763000Y-113872000D01*
X216513000Y-114147000D02*
X219763000Y-114147000D01*
X219763000Y-110897000D02*
X219763000Y-111172000D01*
D12*
X193510000Y-123646267D02*
X193510000Y-123353733D01*
X192490000Y-123646267D02*
X192490000Y-123353733D01*
X229620000Y-114676000D02*
X223420000Y-114676000D01*
X229620000Y-114676000D02*
X229620000Y-113676000D01*
X223420000Y-110876000D02*
X223420000Y-111876000D01*
X229620000Y-111876000D02*
X229620000Y-110876000D01*
X229620000Y-110876000D02*
X223420000Y-110876000D01*
X223420000Y-114676000D02*
X223420000Y-113676000D01*
X185000000Y-109753323D02*
X179000000Y-109753323D01*
X184125000Y-110273323D02*
X179875000Y-110273323D01*
X184510000Y-110073323D02*
X179490000Y-110073323D01*
X180759000Y-108633323D02*
X177890000Y-108633323D01*
X180759000Y-109073323D02*
X178247000Y-109073323D01*
X185478000Y-109353323D02*
X183241000Y-109353323D01*
X187079000Y-105752323D02*
X176921000Y-105752323D01*
X186783000Y-107353323D02*
X183241000Y-107353323D01*
X184439000Y-110113323D02*
X179561000Y-110113323D01*
X183230000Y-110593323D02*
X180770000Y-110593323D01*
X180759000Y-108353323D02*
X177702000Y-108353323D01*
X186584000Y-107833323D02*
X183241000Y-107833323D01*
X180759000Y-107793323D02*
X177397000Y-107793323D01*
X186956000Y-106753323D02*
X177044000Y-106753323D01*
X185679000Y-109153323D02*
X183241000Y-109153323D01*
X185436000Y-109393323D02*
X178564000Y-109393323D01*
X180759000Y-108793323D02*
X178011000Y-108793323D01*
X186824000Y-107233323D02*
X183241000Y-107233323D01*
X186938000Y-106833323D02*
X177062000Y-106833323D01*
X184579000Y-110033323D02*
X179421000Y-110033323D01*
X180759000Y-107993323D02*
X177496000Y-107993323D01*
X180759000Y-107753323D02*
X177379000Y-107753323D01*
X186885000Y-107033323D02*
X183241000Y-107033323D01*
X185301000Y-109513323D02*
X178699000Y-109513323D01*
X180759000Y-109153323D02*
X178321000Y-109153323D01*
X186440000Y-108113323D02*
X183241000Y-108113323D01*
X180759000Y-107073323D02*
X177126000Y-107073323D01*
X186273000Y-108393323D02*
X183241000Y-108393323D01*
X187080000Y-105712323D02*
X176920000Y-105712323D01*
X187045000Y-106232323D02*
X176955000Y-106232323D01*
X186221000Y-108473323D02*
X183241000Y-108473323D01*
X184365000Y-110153323D02*
X179635000Y-110153323D01*
X186997000Y-106553323D02*
X177003000Y-106553323D01*
X180759000Y-108673323D02*
X177920000Y-108673323D01*
X183378000Y-110553323D02*
X180622000Y-110553323D01*
X186874000Y-107073323D02*
X183241000Y-107073323D01*
X186723000Y-107513323D02*
X183241000Y-107513323D01*
X184889000Y-109833323D02*
X179111000Y-109833323D01*
X186862000Y-107113323D02*
X183241000Y-107113323D01*
X186837000Y-107193323D02*
X183241000Y-107193323D01*
X180759000Y-107473323D02*
X177262000Y-107473323D01*
X187065000Y-106032323D02*
X176935000Y-106032323D01*
X186947000Y-106793323D02*
X177053000Y-106793323D01*
X186050000Y-108713323D02*
X183241000Y-108713323D01*
X180759000Y-109113323D02*
X178284000Y-109113323D01*
X185254000Y-109553323D02*
X178746000Y-109553323D01*
X186982000Y-106633323D02*
X177018000Y-106633323D01*
X183510000Y-110513323D02*
X180490000Y-110513323D01*
X180759000Y-108113323D02*
X177560000Y-108113323D01*
X180759000Y-108953323D02*
X178142000Y-108953323D01*
X186907000Y-106953323D02*
X183241000Y-106953323D01*
X186483000Y-108033323D02*
X183241000Y-108033323D01*
X185640000Y-109193323D02*
X183241000Y-109193323D01*
X185054000Y-109713323D02*
X178946000Y-109713323D01*
X180759000Y-107713323D02*
X177361000Y-107713323D01*
X180759000Y-108713323D02*
X177950000Y-108713323D01*
X185957000Y-108833323D02*
X183241000Y-108833323D01*
X180759000Y-109033323D02*
X178211000Y-109033323D01*
X187004000Y-106513323D02*
X176996000Y-106513323D01*
X180759000Y-106913323D02*
X177082000Y-106913323D01*
X180759000Y-109233323D02*
X178399000Y-109233323D01*
X186965000Y-106713323D02*
X177035000Y-106713323D01*
X185892000Y-108913323D02*
X183241000Y-108913323D01*
X185375000Y-100652677D02*
X184375000Y-100652677D01*
X185858000Y-108953323D02*
X183241000Y-108953323D01*
X184645000Y-109993323D02*
X179355000Y-109993323D01*
X180759000Y-107633323D02*
X177326000Y-107633323D01*
X185392000Y-109433323D02*
X178608000Y-109433323D01*
X186525000Y-107953323D02*
X183241000Y-107953323D01*
X185824000Y-108993323D02*
X183241000Y-108993323D01*
X186797000Y-107313323D02*
X183241000Y-107313323D01*
X186166000Y-108553323D02*
X183241000Y-108553323D01*
X186323000Y-108313323D02*
X183241000Y-108313323D01*
X186504000Y-107993323D02*
X183241000Y-107993323D01*
X183742000Y-110433323D02*
X180258000Y-110433323D01*
X182862000Y-110673323D02*
X181138000Y-110673323D01*
X186603000Y-107793323D02*
X183241000Y-107793323D01*
X180759000Y-107513323D02*
X177277000Y-107513323D01*
X186298000Y-108353323D02*
X183241000Y-108353323D01*
X186138000Y-108593323D02*
X183241000Y-108593323D01*
X180759000Y-107113323D02*
X177138000Y-107113323D01*
X186110000Y-108633323D02*
X183241000Y-108633323D01*
X180759000Y-107273323D02*
X177189000Y-107273323D01*
X180759000Y-107953323D02*
X177475000Y-107953323D01*
X186768000Y-107393323D02*
X183241000Y-107393323D01*
X186990000Y-106593323D02*
X177010000Y-106593323D01*
X184830000Y-109873323D02*
X179170000Y-109873323D01*
X185347000Y-109473323D02*
X178653000Y-109473323D01*
X182599000Y-110713323D02*
X181401000Y-110713323D01*
X180759000Y-108473323D02*
X177779000Y-108473323D01*
X185753000Y-109073323D02*
X183241000Y-109073323D01*
X185925000Y-108873323D02*
X183241000Y-108873323D01*
X186020000Y-108753323D02*
X183241000Y-108753323D01*
X184209000Y-110233323D02*
X179791000Y-110233323D01*
X184289000Y-110193323D02*
X179711000Y-110193323D01*
X186194000Y-108513323D02*
X183241000Y-108513323D01*
X180759000Y-108233323D02*
X177629000Y-108233323D01*
X180759000Y-107833323D02*
X177416000Y-107833323D01*
X187077000Y-105832323D02*
X176923000Y-105832323D01*
X180759000Y-107153323D02*
X177150000Y-107153323D01*
X183062000Y-110633323D02*
X180938000Y-110633323D01*
X186657000Y-107673323D02*
X183241000Y-107673323D01*
X180759000Y-107233323D02*
X177176000Y-107233323D01*
X180759000Y-108193323D02*
X177605000Y-108193323D01*
X187070000Y-105952323D02*
X176930000Y-105952323D01*
X180759000Y-109353323D02*
X178522000Y-109353323D01*
X186918000Y-106913323D02*
X183241000Y-106913323D01*
X180759000Y-108273323D02*
X177653000Y-108273323D01*
X185716000Y-109113323D02*
X183241000Y-109113323D01*
X185106000Y-109673323D02*
X178894000Y-109673323D01*
X180759000Y-108593323D02*
X177862000Y-108593323D01*
X180759000Y-108433323D02*
X177753000Y-108433323D01*
X186371000Y-108233323D02*
X183241000Y-108233323D01*
X180759000Y-108993323D02*
X178176000Y-108993323D01*
X186850000Y-107153323D02*
X183241000Y-107153323D01*
X186462000Y-108073323D02*
X183241000Y-108073323D01*
X180759000Y-107873323D02*
X177436000Y-107873323D01*
X180759000Y-108833323D02*
X178043000Y-108833323D01*
X187050000Y-106192323D02*
X176950000Y-106192323D01*
X187075000Y-105872323D02*
X176925000Y-105872323D01*
X180759000Y-109313323D02*
X178480000Y-109313323D01*
X187058000Y-106112323D02*
X176942000Y-106112323D01*
X184945000Y-109793323D02*
X179055000Y-109793323D01*
X180759000Y-107193323D02*
X177163000Y-107193323D01*
X187080000Y-105672323D02*
X176920000Y-105672323D01*
X186347000Y-108273323D02*
X183241000Y-108273323D01*
X185561000Y-109273323D02*
X183241000Y-109273323D01*
X187040000Y-106272323D02*
X176960000Y-106272323D01*
X180759000Y-107313323D02*
X177203000Y-107313323D01*
X187073000Y-105912323D02*
X176927000Y-105912323D01*
X186247000Y-108433323D02*
X183241000Y-108433323D01*
X186738000Y-107473323D02*
X183241000Y-107473323D01*
X183944000Y-110353323D02*
X180056000Y-110353323D01*
X187054000Y-106152323D02*
X176946000Y-106152323D01*
X180759000Y-108153323D02*
X177583000Y-108153323D01*
X180759000Y-108753323D02*
X177980000Y-108753323D01*
X184770000Y-109913323D02*
X179230000Y-109913323D01*
X187062000Y-106072323D02*
X176938000Y-106072323D01*
X187035000Y-106312323D02*
X176965000Y-106312323D01*
X186754000Y-107433323D02*
X183241000Y-107433323D01*
X186080000Y-108673323D02*
X183241000Y-108673323D01*
X180759000Y-109193323D02*
X178360000Y-109193323D01*
X180759000Y-108913323D02*
X178108000Y-108913323D01*
X187011000Y-106473323D02*
X176989000Y-106473323D01*
X180759000Y-108033323D02*
X177517000Y-108033323D01*
X186395000Y-108193323D02*
X183241000Y-108193323D01*
X180759000Y-108513323D02*
X177806000Y-108513323D01*
X180759000Y-107553323D02*
X177293000Y-107553323D01*
X180759000Y-107033323D02*
X177115000Y-107033323D01*
X186417000Y-108153323D02*
X183241000Y-108153323D01*
X180759000Y-109273323D02*
X178439000Y-109273323D01*
X180759000Y-107393323D02*
X177232000Y-107393323D01*
X184875000Y-100152677D02*
X184875000Y-101152677D01*
X186707000Y-107553323D02*
X183241000Y-107553323D01*
X186928000Y-106873323D02*
X177072000Y-106873323D01*
X183846000Y-110393323D02*
X180154000Y-110393323D01*
X186639000Y-107713323D02*
X183241000Y-107713323D01*
X187024000Y-106393323D02*
X176976000Y-106393323D01*
X186974000Y-106673323D02*
X177026000Y-106673323D01*
X187068000Y-105992323D02*
X176932000Y-105992323D01*
X186897000Y-106993323D02*
X183241000Y-106993323D01*
X185520000Y-109313323D02*
X183241000Y-109313323D01*
X180759000Y-107353323D02*
X177217000Y-107353323D01*
X185789000Y-109033323D02*
X183241000Y-109033323D01*
X184709000Y-109953323D02*
X179291000Y-109953323D01*
X180759000Y-108393323D02*
X177727000Y-108393323D01*
X186621000Y-107753323D02*
X183241000Y-107753323D01*
X184037000Y-110313323D02*
X179963000Y-110313323D01*
X185156000Y-109633323D02*
X178844000Y-109633323D01*
X185206000Y-109593323D02*
X178794000Y-109593323D01*
X180759000Y-107673323D02*
X177343000Y-107673323D01*
X187018000Y-106433323D02*
X176982000Y-106433323D01*
X180759000Y-106953323D02*
X177093000Y-106953323D01*
X180759000Y-108873323D02*
X178075000Y-108873323D01*
X186811000Y-107273323D02*
X183241000Y-107273323D01*
X186545000Y-107913323D02*
X183241000Y-107913323D01*
X185601000Y-109233323D02*
X183241000Y-109233323D01*
X187078000Y-105792323D02*
X176922000Y-105792323D01*
X180759000Y-107593323D02*
X177310000Y-107593323D01*
X180759000Y-107913323D02*
X177455000Y-107913323D01*
X186674000Y-107633323D02*
X183241000Y-107633323D01*
X180759000Y-108553323D02*
X177834000Y-108553323D01*
X180759000Y-107433323D02*
X177246000Y-107433323D01*
X187030000Y-106353323D02*
X176970000Y-106353323D01*
X180759000Y-108313323D02*
X177677000Y-108313323D01*
X183630000Y-110473323D02*
X180370000Y-110473323D01*
X186690000Y-107593323D02*
X183241000Y-107593323D01*
X186564000Y-107873323D02*
X183241000Y-107873323D01*
X180759000Y-108073323D02*
X177538000Y-108073323D01*
X187080000Y-105632323D02*
X176920000Y-105632323D01*
X185989000Y-108793323D02*
X183241000Y-108793323D01*
X180759000Y-106993323D02*
X177103000Y-106993323D01*
X187120000Y-105632323D02*
G75*
G03*
X187120000Y-105632323I-5120000J0D01*
G01*
X238300000Y-124625000D02*
X236500000Y-124625000D01*
X227500000Y-124625000D02*
X225700000Y-124625000D01*
X229000000Y-125375000D02*
X235000000Y-125375000D01*
X225400000Y-124325000D02*
X225400000Y-125575000D01*
X226650000Y-124325000D02*
X225400000Y-124325000D01*
X226450000Y-129825000D02*
X232000000Y-129825000D01*
X225700000Y-126875000D02*
X226450000Y-126875000D01*
X227500000Y-125375000D02*
X227500000Y-124625000D01*
X235000000Y-124625000D02*
X229000000Y-124625000D01*
X238300000Y-126875000D02*
X237550000Y-126875000D01*
X225700000Y-124625000D02*
X225700000Y-125375000D01*
X237550000Y-126875000D02*
X237550000Y-129825000D01*
X235000000Y-125375000D02*
X235000000Y-124625000D01*
X237550000Y-129825000D02*
X232000000Y-129825000D01*
X238310000Y-124615000D02*
X225690000Y-124615000D01*
X238300000Y-125375000D02*
X238300000Y-124625000D01*
X229000000Y-124625000D02*
X229000000Y-125375000D01*
X236500000Y-125375000D02*
X238300000Y-125375000D01*
X236500000Y-124625000D02*
X236500000Y-125375000D01*
X226450000Y-126875000D02*
X226450000Y-129825000D01*
X225690000Y-124615000D02*
X225690000Y-130585000D01*
X225690000Y-130585000D02*
X238310000Y-130585000D01*
X225700000Y-125375000D02*
X227500000Y-125375000D01*
X238310000Y-130585000D02*
X238310000Y-124615000D01*
X204522500Y-102745276D02*
X204522500Y-103254724D01*
X203477500Y-102745276D02*
X203477500Y-103254724D01*
X189832776Y-126977500D02*
X190342224Y-126977500D01*
X189832776Y-128022500D02*
X190342224Y-128022500D01*
X193853733Y-128010000D02*
X194146267Y-128010000D01*
X193853733Y-126990000D02*
X194146267Y-126990000D01*
X196245276Y-105977500D02*
X196754724Y-105977500D01*
X196245276Y-107022500D02*
X196754724Y-107022500D01*
X215277500Y-119945276D02*
X215277500Y-120454724D01*
X216322500Y-119945276D02*
X216322500Y-120454724D01*
X184590000Y-123677064D02*
X184590000Y-122222936D01*
X186410000Y-123677064D02*
X186410000Y-122222936D01*
X183000000Y-119000000D02*
X183000000Y-111000000D01*
X183000000Y-111000000D02*
X185300000Y-111000000D01*
X188700000Y-111000000D02*
X191000000Y-111000000D01*
X191000000Y-111000000D02*
X191000000Y-119000000D01*
X185100000Y-119000000D02*
X183000000Y-119000000D01*
X191000000Y-119000000D02*
X188600000Y-119000000D01*
X194146267Y-128890000D02*
X193853733Y-128890000D01*
X194146267Y-129910000D02*
X193853733Y-129910000D01*
X219407276Y-108472500D02*
X219916724Y-108472500D01*
X219407276Y-107427500D02*
X219916724Y-107427500D01*
X200500000Y-127550000D02*
X201500000Y-127550000D01*
X200490000Y-127570000D02*
X200490000Y-130000000D01*
X202500000Y-127550000D02*
X203550000Y-127550000D01*
X203550000Y-127550000D02*
X203550000Y-129400000D01*
X201745276Y-123977500D02*
X202254724Y-123977500D01*
X201745276Y-125022500D02*
X202254724Y-125022500D01*
X184080000Y-129760000D02*
X173840000Y-129760000D01*
X180810000Y-131270000D02*
X180810000Y-129760000D01*
X184080000Y-126629000D02*
X173840000Y-126629000D01*
X177109000Y-131270000D02*
X177109000Y-129760000D01*
X173840000Y-131270000D02*
X173840000Y-126629000D01*
X184080000Y-131270000D02*
X173840000Y-131270000D01*
X184080000Y-131270000D02*
X184080000Y-126629000D01*
X179500000Y-112600000D02*
X179500000Y-118300000D01*
X182500000Y-118300000D02*
X182500000Y-112600000D01*
X179500000Y-118300000D02*
X182500000Y-118300000D01*
X219916724Y-109205500D02*
X219407276Y-109205500D01*
X219916724Y-110250500D02*
X219407276Y-110250500D01*
X222563733Y-123700000D02*
X222856267Y-123700000D01*
X222563733Y-122680000D02*
X222856267Y-122680000D01*
X224849733Y-110492000D02*
X225142267Y-110492000D01*
X224849733Y-109472000D02*
X225142267Y-109472000D01*
X200000000Y-124200000D02*
X197000000Y-124200000D01*
X200000000Y-129900000D02*
X200000000Y-124200000D01*
X197000000Y-124200000D02*
X197000000Y-129900000D01*
X189832776Y-125022500D02*
X190342224Y-125022500D01*
X189832776Y-123977500D02*
X190342224Y-123977500D01*
X247614000Y-124650000D02*
X244114000Y-124650000D01*
X240814000Y-126900000D02*
X241564000Y-126900000D01*
X241564000Y-126900000D02*
X241564000Y-129850000D01*
X242614000Y-125400000D02*
X242614000Y-124650000D01*
X250924000Y-130610000D02*
X250924000Y-124640000D01*
X247614000Y-125400000D02*
X247614000Y-124650000D01*
X249114000Y-125400000D02*
X250914000Y-125400000D01*
X249114000Y-124650000D02*
X249114000Y-125400000D01*
X250914000Y-124650000D02*
X249114000Y-124650000D01*
X250914000Y-126900000D02*
X250164000Y-126900000D01*
X240804000Y-124640000D02*
X240804000Y-130610000D01*
X250164000Y-129850000D02*
X245864000Y-129850000D01*
X240514000Y-124350000D02*
X240514000Y-125600000D01*
X250924000Y-124640000D02*
X240804000Y-124640000D01*
X240814000Y-124650000D02*
X240814000Y-125400000D01*
X250914000Y-125400000D02*
X250914000Y-124650000D01*
X240814000Y-125400000D02*
X242614000Y-125400000D01*
X241764000Y-124350000D02*
X240514000Y-124350000D01*
X244114000Y-124650000D02*
X244114000Y-125400000D01*
X244114000Y-125400000D02*
X247614000Y-125400000D01*
X240804000Y-130610000D02*
X250924000Y-130610000D01*
X250164000Y-126900000D02*
X250164000Y-129850000D01*
X241564000Y-129850000D02*
X245864000Y-129850000D01*
X242614000Y-124650000D02*
X240814000Y-124650000D01*
X179590000Y-123627064D02*
X179590000Y-122172936D01*
X181410000Y-123627064D02*
X181410000Y-122172936D01*
X215451733Y-123700000D02*
X215744267Y-123700000D01*
X215451733Y-122680000D02*
X215744267Y-122680000D01*
X229313276Y-117870500D02*
X229822724Y-117870500D01*
X229313276Y-116825500D02*
X229822724Y-116825500D01*
X226346000Y-120515000D02*
X230406000Y-120515000D01*
X226346000Y-118245000D02*
X226346000Y-120515000D01*
X230406000Y-118245000D02*
X226346000Y-118245000D01*
%LPC*%
D13*
X218837500Y-104500000D03*
X220562500Y-104500000D03*
D14*
X200912500Y-106500000D03*
X199087500Y-106500000D03*
D15*
X202250000Y-102087500D03*
X202250000Y-103912500D03*
D13*
X248387500Y-103750000D03*
X250112500Y-103750000D03*
D16*
X215500000Y-127075000D03*
D17*
X218000000Y-127075000D03*
X220500000Y-127075000D03*
D18*
X218749500Y-106172000D03*
X220574500Y-106172000D03*
D19*
X222537500Y-121150000D03*
X222537500Y-119250000D03*
X220662500Y-120200000D03*
D20*
X213058000Y-107696000D03*
D21*
X213058000Y-110236000D03*
X213058000Y-112776000D03*
X213058000Y-115316000D03*
X213058000Y-117856000D03*
X213058000Y-120396000D03*
D22*
X216050000Y-117337500D03*
X217950000Y-117337500D03*
X217000000Y-115462500D03*
D23*
X191100000Y-103945000D03*
D24*
X192800000Y-103945000D03*
X194500000Y-103945000D03*
X196200000Y-103945000D03*
X197900000Y-103945000D03*
D25*
X218600000Y-119337500D03*
X218600000Y-121062500D03*
D26*
X199000000Y-113000000D03*
D27*
X194000000Y-113000000D03*
D28*
X250365000Y-105830000D03*
X249095000Y-105830000D03*
X247825000Y-105830000D03*
X246555000Y-105830000D03*
X245285000Y-105830000D03*
X244015000Y-105830000D03*
X242745000Y-105830000D03*
X241475000Y-105830000D03*
X240205000Y-105830000D03*
X238935000Y-105830000D03*
X237665000Y-105830000D03*
X236395000Y-105830000D03*
X235125000Y-105830000D03*
X233855000Y-105830000D03*
D29*
X232855000Y-108615000D03*
X232855000Y-109885000D03*
X232855000Y-111155000D03*
X232855000Y-112425000D03*
X232855000Y-113695000D03*
X232855000Y-114965000D03*
X232855000Y-116235000D03*
X232855000Y-117505000D03*
X232855000Y-118775000D03*
X232855000Y-120045000D03*
D28*
X233855000Y-122830000D03*
X235125000Y-122830000D03*
X236395000Y-122830000D03*
X237665000Y-122830000D03*
X238935000Y-122830000D03*
X240205000Y-122830000D03*
X241475000Y-122830000D03*
X242745000Y-122830000D03*
X244015000Y-122830000D03*
X245285000Y-122830000D03*
X246555000Y-122830000D03*
X247825000Y-122830000D03*
X249095000Y-122830000D03*
X250365000Y-122830000D03*
D30*
X242865000Y-113330000D03*
D18*
X195087500Y-121600000D03*
X196912500Y-121600000D03*
D31*
X222062500Y-115200000D03*
X220337500Y-115200000D03*
D18*
X189175000Y-121500000D03*
X191000000Y-121500000D03*
D32*
X230420000Y-107188000D03*
X222520000Y-107188000D03*
D33*
X183000000Y-124450000D03*
X183000000Y-121350000D03*
D18*
X218241500Y-123190000D03*
X220066500Y-123190000D03*
D34*
X171000000Y-113100000D03*
D35*
X171000000Y-105900000D03*
D36*
X222456000Y-110894500D03*
X222456000Y-109069500D03*
D33*
X178000000Y-124500000D03*
X178000000Y-121400000D03*
D13*
X185637500Y-129000000D03*
X187362500Y-129000000D03*
D37*
X168200000Y-119500000D03*
X174800000Y-119500000D03*
D20*
X204000000Y-107696000D03*
D21*
X204000000Y-110236000D03*
X204000000Y-112776000D03*
X204000000Y-115316000D03*
X204000000Y-117856000D03*
X204000000Y-120396000D03*
D38*
X215988000Y-111522000D03*
X215988000Y-112022000D03*
X215988000Y-112522000D03*
X215988000Y-113022000D03*
X215988000Y-113522000D03*
X220288000Y-113522000D03*
X220288000Y-113022000D03*
X220288000Y-112522000D03*
X220288000Y-112022000D03*
X220288000Y-111522000D03*
D39*
X193000000Y-124362500D03*
X193000000Y-122637500D03*
D32*
X230420000Y-112776000D03*
X222520000Y-112776000D03*
D26*
X182000000Y-103132323D03*
D27*
X182000000Y-108132323D03*
D16*
X228250000Y-127075000D03*
D17*
X230750000Y-127075000D03*
X233250000Y-127075000D03*
X235750000Y-127075000D03*
D15*
X204000000Y-102087500D03*
X204000000Y-103912500D03*
D18*
X189175000Y-127500000D03*
X191000000Y-127500000D03*
D13*
X193137500Y-127500000D03*
X194862500Y-127500000D03*
D18*
X195587500Y-106500000D03*
X197412500Y-106500000D03*
D15*
X215800000Y-119287500D03*
X215800000Y-121112500D03*
D33*
X185500000Y-124500000D03*
X185500000Y-121400000D03*
D40*
X187000000Y-111500000D03*
X186900000Y-118500000D03*
D31*
X194862500Y-129400000D03*
X193137500Y-129400000D03*
D18*
X218749500Y-107950000D03*
X220574500Y-107950000D03*
D41*
X201050000Y-129810000D03*
X202950000Y-129810000D03*
X202000000Y-127190000D03*
D18*
X201087500Y-124500000D03*
X202912500Y-124500000D03*
D42*
X181500000Y-128000000D03*
D43*
X178960000Y-128000000D03*
X176420000Y-128000000D03*
D44*
X181000000Y-117400000D03*
X181000000Y-112600000D03*
D14*
X220574500Y-109728000D03*
X218749500Y-109728000D03*
D13*
X221847500Y-123190000D03*
X223572500Y-123190000D03*
X224133500Y-109982000D03*
X225858500Y-109982000D03*
D44*
X198500000Y-125100000D03*
X198500000Y-129900000D03*
D18*
X189175000Y-124500000D03*
X191000000Y-124500000D03*
D45*
X169500000Y-128000000D03*
D16*
X243364000Y-127100000D03*
D17*
X245864000Y-127100000D03*
X248364000Y-127100000D03*
D33*
X180500000Y-124450000D03*
X180500000Y-121350000D03*
D13*
X214735500Y-123190000D03*
X216460500Y-123190000D03*
D18*
X228655500Y-117348000D03*
X230480500Y-117348000D03*
D46*
X227318500Y-119380000D03*
X230293500Y-119380000D03*
M02*
