G04 #@! TF.GenerationSoftware,KiCad,Pcbnew,6.0.1-79c1e3a40b~116~ubuntu20.04.1*
G04 #@! TF.CreationDate,2022-01-24T19:15:43+00:00*
G04 #@! TF.ProjectId,batmon,6261746d-6f6e-42e6-9b69-6361645f7063,rev?*
G04 #@! TF.SameCoordinates,Original*
G04 #@! TF.FileFunction,Soldermask,Top*
G04 #@! TF.FilePolarity,Negative*
%FSLAX46Y46*%
G04 Gerber Fmt 4.6, Leading zero omitted, Abs format (unit mm)*
G04 Created by KiCad (PCBNEW 6.0.1-79c1e3a40b~116~ubuntu20.04.1) date 2022-01-24 19:15:43*
%MOMM*%
%LPD*%
G01*
G04 APERTURE LIST*
G04 Aperture macros list*
%AMRoundRect*
0 Rectangle with rounded corners*
0 $1 Rounding radius*
0 $2 $3 $4 $5 $6 $7 $8 $9 X,Y pos of 4 corners*
0 Add a 4 corners polygon primitive as box body*
4,1,4,$2,$3,$4,$5,$6,$7,$8,$9,$2,$3,0*
0 Add four circle primitives for the rounded corners*
1,1,$1+$1,$2,$3*
1,1,$1+$1,$4,$5*
1,1,$1+$1,$6,$7*
1,1,$1+$1,$8,$9*
0 Add four rect primitives between the rounded corners*
20,1,$1+$1,$2,$3,$4,$5,0*
20,1,$1+$1,$4,$5,$6,$7,0*
20,1,$1+$1,$6,$7,$8,$9,0*
20,1,$1+$1,$8,$9,$2,$3,0*%
%AMFreePoly0*
4,1,22,0.500000,-0.750000,0.000000,-0.750000,0.000000,-0.745033,-0.079941,-0.743568,-0.215256,-0.701293,-0.333266,-0.622738,-0.424486,-0.514219,-0.481581,-0.384460,-0.499164,-0.250000,-0.500000,-0.250000,-0.500000,0.250000,-0.499164,0.250000,-0.499963,0.256109,-0.478152,0.396186,-0.417904,0.524511,-0.324060,0.630769,-0.204165,0.706417,-0.067858,0.745374,0.000000,0.744959,0.000000,0.750000,
0.500000,0.750000,0.500000,-0.750000,0.500000,-0.750000,$1*%
%AMFreePoly1*
4,1,20,0.000000,0.744959,0.073905,0.744508,0.209726,0.703889,0.328688,0.626782,0.421226,0.519385,0.479903,0.390333,0.500000,0.250000,0.500000,-0.250000,0.499851,-0.262216,0.476331,-0.402017,0.414519,-0.529596,0.319384,-0.634700,0.198574,-0.708877,0.061801,-0.746166,0.000000,-0.745033,0.000000,-0.750000,-0.500000,-0.750000,-0.500000,0.750000,0.000000,0.750000,0.000000,0.744959,
0.000000,0.744959,$1*%
G04 Aperture macros list end*
%ADD10R,0.900000X2.000000*%
%ADD11R,2.000000X0.900000*%
%ADD12R,5.000000X5.000000*%
%ADD13RoundRect,0.237500X-0.250000X-0.237500X0.250000X-0.237500X0.250000X0.237500X-0.250000X0.237500X0*%
%ADD14RoundRect,0.237500X-0.237500X0.250000X-0.237500X-0.250000X0.237500X-0.250000X0.237500X0.250000X0*%
%ADD15RoundRect,0.237500X-0.300000X-0.237500X0.300000X-0.237500X0.300000X0.237500X-0.300000X0.237500X0*%
%ADD16RoundRect,0.250000X-0.600000X-0.725000X0.600000X-0.725000X0.600000X0.725000X-0.600000X0.725000X0*%
%ADD17O,1.700000X1.950000*%
%ADD18R,1.500000X2.700000*%
%ADD19RoundRect,0.150000X-0.825000X-0.150000X0.825000X-0.150000X0.825000X0.150000X-0.825000X0.150000X0*%
%ADD20R,1.700000X1.700000*%
%ADD21O,1.700000X1.700000*%
%ADD22R,2.700000X1.500000*%
%ADD23R,1.275000X1.800000*%
%ADD24O,1.275000X1.800000*%
%ADD25RoundRect,0.237500X-0.237500X0.300000X-0.237500X-0.300000X0.237500X-0.300000X0.237500X0.300000X0*%
%ADD26R,2.000000X2.000000*%
%ADD27C,2.000000*%
%ADD28RoundRect,0.237500X0.300000X0.237500X-0.300000X0.237500X-0.300000X-0.237500X0.300000X-0.237500X0*%
%ADD29C,6.400000*%
%ADD30R,1.800000X1.500000*%
%ADD31RoundRect,0.237500X0.237500X-0.250000X0.237500X0.250000X-0.237500X0.250000X-0.237500X-0.250000X0*%
%ADD32RoundRect,0.237500X0.237500X-0.300000X0.237500X0.300000X-0.237500X0.300000X-0.237500X-0.300000X0*%
%ADD33R,2.800000X3.000000*%
%ADD34R,1.100000X0.250000*%
%ADD35R,1.600000X1.600000*%
%ADD36C,1.600000*%
%ADD37R,3.000000X3.000000*%
%ADD38FreePoly0,0.000000*%
%ADD39FreePoly1,0.000000*%
%ADD40RoundRect,0.150000X0.150000X-0.587500X0.150000X0.587500X-0.150000X0.587500X-0.150000X-0.587500X0*%
%ADD41R,1.905000X2.000000*%
%ADD42O,1.905000X2.000000*%
%ADD43R,3.200000X3.500000*%
%ADD44RoundRect,0.237500X0.250000X0.237500X-0.250000X0.237500X-0.250000X-0.237500X0.250000X-0.237500X0*%
%ADD45RoundRect,0.250001X-0.462499X-0.624999X0.462499X-0.624999X0.462499X0.624999X-0.462499X0.624999X0*%
G04 APERTURE END LIST*
D10*
X250365000Y-105830000D03*
X249095000Y-105830000D03*
X247825000Y-105830000D03*
X246555000Y-105830000D03*
X245285000Y-105830000D03*
X244015000Y-105830000D03*
X242745000Y-105830000D03*
X241475000Y-105830000D03*
X240205000Y-105830000D03*
X238935000Y-105830000D03*
X237665000Y-105830000D03*
X236395000Y-105830000D03*
X235125000Y-105830000D03*
X233855000Y-105830000D03*
D11*
X232855000Y-108615000D03*
X232855000Y-109885000D03*
X232855000Y-111155000D03*
X232855000Y-112425000D03*
X232855000Y-113695000D03*
X232855000Y-114965000D03*
X232855000Y-116235000D03*
X232855000Y-117505000D03*
X232855000Y-118775000D03*
X232855000Y-120045000D03*
D10*
X233855000Y-122830000D03*
X235125000Y-122830000D03*
X236395000Y-122830000D03*
X237665000Y-122830000D03*
X238935000Y-122830000D03*
X240205000Y-122830000D03*
X241475000Y-122830000D03*
X242745000Y-122830000D03*
X244015000Y-122830000D03*
X245285000Y-122830000D03*
X246555000Y-122830000D03*
X247825000Y-122830000D03*
X249095000Y-122830000D03*
X250365000Y-122830000D03*
D12*
X242865000Y-113330000D03*
D13*
X184837500Y-107250000D03*
X186662500Y-107250000D03*
D14*
X202250000Y-102087500D03*
X202250000Y-103912500D03*
D15*
X248387500Y-103750000D03*
X250112500Y-103750000D03*
D16*
X215500000Y-126900000D03*
D17*
X218000000Y-126900000D03*
X220500000Y-126900000D03*
D13*
X218749500Y-106172000D03*
X220574500Y-106172000D03*
D18*
X230444000Y-122428000D03*
X225644000Y-122428000D03*
D19*
X180275000Y-121095000D03*
X180275000Y-122365000D03*
X180275000Y-123635000D03*
X180275000Y-124905000D03*
X185225000Y-124905000D03*
X185225000Y-123635000D03*
X185225000Y-122365000D03*
X185225000Y-121095000D03*
D20*
X213058000Y-107696000D03*
D21*
X213058000Y-110236000D03*
X213058000Y-112776000D03*
X213058000Y-115316000D03*
X213058000Y-117856000D03*
X213058000Y-120396000D03*
D22*
X222456000Y-115964000D03*
X222456000Y-120764000D03*
D23*
X180850000Y-104695000D03*
D24*
X182550000Y-104695000D03*
X184250000Y-104695000D03*
X185950000Y-104695000D03*
X187650000Y-104695000D03*
D25*
X218646000Y-119025500D03*
X218646000Y-120750500D03*
D26*
X196250000Y-108867677D03*
D27*
X196250000Y-103867677D03*
D14*
X215852000Y-115419500D03*
X215852000Y-117244500D03*
D13*
X189337500Y-124750000D03*
X191162500Y-124750000D03*
D28*
X219112500Y-115250000D03*
X217387500Y-115250000D03*
D29*
X169500000Y-105000000D03*
D30*
X230420000Y-107188000D03*
X222520000Y-107188000D03*
D13*
X218241500Y-123190000D03*
X220066500Y-123190000D03*
D31*
X222456000Y-110894500D03*
X222456000Y-109069500D03*
D32*
X190750000Y-130000000D03*
X190750000Y-128275000D03*
D33*
X176250000Y-126550000D03*
X176250000Y-119950000D03*
D20*
X204000000Y-107696000D03*
D21*
X204000000Y-110236000D03*
X204000000Y-112776000D03*
X204000000Y-115316000D03*
X204000000Y-117856000D03*
X204000000Y-120396000D03*
D34*
X215988000Y-111522000D03*
X215988000Y-112022000D03*
X215988000Y-112522000D03*
X215988000Y-113022000D03*
X215988000Y-113522000D03*
X220288000Y-113522000D03*
X220288000Y-113022000D03*
X220288000Y-112522000D03*
X220288000Y-112022000D03*
X220288000Y-111522000D03*
D30*
X230420000Y-112776000D03*
X222520000Y-112776000D03*
D29*
X169500000Y-127500000D03*
D35*
X176000000Y-103500000D03*
D36*
X176000000Y-105500000D03*
D16*
X228250000Y-127075000D03*
D17*
X230750000Y-127075000D03*
X233250000Y-127075000D03*
X235750000Y-127075000D03*
D15*
X189387500Y-121250000D03*
X191112500Y-121250000D03*
D14*
X204000000Y-102087500D03*
X204000000Y-103912500D03*
D13*
X188337500Y-107250000D03*
X190162500Y-107250000D03*
D14*
X215852000Y-118975500D03*
X215852000Y-120800500D03*
D37*
X181500000Y-112500000D03*
X188500000Y-112600000D03*
D38*
X191600000Y-115250000D03*
D39*
X192900000Y-115250000D03*
D13*
X218749500Y-107950000D03*
X220574500Y-107950000D03*
D40*
X203050000Y-129937500D03*
X204950000Y-129937500D03*
X204000000Y-128062500D03*
D13*
X203087500Y-124500000D03*
X204912500Y-124500000D03*
D41*
X181750000Y-129250000D03*
D42*
X184290000Y-129250000D03*
X186830000Y-129250000D03*
D43*
X176250000Y-110000000D03*
X176250000Y-116000000D03*
D44*
X220574500Y-109728000D03*
X218749500Y-109728000D03*
D15*
X189387500Y-123250000D03*
X191112500Y-123250000D03*
X221847500Y-123190000D03*
X223572500Y-123190000D03*
X224133500Y-109982000D03*
X225858500Y-109982000D03*
D22*
X200500000Y-125100000D03*
X200500000Y-129900000D03*
D29*
X169500000Y-120000000D03*
D16*
X243364000Y-127100000D03*
D17*
X245864000Y-127100000D03*
X248364000Y-127100000D03*
D15*
X214735500Y-123190000D03*
X216460500Y-123190000D03*
D13*
X228655500Y-117348000D03*
X230480500Y-117348000D03*
D45*
X227318500Y-119380000D03*
X230293500Y-119380000D03*
D29*
X169500000Y-112500000D03*
M02*
