G04 #@! TF.GenerationSoftware,KiCad,Pcbnew,6.0.1-79c1e3a40b~116~ubuntu20.04.1*
G04 #@! TF.CreationDate,2022-04-23T14:55:23+01:00*
G04 #@! TF.ProjectId,batmon,6261746d-6f6e-42e6-9b69-6361645f7063,3.1*
G04 #@! TF.SameCoordinates,Original*
G04 #@! TF.FileFunction,Copper,L2,Bot*
G04 #@! TF.FilePolarity,Positive*
%FSLAX46Y46*%
G04 Gerber Fmt 4.6, Leading zero omitted, Abs format (unit mm)*
G04 Created by KiCad (PCBNEW 6.0.1-79c1e3a40b~116~ubuntu20.04.1) date 2022-04-23 14:55:23*
%MOMM*%
%LPD*%
G01*
G04 APERTURE LIST*
G04 Aperture macros list*
%AMRoundRect*
0 Rectangle with rounded corners*
0 $1 Rounding radius*
0 $2 $3 $4 $5 $6 $7 $8 $9 X,Y pos of 4 corners*
0 Add a 4 corners polygon primitive as box body*
4,1,4,$2,$3,$4,$5,$6,$7,$8,$9,$2,$3,0*
0 Add four circle primitives for the rounded corners*
1,1,$1+$1,$2,$3*
1,1,$1+$1,$4,$5*
1,1,$1+$1,$6,$7*
1,1,$1+$1,$8,$9*
0 Add four rect primitives between the rounded corners*
20,1,$1+$1,$2,$3,$4,$5,0*
20,1,$1+$1,$4,$5,$6,$7,0*
20,1,$1+$1,$6,$7,$8,$9,0*
20,1,$1+$1,$8,$9,$2,$3,0*%
G04 Aperture macros list end*
G04 #@! TA.AperFunction,ComponentPad*
%ADD10RoundRect,0.250000X-0.600000X-0.725000X0.600000X-0.725000X0.600000X0.725000X-0.600000X0.725000X0*%
G04 #@! TD*
G04 #@! TA.AperFunction,ComponentPad*
%ADD11O,1.700000X1.950000*%
G04 #@! TD*
G04 #@! TA.AperFunction,ComponentPad*
%ADD12R,1.700000X1.700000*%
G04 #@! TD*
G04 #@! TA.AperFunction,ComponentPad*
%ADD13O,1.700000X1.700000*%
G04 #@! TD*
G04 #@! TA.AperFunction,ComponentPad*
%ADD14R,1.275000X1.800000*%
G04 #@! TD*
G04 #@! TA.AperFunction,ComponentPad*
%ADD15O,1.275000X1.800000*%
G04 #@! TD*
G04 #@! TA.AperFunction,ComponentPad*
%ADD16R,2.000000X2.000000*%
G04 #@! TD*
G04 #@! TA.AperFunction,ComponentPad*
%ADD17C,2.000000*%
G04 #@! TD*
G04 #@! TA.AperFunction,ComponentPad*
%ADD18RoundRect,1.500000X1.500000X-1.500000X1.500000X1.500000X-1.500000X1.500000X-1.500000X-1.500000X0*%
G04 #@! TD*
G04 #@! TA.AperFunction,ComponentPad*
%ADD19C,6.000000*%
G04 #@! TD*
G04 #@! TA.AperFunction,ComponentPad*
%ADD20R,1.905000X2.000000*%
G04 #@! TD*
G04 #@! TA.AperFunction,ComponentPad*
%ADD21O,1.905000X2.000000*%
G04 #@! TD*
G04 #@! TA.AperFunction,ComponentPad*
%ADD22C,6.400000*%
G04 #@! TD*
G04 #@! TA.AperFunction,SMDPad,CuDef*
%ADD23RoundRect,0.250000X-0.650000X0.412500X-0.650000X-0.412500X0.650000X-0.412500X0.650000X0.412500X0*%
G04 #@! TD*
G04 #@! TA.AperFunction,SMDPad,CuDef*
%ADD24R,2.000000X1.500000*%
G04 #@! TD*
G04 #@! TA.AperFunction,SMDPad,CuDef*
%ADD25R,2.000000X3.800000*%
G04 #@! TD*
G04 #@! TA.AperFunction,SMDPad,CuDef*
%ADD26RoundRect,0.250000X-0.925000X0.875000X-0.925000X-0.875000X0.925000X-0.875000X0.925000X0.875000X0*%
G04 #@! TD*
G04 #@! TA.AperFunction,ViaPad*
%ADD27C,0.800000*%
G04 #@! TD*
G04 #@! TA.AperFunction,Conductor*
%ADD28C,1.000000*%
G04 #@! TD*
G04 #@! TA.AperFunction,Conductor*
%ADD29C,0.500000*%
G04 #@! TD*
G04 #@! TA.AperFunction,Conductor*
%ADD30C,0.250000*%
G04 #@! TD*
G04 APERTURE END LIST*
D10*
X215500000Y-127075000D03*
D11*
X218000000Y-127075000D03*
X220500000Y-127075000D03*
D12*
X213058000Y-107696000D03*
D13*
X213058000Y-110236000D03*
X213058000Y-112776000D03*
X213058000Y-115316000D03*
X213058000Y-117856000D03*
X213058000Y-120396000D03*
D14*
X191100000Y-103945000D03*
D15*
X192800000Y-103945000D03*
X194500000Y-103945000D03*
X196200000Y-103945000D03*
X197900000Y-103945000D03*
D16*
X199000000Y-113000000D03*
D17*
X194000000Y-113000000D03*
D18*
X171000000Y-113100000D03*
D19*
X171000000Y-105900000D03*
D12*
X204000000Y-107696000D03*
D13*
X204000000Y-110236000D03*
X204000000Y-112776000D03*
X204000000Y-115316000D03*
X204000000Y-117856000D03*
X204000000Y-120396000D03*
D16*
X182000000Y-103132323D03*
D17*
X182000000Y-108132323D03*
D10*
X228250000Y-127075000D03*
D11*
X230750000Y-127075000D03*
X233250000Y-127075000D03*
X235750000Y-127075000D03*
D20*
X181500000Y-128000000D03*
D21*
X178960000Y-128000000D03*
X176420000Y-128000000D03*
D22*
X169500000Y-128000000D03*
D10*
X243364000Y-127100000D03*
D11*
X245864000Y-127100000D03*
X248364000Y-127100000D03*
D23*
X216000000Y-119437500D03*
X216000000Y-122562500D03*
D24*
X223450000Y-123300000D03*
D25*
X229750000Y-121000000D03*
D24*
X223450000Y-121000000D03*
X223450000Y-118700000D03*
D26*
X219250000Y-118450000D03*
X219250000Y-123550000D03*
D23*
X233250000Y-119937500D03*
X233250000Y-123062500D03*
D27*
X189000000Y-129400000D03*
X230500000Y-104849500D03*
X245000000Y-109250000D03*
X216500000Y-122500000D03*
X250000000Y-108500000D03*
X198400000Y-128400000D03*
X221800000Y-104500000D03*
X215500000Y-110750000D03*
X227500000Y-123750000D03*
X250250000Y-120750000D03*
X222000000Y-116400000D03*
X218750000Y-113000000D03*
X203000000Y-123000000D03*
X199200000Y-126600000D03*
X202500000Y-119500000D03*
X202500000Y-116256500D03*
X224250000Y-107250000D03*
X246500000Y-107750000D03*
X217250000Y-109750000D03*
X248500000Y-110500000D03*
X199400000Y-121400000D03*
X196500000Y-123275500D03*
X226750000Y-112750000D03*
X234000000Y-125500000D03*
X226750000Y-107000000D03*
X235500000Y-112750000D03*
X235000000Y-116250000D03*
X229000000Y-116250000D03*
X237466286Y-115716286D03*
X220245370Y-110798752D03*
X217250000Y-108000000D03*
X225250000Y-108000000D03*
X227500000Y-108000000D03*
X236500000Y-108000000D03*
X219836500Y-108000000D03*
X200200000Y-123600000D03*
X217200000Y-104575020D03*
X196200000Y-128000000D03*
X191000000Y-126600000D03*
X195000000Y-124000000D03*
D28*
X248364000Y-127100000D02*
X244326500Y-123062500D01*
X223450000Y-123300000D02*
X223900000Y-123750000D01*
X235750000Y-127075000D02*
X235750000Y-125562500D01*
X235750000Y-125562500D02*
X233250000Y-123062500D01*
X244326500Y-123062500D02*
X233250000Y-123062500D01*
X247496500Y-119892500D02*
X249392500Y-119892500D01*
X219250000Y-123550000D02*
X223200000Y-123550000D01*
X247496500Y-119892500D02*
X244326500Y-123062500D01*
X216000000Y-122562500D02*
X218262500Y-122562500D01*
X250250000Y-120750000D02*
X250250000Y-108750000D01*
X220500000Y-124800000D02*
X219250000Y-123550000D01*
X230750000Y-123750000D02*
X232562500Y-123750000D01*
X249250000Y-109250000D02*
X246000000Y-109250000D01*
X213058000Y-120396000D02*
X213833500Y-120396000D01*
X232562500Y-123750000D02*
X233250000Y-123062500D01*
X250000000Y-108500000D02*
X249250000Y-109250000D01*
X220500000Y-126900000D02*
X220500000Y-124800000D01*
X246000000Y-109250000D02*
X245000000Y-109250000D01*
X218262500Y-122562500D02*
X219250000Y-123550000D01*
X223200000Y-123550000D02*
X223450000Y-123300000D01*
X213833500Y-120396000D02*
X216000000Y-122562500D01*
X223900000Y-123750000D02*
X230750000Y-123750000D01*
X249392500Y-119892500D02*
X250250000Y-120750000D01*
X250250000Y-108750000D02*
X250000000Y-108500000D01*
X230750000Y-127075000D02*
X230750000Y-123750000D01*
X213058000Y-117856000D02*
X214418500Y-117856000D01*
D29*
X217057000Y-113857000D02*
X213058000Y-117856000D01*
X218722536Y-113027464D02*
X218750000Y-113000000D01*
X217886536Y-113027464D02*
X217057000Y-113857000D01*
X219600000Y-116400000D02*
X222000000Y-116400000D01*
D28*
X219250000Y-118450000D02*
X223200000Y-118450000D01*
X223200000Y-118450000D02*
X223450000Y-118700000D01*
X216000000Y-119437500D02*
X218262500Y-119437500D01*
X214418500Y-117856000D02*
X216000000Y-119437500D01*
D29*
X217886536Y-113027464D02*
X218722536Y-113027464D01*
X217057000Y-113857000D02*
X219600000Y-116400000D01*
D28*
X218262500Y-119437500D02*
X219250000Y-118450000D01*
D30*
X202500000Y-116256500D02*
X202500000Y-119500000D01*
X199400000Y-126600000D02*
X199200000Y-126600000D01*
X203000000Y-123000000D02*
X199400000Y-126600000D01*
X246500000Y-107750000D02*
X244750000Y-106000000D01*
X224750000Y-106000000D02*
X224250000Y-106500000D01*
X244750000Y-106000000D02*
X224750000Y-106000000D01*
X224250000Y-106500000D02*
X224250000Y-107250000D01*
D28*
X244812500Y-119937500D02*
X248500000Y-116250000D01*
X225149511Y-117649511D02*
X217250000Y-109750000D01*
X248500000Y-116250000D02*
X248500000Y-110500000D01*
X225000000Y-121000000D02*
X229750000Y-121000000D01*
X225000000Y-121000000D02*
X225149511Y-120850489D01*
X229750000Y-121000000D02*
X232187500Y-121000000D01*
X233250000Y-119937500D02*
X244812500Y-119937500D01*
X232187500Y-121000000D02*
X233250000Y-119937500D01*
X225149511Y-120850489D02*
X225149511Y-117649511D01*
X223450000Y-121000000D02*
X225000000Y-121000000D01*
D30*
X204000000Y-107696000D02*
X200324511Y-111371489D01*
X199600000Y-121400000D02*
X199400000Y-121400000D01*
X200324511Y-120675489D02*
X199600000Y-121400000D01*
X200324511Y-111371489D02*
X200324511Y-120675489D01*
X198789188Y-123550480D02*
X196550480Y-123550480D01*
X196550480Y-123550480D02*
X196500000Y-123500000D01*
X204000000Y-110236000D02*
X201000000Y-113236000D01*
X201000000Y-113236000D02*
X201000000Y-121500000D01*
X200839668Y-121500000D02*
X198789188Y-123550480D01*
X201000000Y-121500000D02*
X200839668Y-121500000D01*
X196500000Y-123500000D02*
X196500000Y-123275500D01*
X226750000Y-107000000D02*
X226750000Y-112750000D01*
X229925000Y-128750000D02*
X228250000Y-127075000D01*
X234000000Y-125500000D02*
X234424520Y-125924520D01*
X234424520Y-128325480D02*
X234000000Y-128750000D01*
X234000000Y-128750000D02*
X229925000Y-128750000D01*
X226750000Y-112750000D02*
X235500000Y-112750000D01*
X234424520Y-125924520D02*
X234424520Y-128325480D01*
X229000000Y-116250000D02*
X235000000Y-116250000D01*
X236000000Y-114250000D02*
X237466286Y-115716286D01*
X222798752Y-110798752D02*
X226250000Y-114250000D01*
X226250000Y-114250000D02*
X236000000Y-114250000D01*
X220245370Y-110798752D02*
X222798752Y-110798752D01*
X228000000Y-108000000D02*
X227500000Y-108000000D01*
X217250000Y-108000000D02*
X219836500Y-108000000D01*
X225250000Y-108000000D02*
X219836500Y-108000000D01*
X236500000Y-108000000D02*
X228000000Y-108000000D01*
X201500000Y-115276000D02*
X201500000Y-122000000D01*
X213058000Y-112542000D02*
X214400000Y-111200000D01*
X200975386Y-122824614D02*
X200200000Y-123600000D01*
X204000000Y-112776000D02*
X201500000Y-115276000D01*
X200975386Y-122000000D02*
X200975386Y-122824614D01*
X201500000Y-122000000D02*
X200975386Y-122000000D01*
X214400000Y-111200000D02*
X214400000Y-107375020D01*
X214400000Y-107375020D02*
X217200000Y-104575020D01*
X213058000Y-112776000D02*
X213058000Y-112542000D01*
X196600000Y-124000000D02*
X196600000Y-125800000D01*
X191800000Y-125800000D02*
X191000000Y-126600000D01*
X196600000Y-124000000D02*
X195000000Y-124000000D01*
X196600000Y-125800000D02*
X196600000Y-127600000D01*
X196600000Y-127600000D02*
X196200000Y-128000000D01*
X196600000Y-125800000D02*
X191800000Y-125800000D01*
G04 #@! TA.AperFunction,Conductor*
G36*
X251434121Y-100028002D02*
G01*
X251480614Y-100081658D01*
X251492000Y-100134000D01*
X251492000Y-131866000D01*
X251471998Y-131934121D01*
X251418342Y-131980614D01*
X251366000Y-131992000D01*
X211134000Y-131992000D01*
X211065879Y-131971998D01*
X211019386Y-131918342D01*
X211008000Y-131866000D01*
X211008000Y-127850400D01*
X214141500Y-127850400D01*
X214141837Y-127853646D01*
X214141837Y-127853650D01*
X214149991Y-127932232D01*
X214152474Y-127956166D01*
X214154655Y-127962702D01*
X214154655Y-127962704D01*
X214186405Y-128057870D01*
X214208450Y-128123946D01*
X214301522Y-128274348D01*
X214426697Y-128399305D01*
X214432927Y-128403145D01*
X214432928Y-128403146D01*
X214570976Y-128488240D01*
X214577262Y-128492115D01*
X214611964Y-128503625D01*
X214738611Y-128545632D01*
X214738613Y-128545632D01*
X214745139Y-128547797D01*
X214751975Y-128548497D01*
X214751978Y-128548498D01*
X214787663Y-128552154D01*
X214849600Y-128558500D01*
X216150400Y-128558500D01*
X216153646Y-128558163D01*
X216153650Y-128558163D01*
X216249308Y-128548238D01*
X216249312Y-128548237D01*
X216256166Y-128547526D01*
X216262702Y-128545345D01*
X216262704Y-128545345D01*
X216394806Y-128501272D01*
X216423946Y-128491550D01*
X216574348Y-128398478D01*
X216699305Y-128273303D01*
X216789081Y-128127660D01*
X216841852Y-128080168D01*
X216911924Y-128068744D01*
X216977048Y-128097018D01*
X216987510Y-128106805D01*
X217026559Y-128147738D01*
X217096576Y-128221135D01*
X217281542Y-128358754D01*
X217286293Y-128361170D01*
X217286297Y-128361172D01*
X217330713Y-128383754D01*
X217487051Y-128463240D01*
X217492145Y-128464822D01*
X217492148Y-128464823D01*
X217676983Y-128522216D01*
X217707227Y-128531607D01*
X217712516Y-128532308D01*
X217930489Y-128561198D01*
X217930494Y-128561198D01*
X217935774Y-128561898D01*
X217941103Y-128561698D01*
X217941105Y-128561698D01*
X218058038Y-128557308D01*
X218166158Y-128553249D01*
X218188802Y-128548498D01*
X218314062Y-128522216D01*
X218391791Y-128505907D01*
X218396750Y-128503949D01*
X218396752Y-128503948D01*
X218601256Y-128423185D01*
X218601258Y-128423184D01*
X218606221Y-128421224D01*
X218611047Y-128418296D01*
X218798757Y-128304390D01*
X218798756Y-128304390D01*
X218803317Y-128301623D01*
X218843134Y-128267072D01*
X218973412Y-128154023D01*
X218973414Y-128154021D01*
X218977445Y-128150523D01*
X219053416Y-128057870D01*
X219120240Y-127976373D01*
X219120244Y-127976367D01*
X219123624Y-127972245D01*
X219133520Y-127954861D01*
X219141829Y-127940265D01*
X219192912Y-127890959D01*
X219262542Y-127877098D01*
X219328613Y-127903082D01*
X219355851Y-127932232D01*
X219434852Y-128049578D01*
X219441519Y-128057870D01*
X219593228Y-128216900D01*
X219601186Y-128223941D01*
X219777525Y-128355141D01*
X219786562Y-128360745D01*
X219982484Y-128460357D01*
X219992335Y-128464357D01*
X220202240Y-128529534D01*
X220212624Y-128531817D01*
X220228043Y-128533861D01*
X220242207Y-128531665D01*
X220246000Y-128518478D01*
X220246000Y-128516192D01*
X220754000Y-128516192D01*
X220757973Y-128529723D01*
X220768580Y-128531248D01*
X220886421Y-128506523D01*
X220896617Y-128503463D01*
X221101029Y-128422737D01*
X221110561Y-128418006D01*
X221298462Y-128303984D01*
X221307052Y-128297720D01*
X221473052Y-128153673D01*
X221480472Y-128146042D01*
X221619826Y-127976089D01*
X221625850Y-127967322D01*
X221692406Y-127850400D01*
X226891500Y-127850400D01*
X226891837Y-127853646D01*
X226891837Y-127853650D01*
X226899991Y-127932232D01*
X226902474Y-127956166D01*
X226904655Y-127962702D01*
X226904655Y-127962704D01*
X226936405Y-128057870D01*
X226958450Y-128123946D01*
X227051522Y-128274348D01*
X227176697Y-128399305D01*
X227182927Y-128403145D01*
X227182928Y-128403146D01*
X227320976Y-128488240D01*
X227327262Y-128492115D01*
X227361964Y-128503625D01*
X227488611Y-128545632D01*
X227488613Y-128545632D01*
X227495139Y-128547797D01*
X227501975Y-128548497D01*
X227501978Y-128548498D01*
X227537663Y-128552154D01*
X227599600Y-128558500D01*
X228785406Y-128558500D01*
X228853527Y-128578502D01*
X228874501Y-128595405D01*
X229421343Y-129142247D01*
X229428887Y-129150537D01*
X229433000Y-129157018D01*
X229438777Y-129162443D01*
X229482667Y-129203658D01*
X229485509Y-129206413D01*
X229505231Y-129226135D01*
X229508373Y-129228572D01*
X229508433Y-129228619D01*
X229517445Y-129236317D01*
X229530880Y-129248933D01*
X229549679Y-129266586D01*
X229556622Y-129270403D01*
X229567431Y-129276345D01*
X229583953Y-129287198D01*
X229599959Y-129299614D01*
X229607237Y-129302764D01*
X229607238Y-129302764D01*
X229640537Y-129317174D01*
X229651187Y-129322391D01*
X229689940Y-129343695D01*
X229697615Y-129345666D01*
X229697616Y-129345666D01*
X229709562Y-129348733D01*
X229728267Y-129355137D01*
X229746855Y-129363181D01*
X229754678Y-129364420D01*
X229754688Y-129364423D01*
X229790524Y-129370099D01*
X229802144Y-129372505D01*
X229833959Y-129380673D01*
X229844970Y-129383500D01*
X229865224Y-129383500D01*
X229884934Y-129385051D01*
X229904943Y-129388220D01*
X229912835Y-129387474D01*
X229931580Y-129385702D01*
X229948962Y-129384059D01*
X229960819Y-129383500D01*
X233921233Y-129383500D01*
X233932416Y-129384027D01*
X233939909Y-129385702D01*
X233947835Y-129385453D01*
X233947836Y-129385453D01*
X234007986Y-129383562D01*
X234011945Y-129383500D01*
X234039856Y-129383500D01*
X234043791Y-129383003D01*
X234043856Y-129382995D01*
X234055693Y-129382062D01*
X234087951Y-129381048D01*
X234091970Y-129380922D01*
X234099889Y-129380673D01*
X234119343Y-129375021D01*
X234138700Y-129371013D01*
X234150930Y-129369468D01*
X234150931Y-129369468D01*
X234158797Y-129368474D01*
X234166168Y-129365555D01*
X234166170Y-129365555D01*
X234199912Y-129352196D01*
X234211142Y-129348351D01*
X234245983Y-129338229D01*
X234245984Y-129338229D01*
X234253593Y-129336018D01*
X234260412Y-129331985D01*
X234260417Y-129331983D01*
X234271028Y-129325707D01*
X234288776Y-129317012D01*
X234307617Y-129309552D01*
X234343387Y-129283564D01*
X234353307Y-129277048D01*
X234380170Y-129261161D01*
X234391362Y-129254542D01*
X234396969Y-129248936D01*
X234405685Y-129240220D01*
X234420719Y-129227379D01*
X234430695Y-129220131D01*
X234430696Y-129220130D01*
X234437107Y-129215472D01*
X234465288Y-129181407D01*
X234473278Y-129172626D01*
X234816779Y-128829126D01*
X234825057Y-128821593D01*
X234831538Y-128817480D01*
X234878150Y-128767842D01*
X234880905Y-128764999D01*
X234897854Y-128748051D01*
X234900655Y-128745250D01*
X234903135Y-128742053D01*
X234910840Y-128733031D01*
X234935679Y-128706580D01*
X234941106Y-128700801D01*
X234944925Y-128693855D01*
X234944927Y-128693852D01*
X234950868Y-128683046D01*
X234961719Y-128666527D01*
X234969278Y-128656781D01*
X234974134Y-128650521D01*
X234977279Y-128643252D01*
X234977282Y-128643248D01*
X234991694Y-128609943D01*
X234996911Y-128599293D01*
X235018215Y-128560540D01*
X235023253Y-128540917D01*
X235029656Y-128522216D01*
X235031105Y-128518868D01*
X235034933Y-128510022D01*
X235080341Y-128455448D01*
X235148048Y-128434086D01*
X235207673Y-128447743D01*
X235232483Y-128460357D01*
X235242335Y-128464357D01*
X235452240Y-128529534D01*
X235462624Y-128531817D01*
X235478043Y-128533861D01*
X235492207Y-128531665D01*
X235496000Y-128518478D01*
X235496000Y-128516192D01*
X236004000Y-128516192D01*
X236007973Y-128529723D01*
X236018580Y-128531248D01*
X236136421Y-128506523D01*
X236146617Y-128503463D01*
X236351029Y-128422737D01*
X236360561Y-128418006D01*
X236548462Y-128303984D01*
X236557052Y-128297720D01*
X236723052Y-128153673D01*
X236730472Y-128146042D01*
X236869826Y-127976089D01*
X236875850Y-127967322D01*
X236928175Y-127875400D01*
X242005500Y-127875400D01*
X242005837Y-127878646D01*
X242005837Y-127878650D01*
X242015067Y-127967602D01*
X242016474Y-127981166D01*
X242018655Y-127987702D01*
X242018655Y-127987704D01*
X242049504Y-128080168D01*
X242072450Y-128148946D01*
X242165522Y-128299348D01*
X242290697Y-128424305D01*
X242296927Y-128428145D01*
X242296928Y-128428146D01*
X242434090Y-128512694D01*
X242441262Y-128517115D01*
X242486145Y-128532002D01*
X242602611Y-128570632D01*
X242602613Y-128570632D01*
X242609139Y-128572797D01*
X242615975Y-128573497D01*
X242615978Y-128573498D01*
X242651663Y-128577154D01*
X242713600Y-128583500D01*
X244014400Y-128583500D01*
X244017646Y-128583163D01*
X244017650Y-128583163D01*
X244113308Y-128573238D01*
X244113312Y-128573237D01*
X244120166Y-128572526D01*
X244126702Y-128570345D01*
X244126704Y-128570345D01*
X244270963Y-128522216D01*
X244287946Y-128516550D01*
X244438348Y-128423478D01*
X244563305Y-128298303D01*
X244574883Y-128279521D01*
X244608910Y-128224318D01*
X244653081Y-128152660D01*
X244705852Y-128105168D01*
X244775924Y-128093744D01*
X244841048Y-128122018D01*
X244851510Y-128131805D01*
X244893215Y-128175523D01*
X244960576Y-128246135D01*
X244964854Y-128249318D01*
X245004053Y-128278483D01*
X245145542Y-128383754D01*
X245150293Y-128386170D01*
X245150297Y-128386172D01*
X245213481Y-128418296D01*
X245351051Y-128488240D01*
X245356145Y-128489822D01*
X245356148Y-128489823D01*
X245521583Y-128541192D01*
X245571227Y-128556607D01*
X245576516Y-128557308D01*
X245794489Y-128586198D01*
X245794494Y-128586198D01*
X245799774Y-128586898D01*
X245805103Y-128586698D01*
X245805105Y-128586698D01*
X245914966Y-128582573D01*
X246030158Y-128578249D01*
X246052802Y-128573498D01*
X246250572Y-128532002D01*
X246255791Y-128530907D01*
X246260750Y-128528949D01*
X246260752Y-128528948D01*
X246465256Y-128448185D01*
X246465258Y-128448184D01*
X246470221Y-128446224D01*
X246475525Y-128443006D01*
X246662757Y-128329390D01*
X246662756Y-128329390D01*
X246667317Y-128326623D01*
X246707134Y-128292072D01*
X246837412Y-128179023D01*
X246837414Y-128179021D01*
X246841445Y-128175523D01*
X246917416Y-128082870D01*
X246984240Y-128001373D01*
X246984244Y-128001367D01*
X246987624Y-127997245D01*
X246997520Y-127979861D01*
X247005829Y-127965265D01*
X247056912Y-127915959D01*
X247126542Y-127902098D01*
X247192613Y-127928082D01*
X247219851Y-127957232D01*
X247298852Y-128074578D01*
X247305519Y-128082870D01*
X247457228Y-128241900D01*
X247465186Y-128248941D01*
X247641525Y-128380141D01*
X247650562Y-128385745D01*
X247846484Y-128485357D01*
X247856335Y-128489357D01*
X248066240Y-128554534D01*
X248076624Y-128556817D01*
X248092043Y-128558861D01*
X248106207Y-128556665D01*
X248110000Y-128543478D01*
X248110000Y-128541192D01*
X248618000Y-128541192D01*
X248621973Y-128554723D01*
X248632580Y-128556248D01*
X248750421Y-128531523D01*
X248760617Y-128528463D01*
X248965029Y-128447737D01*
X248974561Y-128443006D01*
X249162462Y-128328984D01*
X249171052Y-128322720D01*
X249337052Y-128178673D01*
X249344472Y-128171042D01*
X249483826Y-128001089D01*
X249489850Y-127992322D01*
X249598576Y-127801318D01*
X249603041Y-127791654D01*
X249678031Y-127585059D01*
X249680802Y-127574792D01*
X249717504Y-127371826D01*
X249716085Y-127358586D01*
X249701450Y-127354000D01*
X248636115Y-127354000D01*
X248620876Y-127358475D01*
X248619671Y-127359865D01*
X248618000Y-127367548D01*
X248618000Y-128541192D01*
X248110000Y-128541192D01*
X248110000Y-126827885D01*
X248618000Y-126827885D01*
X248622475Y-126843124D01*
X248623865Y-126844329D01*
X248631548Y-126846000D01*
X249697849Y-126846000D01*
X249712527Y-126841690D01*
X249714590Y-126829807D01*
X249707876Y-126750675D01*
X249706086Y-126740203D01*
X249650870Y-126527465D01*
X249647335Y-126517425D01*
X249557063Y-126317030D01*
X249551894Y-126307744D01*
X249429150Y-126125425D01*
X249422481Y-126117130D01*
X249270772Y-125958100D01*
X249262814Y-125951059D01*
X249086475Y-125819859D01*
X249077438Y-125814255D01*
X248881516Y-125714643D01*
X248871665Y-125710643D01*
X248661760Y-125645466D01*
X248651376Y-125643183D01*
X248635957Y-125641139D01*
X248621793Y-125643335D01*
X248618000Y-125656522D01*
X248618000Y-126827885D01*
X248110000Y-126827885D01*
X248110000Y-125658808D01*
X248106027Y-125645277D01*
X248095420Y-125643752D01*
X247977579Y-125668477D01*
X247967383Y-125671537D01*
X247762971Y-125752263D01*
X247753439Y-125756994D01*
X247565538Y-125871016D01*
X247556948Y-125877280D01*
X247390948Y-126021327D01*
X247383528Y-126028958D01*
X247244174Y-126198911D01*
X247238152Y-126207674D01*
X247222762Y-126234711D01*
X247171680Y-126284018D01*
X247102049Y-126297880D01*
X247035978Y-126271897D01*
X247008739Y-126242747D01*
X246964983Y-126177755D01*
X246926559Y-126120681D01*
X246906934Y-126100108D01*
X246839059Y-126028958D01*
X246767424Y-125953865D01*
X246582458Y-125816246D01*
X246577707Y-125813830D01*
X246577703Y-125813828D01*
X246459588Y-125753776D01*
X246376949Y-125711760D01*
X246371855Y-125710178D01*
X246371852Y-125710177D01*
X246161871Y-125644976D01*
X246156773Y-125643393D01*
X246151484Y-125642692D01*
X245933511Y-125613802D01*
X245933506Y-125613802D01*
X245928226Y-125613102D01*
X245922897Y-125613302D01*
X245922895Y-125613302D01*
X245813034Y-125617426D01*
X245697842Y-125621751D01*
X245692623Y-125622846D01*
X245670566Y-125627474D01*
X245472209Y-125669093D01*
X245467250Y-125671051D01*
X245467248Y-125671052D01*
X245262744Y-125751815D01*
X245262742Y-125751816D01*
X245257779Y-125753776D01*
X245253220Y-125756543D01*
X245253217Y-125756544D01*
X245158113Y-125814255D01*
X245060683Y-125873377D01*
X245056653Y-125876874D01*
X244910607Y-126003606D01*
X244886555Y-126024477D01*
X244857330Y-126060120D01*
X244798671Y-126100114D01*
X244727701Y-126102046D01*
X244666952Y-126065302D01*
X244652752Y-126046532D01*
X244566332Y-125906880D01*
X244562478Y-125900652D01*
X244437303Y-125775695D01*
X244431072Y-125771854D01*
X244292968Y-125686725D01*
X244292966Y-125686724D01*
X244286738Y-125682885D01*
X244177152Y-125646537D01*
X244125389Y-125629368D01*
X244125387Y-125629368D01*
X244118861Y-125627203D01*
X244112025Y-125626503D01*
X244112022Y-125626502D01*
X244068969Y-125622091D01*
X244014400Y-125616500D01*
X242713600Y-125616500D01*
X242710354Y-125616837D01*
X242710350Y-125616837D01*
X242614692Y-125626762D01*
X242614688Y-125626763D01*
X242607834Y-125627474D01*
X242601298Y-125629655D01*
X242601296Y-125629655D01*
X242469194Y-125673728D01*
X242440054Y-125683450D01*
X242289652Y-125776522D01*
X242164695Y-125901697D01*
X242160855Y-125907927D01*
X242160854Y-125907928D01*
X242090954Y-126021327D01*
X242071885Y-126052262D01*
X242050472Y-126116822D01*
X242028630Y-126182674D01*
X242016203Y-126220139D01*
X242015503Y-126226975D01*
X242015502Y-126226978D01*
X242013461Y-126246897D01*
X242005500Y-126324600D01*
X242005500Y-127875400D01*
X236928175Y-127875400D01*
X236984576Y-127776318D01*
X236989041Y-127766654D01*
X237064031Y-127560059D01*
X237066802Y-127549792D01*
X237103504Y-127346826D01*
X237102085Y-127333586D01*
X237087450Y-127329000D01*
X236022115Y-127329000D01*
X236006876Y-127333475D01*
X236005671Y-127334865D01*
X236004000Y-127342548D01*
X236004000Y-128516192D01*
X235496000Y-128516192D01*
X235496000Y-126802885D01*
X236004000Y-126802885D01*
X236008475Y-126818124D01*
X236009865Y-126819329D01*
X236017548Y-126821000D01*
X237083849Y-126821000D01*
X237098527Y-126816690D01*
X237100590Y-126804807D01*
X237093876Y-126725675D01*
X237092086Y-126715203D01*
X237036870Y-126502465D01*
X237033335Y-126492425D01*
X236943063Y-126292030D01*
X236937894Y-126282744D01*
X236815150Y-126100425D01*
X236808481Y-126092130D01*
X236656772Y-125933100D01*
X236648814Y-125926059D01*
X236472475Y-125794859D01*
X236463438Y-125789255D01*
X236267516Y-125689643D01*
X236257665Y-125685643D01*
X236047760Y-125620466D01*
X236037376Y-125618183D01*
X236021957Y-125616139D01*
X236007793Y-125618335D01*
X236004000Y-125631522D01*
X236004000Y-126802885D01*
X235496000Y-126802885D01*
X235496000Y-125633808D01*
X235492027Y-125620277D01*
X235481420Y-125618752D01*
X235363579Y-125643477D01*
X235353383Y-125646537D01*
X235163760Y-125721422D01*
X235093054Y-125727840D01*
X235030103Y-125695012D01*
X235009027Y-125668372D01*
X235005096Y-125661725D01*
X235000226Y-125653490D01*
X234991532Y-125635744D01*
X234984072Y-125616903D01*
X234975174Y-125604655D01*
X234958084Y-125581133D01*
X234951568Y-125571213D01*
X234929062Y-125533158D01*
X234931736Y-125531577D01*
X234911542Y-125481333D01*
X234894232Y-125316635D01*
X234894232Y-125316633D01*
X234893542Y-125310072D01*
X234834527Y-125128444D01*
X234739040Y-124963056D01*
X234685120Y-124903171D01*
X234615675Y-124826045D01*
X234615674Y-124826044D01*
X234611253Y-124821134D01*
X234456752Y-124708882D01*
X234450724Y-124706198D01*
X234450722Y-124706197D01*
X234288319Y-124633891D01*
X234288318Y-124633891D01*
X234282288Y-124631206D01*
X234188887Y-124611353D01*
X234101944Y-124592872D01*
X234101939Y-124592872D01*
X234095487Y-124591500D01*
X233904513Y-124591500D01*
X233898061Y-124592872D01*
X233898056Y-124592872D01*
X233811113Y-124611353D01*
X233717712Y-124631206D01*
X233711682Y-124633891D01*
X233711681Y-124633891D01*
X233549278Y-124706197D01*
X233549276Y-124706198D01*
X233543248Y-124708882D01*
X233388747Y-124821134D01*
X233384326Y-124826044D01*
X233384325Y-124826045D01*
X233314881Y-124903171D01*
X233260960Y-124963056D01*
X233165473Y-125128444D01*
X233106458Y-125310072D01*
X233086496Y-125500000D01*
X233085383Y-125499883D01*
X233067184Y-125561864D01*
X233013528Y-125608357D01*
X232987060Y-125617058D01*
X232980696Y-125618393D01*
X232863430Y-125642997D01*
X232863424Y-125642999D01*
X232858209Y-125644093D01*
X232853250Y-125646051D01*
X232853248Y-125646052D01*
X232648744Y-125726815D01*
X232648742Y-125726816D01*
X232643779Y-125728776D01*
X232639220Y-125731543D01*
X232639217Y-125731544D01*
X232544113Y-125789255D01*
X232446683Y-125848377D01*
X232442653Y-125851874D01*
X232289687Y-125984611D01*
X232272555Y-125999477D01*
X232268881Y-126003958D01*
X232129760Y-126173627D01*
X232129756Y-126173633D01*
X232126376Y-126177755D01*
X232123733Y-126182398D01*
X232108171Y-126209735D01*
X232057088Y-126259041D01*
X231987458Y-126272902D01*
X231921387Y-126246918D01*
X231894149Y-126217768D01*
X231815148Y-126100422D01*
X231808481Y-126092130D01*
X231656772Y-125933100D01*
X231648814Y-125926059D01*
X231472475Y-125794859D01*
X231463438Y-125789255D01*
X231267516Y-125689643D01*
X231257665Y-125685643D01*
X231047760Y-125620466D01*
X231037376Y-125618183D01*
X231021957Y-125616139D01*
X231007793Y-125618335D01*
X231004000Y-125631522D01*
X231004000Y-127203000D01*
X230983998Y-127271121D01*
X230930342Y-127317614D01*
X230878000Y-127329000D01*
X230622000Y-127329000D01*
X230553879Y-127308998D01*
X230507386Y-127255342D01*
X230496000Y-127203000D01*
X230496000Y-125633808D01*
X230492027Y-125620277D01*
X230481420Y-125618752D01*
X230363579Y-125643477D01*
X230353383Y-125646537D01*
X230148971Y-125727263D01*
X230139439Y-125731994D01*
X229951538Y-125846016D01*
X229942948Y-125852280D01*
X229776948Y-125996327D01*
X229769530Y-126003956D01*
X229743609Y-126035569D01*
X229684949Y-126075564D01*
X229613979Y-126077496D01*
X229553230Y-126040752D01*
X229539030Y-126021982D01*
X229527877Y-126003958D01*
X229448478Y-125875652D01*
X229323303Y-125750695D01*
X229292965Y-125731994D01*
X229178968Y-125661725D01*
X229178966Y-125661724D01*
X229172738Y-125657885D01*
X229078121Y-125626502D01*
X229011389Y-125604368D01*
X229011387Y-125604368D01*
X229004861Y-125602203D01*
X228998025Y-125601503D01*
X228998022Y-125601502D01*
X228954969Y-125597091D01*
X228900400Y-125591500D01*
X227599600Y-125591500D01*
X227596354Y-125591837D01*
X227596350Y-125591837D01*
X227500692Y-125601762D01*
X227500688Y-125601763D01*
X227493834Y-125602474D01*
X227487298Y-125604655D01*
X227487296Y-125604655D01*
X227355194Y-125648728D01*
X227326054Y-125658450D01*
X227175652Y-125751522D01*
X227050695Y-125876697D01*
X227046855Y-125882927D01*
X227046854Y-125882928D01*
X226972466Y-126003608D01*
X226957885Y-126027262D01*
X226902203Y-126195139D01*
X226901503Y-126201975D01*
X226901502Y-126201978D01*
X226899338Y-126223102D01*
X226891500Y-126299600D01*
X226891500Y-127850400D01*
X221692406Y-127850400D01*
X221734576Y-127776318D01*
X221739041Y-127766654D01*
X221814031Y-127560059D01*
X221816802Y-127549792D01*
X221853504Y-127346826D01*
X221852085Y-127333586D01*
X221837450Y-127329000D01*
X220772115Y-127329000D01*
X220756876Y-127333475D01*
X220755671Y-127334865D01*
X220754000Y-127342548D01*
X220754000Y-128516192D01*
X220246000Y-128516192D01*
X220246000Y-126802885D01*
X220754000Y-126802885D01*
X220758475Y-126818124D01*
X220759865Y-126819329D01*
X220767548Y-126821000D01*
X221833849Y-126821000D01*
X221848527Y-126816690D01*
X221850590Y-126804807D01*
X221843876Y-126725675D01*
X221842086Y-126715203D01*
X221786870Y-126502465D01*
X221783335Y-126492425D01*
X221693063Y-126292030D01*
X221687894Y-126282744D01*
X221565150Y-126100425D01*
X221558481Y-126092130D01*
X221406772Y-125933100D01*
X221398814Y-125926059D01*
X221222475Y-125794859D01*
X221213438Y-125789255D01*
X221017516Y-125689643D01*
X221007665Y-125685643D01*
X220797760Y-125620466D01*
X220787376Y-125618183D01*
X220771957Y-125616139D01*
X220757793Y-125618335D01*
X220754000Y-125631522D01*
X220754000Y-126802885D01*
X220246000Y-126802885D01*
X220246000Y-125633808D01*
X220242027Y-125620277D01*
X220231420Y-125618752D01*
X220113579Y-125643477D01*
X220103383Y-125646537D01*
X219898971Y-125727263D01*
X219889439Y-125731994D01*
X219701538Y-125846016D01*
X219692948Y-125852280D01*
X219526948Y-125996327D01*
X219519528Y-126003958D01*
X219380174Y-126173911D01*
X219374152Y-126182674D01*
X219358762Y-126209711D01*
X219307680Y-126259018D01*
X219238049Y-126272880D01*
X219171978Y-126246897D01*
X219144739Y-126217747D01*
X219066844Y-126102046D01*
X219062559Y-126095681D01*
X219045212Y-126077496D01*
X218974725Y-126003608D01*
X218903424Y-125928865D01*
X218865505Y-125900652D01*
X218748809Y-125813828D01*
X218718458Y-125791246D01*
X218713707Y-125788830D01*
X218713703Y-125788828D01*
X218593747Y-125727840D01*
X218512949Y-125686760D01*
X218507855Y-125685178D01*
X218507852Y-125685177D01*
X218297871Y-125619976D01*
X218292773Y-125618393D01*
X218287484Y-125617692D01*
X218069511Y-125588802D01*
X218069506Y-125588802D01*
X218064226Y-125588102D01*
X218058897Y-125588302D01*
X218058895Y-125588302D01*
X217949034Y-125592427D01*
X217833842Y-125596751D01*
X217828623Y-125597846D01*
X217768381Y-125610486D01*
X217608209Y-125644093D01*
X217603250Y-125646051D01*
X217603248Y-125646052D01*
X217398744Y-125726815D01*
X217398742Y-125726816D01*
X217393779Y-125728776D01*
X217389220Y-125731543D01*
X217389217Y-125731544D01*
X217294113Y-125789255D01*
X217196683Y-125848377D01*
X217192653Y-125851874D01*
X217039687Y-125984611D01*
X217022555Y-125999477D01*
X216993330Y-126035120D01*
X216934671Y-126075114D01*
X216863701Y-126077046D01*
X216802952Y-126040302D01*
X216788752Y-126021532D01*
X216702332Y-125881880D01*
X216698478Y-125875652D01*
X216573303Y-125750695D01*
X216542965Y-125731994D01*
X216428968Y-125661725D01*
X216428966Y-125661724D01*
X216422738Y-125657885D01*
X216328121Y-125626502D01*
X216261389Y-125604368D01*
X216261387Y-125604368D01*
X216254861Y-125602203D01*
X216248025Y-125601503D01*
X216248022Y-125601502D01*
X216204969Y-125597091D01*
X216150400Y-125591500D01*
X214849600Y-125591500D01*
X214846354Y-125591837D01*
X214846350Y-125591837D01*
X214750692Y-125601762D01*
X214750688Y-125601763D01*
X214743834Y-125602474D01*
X214737298Y-125604655D01*
X214737296Y-125604655D01*
X214605194Y-125648728D01*
X214576054Y-125658450D01*
X214425652Y-125751522D01*
X214300695Y-125876697D01*
X214296855Y-125882927D01*
X214296854Y-125882928D01*
X214222466Y-126003608D01*
X214207885Y-126027262D01*
X214152203Y-126195139D01*
X214151503Y-126201975D01*
X214151502Y-126201978D01*
X214149338Y-126223102D01*
X214141500Y-126299600D01*
X214141500Y-127850400D01*
X211008000Y-127850400D01*
X211008000Y-124472095D01*
X217567001Y-124472095D01*
X217567338Y-124478614D01*
X217577257Y-124574206D01*
X217580149Y-124587600D01*
X217631588Y-124741784D01*
X217637761Y-124754962D01*
X217723063Y-124892807D01*
X217732099Y-124904208D01*
X217846829Y-125018739D01*
X217858240Y-125027751D01*
X217996243Y-125112816D01*
X218009424Y-125118963D01*
X218163710Y-125170138D01*
X218177086Y-125173005D01*
X218271438Y-125182672D01*
X218277854Y-125183000D01*
X218977885Y-125183000D01*
X218993124Y-125178525D01*
X218994329Y-125177135D01*
X218996000Y-125169452D01*
X218996000Y-125164884D01*
X219504000Y-125164884D01*
X219508475Y-125180123D01*
X219509865Y-125181328D01*
X219517548Y-125182999D01*
X220222095Y-125182999D01*
X220228614Y-125182662D01*
X220324206Y-125172743D01*
X220337600Y-125169851D01*
X220491784Y-125118412D01*
X220504962Y-125112239D01*
X220642807Y-125026937D01*
X220654208Y-125017901D01*
X220768739Y-124903171D01*
X220777751Y-124891760D01*
X220862816Y-124753757D01*
X220868963Y-124740576D01*
X220920138Y-124586290D01*
X220923005Y-124572914D01*
X220932672Y-124478562D01*
X220933000Y-124472146D01*
X220933000Y-124094669D01*
X221942001Y-124094669D01*
X221942371Y-124101490D01*
X221947895Y-124152352D01*
X221951521Y-124167604D01*
X221996676Y-124288054D01*
X222005214Y-124303649D01*
X222081715Y-124405724D01*
X222094276Y-124418285D01*
X222196351Y-124494786D01*
X222211946Y-124503324D01*
X222332394Y-124548478D01*
X222347649Y-124552105D01*
X222398514Y-124557631D01*
X222405328Y-124558000D01*
X223177885Y-124558000D01*
X223193124Y-124553525D01*
X223194329Y-124552135D01*
X223196000Y-124544452D01*
X223196000Y-124539884D01*
X223704000Y-124539884D01*
X223708475Y-124555123D01*
X223709865Y-124556328D01*
X223717548Y-124557999D01*
X224494669Y-124557999D01*
X224501490Y-124557629D01*
X224552352Y-124552105D01*
X224567604Y-124548479D01*
X224688054Y-124503324D01*
X224703649Y-124494786D01*
X224805724Y-124418285D01*
X224818285Y-124405724D01*
X224894786Y-124303649D01*
X224903324Y-124288054D01*
X224948478Y-124167606D01*
X224952105Y-124152351D01*
X224957631Y-124101486D01*
X224958000Y-124094672D01*
X224958000Y-123572115D01*
X224953525Y-123556876D01*
X224952135Y-123555671D01*
X224944452Y-123554000D01*
X223722115Y-123554000D01*
X223706876Y-123558475D01*
X223705671Y-123559865D01*
X223704000Y-123567548D01*
X223704000Y-124539884D01*
X223196000Y-124539884D01*
X223196000Y-123572115D01*
X223191525Y-123556876D01*
X223190135Y-123555671D01*
X223182452Y-123554000D01*
X221960116Y-123554000D01*
X221944877Y-123558475D01*
X221943672Y-123559865D01*
X221942001Y-123567548D01*
X221942001Y-124094669D01*
X220933000Y-124094669D01*
X220933000Y-123822115D01*
X220928525Y-123806876D01*
X220927135Y-123805671D01*
X220919452Y-123804000D01*
X219522115Y-123804000D01*
X219506876Y-123808475D01*
X219505671Y-123809865D01*
X219504000Y-123817548D01*
X219504000Y-125164884D01*
X218996000Y-125164884D01*
X218996000Y-123822115D01*
X218991525Y-123806876D01*
X218990135Y-123805671D01*
X218982452Y-123804000D01*
X217585116Y-123804000D01*
X217569877Y-123808475D01*
X217568672Y-123809865D01*
X217567001Y-123817548D01*
X217567001Y-124472095D01*
X211008000Y-124472095D01*
X211008000Y-123553207D01*
X211009746Y-123532303D01*
X211012264Y-123517335D01*
X211013071Y-123512539D01*
X211013224Y-123500000D01*
X211012534Y-123495185D01*
X211012373Y-123492710D01*
X211011805Y-123487115D01*
X210994495Y-123200938D01*
X210994494Y-123200932D01*
X210994265Y-123197142D01*
X210962186Y-123022095D01*
X214592001Y-123022095D01*
X214592338Y-123028614D01*
X214602257Y-123124206D01*
X214605149Y-123137600D01*
X214656588Y-123291784D01*
X214662761Y-123304962D01*
X214748063Y-123442807D01*
X214757099Y-123454208D01*
X214871829Y-123568739D01*
X214883240Y-123577751D01*
X215021243Y-123662816D01*
X215034424Y-123668963D01*
X215188710Y-123720138D01*
X215202086Y-123723005D01*
X215296438Y-123732672D01*
X215302854Y-123733000D01*
X215727885Y-123733000D01*
X215743124Y-123728525D01*
X215744329Y-123727135D01*
X215746000Y-123719452D01*
X215746000Y-123714884D01*
X216254000Y-123714884D01*
X216258475Y-123730123D01*
X216259865Y-123731328D01*
X216267548Y-123732999D01*
X216697095Y-123732999D01*
X216703614Y-123732662D01*
X216799206Y-123722743D01*
X216812600Y-123719851D01*
X216966784Y-123668412D01*
X216979962Y-123662239D01*
X217117807Y-123576937D01*
X217129208Y-123567901D01*
X217174935Y-123522095D01*
X231842001Y-123522095D01*
X231842338Y-123528614D01*
X231852257Y-123624206D01*
X231855149Y-123637600D01*
X231906588Y-123791784D01*
X231912761Y-123804962D01*
X231998063Y-123942807D01*
X232007099Y-123954208D01*
X232121829Y-124068739D01*
X232133240Y-124077751D01*
X232271243Y-124162816D01*
X232284424Y-124168963D01*
X232438710Y-124220138D01*
X232452086Y-124223005D01*
X232546438Y-124232672D01*
X232552854Y-124233000D01*
X232977885Y-124233000D01*
X232993124Y-124228525D01*
X232994329Y-124227135D01*
X232996000Y-124219452D01*
X232996000Y-124214884D01*
X233504000Y-124214884D01*
X233508475Y-124230123D01*
X233509865Y-124231328D01*
X233517548Y-124232999D01*
X233947095Y-124232999D01*
X233953614Y-124232662D01*
X234049206Y-124222743D01*
X234062600Y-124219851D01*
X234216784Y-124168412D01*
X234229962Y-124162239D01*
X234367807Y-124076937D01*
X234379208Y-124067901D01*
X234493739Y-123953171D01*
X234502751Y-123941760D01*
X234587816Y-123803757D01*
X234593963Y-123790576D01*
X234645138Y-123636290D01*
X234648005Y-123622914D01*
X234657672Y-123528562D01*
X234658000Y-123522146D01*
X234658000Y-123334615D01*
X234653525Y-123319376D01*
X234652135Y-123318171D01*
X234644452Y-123316500D01*
X233522115Y-123316500D01*
X233506876Y-123320975D01*
X233505671Y-123322365D01*
X233504000Y-123330048D01*
X233504000Y-124214884D01*
X232996000Y-124214884D01*
X232996000Y-123334615D01*
X232991525Y-123319376D01*
X232990135Y-123318171D01*
X232982452Y-123316500D01*
X231860116Y-123316500D01*
X231844877Y-123320975D01*
X231843672Y-123322365D01*
X231842001Y-123330048D01*
X231842001Y-123522095D01*
X217174935Y-123522095D01*
X217243739Y-123453171D01*
X217252751Y-123441760D01*
X217337817Y-123303756D01*
X217342050Y-123294678D01*
X217388966Y-123241392D01*
X217457242Y-123221929D01*
X217525203Y-123242469D01*
X217559694Y-123282916D01*
X217572865Y-123294329D01*
X217580548Y-123296000D01*
X218977885Y-123296000D01*
X218993124Y-123291525D01*
X218994329Y-123290135D01*
X218996000Y-123282452D01*
X218996000Y-123277885D01*
X219504000Y-123277885D01*
X219508475Y-123293124D01*
X219509865Y-123294329D01*
X219517548Y-123296000D01*
X220914884Y-123296000D01*
X220930123Y-123291525D01*
X220931328Y-123290135D01*
X220932999Y-123282452D01*
X220932999Y-122627905D01*
X220932662Y-122621386D01*
X220922743Y-122525794D01*
X220919851Y-122512400D01*
X220868412Y-122358216D01*
X220862239Y-122345038D01*
X220776937Y-122207193D01*
X220767901Y-122195792D01*
X220653171Y-122081261D01*
X220641760Y-122072249D01*
X220503757Y-121987184D01*
X220490576Y-121981037D01*
X220336290Y-121929862D01*
X220322914Y-121926995D01*
X220228562Y-121917328D01*
X220222145Y-121917000D01*
X219522115Y-121917000D01*
X219506876Y-121921475D01*
X219505671Y-121922865D01*
X219504000Y-121930548D01*
X219504000Y-123277885D01*
X218996000Y-123277885D01*
X218996000Y-121935116D01*
X218991525Y-121919877D01*
X218990135Y-121918672D01*
X218982452Y-121917001D01*
X218277905Y-121917001D01*
X218271386Y-121917338D01*
X218175794Y-121927257D01*
X218162400Y-121930149D01*
X218008216Y-121981588D01*
X217995038Y-121987761D01*
X217857193Y-122073063D01*
X217845792Y-122082099D01*
X217731261Y-122196829D01*
X217722249Y-122208240D01*
X217641259Y-122339631D01*
X217588487Y-122387124D01*
X217518415Y-122398548D01*
X217453292Y-122370274D01*
X217413792Y-122311280D01*
X217407999Y-122273515D01*
X217407999Y-122102905D01*
X217407662Y-122096386D01*
X217397743Y-122000794D01*
X217394851Y-121987400D01*
X217343412Y-121833216D01*
X217337239Y-121820038D01*
X217251937Y-121682193D01*
X217242901Y-121670792D01*
X217128171Y-121556261D01*
X217116760Y-121547249D01*
X216978757Y-121462184D01*
X216965576Y-121456037D01*
X216811290Y-121404862D01*
X216797914Y-121401995D01*
X216703562Y-121392328D01*
X216697145Y-121392000D01*
X216272115Y-121392000D01*
X216256876Y-121396475D01*
X216255671Y-121397865D01*
X216254000Y-121405548D01*
X216254000Y-123714884D01*
X215746000Y-123714884D01*
X215746000Y-122834615D01*
X215741525Y-122819376D01*
X215740135Y-122818171D01*
X215732452Y-122816500D01*
X214610116Y-122816500D01*
X214594877Y-122820975D01*
X214593672Y-122822365D01*
X214592001Y-122830048D01*
X214592001Y-123022095D01*
X210962186Y-123022095D01*
X210939573Y-122898699D01*
X210918181Y-122830048D01*
X210850440Y-122612661D01*
X210849307Y-122609025D01*
X210846531Y-122602855D01*
X210787045Y-122470684D01*
X210724783Y-122332344D01*
X210718073Y-122321243D01*
X210699418Y-122290385D01*
X214592000Y-122290385D01*
X214596475Y-122305624D01*
X214597865Y-122306829D01*
X214605548Y-122308500D01*
X215727885Y-122308500D01*
X215743124Y-122304025D01*
X215744329Y-122302635D01*
X215746000Y-122294952D01*
X215746000Y-121410116D01*
X215741525Y-121394877D01*
X215740135Y-121393672D01*
X215732452Y-121392001D01*
X215302905Y-121392001D01*
X215296386Y-121392338D01*
X215200794Y-121402257D01*
X215187400Y-121405149D01*
X215033216Y-121456588D01*
X215020038Y-121462761D01*
X214882193Y-121548063D01*
X214870792Y-121557099D01*
X214756261Y-121671829D01*
X214747249Y-121683240D01*
X214662184Y-121821243D01*
X214656037Y-121834424D01*
X214604862Y-121988710D01*
X214601995Y-122002086D01*
X214592328Y-122096438D01*
X214592000Y-122102855D01*
X214592000Y-122290385D01*
X210699418Y-122290385D01*
X210649759Y-122208240D01*
X210567816Y-122072689D01*
X210562873Y-122066379D01*
X210526815Y-122020355D01*
X210500549Y-121954396D01*
X210500000Y-121942649D01*
X210500000Y-120663966D01*
X211726257Y-120663966D01*
X211756565Y-120798446D01*
X211759645Y-120808275D01*
X211839770Y-121005603D01*
X211844413Y-121014794D01*
X211955694Y-121196388D01*
X211961777Y-121204699D01*
X212101213Y-121365667D01*
X212108580Y-121372883D01*
X212272434Y-121508916D01*
X212280881Y-121514831D01*
X212464756Y-121622279D01*
X212474042Y-121626729D01*
X212673001Y-121702703D01*
X212682899Y-121705579D01*
X212786250Y-121726606D01*
X212800299Y-121725410D01*
X212804000Y-121715065D01*
X212804000Y-121714517D01*
X213312000Y-121714517D01*
X213316064Y-121728359D01*
X213329478Y-121730393D01*
X213336184Y-121729534D01*
X213346262Y-121727392D01*
X213550255Y-121666191D01*
X213559842Y-121662433D01*
X213751095Y-121568739D01*
X213759945Y-121563464D01*
X213933328Y-121439792D01*
X213941200Y-121433139D01*
X214092052Y-121282812D01*
X214098730Y-121274965D01*
X214223003Y-121102020D01*
X214228313Y-121093183D01*
X214322670Y-120902267D01*
X214326469Y-120892672D01*
X214388377Y-120688910D01*
X214390555Y-120678837D01*
X214391986Y-120667962D01*
X214389775Y-120653778D01*
X214376617Y-120650000D01*
X213330115Y-120650000D01*
X213314876Y-120654475D01*
X213313671Y-120655865D01*
X213312000Y-120663548D01*
X213312000Y-121714517D01*
X212804000Y-121714517D01*
X212804000Y-120668115D01*
X212799525Y-120652876D01*
X212798135Y-120651671D01*
X212790452Y-120650000D01*
X211741225Y-120650000D01*
X211727694Y-120653973D01*
X211726257Y-120663966D01*
X210500000Y-120663966D01*
X210500000Y-117822695D01*
X211695251Y-117822695D01*
X211708110Y-118045715D01*
X211709247Y-118050761D01*
X211709248Y-118050767D01*
X211733304Y-118157508D01*
X211757222Y-118263639D01*
X211841266Y-118470616D01*
X211843965Y-118475020D01*
X211915344Y-118591500D01*
X211957987Y-118661088D01*
X212104250Y-118829938D01*
X212276126Y-118972632D01*
X212305307Y-118989684D01*
X212349955Y-119015774D01*
X212398679Y-119067412D01*
X212411750Y-119137195D01*
X212385019Y-119202967D01*
X212344562Y-119236327D01*
X212336457Y-119240546D01*
X212327738Y-119246036D01*
X212157433Y-119373905D01*
X212149726Y-119380748D01*
X212002590Y-119534717D01*
X211996104Y-119542727D01*
X211876098Y-119718649D01*
X211871000Y-119727623D01*
X211781338Y-119920783D01*
X211777775Y-119930470D01*
X211722389Y-120130183D01*
X211723912Y-120138607D01*
X211736292Y-120142000D01*
X214376344Y-120142000D01*
X214389873Y-120138027D01*
X214391388Y-120127493D01*
X214420881Y-120062912D01*
X214457349Y-120039475D01*
X214394066Y-120018138D01*
X214349734Y-119962683D01*
X214347051Y-119955523D01*
X214345892Y-119952119D01*
X214260972Y-119756814D01*
X214256105Y-119747739D01*
X214140426Y-119568926D01*
X214134136Y-119560757D01*
X213990806Y-119403240D01*
X213983273Y-119396215D01*
X213816139Y-119264222D01*
X213807556Y-119258520D01*
X213770602Y-119238120D01*
X213720631Y-119187687D01*
X213705859Y-119118245D01*
X213730975Y-119051839D01*
X213758327Y-119025232D01*
X213906808Y-118919322D01*
X213973881Y-118896048D01*
X214042890Y-118912732D01*
X214069071Y-118932806D01*
X214554595Y-119418330D01*
X214588621Y-119480642D01*
X214591500Y-119507425D01*
X214591500Y-119900400D01*
X214591837Y-119903650D01*
X214592005Y-119906892D01*
X214590735Y-119906958D01*
X214578781Y-119971759D01*
X214530200Y-120023532D01*
X214526233Y-120024528D01*
X214551603Y-120024528D01*
X214611330Y-120062911D01*
X214635629Y-120105547D01*
X214656129Y-120166993D01*
X214656133Y-120167003D01*
X214658450Y-120173946D01*
X214751522Y-120324348D01*
X214876697Y-120449305D01*
X214882927Y-120453145D01*
X214882928Y-120453146D01*
X215020090Y-120537694D01*
X215027262Y-120542115D01*
X215107005Y-120568564D01*
X215188611Y-120595632D01*
X215188613Y-120595632D01*
X215195139Y-120597797D01*
X215201975Y-120598497D01*
X215201978Y-120598498D01*
X215245031Y-120602909D01*
X215299600Y-120608500D01*
X216700400Y-120608500D01*
X216703646Y-120608163D01*
X216703650Y-120608163D01*
X216799308Y-120598238D01*
X216799312Y-120598237D01*
X216806166Y-120597526D01*
X216812702Y-120595345D01*
X216812704Y-120595345D01*
X216944806Y-120551272D01*
X216973946Y-120541550D01*
X217097881Y-120464856D01*
X217164185Y-120446000D01*
X218200657Y-120446000D01*
X218214264Y-120446737D01*
X218245762Y-120450159D01*
X218245767Y-120450159D01*
X218251888Y-120450824D01*
X218278704Y-120448478D01*
X218301888Y-120446450D01*
X218306714Y-120446121D01*
X218309186Y-120446000D01*
X218312269Y-120446000D01*
X218324238Y-120444826D01*
X218355006Y-120441810D01*
X218356319Y-120441688D01*
X218400584Y-120437815D01*
X218448913Y-120433587D01*
X218454032Y-120432100D01*
X218459333Y-120431580D01*
X218548334Y-120404709D01*
X218549467Y-120404374D01*
X218632914Y-120380130D01*
X218632918Y-120380128D01*
X218638836Y-120378409D01*
X218643568Y-120375956D01*
X218648669Y-120374416D01*
X218654112Y-120371522D01*
X218730760Y-120330769D01*
X218731926Y-120330157D01*
X218808953Y-120290229D01*
X218814426Y-120287392D01*
X218818589Y-120284069D01*
X218823296Y-120281566D01*
X218895418Y-120222745D01*
X218896274Y-120222054D01*
X218935473Y-120190762D01*
X218937977Y-120188258D01*
X218938695Y-120187616D01*
X218943028Y-120183915D01*
X218976562Y-120156565D01*
X218984029Y-120147540D01*
X218999214Y-120129184D01*
X219058048Y-120089446D01*
X219096298Y-120083500D01*
X220225400Y-120083500D01*
X220228646Y-120083163D01*
X220228650Y-120083163D01*
X220324308Y-120073238D01*
X220324312Y-120073237D01*
X220331166Y-120072526D01*
X220337702Y-120070345D01*
X220337704Y-120070345D01*
X220491998Y-120018868D01*
X220498946Y-120016550D01*
X220649348Y-119923478D01*
X220774305Y-119798303D01*
X220867115Y-119647738D01*
X220901247Y-119544833D01*
X220941678Y-119486473D01*
X221007242Y-119459236D01*
X221020840Y-119458500D01*
X221825507Y-119458500D01*
X221893628Y-119478502D01*
X221940121Y-119532158D01*
X221947543Y-119553763D01*
X221948255Y-119560316D01*
X221951027Y-119567711D01*
X221951028Y-119567714D01*
X221978423Y-119640790D01*
X221999385Y-119696705D01*
X222004770Y-119703890D01*
X222004771Y-119703892D01*
X222057640Y-119774435D01*
X222082488Y-119840942D01*
X222067435Y-119910324D01*
X222057640Y-119925565D01*
X222023020Y-119971759D01*
X221999385Y-120003295D01*
X221948255Y-120139684D01*
X221941500Y-120201866D01*
X221941500Y-121798134D01*
X221948255Y-121860316D01*
X221999385Y-121996705D01*
X222054080Y-122069684D01*
X222057953Y-122074852D01*
X222082801Y-122141358D01*
X222067748Y-122210741D01*
X222057953Y-122225982D01*
X222005214Y-122296352D01*
X221996676Y-122311946D01*
X221951522Y-122432394D01*
X221947895Y-122447649D01*
X221942369Y-122498514D01*
X221942000Y-122505328D01*
X221942000Y-123027885D01*
X221946475Y-123043124D01*
X221947865Y-123044329D01*
X221955548Y-123046000D01*
X224939884Y-123046000D01*
X224955123Y-123041525D01*
X224956328Y-123040135D01*
X224957999Y-123032452D01*
X224957999Y-122505331D01*
X224957629Y-122498510D01*
X224952105Y-122447648D01*
X224948479Y-122432396D01*
X224903324Y-122311946D01*
X224894786Y-122296352D01*
X224842047Y-122225982D01*
X224817199Y-122159476D01*
X224832252Y-122090093D01*
X224842047Y-122074852D01*
X224852723Y-122060607D01*
X224909582Y-122018092D01*
X224967157Y-122010909D01*
X224983263Y-122012659D01*
X224983267Y-122012659D01*
X224989388Y-122013324D01*
X225039053Y-122008979D01*
X225050034Y-122008500D01*
X228115500Y-122008500D01*
X228183621Y-122028502D01*
X228230114Y-122082158D01*
X228241500Y-122134500D01*
X228241500Y-122948134D01*
X228248255Y-123010316D01*
X228299385Y-123146705D01*
X228386739Y-123263261D01*
X228503295Y-123350615D01*
X228639684Y-123401745D01*
X228701866Y-123408500D01*
X230798134Y-123408500D01*
X230860316Y-123401745D01*
X230996705Y-123350615D01*
X231113261Y-123263261D01*
X231200615Y-123146705D01*
X231251745Y-123010316D01*
X231258500Y-122948134D01*
X231258500Y-122134500D01*
X231278502Y-122066379D01*
X231332158Y-122019886D01*
X231384500Y-122008500D01*
X231879279Y-122008500D01*
X231947400Y-122028502D01*
X231993893Y-122082158D01*
X232003997Y-122152432D01*
X231986539Y-122200616D01*
X231912184Y-122321243D01*
X231906037Y-122334424D01*
X231854862Y-122488710D01*
X231851995Y-122502086D01*
X231842328Y-122596438D01*
X231842000Y-122602855D01*
X231842000Y-122790385D01*
X231846475Y-122805624D01*
X231847865Y-122806829D01*
X231855548Y-122808500D01*
X232977885Y-122808500D01*
X232993124Y-122804025D01*
X232994329Y-122802635D01*
X232996000Y-122794952D01*
X232996000Y-122790385D01*
X233504000Y-122790385D01*
X233508475Y-122805624D01*
X233509865Y-122806829D01*
X233517548Y-122808500D01*
X234639884Y-122808500D01*
X234655123Y-122804025D01*
X234656328Y-122802635D01*
X234657999Y-122794952D01*
X234657999Y-122602905D01*
X234657662Y-122596386D01*
X234647743Y-122500794D01*
X234644851Y-122487400D01*
X234593412Y-122333216D01*
X234587239Y-122320038D01*
X234501937Y-122182193D01*
X234492901Y-122170792D01*
X234378171Y-122056261D01*
X234366760Y-122047249D01*
X234228757Y-121962184D01*
X234215576Y-121956037D01*
X234061290Y-121904862D01*
X234047914Y-121901995D01*
X233953562Y-121892328D01*
X233947145Y-121892000D01*
X233522115Y-121892000D01*
X233506876Y-121896475D01*
X233505671Y-121897865D01*
X233504000Y-121905548D01*
X233504000Y-122790385D01*
X232996000Y-122790385D01*
X232996000Y-121910116D01*
X232991525Y-121894877D01*
X232985288Y-121889472D01*
X232932551Y-121860677D01*
X232898525Y-121798366D01*
X232903588Y-121727550D01*
X232924562Y-121691263D01*
X232930785Y-121683741D01*
X232938772Y-121674963D01*
X233189594Y-121424141D01*
X233468329Y-121145405D01*
X233530642Y-121111380D01*
X233557425Y-121108500D01*
X233950400Y-121108500D01*
X233953646Y-121108163D01*
X233953650Y-121108163D01*
X234049308Y-121098238D01*
X234049312Y-121098237D01*
X234056166Y-121097526D01*
X234062702Y-121095345D01*
X234062704Y-121095345D01*
X234216998Y-121043868D01*
X234223946Y-121041550D01*
X234267183Y-121014794D01*
X234347882Y-120964856D01*
X234414185Y-120946000D01*
X244750657Y-120946000D01*
X244764264Y-120946737D01*
X244795762Y-120950159D01*
X244795767Y-120950159D01*
X244801888Y-120950824D01*
X244828704Y-120948478D01*
X244851888Y-120946450D01*
X244856714Y-120946121D01*
X244859186Y-120946000D01*
X244862269Y-120946000D01*
X244874238Y-120944826D01*
X244905006Y-120941810D01*
X244906319Y-120941688D01*
X244950584Y-120937815D01*
X244998913Y-120933587D01*
X245004032Y-120932100D01*
X245009333Y-120931580D01*
X245098334Y-120904709D01*
X245099467Y-120904374D01*
X245182914Y-120880130D01*
X245182918Y-120880128D01*
X245188836Y-120878409D01*
X245193568Y-120875956D01*
X245198669Y-120874416D01*
X245204112Y-120871522D01*
X245280760Y-120830769D01*
X245281926Y-120830157D01*
X245358953Y-120790229D01*
X245364426Y-120787392D01*
X245368589Y-120784069D01*
X245373296Y-120781566D01*
X245445418Y-120722745D01*
X245446274Y-120722054D01*
X245485473Y-120690762D01*
X245487977Y-120688258D01*
X245488695Y-120687616D01*
X245493028Y-120683915D01*
X245526562Y-120656565D01*
X245555788Y-120621237D01*
X245563777Y-120612458D01*
X249169384Y-117006851D01*
X249179527Y-116997749D01*
X249204218Y-116977897D01*
X249209025Y-116974032D01*
X249241315Y-116935550D01*
X249244467Y-116931938D01*
X249246123Y-116930112D01*
X249248310Y-116927925D01*
X249268372Y-116903502D01*
X249275576Y-116894732D01*
X249276418Y-116893717D01*
X249281258Y-116887949D01*
X249336154Y-116822526D01*
X249338723Y-116817853D01*
X249342103Y-116813738D01*
X249353839Y-116791852D01*
X249386028Y-116731820D01*
X249386657Y-116730662D01*
X249428465Y-116654612D01*
X249428465Y-116654611D01*
X249431433Y-116649213D01*
X249433044Y-116644135D01*
X249435563Y-116639437D01*
X249462753Y-116550502D01*
X249463136Y-116549272D01*
X249489371Y-116466570D01*
X249491235Y-116460694D01*
X249491828Y-116455403D01*
X249493388Y-116450302D01*
X249502795Y-116357689D01*
X249502915Y-116356569D01*
X249508500Y-116306773D01*
X249508500Y-116303244D01*
X249508555Y-116302261D01*
X249509004Y-116296556D01*
X249509677Y-116289938D01*
X249513374Y-116253537D01*
X249509059Y-116207888D01*
X249508500Y-116196031D01*
X249508500Y-110450231D01*
X249507814Y-110443227D01*
X249501682Y-110380696D01*
X249494080Y-110303167D01*
X249487740Y-110282166D01*
X249456207Y-110177725D01*
X249436916Y-110113831D01*
X249344066Y-109939204D01*
X249273709Y-109852938D01*
X249222960Y-109790713D01*
X249222957Y-109790710D01*
X249219065Y-109785938D01*
X249212724Y-109780692D01*
X249071425Y-109663799D01*
X249071421Y-109663797D01*
X249066675Y-109659870D01*
X248892701Y-109565802D01*
X248703768Y-109507318D01*
X248697643Y-109506674D01*
X248697642Y-109506674D01*
X248513204Y-109487289D01*
X248513202Y-109487289D01*
X248507075Y-109486645D01*
X248424576Y-109494153D01*
X248316251Y-109504011D01*
X248316248Y-109504012D01*
X248310112Y-109504570D01*
X248304206Y-109506308D01*
X248304202Y-109506309D01*
X248200310Y-109536886D01*
X248120381Y-109560410D01*
X248114923Y-109563263D01*
X248114919Y-109563265D01*
X248024147Y-109610720D01*
X247945110Y-109652040D01*
X247790975Y-109775968D01*
X247663846Y-109927474D01*
X247660879Y-109932872D01*
X247660875Y-109932877D01*
X247629439Y-109990060D01*
X247568567Y-110100787D01*
X247566706Y-110106654D01*
X247566705Y-110106656D01*
X247536240Y-110202695D01*
X247508765Y-110289306D01*
X247491500Y-110443227D01*
X247491500Y-115780076D01*
X247471498Y-115848197D01*
X247454595Y-115869171D01*
X244431671Y-118892095D01*
X244369359Y-118926121D01*
X244342576Y-118929000D01*
X234414379Y-118929000D01*
X234348263Y-118910260D01*
X234228968Y-118836725D01*
X234228966Y-118836724D01*
X234222738Y-118832885D01*
X234062254Y-118779655D01*
X234061389Y-118779368D01*
X234061387Y-118779368D01*
X234054861Y-118777203D01*
X234048025Y-118776503D01*
X234048022Y-118776502D01*
X234004969Y-118772091D01*
X233950400Y-118766500D01*
X232549600Y-118766500D01*
X232546354Y-118766837D01*
X232546350Y-118766837D01*
X232450692Y-118776762D01*
X232450688Y-118776763D01*
X232443834Y-118777474D01*
X232437298Y-118779655D01*
X232437296Y-118779655D01*
X232305194Y-118823728D01*
X232276054Y-118833450D01*
X232125652Y-118926522D01*
X232000695Y-119051697D01*
X231907885Y-119202262D01*
X231852203Y-119370139D01*
X231841500Y-119474600D01*
X231841500Y-119865500D01*
X231821498Y-119933621D01*
X231767842Y-119980114D01*
X231715500Y-119991500D01*
X231384500Y-119991500D01*
X231316379Y-119971498D01*
X231269886Y-119917842D01*
X231258500Y-119865500D01*
X231258500Y-119051866D01*
X231251745Y-118989684D01*
X231200615Y-118853295D01*
X231113261Y-118736739D01*
X230996705Y-118649385D01*
X230860316Y-118598255D01*
X230798134Y-118591500D01*
X228701866Y-118591500D01*
X228639684Y-118598255D01*
X228503295Y-118649385D01*
X228386739Y-118736739D01*
X228299385Y-118853295D01*
X228248255Y-118989684D01*
X228241500Y-119051866D01*
X228241500Y-119865500D01*
X228221498Y-119933621D01*
X228167842Y-119980114D01*
X228115500Y-119991500D01*
X226284011Y-119991500D01*
X226215890Y-119971498D01*
X226169397Y-119917842D01*
X226158011Y-119865500D01*
X226158011Y-117711361D01*
X226158748Y-117697753D01*
X226162170Y-117666250D01*
X226162836Y-117660123D01*
X226158458Y-117610081D01*
X226158132Y-117605299D01*
X226158011Y-117602821D01*
X226158011Y-117599742D01*
X226157712Y-117596688D01*
X226157711Y-117596677D01*
X226153824Y-117557040D01*
X226153702Y-117555726D01*
X226146134Y-117469229D01*
X226145598Y-117463098D01*
X226144111Y-117457979D01*
X226143591Y-117452678D01*
X226116720Y-117363677D01*
X226116385Y-117362544D01*
X226092141Y-117279097D01*
X226092139Y-117279093D01*
X226090420Y-117273175D01*
X226087967Y-117268443D01*
X226086427Y-117263342D01*
X226064521Y-117222142D01*
X226042780Y-117181251D01*
X226042168Y-117180085D01*
X226002240Y-117103058D01*
X225999403Y-117097585D01*
X225996080Y-117093422D01*
X225993577Y-117088715D01*
X225985545Y-117078866D01*
X225934772Y-117016613D01*
X225933944Y-117015586D01*
X225904980Y-116979303D01*
X225904975Y-116979298D01*
X225902773Y-116976539D01*
X225900272Y-116974038D01*
X225899630Y-116973320D01*
X225895917Y-116968972D01*
X225873798Y-116941852D01*
X225868576Y-116935449D01*
X225863834Y-116931526D01*
X225863832Y-116931524D01*
X225833238Y-116906214D01*
X225824458Y-116898224D01*
X225176234Y-116250000D01*
X228086496Y-116250000D01*
X228106458Y-116439928D01*
X228165473Y-116621556D01*
X228168776Y-116627278D01*
X228168777Y-116627279D01*
X228184558Y-116654612D01*
X228260960Y-116786944D01*
X228265378Y-116791851D01*
X228265379Y-116791852D01*
X228358013Y-116894732D01*
X228388747Y-116928866D01*
X228543248Y-117041118D01*
X228549276Y-117043802D01*
X228549278Y-117043803D01*
X228701392Y-117111528D01*
X228717712Y-117118794D01*
X228811112Y-117138647D01*
X228898056Y-117157128D01*
X228898061Y-117157128D01*
X228904513Y-117158500D01*
X229095487Y-117158500D01*
X229101939Y-117157128D01*
X229101944Y-117157128D01*
X229188888Y-117138647D01*
X229282288Y-117118794D01*
X229298608Y-117111528D01*
X229450722Y-117043803D01*
X229450724Y-117043802D01*
X229456752Y-117041118D01*
X229486031Y-117019846D01*
X229602192Y-116935449D01*
X229611253Y-116928866D01*
X229615668Y-116923963D01*
X229620580Y-116919540D01*
X229621705Y-116920789D01*
X229675014Y-116887949D01*
X229708200Y-116883500D01*
X234291800Y-116883500D01*
X234359921Y-116903502D01*
X234379147Y-116919843D01*
X234379420Y-116919540D01*
X234384332Y-116923963D01*
X234388747Y-116928866D01*
X234397808Y-116935449D01*
X234513970Y-117019846D01*
X234543248Y-117041118D01*
X234549276Y-117043802D01*
X234549278Y-117043803D01*
X234701392Y-117111528D01*
X234717712Y-117118794D01*
X234811112Y-117138647D01*
X234898056Y-117157128D01*
X234898061Y-117157128D01*
X234904513Y-117158500D01*
X235095487Y-117158500D01*
X235101939Y-117157128D01*
X235101944Y-117157128D01*
X235188888Y-117138647D01*
X235282288Y-117118794D01*
X235298608Y-117111528D01*
X235450722Y-117043803D01*
X235450724Y-117043802D01*
X235456752Y-117041118D01*
X235611253Y-116928866D01*
X235641987Y-116894732D01*
X235734621Y-116791852D01*
X235734622Y-116791851D01*
X235739040Y-116786944D01*
X235815442Y-116654612D01*
X235831223Y-116627279D01*
X235831224Y-116627278D01*
X235834527Y-116621556D01*
X235893542Y-116439928D01*
X235913504Y-116250000D01*
X235893542Y-116060072D01*
X235834527Y-115878444D01*
X235739040Y-115713056D01*
X235727609Y-115700360D01*
X235615675Y-115576045D01*
X235615674Y-115576044D01*
X235611253Y-115571134D01*
X235456752Y-115458882D01*
X235450724Y-115456198D01*
X235450722Y-115456197D01*
X235288319Y-115383891D01*
X235288318Y-115383891D01*
X235282288Y-115381206D01*
X235188887Y-115361353D01*
X235101944Y-115342872D01*
X235101939Y-115342872D01*
X235095487Y-115341500D01*
X234904513Y-115341500D01*
X234898061Y-115342872D01*
X234898056Y-115342872D01*
X234811113Y-115361353D01*
X234717712Y-115381206D01*
X234711682Y-115383891D01*
X234711681Y-115383891D01*
X234549278Y-115456197D01*
X234549276Y-115456198D01*
X234543248Y-115458882D01*
X234537907Y-115462762D01*
X234537906Y-115462763D01*
X234450376Y-115526358D01*
X234388747Y-115571134D01*
X234384332Y-115576037D01*
X234379420Y-115580460D01*
X234378295Y-115579211D01*
X234324986Y-115612051D01*
X234291800Y-115616500D01*
X229708200Y-115616500D01*
X229640079Y-115596498D01*
X229620853Y-115580157D01*
X229620580Y-115580460D01*
X229615668Y-115576037D01*
X229611253Y-115571134D01*
X229549624Y-115526358D01*
X229462094Y-115462763D01*
X229462093Y-115462762D01*
X229456752Y-115458882D01*
X229450724Y-115456198D01*
X229450722Y-115456197D01*
X229288319Y-115383891D01*
X229288318Y-115383891D01*
X229282288Y-115381206D01*
X229188887Y-115361353D01*
X229101944Y-115342872D01*
X229101939Y-115342872D01*
X229095487Y-115341500D01*
X228904513Y-115341500D01*
X228898061Y-115342872D01*
X228898056Y-115342872D01*
X228811113Y-115361353D01*
X228717712Y-115381206D01*
X228711682Y-115383891D01*
X228711681Y-115383891D01*
X228549278Y-115456197D01*
X228549276Y-115456198D01*
X228543248Y-115458882D01*
X228388747Y-115571134D01*
X228384326Y-115576044D01*
X228384325Y-115576045D01*
X228272392Y-115700360D01*
X228260960Y-115713056D01*
X228165473Y-115878444D01*
X228106458Y-116060072D01*
X228086496Y-116250000D01*
X225176234Y-116250000D01*
X220698699Y-111772465D01*
X220664673Y-111710153D01*
X220669738Y-111639338D01*
X220713733Y-111581434D01*
X220851284Y-111481497D01*
X220856623Y-111477618D01*
X220861038Y-111472715D01*
X220865950Y-111468292D01*
X220867075Y-111469541D01*
X220920384Y-111436701D01*
X220953570Y-111432252D01*
X222484158Y-111432252D01*
X222552279Y-111452254D01*
X222573253Y-111469157D01*
X225746348Y-114642253D01*
X225753888Y-114650539D01*
X225758000Y-114657018D01*
X225763777Y-114662443D01*
X225807651Y-114703643D01*
X225810493Y-114706398D01*
X225830230Y-114726135D01*
X225833427Y-114728615D01*
X225842447Y-114736318D01*
X225874679Y-114766586D01*
X225881625Y-114770405D01*
X225881628Y-114770407D01*
X225892434Y-114776348D01*
X225908953Y-114787199D01*
X225924959Y-114799614D01*
X225932228Y-114802759D01*
X225932232Y-114802762D01*
X225965537Y-114817174D01*
X225976187Y-114822391D01*
X226014940Y-114843695D01*
X226022615Y-114845666D01*
X226022616Y-114845666D01*
X226034562Y-114848733D01*
X226053267Y-114855137D01*
X226071855Y-114863181D01*
X226079678Y-114864420D01*
X226079688Y-114864423D01*
X226115524Y-114870099D01*
X226127144Y-114872505D01*
X226162289Y-114881528D01*
X226169970Y-114883500D01*
X226190224Y-114883500D01*
X226209934Y-114885051D01*
X226229943Y-114888220D01*
X226237835Y-114887474D01*
X226273961Y-114884059D01*
X226285819Y-114883500D01*
X235685406Y-114883500D01*
X235753527Y-114903502D01*
X235774501Y-114920405D01*
X236519164Y-115665068D01*
X236553190Y-115727380D01*
X236555378Y-115740989D01*
X236572744Y-115906214D01*
X236631759Y-116087842D01*
X236727246Y-116253230D01*
X236855033Y-116395152D01*
X237009534Y-116507404D01*
X237015562Y-116510088D01*
X237015564Y-116510089D01*
X237177967Y-116582395D01*
X237183998Y-116585080D01*
X237251166Y-116599357D01*
X237364342Y-116623414D01*
X237364347Y-116623414D01*
X237370799Y-116624786D01*
X237561773Y-116624786D01*
X237568225Y-116623414D01*
X237568230Y-116623414D01*
X237681406Y-116599357D01*
X237748574Y-116585080D01*
X237754605Y-116582395D01*
X237917008Y-116510089D01*
X237917010Y-116510088D01*
X237923038Y-116507404D01*
X238077539Y-116395152D01*
X238205326Y-116253230D01*
X238300813Y-116087842D01*
X238359828Y-115906214D01*
X238363722Y-115869171D01*
X238379100Y-115722851D01*
X238379790Y-115716286D01*
X238371896Y-115641179D01*
X238360518Y-115532921D01*
X238360518Y-115532919D01*
X238359828Y-115526358D01*
X238300813Y-115344730D01*
X238205326Y-115179342D01*
X238127909Y-115093361D01*
X238081961Y-115042331D01*
X238081960Y-115042330D01*
X238077539Y-115037420D01*
X237923038Y-114925168D01*
X237917010Y-114922484D01*
X237917008Y-114922483D01*
X237754605Y-114850177D01*
X237754604Y-114850177D01*
X237748574Y-114847492D01*
X237655173Y-114827639D01*
X237568230Y-114809158D01*
X237568225Y-114809158D01*
X237561773Y-114807786D01*
X237505881Y-114807786D01*
X237437760Y-114787784D01*
X237416785Y-114770881D01*
X236968775Y-114322870D01*
X236503647Y-113857742D01*
X236496113Y-113849463D01*
X236492000Y-113842982D01*
X236442348Y-113796356D01*
X236439507Y-113793602D01*
X236419770Y-113773865D01*
X236416573Y-113771385D01*
X236407551Y-113763680D01*
X236375321Y-113733414D01*
X236368375Y-113729595D01*
X236368372Y-113729593D01*
X236357566Y-113723652D01*
X236341047Y-113712801D01*
X236340583Y-113712441D01*
X236325041Y-113700386D01*
X236317772Y-113697241D01*
X236317768Y-113697238D01*
X236284463Y-113682826D01*
X236273813Y-113677609D01*
X236235060Y-113656305D01*
X236215437Y-113651267D01*
X236196734Y-113644863D01*
X236185424Y-113639969D01*
X236185425Y-113639969D01*
X236178145Y-113636819D01*
X236170316Y-113635579D01*
X236168692Y-113635107D01*
X236108858Y-113596891D01*
X236079184Y-113532394D01*
X236089089Y-113462092D01*
X236112551Y-113430035D01*
X236111253Y-113428866D01*
X236234621Y-113291852D01*
X236234622Y-113291851D01*
X236239040Y-113286944D01*
X236334527Y-113121556D01*
X236393542Y-112939928D01*
X236413504Y-112750000D01*
X236393542Y-112560072D01*
X236334527Y-112378444D01*
X236239040Y-112213056D01*
X236231623Y-112204818D01*
X236115675Y-112076045D01*
X236115674Y-112076044D01*
X236111253Y-112071134D01*
X235956752Y-111958882D01*
X235950724Y-111956198D01*
X235950722Y-111956197D01*
X235788319Y-111883891D01*
X235788318Y-111883891D01*
X235782288Y-111881206D01*
X235688888Y-111861353D01*
X235601944Y-111842872D01*
X235601939Y-111842872D01*
X235595487Y-111841500D01*
X235404513Y-111841500D01*
X235398061Y-111842872D01*
X235398056Y-111842872D01*
X235311113Y-111861353D01*
X235217712Y-111881206D01*
X235211682Y-111883891D01*
X235211681Y-111883891D01*
X235049278Y-111956197D01*
X235049276Y-111956198D01*
X235043248Y-111958882D01*
X234888747Y-112071134D01*
X234884332Y-112076037D01*
X234879420Y-112080460D01*
X234878295Y-112079211D01*
X234824986Y-112112051D01*
X234791800Y-112116500D01*
X227509500Y-112116500D01*
X227441379Y-112096498D01*
X227394886Y-112042842D01*
X227383500Y-111990500D01*
X227383500Y-109034500D01*
X227403502Y-108966379D01*
X227457158Y-108919886D01*
X227509500Y-108908500D01*
X227595487Y-108908500D01*
X227601939Y-108907128D01*
X227601944Y-108907128D01*
X227688887Y-108888647D01*
X227782288Y-108868794D01*
X227788319Y-108866109D01*
X227950722Y-108793803D01*
X227950724Y-108793802D01*
X227956752Y-108791118D01*
X227966141Y-108784297D01*
X228089671Y-108694546D01*
X228111253Y-108678866D01*
X228115668Y-108673963D01*
X228120580Y-108669540D01*
X228121705Y-108670789D01*
X228175014Y-108637949D01*
X228208200Y-108633500D01*
X235791800Y-108633500D01*
X235859921Y-108653502D01*
X235879147Y-108669843D01*
X235879420Y-108669540D01*
X235884332Y-108673963D01*
X235888747Y-108678866D01*
X235910329Y-108694546D01*
X236033860Y-108784297D01*
X236043248Y-108791118D01*
X236049276Y-108793802D01*
X236049278Y-108793803D01*
X236211681Y-108866109D01*
X236217712Y-108868794D01*
X236311113Y-108888647D01*
X236398056Y-108907128D01*
X236398061Y-108907128D01*
X236404513Y-108908500D01*
X236595487Y-108908500D01*
X236601939Y-108907128D01*
X236601944Y-108907128D01*
X236688887Y-108888647D01*
X236782288Y-108868794D01*
X236788319Y-108866109D01*
X236950722Y-108793803D01*
X236950724Y-108793802D01*
X236956752Y-108791118D01*
X236966141Y-108784297D01*
X237049646Y-108723626D01*
X237111253Y-108678866D01*
X237239040Y-108536944D01*
X237334527Y-108371556D01*
X237393542Y-108189928D01*
X237413504Y-108000000D01*
X237407190Y-107939928D01*
X237394232Y-107816635D01*
X237394232Y-107816633D01*
X237393542Y-107810072D01*
X237334527Y-107628444D01*
X237318405Y-107600519D01*
X237242341Y-107468774D01*
X237239040Y-107463056D01*
X237111253Y-107321134D01*
X236956752Y-107208882D01*
X236950724Y-107206198D01*
X236950722Y-107206197D01*
X236788319Y-107133891D01*
X236788318Y-107133891D01*
X236782288Y-107131206D01*
X236688888Y-107111353D01*
X236601944Y-107092872D01*
X236601939Y-107092872D01*
X236595487Y-107091500D01*
X236404513Y-107091500D01*
X236398061Y-107092872D01*
X236398056Y-107092872D01*
X236311112Y-107111353D01*
X236217712Y-107131206D01*
X236211682Y-107133891D01*
X236211681Y-107133891D01*
X236049278Y-107206197D01*
X236049276Y-107206198D01*
X236043248Y-107208882D01*
X235888747Y-107321134D01*
X235884332Y-107326037D01*
X235879420Y-107330460D01*
X235878295Y-107329211D01*
X235824986Y-107362051D01*
X235791800Y-107366500D01*
X228208200Y-107366500D01*
X228140079Y-107346498D01*
X228120853Y-107330157D01*
X228120580Y-107330460D01*
X228115668Y-107326037D01*
X228111253Y-107321134D01*
X227956752Y-107208882D01*
X227950724Y-107206198D01*
X227950722Y-107206197D01*
X227788319Y-107133891D01*
X227788318Y-107133891D01*
X227782288Y-107131206D01*
X227775833Y-107129834D01*
X227775830Y-107129833D01*
X227762618Y-107127025D01*
X227700145Y-107093297D01*
X227665823Y-107031148D01*
X227662964Y-107005140D01*
X227663504Y-107000000D01*
X227651301Y-106883891D01*
X227644232Y-106816635D01*
X227644232Y-106816633D01*
X227643542Y-106810072D01*
X227641503Y-106803797D01*
X227641502Y-106803792D01*
X227639762Y-106798438D01*
X227637733Y-106727471D01*
X227674394Y-106666672D01*
X227738106Y-106635346D01*
X227759594Y-106633500D01*
X244435406Y-106633500D01*
X244503527Y-106653502D01*
X244524501Y-106670405D01*
X245044023Y-107189928D01*
X245552878Y-107698783D01*
X245586904Y-107761095D01*
X245589093Y-107774706D01*
X245606458Y-107939928D01*
X245665473Y-108121556D01*
X245760960Y-108286944D01*
X245888747Y-108428866D01*
X245936448Y-108463523D01*
X246010521Y-108517340D01*
X246043248Y-108541118D01*
X246049276Y-108543802D01*
X246049278Y-108543803D01*
X246183199Y-108603428D01*
X246217712Y-108618794D01*
X246307829Y-108637949D01*
X246398056Y-108657128D01*
X246398061Y-108657128D01*
X246404513Y-108658500D01*
X246595487Y-108658500D01*
X246601939Y-108657128D01*
X246601944Y-108657128D01*
X246692171Y-108637949D01*
X246782288Y-108618794D01*
X246816801Y-108603428D01*
X246950722Y-108543803D01*
X246950724Y-108543802D01*
X246956752Y-108541118D01*
X246989480Y-108517340D01*
X247063552Y-108463523D01*
X247111253Y-108428866D01*
X247239040Y-108286944D01*
X247334527Y-108121556D01*
X247393542Y-107939928D01*
X247406501Y-107816635D01*
X247412814Y-107756565D01*
X247413504Y-107750000D01*
X247393542Y-107560072D01*
X247334527Y-107378444D01*
X247325063Y-107362051D01*
X247294215Y-107308621D01*
X247239040Y-107213056D01*
X247219157Y-107190973D01*
X247115675Y-107076045D01*
X247115674Y-107076044D01*
X247111253Y-107071134D01*
X246956752Y-106958882D01*
X246950724Y-106956198D01*
X246950722Y-106956197D01*
X246788319Y-106883891D01*
X246788318Y-106883891D01*
X246782288Y-106881206D01*
X246688887Y-106861353D01*
X246601944Y-106842872D01*
X246601939Y-106842872D01*
X246595487Y-106841500D01*
X246539594Y-106841500D01*
X246471473Y-106821498D01*
X246450499Y-106804595D01*
X245866894Y-106220989D01*
X245253652Y-105607747D01*
X245246112Y-105599461D01*
X245242000Y-105592982D01*
X245192348Y-105546356D01*
X245189507Y-105543602D01*
X245169770Y-105523865D01*
X245166573Y-105521385D01*
X245157551Y-105513680D01*
X245144122Y-105501069D01*
X245125321Y-105483414D01*
X245118375Y-105479595D01*
X245118372Y-105479593D01*
X245107566Y-105473652D01*
X245091047Y-105462801D01*
X245090583Y-105462441D01*
X245075041Y-105450386D01*
X245067772Y-105447241D01*
X245067768Y-105447238D01*
X245034463Y-105432826D01*
X245023813Y-105427609D01*
X244985060Y-105406305D01*
X244965437Y-105401267D01*
X244946734Y-105394863D01*
X244935420Y-105389967D01*
X244935419Y-105389967D01*
X244928145Y-105386819D01*
X244920322Y-105385580D01*
X244920312Y-105385577D01*
X244884476Y-105379901D01*
X244872856Y-105377495D01*
X244837711Y-105368472D01*
X244837710Y-105368472D01*
X244830030Y-105366500D01*
X244809776Y-105366500D01*
X244790065Y-105364949D01*
X244777886Y-105363020D01*
X244770057Y-105361780D01*
X244740786Y-105364547D01*
X244726039Y-105365941D01*
X244714181Y-105366500D01*
X224828768Y-105366500D01*
X224817585Y-105365973D01*
X224810092Y-105364298D01*
X224802166Y-105364547D01*
X224802165Y-105364547D01*
X224742002Y-105366438D01*
X224738044Y-105366500D01*
X224710144Y-105366500D01*
X224706154Y-105367004D01*
X224694320Y-105367936D01*
X224650111Y-105369326D01*
X224642497Y-105371538D01*
X224642492Y-105371539D01*
X224630659Y-105374977D01*
X224611296Y-105378988D01*
X224591203Y-105381526D01*
X224583836Y-105384443D01*
X224583831Y-105384444D01*
X224550092Y-105397802D01*
X224538865Y-105401646D01*
X224496407Y-105413982D01*
X224489581Y-105418019D01*
X224478972Y-105424293D01*
X224461224Y-105432988D01*
X224442383Y-105440448D01*
X224435967Y-105445110D01*
X224435966Y-105445110D01*
X224406613Y-105466436D01*
X224396693Y-105472952D01*
X224365465Y-105491420D01*
X224365462Y-105491422D01*
X224358638Y-105495458D01*
X224344317Y-105509779D01*
X224329284Y-105522619D01*
X224312893Y-105534528D01*
X224286516Y-105566413D01*
X224284712Y-105568593D01*
X224276722Y-105577374D01*
X223857742Y-105996353D01*
X223849463Y-106003887D01*
X223842982Y-106008000D01*
X223796357Y-106057651D01*
X223793602Y-106060493D01*
X223773865Y-106080230D01*
X223771385Y-106083427D01*
X223763682Y-106092447D01*
X223733414Y-106124679D01*
X223729595Y-106131625D01*
X223729593Y-106131628D01*
X223723652Y-106142434D01*
X223712801Y-106158953D01*
X223700386Y-106174959D01*
X223697241Y-106182228D01*
X223697238Y-106182232D01*
X223682826Y-106215537D01*
X223677609Y-106226187D01*
X223656305Y-106264940D01*
X223654334Y-106272615D01*
X223654334Y-106272616D01*
X223651267Y-106284562D01*
X223644863Y-106303266D01*
X223636819Y-106321855D01*
X223635580Y-106329678D01*
X223635577Y-106329688D01*
X223629901Y-106365524D01*
X223627495Y-106377144D01*
X223616500Y-106419970D01*
X223616500Y-106440224D01*
X223614949Y-106459934D01*
X223611780Y-106479943D01*
X223612526Y-106487835D01*
X223615941Y-106523961D01*
X223616500Y-106535819D01*
X223616500Y-106547476D01*
X223596498Y-106615597D01*
X223584142Y-106631779D01*
X223510960Y-106713056D01*
X223463956Y-106794469D01*
X223436011Y-106842872D01*
X223415473Y-106878444D01*
X223356458Y-107060072D01*
X223355768Y-107066633D01*
X223355768Y-107066635D01*
X223348842Y-107132535D01*
X223336496Y-107250000D01*
X223334459Y-107249786D01*
X223317184Y-107308621D01*
X223263528Y-107355114D01*
X223211186Y-107366500D01*
X220544700Y-107366500D01*
X220476579Y-107346498D01*
X220457353Y-107330157D01*
X220457080Y-107330460D01*
X220452168Y-107326037D01*
X220447753Y-107321134D01*
X220293252Y-107208882D01*
X220287224Y-107206198D01*
X220287222Y-107206197D01*
X220124819Y-107133891D01*
X220124818Y-107133891D01*
X220118788Y-107131206D01*
X220025388Y-107111353D01*
X219938444Y-107092872D01*
X219938439Y-107092872D01*
X219931987Y-107091500D01*
X219741013Y-107091500D01*
X219734561Y-107092872D01*
X219734556Y-107092872D01*
X219647612Y-107111353D01*
X219554212Y-107131206D01*
X219548182Y-107133891D01*
X219548181Y-107133891D01*
X219385778Y-107206197D01*
X219385776Y-107206198D01*
X219379748Y-107208882D01*
X219225247Y-107321134D01*
X219220832Y-107326037D01*
X219215920Y-107330460D01*
X219214795Y-107329211D01*
X219161486Y-107362051D01*
X219128300Y-107366500D01*
X217958200Y-107366500D01*
X217890079Y-107346498D01*
X217870853Y-107330157D01*
X217870580Y-107330460D01*
X217865668Y-107326037D01*
X217861253Y-107321134D01*
X217706752Y-107208882D01*
X217700724Y-107206198D01*
X217700722Y-107206197D01*
X217538319Y-107133891D01*
X217538318Y-107133891D01*
X217532288Y-107131206D01*
X217438888Y-107111353D01*
X217351944Y-107092872D01*
X217351939Y-107092872D01*
X217345487Y-107091500D01*
X217154513Y-107091500D01*
X217148061Y-107092872D01*
X217148056Y-107092872D01*
X217061112Y-107111353D01*
X216967712Y-107131206D01*
X216961682Y-107133891D01*
X216961681Y-107133891D01*
X216799278Y-107206197D01*
X216799276Y-107206198D01*
X216793248Y-107208882D01*
X216638747Y-107321134D01*
X216510960Y-107463056D01*
X216507659Y-107468774D01*
X216431596Y-107600519D01*
X216415473Y-107628444D01*
X216356458Y-107810072D01*
X216355768Y-107816633D01*
X216355768Y-107816635D01*
X216342810Y-107939928D01*
X216336496Y-108000000D01*
X216356458Y-108189928D01*
X216415473Y-108371556D01*
X216510960Y-108536944D01*
X216638747Y-108678866D01*
X216680026Y-108708857D01*
X216680581Y-108709260D01*
X216723934Y-108765483D01*
X216730009Y-108836219D01*
X216696877Y-108899011D01*
X216685814Y-108909116D01*
X216573869Y-108999768D01*
X216538453Y-109028447D01*
X216534508Y-109033182D01*
X216474727Y-109104934D01*
X216411854Y-109180396D01*
X216317178Y-109354041D01*
X216287607Y-109448404D01*
X216270181Y-109504011D01*
X216258035Y-109542768D01*
X216257370Y-109548891D01*
X216257369Y-109548895D01*
X216245314Y-109659870D01*
X216236676Y-109739388D01*
X216253913Y-109936413D01*
X216255632Y-109942330D01*
X216255633Y-109942335D01*
X216275732Y-110011515D01*
X216309091Y-110126336D01*
X216400108Y-110301926D01*
X216408495Y-110312432D01*
X216494542Y-110420223D01*
X216494549Y-110420230D01*
X216496738Y-110422973D01*
X218127634Y-112053869D01*
X218161660Y-112116181D01*
X218156595Y-112186996D01*
X218114048Y-112243832D01*
X218047528Y-112268643D01*
X218038539Y-112268964D01*
X217953606Y-112268964D01*
X217934656Y-112267531D01*
X217920421Y-112265365D01*
X217920417Y-112265365D01*
X217913187Y-112264265D01*
X217905895Y-112264858D01*
X217905892Y-112264858D01*
X217860518Y-112268549D01*
X217850303Y-112268964D01*
X217842243Y-112268964D01*
X217828953Y-112270513D01*
X217814029Y-112272253D01*
X217809654Y-112272686D01*
X217744197Y-112278010D01*
X217744194Y-112278011D01*
X217736899Y-112278604D01*
X217729935Y-112280860D01*
X217723976Y-112282051D01*
X217718121Y-112283435D01*
X217710855Y-112284282D01*
X217642209Y-112309199D01*
X217638081Y-112310616D01*
X217575600Y-112330857D01*
X217575598Y-112330858D01*
X217568637Y-112333113D01*
X217562382Y-112336909D01*
X217556908Y-112339415D01*
X217551478Y-112342134D01*
X217544599Y-112344631D01*
X217538479Y-112348644D01*
X217538478Y-112348644D01*
X217483560Y-112384650D01*
X217479856Y-112386987D01*
X217417429Y-112424869D01*
X217409052Y-112432267D01*
X217409028Y-112432240D01*
X217406036Y-112434893D01*
X217402803Y-112437596D01*
X217396684Y-112441608D01*
X217391652Y-112446920D01*
X217343408Y-112497847D01*
X217341030Y-112500289D01*
X216540350Y-113300969D01*
X216534663Y-113306315D01*
X216488596Y-113347000D01*
X216484368Y-113352983D01*
X216481005Y-113357741D01*
X216467203Y-113374116D01*
X214621448Y-115219871D01*
X214559136Y-115253897D01*
X214488321Y-115248832D01*
X214431485Y-115206285D01*
X214406777Y-115141101D01*
X214403276Y-115098521D01*
X214402852Y-115093361D01*
X214348431Y-114876702D01*
X214259354Y-114671840D01*
X214138014Y-114484277D01*
X213987670Y-114319051D01*
X213983619Y-114315852D01*
X213983615Y-114315848D01*
X213816414Y-114183800D01*
X213816410Y-114183798D01*
X213812359Y-114180598D01*
X213771053Y-114157796D01*
X213721084Y-114107364D01*
X213706312Y-114037921D01*
X213731428Y-113971516D01*
X213758780Y-113944909D01*
X213802603Y-113913650D01*
X213937860Y-113817173D01*
X214096096Y-113659489D01*
X214110123Y-113639969D01*
X214223435Y-113482277D01*
X214226453Y-113478077D01*
X214234354Y-113462092D01*
X214323136Y-113282453D01*
X214323137Y-113282451D01*
X214325430Y-113277811D01*
X214390370Y-113064069D01*
X214419529Y-112842590D01*
X214421156Y-112776000D01*
X214402852Y-112553361D01*
X214372435Y-112432267D01*
X214349689Y-112341709D01*
X214349688Y-112341705D01*
X214348431Y-112336702D01*
X214345890Y-112330857D01*
X214325295Y-112283491D01*
X214316476Y-112213044D01*
X214351750Y-112144154D01*
X214792247Y-111703657D01*
X214800537Y-111696113D01*
X214807018Y-111692000D01*
X214853659Y-111642332D01*
X214856413Y-111639491D01*
X214876135Y-111619769D01*
X214878612Y-111616576D01*
X214886317Y-111607555D01*
X214909686Y-111582669D01*
X214916586Y-111575321D01*
X214920407Y-111568371D01*
X214926346Y-111557568D01*
X214937202Y-111541041D01*
X214944757Y-111531302D01*
X214944758Y-111531300D01*
X214949614Y-111525040D01*
X214967174Y-111484460D01*
X214972391Y-111473812D01*
X214989875Y-111442009D01*
X214989876Y-111442007D01*
X214993695Y-111435060D01*
X214998733Y-111415437D01*
X215005137Y-111396734D01*
X215010033Y-111385420D01*
X215010033Y-111385419D01*
X215013181Y-111378145D01*
X215014420Y-111370322D01*
X215014423Y-111370312D01*
X215020099Y-111334476D01*
X215022505Y-111322856D01*
X215031528Y-111287711D01*
X215031528Y-111287710D01*
X215033500Y-111280030D01*
X215033500Y-111259776D01*
X215035051Y-111240065D01*
X215036980Y-111227886D01*
X215038220Y-111220057D01*
X215034059Y-111176038D01*
X215033500Y-111164181D01*
X215033500Y-107689614D01*
X215053502Y-107621493D01*
X215070405Y-107600519D01*
X217150500Y-105520425D01*
X217212812Y-105486399D01*
X217239595Y-105483520D01*
X217295487Y-105483520D01*
X217301939Y-105482148D01*
X217301944Y-105482148D01*
X217392962Y-105462801D01*
X217482288Y-105443814D01*
X217488319Y-105441129D01*
X217650722Y-105368823D01*
X217650724Y-105368822D01*
X217656752Y-105366138D01*
X217662751Y-105361780D01*
X217712157Y-105325884D01*
X217811253Y-105253886D01*
X217939040Y-105111964D01*
X218034527Y-104946576D01*
X218093542Y-104764948D01*
X218113504Y-104575020D01*
X218093542Y-104385092D01*
X218034527Y-104203464D01*
X217939040Y-104038076D01*
X217811253Y-103896154D01*
X217656752Y-103783902D01*
X217650724Y-103781218D01*
X217650722Y-103781217D01*
X217488319Y-103708911D01*
X217488318Y-103708911D01*
X217482288Y-103706226D01*
X217388888Y-103686373D01*
X217301944Y-103667892D01*
X217301939Y-103667892D01*
X217295487Y-103666520D01*
X217104513Y-103666520D01*
X217098061Y-103667892D01*
X217098056Y-103667892D01*
X217011113Y-103686373D01*
X216917712Y-103706226D01*
X216911682Y-103708911D01*
X216911681Y-103708911D01*
X216749278Y-103781217D01*
X216749276Y-103781218D01*
X216743248Y-103783902D01*
X216588747Y-103896154D01*
X216460960Y-104038076D01*
X216365473Y-104203464D01*
X216306458Y-104385092D01*
X216305768Y-104391653D01*
X216305768Y-104391655D01*
X216289093Y-104550313D01*
X216262080Y-104615970D01*
X216252878Y-104626238D01*
X214420022Y-106459093D01*
X214357710Y-106493119D01*
X214286894Y-106488054D01*
X214255368Y-106470828D01*
X214154705Y-106395385D01*
X214018316Y-106344255D01*
X213956134Y-106337500D01*
X212159866Y-106337500D01*
X212097684Y-106344255D01*
X211961295Y-106395385D01*
X211844739Y-106482739D01*
X211757385Y-106599295D01*
X211706255Y-106735684D01*
X211699500Y-106797866D01*
X211699500Y-108594134D01*
X211706255Y-108656316D01*
X211757385Y-108792705D01*
X211844739Y-108909261D01*
X211961295Y-108996615D01*
X211969704Y-108999767D01*
X211969705Y-108999768D01*
X212078451Y-109040535D01*
X212135216Y-109083176D01*
X212159916Y-109149738D01*
X212144709Y-109219087D01*
X212125316Y-109245568D01*
X211998629Y-109378138D01*
X211995715Y-109382410D01*
X211995714Y-109382411D01*
X211989872Y-109390975D01*
X211872743Y-109562680D01*
X211778688Y-109765305D01*
X211718989Y-109980570D01*
X211695251Y-110202695D01*
X211695548Y-110207848D01*
X211695548Y-110207851D01*
X211705514Y-110380696D01*
X211708110Y-110425715D01*
X211709247Y-110430761D01*
X211709248Y-110430767D01*
X211718209Y-110470529D01*
X211757222Y-110643639D01*
X211841266Y-110850616D01*
X211957987Y-111041088D01*
X212104250Y-111209938D01*
X212276126Y-111352632D01*
X212332236Y-111385420D01*
X212349445Y-111395476D01*
X212398169Y-111447114D01*
X212411240Y-111516897D01*
X212384509Y-111582669D01*
X212344055Y-111616027D01*
X212336867Y-111619769D01*
X212331607Y-111622507D01*
X212327474Y-111625610D01*
X212327471Y-111625612D01*
X212223525Y-111703657D01*
X212152965Y-111756635D01*
X211998629Y-111918138D01*
X211872743Y-112102680D01*
X211833605Y-112186996D01*
X211788447Y-112284282D01*
X211778688Y-112305305D01*
X211718989Y-112520570D01*
X211695251Y-112742695D01*
X211695548Y-112747848D01*
X211695548Y-112747851D01*
X211701011Y-112842590D01*
X211708110Y-112965715D01*
X211709247Y-112970761D01*
X211709248Y-112970767D01*
X211729119Y-113058939D01*
X211757222Y-113183639D01*
X211805988Y-113303737D01*
X211838377Y-113383500D01*
X211841266Y-113390616D01*
X211843965Y-113395020D01*
X211930936Y-113536944D01*
X211957987Y-113581088D01*
X212104250Y-113749938D01*
X212276126Y-113892632D01*
X212300933Y-113907128D01*
X212349445Y-113935476D01*
X212398169Y-113987114D01*
X212411240Y-114056897D01*
X212384509Y-114122669D01*
X212344055Y-114156027D01*
X212331607Y-114162507D01*
X212327474Y-114165610D01*
X212327471Y-114165612D01*
X212303247Y-114183800D01*
X212152965Y-114296635D01*
X211998629Y-114458138D01*
X211872743Y-114642680D01*
X211832857Y-114728608D01*
X211781207Y-114839879D01*
X211778688Y-114845305D01*
X211718989Y-115060570D01*
X211695251Y-115282695D01*
X211695548Y-115287848D01*
X211695548Y-115287851D01*
X211698828Y-115344730D01*
X211708110Y-115505715D01*
X211709247Y-115510761D01*
X211709248Y-115510767D01*
X211711347Y-115520080D01*
X211757222Y-115723639D01*
X211764269Y-115740993D01*
X211828693Y-115899651D01*
X211841266Y-115930616D01*
X211957987Y-116121088D01*
X212104250Y-116289938D01*
X212276126Y-116432632D01*
X212324149Y-116460694D01*
X212349445Y-116475476D01*
X212398169Y-116527114D01*
X212411240Y-116596897D01*
X212384509Y-116662669D01*
X212344055Y-116696027D01*
X212331607Y-116702507D01*
X212327474Y-116705610D01*
X212327471Y-116705612D01*
X212157100Y-116833530D01*
X212152965Y-116836635D01*
X212149393Y-116840373D01*
X212019270Y-116976539D01*
X211998629Y-116998138D01*
X211995715Y-117002410D01*
X211995714Y-117002411D01*
X211934002Y-117092878D01*
X211872743Y-117182680D01*
X211827988Y-117279097D01*
X211788996Y-117363099D01*
X211778688Y-117385305D01*
X211718989Y-117600570D01*
X211695251Y-117822695D01*
X210500000Y-117822695D01*
X210500000Y-110057351D01*
X210520002Y-109989230D01*
X210526815Y-109979645D01*
X210565462Y-109930316D01*
X210565464Y-109930313D01*
X210567816Y-109927311D01*
X210677711Y-109745523D01*
X210722812Y-109670917D01*
X210722814Y-109670913D01*
X210724783Y-109667656D01*
X210805998Y-109487204D01*
X210847743Y-109394451D01*
X210847745Y-109394445D01*
X210849307Y-109390975D01*
X210902869Y-109219087D01*
X210938441Y-109104934D01*
X210938441Y-109104933D01*
X210939573Y-109101301D01*
X210994265Y-108802858D01*
X210999058Y-108723626D01*
X211010721Y-108530790D01*
X211012239Y-108517483D01*
X211012263Y-108517340D01*
X211013071Y-108512539D01*
X211013224Y-108500000D01*
X211009273Y-108472412D01*
X211008000Y-108454549D01*
X211008000Y-100134000D01*
X211028002Y-100065879D01*
X211081658Y-100019386D01*
X211134000Y-100008000D01*
X251366000Y-100008000D01*
X251434121Y-100028002D01*
G37*
G04 #@! TD.AperFunction*
G04 #@! TA.AperFunction,Conductor*
G36*
X205934121Y-100028002D02*
G01*
X205980614Y-100081658D01*
X205992000Y-100134000D01*
X205992000Y-108446793D01*
X205990254Y-108467697D01*
X205986929Y-108487461D01*
X205986776Y-108500000D01*
X205987466Y-108504815D01*
X205987627Y-108507290D01*
X205988195Y-108512885D01*
X206005505Y-108799062D01*
X206005735Y-108802858D01*
X206060427Y-109101301D01*
X206150693Y-109390975D01*
X206152255Y-109394445D01*
X206152257Y-109394451D01*
X206200987Y-109502723D01*
X206275217Y-109667656D01*
X206277186Y-109670913D01*
X206277188Y-109670917D01*
X206308182Y-109722187D01*
X206432184Y-109927311D01*
X206434536Y-109930313D01*
X206434538Y-109930316D01*
X206473185Y-109979645D01*
X206499451Y-110045604D01*
X206500000Y-110057351D01*
X206500000Y-121942649D01*
X206479998Y-122010770D01*
X206473185Y-122020355D01*
X206457721Y-122040094D01*
X206432184Y-122072689D01*
X206348049Y-122211866D01*
X206281994Y-122321134D01*
X206275217Y-122332344D01*
X206240541Y-122409391D01*
X206155745Y-122597801D01*
X206150693Y-122609025D01*
X206060427Y-122898699D01*
X206005735Y-123197142D01*
X206005506Y-123200933D01*
X206005505Y-123200939D01*
X205989279Y-123469210D01*
X205987761Y-123482517D01*
X205986929Y-123487461D01*
X205986776Y-123500000D01*
X205987466Y-123504815D01*
X205990727Y-123527588D01*
X205992000Y-123545451D01*
X205992000Y-131866000D01*
X205971998Y-131934121D01*
X205918342Y-131980614D01*
X205866000Y-131992000D01*
X165634000Y-131992000D01*
X165565879Y-131971998D01*
X165519386Y-131918342D01*
X165508000Y-131866000D01*
X165508000Y-128000000D01*
X165786411Y-128000000D01*
X165806754Y-128388176D01*
X165867562Y-128772099D01*
X165968167Y-129147562D01*
X166107468Y-129510453D01*
X166283938Y-129856794D01*
X166495643Y-130182793D01*
X166740266Y-130484876D01*
X167015124Y-130759734D01*
X167317207Y-131004357D01*
X167643205Y-131216062D01*
X167646139Y-131217557D01*
X167646146Y-131217561D01*
X167986607Y-131391034D01*
X167989547Y-131392532D01*
X168352438Y-131531833D01*
X168727901Y-131632438D01*
X168931793Y-131664732D01*
X169108576Y-131692732D01*
X169108584Y-131692733D01*
X169111824Y-131693246D01*
X169500000Y-131713589D01*
X169888176Y-131693246D01*
X169891416Y-131692733D01*
X169891424Y-131692732D01*
X170068207Y-131664732D01*
X170272099Y-131632438D01*
X170647562Y-131531833D01*
X171010453Y-131392532D01*
X171013393Y-131391034D01*
X171353854Y-131217561D01*
X171353861Y-131217557D01*
X171356795Y-131216062D01*
X171682793Y-131004357D01*
X171984876Y-130759734D01*
X172259734Y-130484876D01*
X172504357Y-130182793D01*
X172716062Y-129856794D01*
X172892532Y-129510453D01*
X173031833Y-129147562D01*
X173132438Y-128772099D01*
X173193246Y-128388176D01*
X173207908Y-128108402D01*
X174959000Y-128108402D01*
X174959212Y-128110975D01*
X174959212Y-128110986D01*
X174966219Y-128196206D01*
X174973678Y-128286937D01*
X175032206Y-128519944D01*
X175128003Y-128740263D01*
X175158392Y-128787237D01*
X175252755Y-128933099D01*
X175258498Y-128941977D01*
X175420186Y-129119670D01*
X175459416Y-129150652D01*
X175604670Y-129265367D01*
X175604675Y-129265370D01*
X175608724Y-129268568D01*
X175613240Y-129271061D01*
X175613243Y-129271063D01*
X175814526Y-129382177D01*
X175814530Y-129382179D01*
X175819050Y-129384674D01*
X175823919Y-129386398D01*
X175823923Y-129386400D01*
X176040640Y-129463144D01*
X176040644Y-129463145D01*
X176045515Y-129464870D01*
X176050608Y-129465777D01*
X176050611Y-129465778D01*
X176276948Y-129506095D01*
X176276954Y-129506096D01*
X176282037Y-129507001D01*
X176369400Y-129508068D01*
X176517093Y-129509873D01*
X176517095Y-129509873D01*
X176522263Y-129509936D01*
X176759744Y-129473596D01*
X176871997Y-129436906D01*
X176983183Y-129400566D01*
X176983189Y-129400563D01*
X176988101Y-129398958D01*
X176992687Y-129396571D01*
X176992691Y-129396569D01*
X177196607Y-129290416D01*
X177201200Y-129288025D01*
X177280993Y-129228115D01*
X177389185Y-129146882D01*
X177389188Y-129146880D01*
X177393320Y-129143777D01*
X177559301Y-128970088D01*
X177584535Y-128933097D01*
X177639444Y-128888096D01*
X177709968Y-128879925D01*
X177773716Y-128911179D01*
X177794411Y-128935660D01*
X177798498Y-128941977D01*
X177960186Y-129119670D01*
X177999416Y-129150652D01*
X178144670Y-129265367D01*
X178144675Y-129265370D01*
X178148724Y-129268568D01*
X178153240Y-129271061D01*
X178153243Y-129271063D01*
X178354526Y-129382177D01*
X178354530Y-129382179D01*
X178359050Y-129384674D01*
X178363919Y-129386398D01*
X178363923Y-129386400D01*
X178580640Y-129463144D01*
X178580644Y-129463145D01*
X178585515Y-129464870D01*
X178590608Y-129465777D01*
X178590611Y-129465778D01*
X178816948Y-129506095D01*
X178816954Y-129506096D01*
X178822037Y-129507001D01*
X178909400Y-129508068D01*
X179057093Y-129509873D01*
X179057095Y-129509873D01*
X179062263Y-129509936D01*
X179299744Y-129473596D01*
X179411997Y-129436906D01*
X179523183Y-129400566D01*
X179523189Y-129400563D01*
X179528101Y-129398958D01*
X179532687Y-129396571D01*
X179532691Y-129396569D01*
X179736607Y-129290416D01*
X179741200Y-129288025D01*
X179896283Y-129171585D01*
X179962765Y-129146680D01*
X180032161Y-129161672D01*
X180082435Y-129211802D01*
X180089915Y-129228115D01*
X180093731Y-129238293D01*
X180096885Y-129246705D01*
X180184239Y-129363261D01*
X180300795Y-129450615D01*
X180437184Y-129501745D01*
X180499366Y-129508500D01*
X182500634Y-129508500D01*
X182562816Y-129501745D01*
X182699205Y-129450615D01*
X182815761Y-129363261D01*
X182903115Y-129246705D01*
X182954245Y-129110316D01*
X182961000Y-129048134D01*
X182961000Y-126951866D01*
X182954245Y-126889684D01*
X182903115Y-126753295D01*
X182815761Y-126636739D01*
X182766740Y-126600000D01*
X190086496Y-126600000D01*
X190087186Y-126606565D01*
X190104699Y-126773188D01*
X190106458Y-126789928D01*
X190165473Y-126971556D01*
X190260960Y-127136944D01*
X190265378Y-127141851D01*
X190265379Y-127141852D01*
X190342858Y-127227901D01*
X190388747Y-127278866D01*
X190543248Y-127391118D01*
X190549276Y-127393802D01*
X190549278Y-127393803D01*
X190704824Y-127463056D01*
X190717712Y-127468794D01*
X190811113Y-127488647D01*
X190898056Y-127507128D01*
X190898061Y-127507128D01*
X190904513Y-127508500D01*
X191095487Y-127508500D01*
X191101939Y-127507128D01*
X191101944Y-127507128D01*
X191188887Y-127488647D01*
X191282288Y-127468794D01*
X191295176Y-127463056D01*
X191450722Y-127393803D01*
X191450724Y-127393802D01*
X191456752Y-127391118D01*
X191611253Y-127278866D01*
X191657142Y-127227901D01*
X191734621Y-127141852D01*
X191734622Y-127141851D01*
X191739040Y-127136944D01*
X191834527Y-126971556D01*
X191893542Y-126789928D01*
X191895302Y-126773188D01*
X191910907Y-126624708D01*
X191937920Y-126559051D01*
X191947122Y-126548782D01*
X192025501Y-126470404D01*
X192087814Y-126436379D01*
X192114596Y-126433500D01*
X195840500Y-126433500D01*
X195908621Y-126453502D01*
X195955114Y-126507158D01*
X195966500Y-126559500D01*
X195966500Y-127027658D01*
X195946498Y-127095779D01*
X195891749Y-127142765D01*
X195749278Y-127206197D01*
X195749276Y-127206198D01*
X195743248Y-127208882D01*
X195588747Y-127321134D01*
X195584326Y-127326044D01*
X195584325Y-127326045D01*
X195480284Y-127441595D01*
X195460960Y-127463056D01*
X195457659Y-127468774D01*
X195375069Y-127611824D01*
X195365473Y-127628444D01*
X195306458Y-127810072D01*
X195305768Y-127816633D01*
X195305768Y-127816635D01*
X195299394Y-127877285D01*
X195286496Y-128000000D01*
X195306458Y-128189928D01*
X195365473Y-128371556D01*
X195368776Y-128377278D01*
X195368777Y-128377279D01*
X195376944Y-128391424D01*
X195460960Y-128536944D01*
X195588747Y-128678866D01*
X195743248Y-128791118D01*
X195749276Y-128793802D01*
X195749278Y-128793803D01*
X195911681Y-128866109D01*
X195917712Y-128868794D01*
X196008520Y-128888096D01*
X196098056Y-128907128D01*
X196098061Y-128907128D01*
X196104513Y-128908500D01*
X196295487Y-128908500D01*
X196301939Y-128907128D01*
X196301944Y-128907128D01*
X196391480Y-128888096D01*
X196482288Y-128868794D01*
X196488319Y-128866109D01*
X196650722Y-128793803D01*
X196650724Y-128793802D01*
X196656752Y-128791118D01*
X196811253Y-128678866D01*
X196939040Y-128536944D01*
X197023056Y-128391424D01*
X197031223Y-128377279D01*
X197031224Y-128377278D01*
X197034527Y-128371556D01*
X197093542Y-128189928D01*
X197113206Y-128002836D01*
X197138955Y-127938781D01*
X197144753Y-127931306D01*
X197149613Y-127925041D01*
X197167176Y-127884457D01*
X197172383Y-127873827D01*
X197193695Y-127835060D01*
X197195666Y-127827383D01*
X197195668Y-127827378D01*
X197198732Y-127815442D01*
X197205138Y-127796730D01*
X197210034Y-127785417D01*
X197213181Y-127778145D01*
X197220097Y-127734481D01*
X197222504Y-127722860D01*
X197231528Y-127687711D01*
X197231528Y-127687710D01*
X197233500Y-127680030D01*
X197233500Y-127659769D01*
X197235051Y-127640058D01*
X197236891Y-127628444D01*
X197238219Y-127620057D01*
X197234059Y-127576046D01*
X197233500Y-127564189D01*
X197233500Y-125871793D01*
X197235732Y-125848184D01*
X197235790Y-125847881D01*
X197235790Y-125847877D01*
X197237275Y-125840094D01*
X197233749Y-125784049D01*
X197233500Y-125776138D01*
X197233500Y-124309980D01*
X197253502Y-124241859D01*
X197307158Y-124195366D01*
X197359500Y-124183980D01*
X198710421Y-124183980D01*
X198721604Y-124184507D01*
X198729097Y-124186182D01*
X198737023Y-124185933D01*
X198737024Y-124185933D01*
X198797174Y-124184042D01*
X198801133Y-124183980D01*
X198829044Y-124183980D01*
X198832979Y-124183483D01*
X198833044Y-124183475D01*
X198844881Y-124182542D01*
X198877139Y-124181528D01*
X198881158Y-124181402D01*
X198889077Y-124181153D01*
X198908531Y-124175501D01*
X198927888Y-124171493D01*
X198940118Y-124169948D01*
X198940119Y-124169948D01*
X198947985Y-124168954D01*
X198955356Y-124166035D01*
X198955358Y-124166035D01*
X198989100Y-124152676D01*
X199000330Y-124148831D01*
X199035171Y-124138709D01*
X199035172Y-124138709D01*
X199042781Y-124136498D01*
X199049600Y-124132465D01*
X199049605Y-124132463D01*
X199060216Y-124126187D01*
X199077964Y-124117492D01*
X199096805Y-124110032D01*
X199132575Y-124084044D01*
X199142495Y-124077528D01*
X199173723Y-124059060D01*
X199173726Y-124059058D01*
X199180550Y-124055022D01*
X199194871Y-124040701D01*
X199209905Y-124027860D01*
X199226295Y-124015952D01*
X199227764Y-124017974D01*
X199280108Y-123991486D01*
X199350731Y-123998767D01*
X199406205Y-124043073D01*
X199412137Y-124052381D01*
X199460960Y-124136944D01*
X199465378Y-124141851D01*
X199465379Y-124141852D01*
X199502864Y-124183483D01*
X199588747Y-124278866D01*
X199743248Y-124391118D01*
X199749276Y-124393802D01*
X199749278Y-124393803D01*
X199911681Y-124466109D01*
X199917712Y-124468794D01*
X200011112Y-124488647D01*
X200098056Y-124507128D01*
X200098061Y-124507128D01*
X200104513Y-124508500D01*
X200291405Y-124508500D01*
X200359526Y-124528502D01*
X200406019Y-124582158D01*
X200416123Y-124652432D01*
X200386629Y-124717012D01*
X200380500Y-124723595D01*
X199440441Y-125663654D01*
X199378129Y-125697680D01*
X199325149Y-125697805D01*
X199295487Y-125691500D01*
X199104513Y-125691500D01*
X199098061Y-125692872D01*
X199098056Y-125692872D01*
X199011113Y-125711353D01*
X198917712Y-125731206D01*
X198911682Y-125733891D01*
X198911681Y-125733891D01*
X198749278Y-125806197D01*
X198749276Y-125806198D01*
X198743248Y-125808882D01*
X198737907Y-125812762D01*
X198737906Y-125812763D01*
X198689571Y-125847881D01*
X198588747Y-125921134D01*
X198460960Y-126063056D01*
X198365473Y-126228444D01*
X198306458Y-126410072D01*
X198305768Y-126416633D01*
X198305768Y-126416635D01*
X198298044Y-126490127D01*
X198286496Y-126600000D01*
X198287186Y-126606565D01*
X198304699Y-126773188D01*
X198306458Y-126789928D01*
X198365473Y-126971556D01*
X198460960Y-127136944D01*
X198465378Y-127141851D01*
X198465379Y-127141852D01*
X198542858Y-127227901D01*
X198588747Y-127278866D01*
X198743248Y-127391118D01*
X198749276Y-127393802D01*
X198749278Y-127393803D01*
X198904824Y-127463056D01*
X198917712Y-127468794D01*
X199011113Y-127488647D01*
X199098056Y-127507128D01*
X199098061Y-127507128D01*
X199104513Y-127508500D01*
X199295487Y-127508500D01*
X199301939Y-127507128D01*
X199301944Y-127507128D01*
X199388887Y-127488647D01*
X199482288Y-127468794D01*
X199495176Y-127463056D01*
X199650722Y-127393803D01*
X199650724Y-127393802D01*
X199656752Y-127391118D01*
X199811253Y-127278866D01*
X199857142Y-127227901D01*
X199934621Y-127141852D01*
X199934622Y-127141851D01*
X199939040Y-127136944D01*
X200034527Y-126971556D01*
X200078210Y-126837114D01*
X200108948Y-126786956D01*
X202950500Y-123945405D01*
X203012812Y-123911379D01*
X203039595Y-123908500D01*
X203095487Y-123908500D01*
X203101939Y-123907128D01*
X203101944Y-123907128D01*
X203188888Y-123888647D01*
X203282288Y-123868794D01*
X203405740Y-123813830D01*
X203450722Y-123793803D01*
X203450724Y-123793802D01*
X203456752Y-123791118D01*
X203484053Y-123771283D01*
X203575609Y-123704763D01*
X203611253Y-123678866D01*
X203739040Y-123536944D01*
X203834527Y-123371556D01*
X203893542Y-123189928D01*
X203895270Y-123173492D01*
X203912814Y-123006565D01*
X203913504Y-123000000D01*
X203902676Y-122896978D01*
X203894232Y-122816635D01*
X203894232Y-122816633D01*
X203893542Y-122810072D01*
X203834527Y-122628444D01*
X203823316Y-122609025D01*
X203775694Y-122526542D01*
X203739040Y-122463056D01*
X203665249Y-122381102D01*
X203615675Y-122326045D01*
X203615674Y-122326044D01*
X203611253Y-122321134D01*
X203456752Y-122208882D01*
X203450724Y-122206198D01*
X203450722Y-122206197D01*
X203288319Y-122133891D01*
X203288318Y-122133891D01*
X203282288Y-122131206D01*
X203188887Y-122111353D01*
X203101944Y-122092872D01*
X203101939Y-122092872D01*
X203095487Y-122091500D01*
X202904513Y-122091500D01*
X202898061Y-122092872D01*
X202898056Y-122092872D01*
X202811113Y-122111353D01*
X202717712Y-122131206D01*
X202711682Y-122133891D01*
X202711681Y-122133891D01*
X202549278Y-122206197D01*
X202549276Y-122206198D01*
X202543248Y-122208882D01*
X202388747Y-122321134D01*
X202384326Y-122326044D01*
X202384325Y-122326045D01*
X202334752Y-122381102D01*
X202260960Y-122463056D01*
X202224306Y-122526542D01*
X202176685Y-122609025D01*
X202165473Y-122628444D01*
X202106458Y-122810072D01*
X202105768Y-122816633D01*
X202105768Y-122816635D01*
X202089093Y-122975293D01*
X202062080Y-123040950D01*
X202052878Y-123051218D01*
X201319227Y-123784869D01*
X201256915Y-123818895D01*
X201186100Y-123813830D01*
X201129264Y-123771283D01*
X201104453Y-123704763D01*
X201104822Y-123682604D01*
X201110907Y-123624707D01*
X201137920Y-123559050D01*
X201147122Y-123548782D01*
X201367633Y-123328271D01*
X201375923Y-123320727D01*
X201382404Y-123316614D01*
X201429045Y-123266946D01*
X201431799Y-123264105D01*
X201451520Y-123244384D01*
X201453998Y-123241189D01*
X201461704Y-123232167D01*
X201483570Y-123208882D01*
X201491972Y-123199935D01*
X201498118Y-123188756D01*
X201501732Y-123182182D01*
X201512585Y-123165659D01*
X201520139Y-123155920D01*
X201524999Y-123149655D01*
X201542562Y-123109071D01*
X201547769Y-123098441D01*
X201569081Y-123059674D01*
X201571052Y-123051997D01*
X201571054Y-123051992D01*
X201574118Y-123040056D01*
X201580524Y-123021344D01*
X201585420Y-123010031D01*
X201588567Y-123002759D01*
X201595483Y-122959095D01*
X201597890Y-122947474D01*
X201606914Y-122912325D01*
X201606914Y-122912324D01*
X201608886Y-122904644D01*
X201608886Y-122884383D01*
X201610437Y-122864672D01*
X201612131Y-122853980D01*
X201613605Y-122844671D01*
X201609445Y-122800660D01*
X201608886Y-122788803D01*
X201608886Y-122723865D01*
X201628888Y-122655744D01*
X201688499Y-122606714D01*
X201711027Y-122597795D01*
X201718430Y-122595129D01*
X201771875Y-122577764D01*
X201778572Y-122573514D01*
X201778831Y-122573350D01*
X201799958Y-122562585D01*
X201800246Y-122562471D01*
X201800251Y-122562468D01*
X201807617Y-122559552D01*
X201814025Y-122554896D01*
X201814031Y-122554893D01*
X201853052Y-122526542D01*
X201859589Y-122522099D01*
X201907018Y-122492000D01*
X201912659Y-122485993D01*
X201930446Y-122470312D01*
X201930691Y-122470134D01*
X201930693Y-122470132D01*
X201937107Y-122465472D01*
X201943166Y-122458148D01*
X201972903Y-122422204D01*
X201978134Y-122416270D01*
X202011158Y-122381102D01*
X202011160Y-122381099D01*
X202016586Y-122375321D01*
X202020558Y-122368097D01*
X202033881Y-122348494D01*
X202034080Y-122348254D01*
X202034084Y-122348247D01*
X202039133Y-122342144D01*
X202063047Y-122291324D01*
X202066629Y-122284292D01*
X202093695Y-122235060D01*
X202095665Y-122227385D01*
X202095668Y-122227379D01*
X202095744Y-122227081D01*
X202103776Y-122204772D01*
X202103906Y-122204497D01*
X202103909Y-122204489D01*
X202107283Y-122197318D01*
X202117806Y-122142151D01*
X202119532Y-122134429D01*
X202119671Y-122133891D01*
X202133500Y-122080030D01*
X202133500Y-122071793D01*
X202135732Y-122048184D01*
X202135790Y-122047881D01*
X202135790Y-122047877D01*
X202137275Y-122040094D01*
X202133749Y-121984049D01*
X202133500Y-121976138D01*
X202133500Y-120506492D01*
X202153502Y-120438371D01*
X202207158Y-120391878D01*
X202277432Y-120381774D01*
X202285697Y-120383245D01*
X202398056Y-120407128D01*
X202398061Y-120407128D01*
X202404513Y-120408500D01*
X202521449Y-120408500D01*
X202589570Y-120428502D01*
X202636063Y-120482158D01*
X202647240Y-120527247D01*
X202650309Y-120580478D01*
X202651745Y-120590695D01*
X202698565Y-120798446D01*
X202701645Y-120808275D01*
X202781770Y-121005603D01*
X202786413Y-121014794D01*
X202897694Y-121196388D01*
X202903777Y-121204699D01*
X203043213Y-121365667D01*
X203050580Y-121372883D01*
X203214434Y-121508916D01*
X203222881Y-121514831D01*
X203406756Y-121622279D01*
X203416042Y-121626729D01*
X203615001Y-121702703D01*
X203624899Y-121705579D01*
X203728250Y-121726606D01*
X203742299Y-121725410D01*
X203746000Y-121715065D01*
X203746000Y-121714517D01*
X204254000Y-121714517D01*
X204258064Y-121728359D01*
X204271478Y-121730393D01*
X204278184Y-121729534D01*
X204288262Y-121727392D01*
X204492255Y-121666191D01*
X204501842Y-121662433D01*
X204693095Y-121568739D01*
X204701945Y-121563464D01*
X204875328Y-121439792D01*
X204883200Y-121433139D01*
X205034052Y-121282812D01*
X205040730Y-121274965D01*
X205165003Y-121102020D01*
X205170313Y-121093183D01*
X205264670Y-120902267D01*
X205268469Y-120892672D01*
X205330377Y-120688910D01*
X205332555Y-120678837D01*
X205333986Y-120667962D01*
X205331775Y-120653778D01*
X205318617Y-120650000D01*
X204272115Y-120650000D01*
X204256876Y-120654475D01*
X204255671Y-120655865D01*
X204254000Y-120663548D01*
X204254000Y-121714517D01*
X203746000Y-121714517D01*
X203746000Y-120268000D01*
X203766002Y-120199879D01*
X203819658Y-120153386D01*
X203872000Y-120142000D01*
X205318344Y-120142000D01*
X205331875Y-120138027D01*
X205333180Y-120128947D01*
X205291214Y-119961875D01*
X205287894Y-119952124D01*
X205202972Y-119756814D01*
X205198105Y-119747739D01*
X205082426Y-119568926D01*
X205076136Y-119560757D01*
X204932806Y-119403240D01*
X204925273Y-119396215D01*
X204758139Y-119264222D01*
X204749556Y-119258520D01*
X204712602Y-119238120D01*
X204662631Y-119187687D01*
X204647859Y-119118245D01*
X204672975Y-119051839D01*
X204700327Y-119025232D01*
X204723797Y-119008491D01*
X204879860Y-118897173D01*
X205038096Y-118739489D01*
X205168453Y-118558077D01*
X205267430Y-118357811D01*
X205332370Y-118144069D01*
X205361529Y-117922590D01*
X205363156Y-117856000D01*
X205344852Y-117633361D01*
X205290431Y-117416702D01*
X205201354Y-117211840D01*
X205080014Y-117024277D01*
X204929670Y-116859051D01*
X204925619Y-116855852D01*
X204925615Y-116855848D01*
X204758414Y-116723800D01*
X204758410Y-116723798D01*
X204754359Y-116720598D01*
X204713053Y-116697796D01*
X204663084Y-116647364D01*
X204648312Y-116577921D01*
X204673428Y-116511516D01*
X204700780Y-116484909D01*
X204744603Y-116453650D01*
X204879860Y-116357173D01*
X205038096Y-116199489D01*
X205168453Y-116018077D01*
X205267430Y-115817811D01*
X205332370Y-115604069D01*
X205361529Y-115382590D01*
X205363156Y-115316000D01*
X205344852Y-115093361D01*
X205290431Y-114876702D01*
X205201354Y-114671840D01*
X205143336Y-114582158D01*
X205082822Y-114488617D01*
X205082820Y-114488614D01*
X205080014Y-114484277D01*
X204929670Y-114319051D01*
X204925619Y-114315852D01*
X204925615Y-114315848D01*
X204758414Y-114183800D01*
X204758410Y-114183798D01*
X204754359Y-114180598D01*
X204713053Y-114157796D01*
X204663084Y-114107364D01*
X204648312Y-114037921D01*
X204673428Y-113971516D01*
X204700780Y-113944909D01*
X204808827Y-113867840D01*
X204879860Y-113817173D01*
X205038096Y-113659489D01*
X205168453Y-113478077D01*
X205171451Y-113472012D01*
X205265136Y-113282453D01*
X205265137Y-113282451D01*
X205267430Y-113277811D01*
X205332370Y-113064069D01*
X205361529Y-112842590D01*
X205363156Y-112776000D01*
X205344852Y-112553361D01*
X205290431Y-112336702D01*
X205201354Y-112131840D01*
X205080014Y-111944277D01*
X204929670Y-111779051D01*
X204925619Y-111775852D01*
X204925615Y-111775848D01*
X204758414Y-111643800D01*
X204758410Y-111643798D01*
X204754359Y-111640598D01*
X204713053Y-111617796D01*
X204663084Y-111567364D01*
X204648312Y-111497921D01*
X204673428Y-111431516D01*
X204700780Y-111404909D01*
X204803802Y-111331424D01*
X204879860Y-111277173D01*
X205038096Y-111119489D01*
X205168453Y-110938077D01*
X205171466Y-110931982D01*
X205265136Y-110742453D01*
X205265137Y-110742451D01*
X205267430Y-110737811D01*
X205332370Y-110524069D01*
X205361529Y-110302590D01*
X205363156Y-110236000D01*
X205344852Y-110013361D01*
X205290431Y-109796702D01*
X205201354Y-109591840D01*
X205080014Y-109404277D01*
X205071073Y-109394451D01*
X204932798Y-109242488D01*
X204901746Y-109178642D01*
X204910141Y-109108143D01*
X204955317Y-109053375D01*
X204981761Y-109039706D01*
X205088297Y-108999767D01*
X205096705Y-108996615D01*
X205213261Y-108909261D01*
X205300615Y-108792705D01*
X205351745Y-108656316D01*
X205358500Y-108594134D01*
X205358500Y-106797866D01*
X205351745Y-106735684D01*
X205300615Y-106599295D01*
X205213261Y-106482739D01*
X205096705Y-106395385D01*
X204960316Y-106344255D01*
X204898134Y-106337500D01*
X203101866Y-106337500D01*
X203039684Y-106344255D01*
X202903295Y-106395385D01*
X202786739Y-106482739D01*
X202699385Y-106599295D01*
X202648255Y-106735684D01*
X202641500Y-106797866D01*
X202641500Y-108106405D01*
X202621498Y-108174526D01*
X202604595Y-108195500D01*
X199932258Y-110867837D01*
X199923972Y-110875377D01*
X199917493Y-110879489D01*
X199912068Y-110885266D01*
X199870868Y-110929140D01*
X199868113Y-110931982D01*
X199848376Y-110951719D01*
X199845896Y-110954916D01*
X199838193Y-110963936D01*
X199807925Y-110996168D01*
X199804106Y-111003114D01*
X199804104Y-111003117D01*
X199798163Y-111013923D01*
X199787312Y-111030442D01*
X199774897Y-111046448D01*
X199771752Y-111053717D01*
X199771749Y-111053721D01*
X199757337Y-111087026D01*
X199752120Y-111097676D01*
X199730816Y-111136429D01*
X199728845Y-111144104D01*
X199728845Y-111144105D01*
X199725778Y-111156051D01*
X199719374Y-111174755D01*
X199711330Y-111193344D01*
X199710091Y-111201167D01*
X199710088Y-111201177D01*
X199704412Y-111237013D01*
X199702006Y-111248633D01*
X199691011Y-111291459D01*
X199691011Y-111311713D01*
X199689460Y-111331423D01*
X199686291Y-111351432D01*
X199687037Y-111359324D01*
X199686788Y-111367247D01*
X199683881Y-111367156D01*
X199673000Y-111423338D01*
X199623960Y-111474676D01*
X199561059Y-111491500D01*
X197951866Y-111491500D01*
X197889684Y-111498255D01*
X197753295Y-111549385D01*
X197636739Y-111636739D01*
X197549385Y-111753295D01*
X197498255Y-111889684D01*
X197491500Y-111951866D01*
X197491500Y-114048134D01*
X197498255Y-114110316D01*
X197549385Y-114246705D01*
X197636739Y-114363261D01*
X197753295Y-114450615D01*
X197889684Y-114501745D01*
X197951866Y-114508500D01*
X199565011Y-114508500D01*
X199633132Y-114528502D01*
X199679625Y-114582158D01*
X199691011Y-114634500D01*
X199691011Y-120360894D01*
X199671009Y-120429015D01*
X199654106Y-120449989D01*
X199640441Y-120463654D01*
X199578129Y-120497680D01*
X199525149Y-120497805D01*
X199495487Y-120491500D01*
X199304513Y-120491500D01*
X199298061Y-120492872D01*
X199298056Y-120492872D01*
X199211113Y-120511353D01*
X199117712Y-120531206D01*
X199111682Y-120533891D01*
X199111681Y-120533891D01*
X198949278Y-120606197D01*
X198949276Y-120606198D01*
X198943248Y-120608882D01*
X198788747Y-120721134D01*
X198660960Y-120863056D01*
X198565473Y-121028444D01*
X198506458Y-121210072D01*
X198505768Y-121216633D01*
X198505768Y-121216635D01*
X198489346Y-121372883D01*
X198486496Y-121400000D01*
X198487186Y-121406565D01*
X198505631Y-121582055D01*
X198506458Y-121589928D01*
X198565473Y-121771556D01*
X198660960Y-121936944D01*
X198665378Y-121941851D01*
X198665379Y-121941852D01*
X198760848Y-122047881D01*
X198788747Y-122078866D01*
X198943248Y-122191118D01*
X198949276Y-122193802D01*
X198949278Y-122193803D01*
X198989849Y-122211866D01*
X199043945Y-122257846D01*
X199064594Y-122325773D01*
X199045242Y-122394081D01*
X199027695Y-122416068D01*
X198563688Y-122880075D01*
X198501376Y-122914101D01*
X198474593Y-122916980D01*
X197414799Y-122916980D01*
X197346678Y-122896978D01*
X197305680Y-122853980D01*
X197304825Y-122852499D01*
X197239040Y-122738556D01*
X197111253Y-122596634D01*
X196956752Y-122484382D01*
X196950724Y-122481698D01*
X196950722Y-122481697D01*
X196788319Y-122409391D01*
X196788318Y-122409391D01*
X196782288Y-122406706D01*
X196688888Y-122386853D01*
X196601944Y-122368372D01*
X196601939Y-122368372D01*
X196595487Y-122367000D01*
X196404513Y-122367000D01*
X196398061Y-122368372D01*
X196398056Y-122368372D01*
X196311112Y-122386853D01*
X196217712Y-122406706D01*
X196211682Y-122409391D01*
X196211681Y-122409391D01*
X196049278Y-122481697D01*
X196049276Y-122481698D01*
X196043248Y-122484382D01*
X195888747Y-122596634D01*
X195760960Y-122738556D01*
X195757659Y-122744274D01*
X195669647Y-122896715D01*
X195665473Y-122903944D01*
X195606458Y-123085572D01*
X195605768Y-123092136D01*
X195605767Y-123092141D01*
X195605511Y-123094575D01*
X195604970Y-123095889D01*
X195604394Y-123098600D01*
X195603898Y-123098495D01*
X195578495Y-123160231D01*
X195520271Y-123200857D01*
X195449326Y-123203556D01*
X195428953Y-123196505D01*
X195288319Y-123133891D01*
X195288318Y-123133891D01*
X195282288Y-123131206D01*
X195178227Y-123109087D01*
X195101944Y-123092872D01*
X195101939Y-123092872D01*
X195095487Y-123091500D01*
X194904513Y-123091500D01*
X194898061Y-123092872D01*
X194898056Y-123092872D01*
X194821773Y-123109087D01*
X194717712Y-123131206D01*
X194711682Y-123133891D01*
X194711681Y-123133891D01*
X194549278Y-123206197D01*
X194549276Y-123206198D01*
X194543248Y-123208882D01*
X194388747Y-123321134D01*
X194260960Y-123463056D01*
X194165473Y-123628444D01*
X194106458Y-123810072D01*
X194105768Y-123816633D01*
X194105768Y-123816635D01*
X194100568Y-123866109D01*
X194086496Y-124000000D01*
X194087186Y-124006565D01*
X194104254Y-124168954D01*
X194106458Y-124189928D01*
X194165473Y-124371556D01*
X194260960Y-124536944D01*
X194388747Y-124678866D01*
X194450311Y-124723595D01*
X194533366Y-124783938D01*
X194543248Y-124791118D01*
X194549276Y-124793802D01*
X194549278Y-124793803D01*
X194711681Y-124866109D01*
X194717712Y-124868794D01*
X194811113Y-124888647D01*
X194898056Y-124907128D01*
X194898061Y-124907128D01*
X194904513Y-124908500D01*
X195095487Y-124908500D01*
X195101939Y-124907128D01*
X195101944Y-124907128D01*
X195188887Y-124888647D01*
X195282288Y-124868794D01*
X195288319Y-124866109D01*
X195450722Y-124793803D01*
X195450724Y-124793802D01*
X195456752Y-124791118D01*
X195466635Y-124783938D01*
X195589671Y-124694546D01*
X195611253Y-124678866D01*
X195615668Y-124673963D01*
X195620580Y-124669540D01*
X195621705Y-124670789D01*
X195675014Y-124637949D01*
X195708200Y-124633500D01*
X195840500Y-124633500D01*
X195908621Y-124653502D01*
X195955114Y-124707158D01*
X195966500Y-124759500D01*
X195966500Y-125040500D01*
X195946498Y-125108621D01*
X195892842Y-125155114D01*
X195840500Y-125166500D01*
X191878767Y-125166500D01*
X191867584Y-125165973D01*
X191860091Y-125164298D01*
X191852165Y-125164547D01*
X191852164Y-125164547D01*
X191792001Y-125166438D01*
X191788043Y-125166500D01*
X191760144Y-125166500D01*
X191756154Y-125167004D01*
X191744320Y-125167936D01*
X191700111Y-125169326D01*
X191692497Y-125171538D01*
X191692492Y-125171539D01*
X191680659Y-125174977D01*
X191661296Y-125178988D01*
X191641203Y-125181526D01*
X191633836Y-125184443D01*
X191633831Y-125184444D01*
X191600092Y-125197802D01*
X191588865Y-125201646D01*
X191546407Y-125213982D01*
X191539581Y-125218019D01*
X191528972Y-125224293D01*
X191511224Y-125232988D01*
X191492383Y-125240448D01*
X191485967Y-125245110D01*
X191485966Y-125245110D01*
X191456613Y-125266436D01*
X191446693Y-125272952D01*
X191415465Y-125291420D01*
X191415462Y-125291422D01*
X191408638Y-125295458D01*
X191394317Y-125309779D01*
X191379284Y-125322619D01*
X191362893Y-125334528D01*
X191357842Y-125340633D01*
X191357837Y-125340638D01*
X191334706Y-125368598D01*
X191326719Y-125377376D01*
X191186410Y-125517686D01*
X191049501Y-125654595D01*
X190987188Y-125688620D01*
X190960405Y-125691500D01*
X190904513Y-125691500D01*
X190898061Y-125692872D01*
X190898056Y-125692872D01*
X190811113Y-125711353D01*
X190717712Y-125731206D01*
X190711682Y-125733891D01*
X190711681Y-125733891D01*
X190549278Y-125806197D01*
X190549276Y-125806198D01*
X190543248Y-125808882D01*
X190537907Y-125812762D01*
X190537906Y-125812763D01*
X190489571Y-125847881D01*
X190388747Y-125921134D01*
X190260960Y-126063056D01*
X190165473Y-126228444D01*
X190106458Y-126410072D01*
X190105768Y-126416633D01*
X190105768Y-126416635D01*
X190098044Y-126490127D01*
X190086496Y-126600000D01*
X182766740Y-126600000D01*
X182699205Y-126549385D01*
X182562816Y-126498255D01*
X182500634Y-126491500D01*
X180499366Y-126491500D01*
X180437184Y-126498255D01*
X180300795Y-126549385D01*
X180184239Y-126636739D01*
X180096885Y-126753295D01*
X180089427Y-126773189D01*
X180046787Y-126829953D01*
X179980226Y-126854654D01*
X179910877Y-126839447D01*
X179893353Y-126827842D01*
X179775330Y-126734633D01*
X179775325Y-126734630D01*
X179771276Y-126731432D01*
X179766760Y-126728939D01*
X179766757Y-126728937D01*
X179565474Y-126617823D01*
X179565470Y-126617821D01*
X179560950Y-126615326D01*
X179556081Y-126613602D01*
X179556077Y-126613600D01*
X179339360Y-126536856D01*
X179339356Y-126536855D01*
X179334485Y-126535130D01*
X179329392Y-126534223D01*
X179329389Y-126534222D01*
X179103052Y-126493905D01*
X179103046Y-126493904D01*
X179097963Y-126492999D01*
X179005474Y-126491869D01*
X178862907Y-126490127D01*
X178862905Y-126490127D01*
X178857737Y-126490064D01*
X178620256Y-126526404D01*
X178520372Y-126559051D01*
X178396817Y-126599434D01*
X178396811Y-126599437D01*
X178391899Y-126601042D01*
X178387313Y-126603429D01*
X178387309Y-126603431D01*
X178183393Y-126709584D01*
X178178800Y-126711975D01*
X178174657Y-126715085D01*
X178174658Y-126715085D01*
X177995837Y-126849348D01*
X177986680Y-126856223D01*
X177820699Y-127029912D01*
X177795465Y-127066903D01*
X177740556Y-127111904D01*
X177670032Y-127120075D01*
X177606284Y-127088821D01*
X177585589Y-127064340D01*
X177584311Y-127062365D01*
X177581502Y-127058023D01*
X177419814Y-126880330D01*
X177328668Y-126808347D01*
X177235330Y-126734633D01*
X177235325Y-126734630D01*
X177231276Y-126731432D01*
X177226760Y-126728939D01*
X177226757Y-126728937D01*
X177025474Y-126617823D01*
X177025470Y-126617821D01*
X177020950Y-126615326D01*
X177016081Y-126613602D01*
X177016077Y-126613600D01*
X176799360Y-126536856D01*
X176799356Y-126536855D01*
X176794485Y-126535130D01*
X176789392Y-126534223D01*
X176789389Y-126534222D01*
X176563052Y-126493905D01*
X176563046Y-126493904D01*
X176557963Y-126492999D01*
X176465474Y-126491869D01*
X176322907Y-126490127D01*
X176322905Y-126490127D01*
X176317737Y-126490064D01*
X176080256Y-126526404D01*
X175980372Y-126559051D01*
X175856817Y-126599434D01*
X175856811Y-126599437D01*
X175851899Y-126601042D01*
X175847313Y-126603429D01*
X175847309Y-126603431D01*
X175643393Y-126709584D01*
X175638800Y-126711975D01*
X175634657Y-126715085D01*
X175634658Y-126715085D01*
X175455837Y-126849348D01*
X175446680Y-126856223D01*
X175280699Y-127029912D01*
X175277785Y-127034184D01*
X175148597Y-127223566D01*
X175145314Y-127228378D01*
X175143140Y-127233061D01*
X175143138Y-127233065D01*
X175046342Y-127441595D01*
X175044163Y-127446290D01*
X174979960Y-127677798D01*
X174979411Y-127682935D01*
X174962412Y-127842005D01*
X174959000Y-127873928D01*
X174959000Y-128108402D01*
X173207908Y-128108402D01*
X173213589Y-128000000D01*
X173193246Y-127611824D01*
X173187580Y-127576046D01*
X173164732Y-127431793D01*
X173132438Y-127227901D01*
X173031833Y-126852438D01*
X173022392Y-126827842D01*
X172946968Y-126631358D01*
X172892532Y-126489547D01*
X172874166Y-126453502D01*
X172717561Y-126146147D01*
X172717557Y-126146140D01*
X172716062Y-126143206D01*
X172514083Y-125832183D01*
X172506152Y-125819971D01*
X172506152Y-125819970D01*
X172504357Y-125817207D01*
X172259734Y-125515124D01*
X171984876Y-125240266D01*
X171957404Y-125218019D01*
X171822309Y-125108621D01*
X171682793Y-124995643D01*
X171548604Y-124908500D01*
X171359564Y-124785736D01*
X171359561Y-124785734D01*
X171356795Y-124783938D01*
X171353861Y-124782443D01*
X171353854Y-124782439D01*
X171013393Y-124608966D01*
X171010453Y-124607468D01*
X170647562Y-124468167D01*
X170272099Y-124367562D01*
X170068207Y-124335268D01*
X169891424Y-124307268D01*
X169891416Y-124307267D01*
X169888176Y-124306754D01*
X169500000Y-124286411D01*
X169111824Y-124306754D01*
X169108584Y-124307267D01*
X169108576Y-124307268D01*
X168931793Y-124335268D01*
X168727901Y-124367562D01*
X168352438Y-124468167D01*
X167989547Y-124607468D01*
X167986607Y-124608966D01*
X167646147Y-124782439D01*
X167646140Y-124782443D01*
X167643206Y-124783938D01*
X167640440Y-124785734D01*
X167640437Y-124785736D01*
X167628015Y-124793803D01*
X167317207Y-124995643D01*
X167177691Y-125108621D01*
X167042597Y-125218019D01*
X167015124Y-125240266D01*
X166740266Y-125515124D01*
X166495643Y-125817207D01*
X166493848Y-125819970D01*
X166493848Y-125819971D01*
X166485918Y-125832183D01*
X166283938Y-126143206D01*
X166282443Y-126146140D01*
X166282439Y-126146147D01*
X166125834Y-126453502D01*
X166107468Y-126489547D01*
X166053032Y-126631358D01*
X165977609Y-126827842D01*
X165968167Y-126852438D01*
X165867562Y-127227901D01*
X165835268Y-127431793D01*
X165812421Y-127576046D01*
X165806754Y-127611824D01*
X165786411Y-128000000D01*
X165508000Y-128000000D01*
X165508000Y-105900000D01*
X167486685Y-105900000D01*
X167505931Y-106267241D01*
X167506444Y-106270481D01*
X167506445Y-106270489D01*
X167518129Y-106344255D01*
X167563459Y-106630459D01*
X167658639Y-106985674D01*
X167790427Y-107328994D01*
X167957380Y-107656657D01*
X167959176Y-107659423D01*
X167959178Y-107659426D01*
X168024687Y-107760301D01*
X168157668Y-107965075D01*
X168389098Y-108250867D01*
X168649133Y-108510902D01*
X168934925Y-108742332D01*
X168937700Y-108744134D01*
X169200260Y-108914642D01*
X169243342Y-108942620D01*
X169246276Y-108944115D01*
X169246283Y-108944119D01*
X169460711Y-109053375D01*
X169571006Y-109109573D01*
X169914326Y-109241361D01*
X170269541Y-109336541D01*
X170272799Y-109337057D01*
X170298022Y-109341052D01*
X170362174Y-109371465D01*
X170399701Y-109431734D01*
X170398687Y-109502723D01*
X170359454Y-109561895D01*
X170294458Y-109590462D01*
X170278314Y-109591501D01*
X169387664Y-109591501D01*
X169386295Y-109591561D01*
X169386284Y-109591561D01*
X169328086Y-109594101D01*
X169328080Y-109594102D01*
X169324520Y-109594257D01*
X169251045Y-109605894D01*
X169051429Y-109637509D01*
X169051422Y-109637511D01*
X169047082Y-109638198D01*
X169026149Y-109644598D01*
X168782678Y-109719035D01*
X168782673Y-109719037D01*
X168778460Y-109720325D01*
X168774471Y-109722185D01*
X168774466Y-109722187D01*
X168527874Y-109837174D01*
X168527868Y-109837177D01*
X168523882Y-109839036D01*
X168520185Y-109841437D01*
X168291998Y-109989623D01*
X168291994Y-109989626D01*
X168288303Y-109992023D01*
X168076308Y-110176308D01*
X167892023Y-110388303D01*
X167889626Y-110391994D01*
X167889623Y-110391998D01*
X167807187Y-110518939D01*
X167739036Y-110623882D01*
X167737177Y-110627868D01*
X167737174Y-110627874D01*
X167622366Y-110874082D01*
X167620325Y-110878460D01*
X167619037Y-110882673D01*
X167619035Y-110882678D01*
X167582213Y-111003117D01*
X167538198Y-111147082D01*
X167537511Y-111151422D01*
X167537509Y-111151429D01*
X167510553Y-111321631D01*
X167494257Y-111424520D01*
X167494102Y-111428081D01*
X167494101Y-111428086D01*
X167492067Y-111474676D01*
X167491500Y-111487663D01*
X167491501Y-114712336D01*
X167494257Y-114775480D01*
X167494815Y-114779002D01*
X167537509Y-115048571D01*
X167537511Y-115048578D01*
X167538198Y-115052918D01*
X167550563Y-115093361D01*
X167617606Y-115312646D01*
X167620325Y-115321540D01*
X167622185Y-115325529D01*
X167622187Y-115325534D01*
X167737174Y-115572126D01*
X167737177Y-115572132D01*
X167739036Y-115576118D01*
X167892023Y-115811697D01*
X168076308Y-116023692D01*
X168288303Y-116207977D01*
X168291994Y-116210374D01*
X168291998Y-116210377D01*
X168465640Y-116323141D01*
X168523882Y-116360964D01*
X168527868Y-116362823D01*
X168527874Y-116362826D01*
X168774466Y-116477813D01*
X168774471Y-116477815D01*
X168778460Y-116479675D01*
X168782673Y-116480963D01*
X168782678Y-116480965D01*
X168913564Y-116520981D01*
X169047082Y-116561802D01*
X169051422Y-116562489D01*
X169051429Y-116562491D01*
X169309709Y-116603397D01*
X169324520Y-116605743D01*
X169328081Y-116605898D01*
X169328086Y-116605899D01*
X169386287Y-116608440D01*
X169386291Y-116608440D01*
X169387663Y-116608500D01*
X170998829Y-116608500D01*
X172612336Y-116608499D01*
X172613705Y-116608439D01*
X172613716Y-116608439D01*
X172671914Y-116605899D01*
X172671920Y-116605898D01*
X172675480Y-116605743D01*
X172788789Y-116587797D01*
X172948571Y-116562491D01*
X172948578Y-116562489D01*
X172952918Y-116561802D01*
X173086436Y-116520981D01*
X173217322Y-116480965D01*
X173217327Y-116480963D01*
X173221540Y-116479675D01*
X173225529Y-116477815D01*
X173225534Y-116477813D01*
X173472126Y-116362826D01*
X173472132Y-116362823D01*
X173476118Y-116360964D01*
X173534360Y-116323141D01*
X173708002Y-116210377D01*
X173708006Y-116210374D01*
X173711697Y-116207977D01*
X173923692Y-116023692D01*
X174107977Y-115811697D01*
X174260964Y-115576118D01*
X174262823Y-115572132D01*
X174262826Y-115572126D01*
X174377813Y-115325534D01*
X174377815Y-115325529D01*
X174379675Y-115321540D01*
X174382395Y-115312646D01*
X174449437Y-115093361D01*
X174461802Y-115052918D01*
X174462489Y-115048578D01*
X174462491Y-115048571D01*
X174505185Y-114779003D01*
X174505185Y-114779002D01*
X174505743Y-114775480D01*
X174508500Y-114712337D01*
X174508500Y-114232670D01*
X193132160Y-114232670D01*
X193137887Y-114240320D01*
X193309042Y-114345205D01*
X193317837Y-114349687D01*
X193527988Y-114436734D01*
X193537373Y-114439783D01*
X193758554Y-114492885D01*
X193768301Y-114494428D01*
X193995070Y-114512275D01*
X194004930Y-114512275D01*
X194231699Y-114494428D01*
X194241446Y-114492885D01*
X194462627Y-114439783D01*
X194472012Y-114436734D01*
X194682163Y-114349687D01*
X194690958Y-114345205D01*
X194858445Y-114242568D01*
X194867907Y-114232110D01*
X194864124Y-114223334D01*
X194012812Y-113372022D01*
X193998868Y-113364408D01*
X193997035Y-113364539D01*
X193990420Y-113368790D01*
X193138920Y-114220290D01*
X193132160Y-114232670D01*
X174508500Y-114232670D01*
X174508499Y-113004930D01*
X192487725Y-113004930D01*
X192505572Y-113231699D01*
X192507115Y-113241446D01*
X192560217Y-113462627D01*
X192563266Y-113472012D01*
X192650313Y-113682163D01*
X192654795Y-113690958D01*
X192757432Y-113858445D01*
X192767890Y-113867907D01*
X192776666Y-113864124D01*
X193627978Y-113012812D01*
X193634356Y-113001132D01*
X194364408Y-113001132D01*
X194364539Y-113002965D01*
X194368790Y-113009580D01*
X195220290Y-113861080D01*
X195232670Y-113867840D01*
X195240320Y-113862113D01*
X195345205Y-113690958D01*
X195349687Y-113682163D01*
X195436734Y-113472012D01*
X195439783Y-113462627D01*
X195492885Y-113241446D01*
X195494428Y-113231699D01*
X195512275Y-113004930D01*
X195512275Y-112995070D01*
X195494428Y-112768301D01*
X195492885Y-112758554D01*
X195439783Y-112537373D01*
X195436734Y-112527988D01*
X195349687Y-112317837D01*
X195345205Y-112309042D01*
X195242568Y-112141555D01*
X195232110Y-112132093D01*
X195223334Y-112135876D01*
X194372022Y-112987188D01*
X194364408Y-113001132D01*
X193634356Y-113001132D01*
X193635592Y-112998868D01*
X193635461Y-112997035D01*
X193631210Y-112990420D01*
X192779710Y-112138920D01*
X192767330Y-112132160D01*
X192759680Y-112137887D01*
X192654795Y-112309042D01*
X192650313Y-112317837D01*
X192563266Y-112527988D01*
X192560217Y-112537373D01*
X192507115Y-112758554D01*
X192505572Y-112768301D01*
X192487725Y-112995070D01*
X192487725Y-113004930D01*
X174508499Y-113004930D01*
X174508499Y-111767890D01*
X193132093Y-111767890D01*
X193135876Y-111776666D01*
X193987188Y-112627978D01*
X194001132Y-112635592D01*
X194002965Y-112635461D01*
X194009580Y-112631210D01*
X194861080Y-111779710D01*
X194867840Y-111767330D01*
X194862113Y-111759680D01*
X194690958Y-111654795D01*
X194682163Y-111650313D01*
X194472012Y-111563266D01*
X194462627Y-111560217D01*
X194241446Y-111507115D01*
X194231699Y-111505572D01*
X194004930Y-111487725D01*
X193995070Y-111487725D01*
X193768301Y-111505572D01*
X193758554Y-111507115D01*
X193537373Y-111560217D01*
X193527988Y-111563266D01*
X193317837Y-111650313D01*
X193309042Y-111654795D01*
X193141555Y-111757432D01*
X193132093Y-111767890D01*
X174508499Y-111767890D01*
X174508499Y-111487664D01*
X174507932Y-111474676D01*
X174505899Y-111428086D01*
X174505898Y-111428080D01*
X174505743Y-111424520D01*
X174489447Y-111321631D01*
X174462491Y-111151429D01*
X174462489Y-111151422D01*
X174461802Y-111147082D01*
X174417787Y-111003117D01*
X174380965Y-110882678D01*
X174380963Y-110882673D01*
X174379675Y-110878460D01*
X174377634Y-110874082D01*
X174262826Y-110627874D01*
X174262823Y-110627868D01*
X174260964Y-110623882D01*
X174192813Y-110518939D01*
X174110377Y-110391998D01*
X174110374Y-110391994D01*
X174107977Y-110388303D01*
X173923692Y-110176308D01*
X173711697Y-109992023D01*
X173708006Y-109989626D01*
X173708002Y-109989623D01*
X173479815Y-109841437D01*
X173476118Y-109839036D01*
X173472132Y-109837177D01*
X173472126Y-109837174D01*
X173225534Y-109722187D01*
X173225529Y-109722185D01*
X173221540Y-109720325D01*
X173217327Y-109719037D01*
X173217322Y-109719035D01*
X172973851Y-109644598D01*
X172952918Y-109638198D01*
X172948578Y-109637511D01*
X172948571Y-109637509D01*
X172679003Y-109594815D01*
X172675480Y-109594257D01*
X172671919Y-109594102D01*
X172671914Y-109594101D01*
X172613713Y-109591560D01*
X172613709Y-109591560D01*
X172612337Y-109591500D01*
X171721693Y-109591500D01*
X171653572Y-109571498D01*
X171607079Y-109517842D01*
X171596975Y-109447568D01*
X171626469Y-109382988D01*
X171654469Y-109364993D01*
X181132160Y-109364993D01*
X181137887Y-109372643D01*
X181309042Y-109477528D01*
X181317837Y-109482010D01*
X181527988Y-109569057D01*
X181537373Y-109572106D01*
X181758554Y-109625208D01*
X181768301Y-109626751D01*
X181995070Y-109644598D01*
X182004930Y-109644598D01*
X182231699Y-109626751D01*
X182241446Y-109625208D01*
X182462627Y-109572106D01*
X182472012Y-109569057D01*
X182682163Y-109482010D01*
X182690958Y-109477528D01*
X182858445Y-109374891D01*
X182867907Y-109364433D01*
X182864124Y-109355657D01*
X182012812Y-108504345D01*
X181998868Y-108496731D01*
X181997035Y-108496862D01*
X181990420Y-108501113D01*
X181138920Y-109352613D01*
X181132160Y-109364993D01*
X171654469Y-109364993D01*
X171686195Y-109344604D01*
X171701984Y-109341051D01*
X171727193Y-109337059D01*
X171727206Y-109337056D01*
X171730459Y-109336541D01*
X172085674Y-109241361D01*
X172428994Y-109109573D01*
X172539289Y-109053375D01*
X172753717Y-108944119D01*
X172753724Y-108944115D01*
X172756658Y-108942620D01*
X172799741Y-108914642D01*
X173062300Y-108744134D01*
X173065075Y-108742332D01*
X173350867Y-108510902D01*
X173610902Y-108250867D01*
X173702905Y-108137253D01*
X180487725Y-108137253D01*
X180505572Y-108364022D01*
X180507115Y-108373769D01*
X180560217Y-108594950D01*
X180563266Y-108604335D01*
X180650313Y-108814486D01*
X180654795Y-108823281D01*
X180757432Y-108990768D01*
X180767890Y-109000230D01*
X180776666Y-108996447D01*
X181627978Y-108145135D01*
X181634356Y-108133455D01*
X182364408Y-108133455D01*
X182364539Y-108135288D01*
X182368790Y-108141903D01*
X183220290Y-108993403D01*
X183232670Y-109000163D01*
X183240320Y-108994436D01*
X183345205Y-108823281D01*
X183349687Y-108814486D01*
X183436734Y-108604335D01*
X183439783Y-108594950D01*
X183492885Y-108373769D01*
X183494428Y-108364022D01*
X183512275Y-108137253D01*
X183512275Y-108127393D01*
X183494428Y-107900624D01*
X183492885Y-107890877D01*
X183439783Y-107669696D01*
X183436734Y-107660311D01*
X183349687Y-107450160D01*
X183345205Y-107441365D01*
X183242568Y-107273878D01*
X183232110Y-107264416D01*
X183223334Y-107268199D01*
X182372022Y-108119511D01*
X182364408Y-108133455D01*
X181634356Y-108133455D01*
X181635592Y-108131191D01*
X181635461Y-108129358D01*
X181631210Y-108122743D01*
X180779710Y-107271243D01*
X180767330Y-107264483D01*
X180759680Y-107270210D01*
X180654795Y-107441365D01*
X180650313Y-107450160D01*
X180563266Y-107660311D01*
X180560217Y-107669696D01*
X180507115Y-107890877D01*
X180505572Y-107900624D01*
X180487725Y-108127393D01*
X180487725Y-108137253D01*
X173702905Y-108137253D01*
X173842332Y-107965075D01*
X173975313Y-107760301D01*
X174040822Y-107659426D01*
X174040824Y-107659423D01*
X174042620Y-107656657D01*
X174209573Y-107328994D01*
X174341361Y-106985674D01*
X174364260Y-106900213D01*
X181132093Y-106900213D01*
X181135876Y-106908989D01*
X181987188Y-107760301D01*
X182001132Y-107767915D01*
X182002965Y-107767784D01*
X182009580Y-107763533D01*
X182861080Y-106912033D01*
X182867840Y-106899653D01*
X182862113Y-106892003D01*
X182690958Y-106787118D01*
X182682163Y-106782636D01*
X182472012Y-106695589D01*
X182462627Y-106692540D01*
X182241446Y-106639438D01*
X182231699Y-106637895D01*
X182004930Y-106620048D01*
X181995070Y-106620048D01*
X181768301Y-106637895D01*
X181758554Y-106639438D01*
X181537373Y-106692540D01*
X181527988Y-106695589D01*
X181317837Y-106782636D01*
X181309042Y-106787118D01*
X181141555Y-106889755D01*
X181132093Y-106900213D01*
X174364260Y-106900213D01*
X174436541Y-106630459D01*
X174481871Y-106344255D01*
X174493555Y-106270489D01*
X174493556Y-106270481D01*
X174494069Y-106267241D01*
X174513315Y-105900000D01*
X174494069Y-105532759D01*
X174436541Y-105169541D01*
X174362478Y-104893134D01*
X189954000Y-104893134D01*
X189960755Y-104955316D01*
X190011885Y-105091705D01*
X190099239Y-105208261D01*
X190215795Y-105295615D01*
X190352184Y-105346745D01*
X190414366Y-105353500D01*
X191785634Y-105353500D01*
X191847816Y-105346745D01*
X191984205Y-105295615D01*
X192094219Y-105213164D01*
X192160725Y-105188316D01*
X192230108Y-105203369D01*
X192237019Y-105207428D01*
X192272614Y-105229887D01*
X192272619Y-105229889D01*
X192277498Y-105232968D01*
X192473124Y-105311015D01*
X192478784Y-105312141D01*
X192478788Y-105312142D01*
X192674030Y-105350978D01*
X192674033Y-105350978D01*
X192679697Y-105352105D01*
X192685472Y-105352181D01*
X192685476Y-105352181D01*
X192790969Y-105353562D01*
X192890299Y-105354862D01*
X192895997Y-105353883D01*
X193092180Y-105320173D01*
X193092181Y-105320173D01*
X193097877Y-105319194D01*
X193295480Y-105246294D01*
X193323058Y-105229887D01*
X193471520Y-105141562D01*
X193471523Y-105141560D01*
X193476488Y-105138606D01*
X193567268Y-105058994D01*
X193631673Y-105029117D01*
X193702005Y-105038803D01*
X193735874Y-105061201D01*
X193795430Y-105116254D01*
X193804564Y-105123262D01*
X193972846Y-105229441D01*
X193983089Y-105234660D01*
X194167903Y-105308393D01*
X194178930Y-105311659D01*
X194228230Y-105321465D01*
X194241106Y-105320313D01*
X194245047Y-105308110D01*
X194754000Y-105308110D01*
X194757806Y-105321072D01*
X194772722Y-105323008D01*
X194792050Y-105319687D01*
X194803170Y-105316707D01*
X194989847Y-105247838D01*
X195000225Y-105242888D01*
X195171227Y-105141153D01*
X195180530Y-105134394D01*
X195266518Y-105058984D01*
X195330922Y-105029107D01*
X195401255Y-105038793D01*
X195435125Y-105061191D01*
X195468135Y-105091705D01*
X195499370Y-105120578D01*
X195504255Y-105123660D01*
X195672614Y-105229887D01*
X195672619Y-105229889D01*
X195677498Y-105232968D01*
X195873124Y-105311015D01*
X195878784Y-105312141D01*
X195878788Y-105312142D01*
X196074030Y-105350978D01*
X196074033Y-105350978D01*
X196079697Y-105352105D01*
X196085472Y-105352181D01*
X196085476Y-105352181D01*
X196190969Y-105353562D01*
X196290299Y-105354862D01*
X196295997Y-105353883D01*
X196492180Y-105320173D01*
X196492181Y-105320173D01*
X196497877Y-105319194D01*
X196695480Y-105246294D01*
X196723058Y-105229887D01*
X196871520Y-105141562D01*
X196871523Y-105141560D01*
X196876488Y-105138606D01*
X196967268Y-105058994D01*
X197031673Y-105029117D01*
X197102005Y-105038803D01*
X197135874Y-105061201D01*
X197195430Y-105116254D01*
X197204564Y-105123262D01*
X197372846Y-105229441D01*
X197383089Y-105234660D01*
X197567903Y-105308393D01*
X197578930Y-105311659D01*
X197628230Y-105321465D01*
X197641106Y-105320313D01*
X197645047Y-105308110D01*
X198154000Y-105308110D01*
X198157806Y-105321072D01*
X198172722Y-105323008D01*
X198192050Y-105319687D01*
X198203170Y-105316707D01*
X198389847Y-105247838D01*
X198400225Y-105242888D01*
X198571227Y-105141153D01*
X198580536Y-105134389D01*
X198730137Y-105003193D01*
X198738047Y-104994858D01*
X198861234Y-104838596D01*
X198867505Y-104828939D01*
X198960145Y-104652859D01*
X198964551Y-104642222D01*
X199023554Y-104452204D01*
X199025947Y-104440946D01*
X199045064Y-104279431D01*
X199045500Y-104272028D01*
X199045500Y-104217115D01*
X199041025Y-104201876D01*
X199039635Y-104200671D01*
X199031952Y-104199000D01*
X198172115Y-104199000D01*
X198156876Y-104203475D01*
X198155671Y-104204865D01*
X198154000Y-104212548D01*
X198154000Y-105308110D01*
X197645047Y-105308110D01*
X197646000Y-105305160D01*
X197646000Y-103672885D01*
X198154000Y-103672885D01*
X198158475Y-103688124D01*
X198159865Y-103689329D01*
X198167548Y-103691000D01*
X199027385Y-103691000D01*
X199042624Y-103686525D01*
X199043829Y-103685135D01*
X199045500Y-103677452D01*
X199045500Y-103631996D01*
X199045234Y-103626207D01*
X199031672Y-103478609D01*
X199029575Y-103467294D01*
X198975565Y-103275790D01*
X198971443Y-103265051D01*
X198883438Y-103086595D01*
X198877428Y-103076787D01*
X198758372Y-102917351D01*
X198750683Y-102908811D01*
X198604564Y-102773741D01*
X198595440Y-102766740D01*
X198427154Y-102660559D01*
X198416911Y-102655340D01*
X198232097Y-102581607D01*
X198221070Y-102578341D01*
X198171770Y-102568535D01*
X198158894Y-102569687D01*
X198154000Y-102584840D01*
X198154000Y-103672885D01*
X197646000Y-103672885D01*
X197646000Y-102581890D01*
X197642194Y-102568928D01*
X197627278Y-102566992D01*
X197607950Y-102570313D01*
X197596830Y-102573293D01*
X197410153Y-102642162D01*
X197399775Y-102647112D01*
X197228773Y-102748847D01*
X197219470Y-102755606D01*
X197133482Y-102831016D01*
X197069078Y-102860893D01*
X196998745Y-102851207D01*
X196964875Y-102828809D01*
X196904870Y-102773341D01*
X196904867Y-102773339D01*
X196900630Y-102769422D01*
X196794768Y-102702628D01*
X196727386Y-102660113D01*
X196727381Y-102660111D01*
X196722502Y-102657032D01*
X196526876Y-102578985D01*
X196521216Y-102577859D01*
X196521212Y-102577858D01*
X196325970Y-102539022D01*
X196325967Y-102539022D01*
X196320303Y-102537895D01*
X196314528Y-102537819D01*
X196314524Y-102537819D01*
X196209031Y-102536438D01*
X196109701Y-102535138D01*
X196104004Y-102536117D01*
X196104003Y-102536117D01*
X195907820Y-102569827D01*
X195907819Y-102569827D01*
X195902123Y-102570806D01*
X195704520Y-102643706D01*
X195699559Y-102646658D01*
X195699558Y-102646658D01*
X195528480Y-102748438D01*
X195528477Y-102748440D01*
X195523512Y-102751394D01*
X195478226Y-102791109D01*
X195432732Y-102831006D01*
X195368327Y-102860883D01*
X195297995Y-102851197D01*
X195264126Y-102828799D01*
X195204570Y-102773746D01*
X195195436Y-102766738D01*
X195027154Y-102660559D01*
X195016911Y-102655340D01*
X194832097Y-102581607D01*
X194821070Y-102578341D01*
X194771770Y-102568535D01*
X194758894Y-102569687D01*
X194754000Y-102584840D01*
X194754000Y-105308110D01*
X194245047Y-105308110D01*
X194246000Y-105305160D01*
X194246000Y-102581890D01*
X194242194Y-102568928D01*
X194227278Y-102566992D01*
X194207950Y-102570313D01*
X194196830Y-102573293D01*
X194010153Y-102642162D01*
X193999775Y-102647112D01*
X193828773Y-102748847D01*
X193819470Y-102755606D01*
X193733482Y-102831016D01*
X193669078Y-102860893D01*
X193598745Y-102851207D01*
X193564875Y-102828809D01*
X193504870Y-102773341D01*
X193504867Y-102773339D01*
X193500630Y-102769422D01*
X193394768Y-102702628D01*
X193327386Y-102660113D01*
X193327381Y-102660111D01*
X193322502Y-102657032D01*
X193126876Y-102578985D01*
X193121216Y-102577859D01*
X193121212Y-102577858D01*
X192925970Y-102539022D01*
X192925967Y-102539022D01*
X192920303Y-102537895D01*
X192914528Y-102537819D01*
X192914524Y-102537819D01*
X192809031Y-102536438D01*
X192709701Y-102535138D01*
X192704004Y-102536117D01*
X192704003Y-102536117D01*
X192507820Y-102569827D01*
X192507819Y-102569827D01*
X192502123Y-102570806D01*
X192304520Y-102643706D01*
X192299559Y-102646658D01*
X192299558Y-102646658D01*
X192235131Y-102684988D01*
X192166360Y-102702628D01*
X192095144Y-102677529D01*
X191984205Y-102594385D01*
X191847816Y-102543255D01*
X191785634Y-102536500D01*
X190414366Y-102536500D01*
X190352184Y-102543255D01*
X190215795Y-102594385D01*
X190099239Y-102681739D01*
X190011885Y-102798295D01*
X189960755Y-102934684D01*
X189954000Y-102996866D01*
X189954000Y-104893134D01*
X174362478Y-104893134D01*
X174341361Y-104814326D01*
X174209573Y-104471006D01*
X174158424Y-104370620D01*
X174061531Y-104180457D01*
X180491500Y-104180457D01*
X180498255Y-104242639D01*
X180549385Y-104379028D01*
X180636739Y-104495584D01*
X180753295Y-104582938D01*
X180889684Y-104634068D01*
X180951866Y-104640823D01*
X183048134Y-104640823D01*
X183110316Y-104634068D01*
X183246705Y-104582938D01*
X183363261Y-104495584D01*
X183450615Y-104379028D01*
X183501745Y-104242639D01*
X183508500Y-104180457D01*
X183508500Y-102084189D01*
X183501745Y-102022007D01*
X183450615Y-101885618D01*
X183363261Y-101769062D01*
X183246705Y-101681708D01*
X183110316Y-101630578D01*
X183048134Y-101623823D01*
X180951866Y-101623823D01*
X180889684Y-101630578D01*
X180753295Y-101681708D01*
X180636739Y-101769062D01*
X180549385Y-101885618D01*
X180498255Y-102022007D01*
X180491500Y-102084189D01*
X180491500Y-104180457D01*
X174061531Y-104180457D01*
X174044119Y-104146284D01*
X174044115Y-104146277D01*
X174042620Y-104143343D01*
X173842332Y-103834925D01*
X173610902Y-103549133D01*
X173350867Y-103289098D01*
X173065075Y-103057668D01*
X172875696Y-102934684D01*
X172759427Y-102859178D01*
X172759424Y-102859176D01*
X172756658Y-102857380D01*
X172753724Y-102855885D01*
X172753717Y-102855881D01*
X172431934Y-102691925D01*
X172428994Y-102690427D01*
X172178796Y-102594385D01*
X172088764Y-102559825D01*
X172088762Y-102559824D01*
X172085674Y-102558639D01*
X171730459Y-102463459D01*
X171537442Y-102432888D01*
X171370489Y-102406445D01*
X171370481Y-102406444D01*
X171367241Y-102405931D01*
X171000000Y-102386685D01*
X170632759Y-102405931D01*
X170629519Y-102406444D01*
X170629511Y-102406445D01*
X170462558Y-102432888D01*
X170269541Y-102463459D01*
X169914326Y-102558639D01*
X169911238Y-102559824D01*
X169911236Y-102559825D01*
X169821204Y-102594385D01*
X169571006Y-102690427D01*
X169568066Y-102691925D01*
X169246284Y-102855881D01*
X169246277Y-102855885D01*
X169243343Y-102857380D01*
X168934925Y-103057668D01*
X168649133Y-103289098D01*
X168389098Y-103549133D01*
X168157668Y-103834925D01*
X167957380Y-104143343D01*
X167955885Y-104146277D01*
X167955881Y-104146284D01*
X167841576Y-104370620D01*
X167790427Y-104471006D01*
X167658639Y-104814326D01*
X167563459Y-105169541D01*
X167505931Y-105532759D01*
X167486685Y-105900000D01*
X165508000Y-105900000D01*
X165508000Y-100134000D01*
X165528002Y-100065879D01*
X165581658Y-100019386D01*
X165634000Y-100008000D01*
X205866000Y-100008000D01*
X205934121Y-100028002D01*
G37*
G04 #@! TD.AperFunction*
M02*
