G04 #@! TF.GenerationSoftware,KiCad,Pcbnew,6.0.1-79c1e3a40b~116~ubuntu20.04.1*
G04 #@! TF.CreationDate,2022-03-15T20:21:40+00:00*
G04 #@! TF.ProjectId,batmon,6261746d-6f6e-42e6-9b69-6361645f7063,rev?*
G04 #@! TF.SameCoordinates,Original*
G04 #@! TF.FileFunction,Paste,Top*
G04 #@! TF.FilePolarity,Positive*
%FSLAX46Y46*%
G04 Gerber Fmt 4.6, Leading zero omitted, Abs format (unit mm)*
G04 Created by KiCad (PCBNEW 6.0.1-79c1e3a40b~116~ubuntu20.04.1) date 2022-03-15 20:21:40*
%MOMM*%
%LPD*%
G01*
G04 APERTURE LIST*
G04 Aperture macros list*
%AMRoundRect*
0 Rectangle with rounded corners*
0 $1 Rounding radius*
0 $2 $3 $4 $5 $6 $7 $8 $9 X,Y pos of 4 corners*
0 Add a 4 corners polygon primitive as box body*
4,1,4,$2,$3,$4,$5,$6,$7,$8,$9,$2,$3,0*
0 Add four circle primitives for the rounded corners*
1,1,$1+$1,$2,$3*
1,1,$1+$1,$4,$5*
1,1,$1+$1,$6,$7*
1,1,$1+$1,$8,$9*
0 Add four rect primitives between the rounded corners*
20,1,$1+$1,$2,$3,$4,$5,0*
20,1,$1+$1,$4,$5,$6,$7,0*
20,1,$1+$1,$6,$7,$8,$9,0*
20,1,$1+$1,$8,$9,$2,$3,0*%
G04 Aperture macros list end*
%ADD10RoundRect,0.237500X-0.300000X-0.237500X0.300000X-0.237500X0.300000X0.237500X-0.300000X0.237500X0*%
%ADD11RoundRect,0.237500X0.250000X0.237500X-0.250000X0.237500X-0.250000X-0.237500X0.250000X-0.237500X0*%
%ADD12RoundRect,0.237500X-0.237500X0.250000X-0.237500X-0.250000X0.237500X-0.250000X0.237500X0.250000X0*%
%ADD13RoundRect,0.237500X-0.250000X-0.237500X0.250000X-0.237500X0.250000X0.237500X-0.250000X0.237500X0*%
%ADD14RoundRect,0.150000X0.587500X0.150000X-0.587500X0.150000X-0.587500X-0.150000X0.587500X-0.150000X0*%
%ADD15RoundRect,0.150000X0.150000X-0.587500X0.150000X0.587500X-0.150000X0.587500X-0.150000X-0.587500X0*%
%ADD16RoundRect,0.237500X-0.237500X0.300000X-0.237500X-0.300000X0.237500X-0.300000X0.237500X0.300000X0*%
%ADD17R,0.900000X2.000000*%
%ADD18R,2.000000X0.900000*%
%ADD19R,5.000000X5.000000*%
%ADD20RoundRect,0.237500X0.300000X0.237500X-0.300000X0.237500X-0.300000X-0.237500X0.300000X-0.237500X0*%
%ADD21R,1.800000X1.500000*%
%ADD22RoundRect,0.250000X0.625000X-0.400000X0.625000X0.400000X-0.625000X0.400000X-0.625000X-0.400000X0*%
%ADD23RoundRect,0.237500X0.237500X-0.250000X0.237500X0.250000X-0.237500X0.250000X-0.237500X-0.250000X0*%
%ADD24R,3.000000X2.800000*%
%ADD25R,1.100000X0.250000*%
%ADD26RoundRect,0.237500X0.237500X-0.300000X0.237500X0.300000X-0.237500X0.300000X-0.237500X-0.300000X0*%
%ADD27R,3.000000X3.000000*%
%ADD28R,0.650000X1.220000*%
%ADD29R,2.700000X1.500000*%
%ADD30RoundRect,0.250001X-0.462499X-0.624999X0.462499X-0.624999X0.462499X0.624999X-0.462499X0.624999X0*%
G04 APERTURE END LIST*
D10*
X218837500Y-104500000D03*
X220562500Y-104500000D03*
D11*
X200912500Y-106500000D03*
X199087500Y-106500000D03*
D12*
X202250000Y-102087500D03*
X202250000Y-103912500D03*
D10*
X248387500Y-103750000D03*
X250112500Y-103750000D03*
D13*
X218749500Y-106172000D03*
X220574500Y-106172000D03*
D14*
X222537500Y-121150000D03*
X222537500Y-119250000D03*
X220662500Y-120200000D03*
D15*
X216050000Y-117337500D03*
X217950000Y-117337500D03*
X217000000Y-115462500D03*
D16*
X218600000Y-119337500D03*
X218600000Y-121062500D03*
D17*
X250365000Y-105830000D03*
X249095000Y-105830000D03*
X247825000Y-105830000D03*
X246555000Y-105830000D03*
X245285000Y-105830000D03*
X244015000Y-105830000D03*
X242745000Y-105830000D03*
X241475000Y-105830000D03*
X240205000Y-105830000D03*
X238935000Y-105830000D03*
X237665000Y-105830000D03*
X236395000Y-105830000D03*
X235125000Y-105830000D03*
X233855000Y-105830000D03*
D18*
X232855000Y-108615000D03*
X232855000Y-109885000D03*
X232855000Y-111155000D03*
X232855000Y-112425000D03*
X232855000Y-113695000D03*
X232855000Y-114965000D03*
X232855000Y-116235000D03*
X232855000Y-117505000D03*
X232855000Y-118775000D03*
X232855000Y-120045000D03*
D17*
X233855000Y-122830000D03*
X235125000Y-122830000D03*
X236395000Y-122830000D03*
X237665000Y-122830000D03*
X238935000Y-122830000D03*
X240205000Y-122830000D03*
X241475000Y-122830000D03*
X242745000Y-122830000D03*
X244015000Y-122830000D03*
X245285000Y-122830000D03*
X246555000Y-122830000D03*
X247825000Y-122830000D03*
X249095000Y-122830000D03*
X250365000Y-122830000D03*
D19*
X242865000Y-113330000D03*
D13*
X195087500Y-121600000D03*
X196912500Y-121600000D03*
D20*
X222062500Y-115200000D03*
X220337500Y-115200000D03*
D13*
X189175000Y-121500000D03*
X191000000Y-121500000D03*
D21*
X230420000Y-107188000D03*
X222520000Y-107188000D03*
D22*
X183000000Y-124450000D03*
X183000000Y-121350000D03*
D13*
X218241500Y-123190000D03*
X220066500Y-123190000D03*
D23*
X222456000Y-110894500D03*
X222456000Y-109069500D03*
D22*
X178000000Y-124500000D03*
X178000000Y-121400000D03*
D10*
X185637500Y-129000000D03*
X187362500Y-129000000D03*
D24*
X168200000Y-119500000D03*
X174800000Y-119500000D03*
D25*
X215988000Y-111522000D03*
X215988000Y-112022000D03*
X215988000Y-112522000D03*
X215988000Y-113022000D03*
X215988000Y-113522000D03*
X220288000Y-113522000D03*
X220288000Y-113022000D03*
X220288000Y-112522000D03*
X220288000Y-112022000D03*
X220288000Y-111522000D03*
D26*
X193000000Y-124362500D03*
X193000000Y-122637500D03*
D21*
X230420000Y-112776000D03*
X222520000Y-112776000D03*
D12*
X204000000Y-102087500D03*
X204000000Y-103912500D03*
D13*
X189175000Y-127500000D03*
X191000000Y-127500000D03*
D10*
X193137500Y-127500000D03*
X194862500Y-127500000D03*
D13*
X195587500Y-106500000D03*
X197412500Y-106500000D03*
D12*
X215800000Y-119287500D03*
X215800000Y-121112500D03*
D22*
X185500000Y-124500000D03*
X185500000Y-121400000D03*
D27*
X187000000Y-111500000D03*
X186900000Y-118500000D03*
D20*
X194862500Y-129400000D03*
X193137500Y-129400000D03*
D13*
X218749500Y-107950000D03*
X220574500Y-107950000D03*
D28*
X201050000Y-129810000D03*
X202950000Y-129810000D03*
X202000000Y-127190000D03*
D13*
X201087500Y-124500000D03*
X202912500Y-124500000D03*
D29*
X181000000Y-117400000D03*
X181000000Y-112600000D03*
D11*
X220574500Y-109728000D03*
X218749500Y-109728000D03*
D10*
X221847500Y-123190000D03*
X223572500Y-123190000D03*
X224133500Y-109982000D03*
X225858500Y-109982000D03*
D29*
X198500000Y-125100000D03*
X198500000Y-129900000D03*
D13*
X189175000Y-124500000D03*
X191000000Y-124500000D03*
D22*
X180500000Y-124450000D03*
X180500000Y-121350000D03*
D10*
X214735500Y-123190000D03*
X216460500Y-123190000D03*
D13*
X228655500Y-117348000D03*
X230480500Y-117348000D03*
D30*
X227318500Y-119380000D03*
X230293500Y-119380000D03*
M02*
