M48
; DRILL file {KiCad 6.0.1-79c1e3a40b~116~ubuntu20.04.1} date Mon 24 Jan 2022 19:15:46 GMT
; FORMAT={-:-/ absolute / inch / decimal}
; #@! TF.CreationDate,2022-01-24T19:15:46+00:00
; #@! TF.GenerationSoftware,Kicad,Pcbnew,6.0.1-79c1e3a40b~116~ubuntu20.04.1
; #@! TF.FileFunction,Plated,1,2,PTH
FMAT,2
INCH
; #@! TA.AperFunction,Plated,PTH,ViaDrill
T1C0.0157
; #@! TA.AperFunction,Plated,PTH,ComponentDrill
T2C0.0315
; #@! TA.AperFunction,Plated,PTH,ComponentDrill
T3C0.0374
; #@! TA.AperFunction,Plated,PTH,ComponentDrill
T4C0.0394
; #@! TA.AperFunction,Plated,PTH,ComponentDrill
T5C0.0433
; #@! TA.AperFunction,Plated,PTH,ComponentDrill
T6C0.1260
%
G90
G05
T1
X6.8504Y-4.4882
X6.8504Y-4.5276
X6.8504Y-4.5669
X6.8504Y-4.6063
X6.8504Y-4.6457
X6.8504Y-4.685
X6.8504Y-4.7244
X6.8898Y-4.4685
X6.9291Y-4.4685
X6.9685Y-4.4685
X7.0079Y-4.4685
X7.0276Y-4.5079
X7.0571Y-4.6654
X7.388Y-4.7675
X7.5787Y-4.9803
X7.6476Y-5.0492
X7.6969Y-4.6555
X7.8937Y-4.9902
X7.9134Y-4.5768
X7.9635Y-5.068
X7.9734Y-4.813
X8.0118Y-4.8425
X8.0315Y-4.9311
X8.4843Y-4.3602
X8.5236Y-4.8228
X8.5531Y-4.252
X8.5531Y-4.3209
X8.6122Y-4.4488
X8.622Y-4.5955
X8.655Y-4.252
X8.6711Y-4.3622
X8.7598Y-4.6186
X8.8287Y-4.2224
X8.8681Y-4.252
X8.9272Y-4.2126
X8.9272Y-4.439
X8.9567Y-4.252
X8.9567Y-4.872
X9.0157Y-4.5768
X9.0748Y-4.1279
X9.2126Y-4.9409
X9.252Y-4.5768
X9.2717Y-4.439
X9.311Y-4.252
X9.3491Y-4.5558
X9.6457Y-4.3012
X9.7047Y-4.2421
X9.7835Y-4.3504
X9.8425Y-4.2717
X9.8524Y-4.7539
T2
X6.9291Y-4.0748
X6.9291Y-4.1535
T3
X8.4843Y-4.9961
X8.5827Y-4.9961
X8.6811Y-4.9961
X8.9862Y-5.003
X9.0846Y-5.003
X9.1831Y-5.003
X9.2815Y-5.003
X9.5813Y-5.0039
X9.6797Y-5.0039
X9.7781Y-5.0039
T4
X7.7264Y-4.0893
X7.7264Y-4.2861
X8.0315Y-4.24
X8.0315Y-4.34
X8.0315Y-4.44
X8.0315Y-4.54
X8.0315Y-4.64
X8.0315Y-4.74
X8.3881Y-4.24
X8.3881Y-4.34
X8.3881Y-4.44
X8.3881Y-4.54
X8.3881Y-4.64
X8.3881Y-4.74
T5
X7.1201Y-4.1219
X7.1555Y-5.0886
X7.187Y-4.1219
X7.2539Y-4.1219
X7.2555Y-5.0886
X7.3209Y-4.1219
X7.3555Y-5.0886
X7.3878Y-4.1219
T6
X6.6732Y-4.1339
X6.6732Y-4.4291
X6.6732Y-4.7244
X6.6732Y-5.0197
T0
M30
