G04 #@! TF.GenerationSoftware,KiCad,Pcbnew,6.0.1-79c1e3a40b~116~ubuntu20.04.1*
G04 #@! TF.CreationDate,2022-01-24T19:15:43+00:00*
G04 #@! TF.ProjectId,batmon,6261746d-6f6e-42e6-9b69-6361645f7063,rev?*
G04 #@! TF.SameCoordinates,Original*
G04 #@! TF.FileFunction,Copper,L2,Bot*
G04 #@! TF.FilePolarity,Positive*
%FSLAX46Y46*%
G04 Gerber Fmt 4.6, Leading zero omitted, Abs format (unit mm)*
G04 Created by KiCad (PCBNEW 6.0.1-79c1e3a40b~116~ubuntu20.04.1) date 2022-01-24 19:15:43*
%MOMM*%
%LPD*%
G01*
G04 APERTURE LIST*
G04 Aperture macros list*
%AMRoundRect*
0 Rectangle with rounded corners*
0 $1 Rounding radius*
0 $2 $3 $4 $5 $6 $7 $8 $9 X,Y pos of 4 corners*
0 Add a 4 corners polygon primitive as box body*
4,1,4,$2,$3,$4,$5,$6,$7,$8,$9,$2,$3,0*
0 Add four circle primitives for the rounded corners*
1,1,$1+$1,$2,$3*
1,1,$1+$1,$4,$5*
1,1,$1+$1,$6,$7*
1,1,$1+$1,$8,$9*
0 Add four rect primitives between the rounded corners*
20,1,$1+$1,$2,$3,$4,$5,0*
20,1,$1+$1,$4,$5,$6,$7,0*
20,1,$1+$1,$6,$7,$8,$9,0*
20,1,$1+$1,$8,$9,$2,$3,0*%
G04 Aperture macros list end*
G04 #@! TA.AperFunction,ComponentPad*
%ADD10RoundRect,0.250000X-0.600000X-0.725000X0.600000X-0.725000X0.600000X0.725000X-0.600000X0.725000X0*%
G04 #@! TD*
G04 #@! TA.AperFunction,ComponentPad*
%ADD11O,1.700000X1.950000*%
G04 #@! TD*
G04 #@! TA.AperFunction,ComponentPad*
%ADD12R,1.700000X1.700000*%
G04 #@! TD*
G04 #@! TA.AperFunction,ComponentPad*
%ADD13O,1.700000X1.700000*%
G04 #@! TD*
G04 #@! TA.AperFunction,ComponentPad*
%ADD14R,1.275000X1.800000*%
G04 #@! TD*
G04 #@! TA.AperFunction,ComponentPad*
%ADD15O,1.275000X1.800000*%
G04 #@! TD*
G04 #@! TA.AperFunction,ComponentPad*
%ADD16R,2.000000X2.000000*%
G04 #@! TD*
G04 #@! TA.AperFunction,ComponentPad*
%ADD17C,2.000000*%
G04 #@! TD*
G04 #@! TA.AperFunction,ComponentPad*
%ADD18C,6.400000*%
G04 #@! TD*
G04 #@! TA.AperFunction,ComponentPad*
%ADD19R,1.600000X1.600000*%
G04 #@! TD*
G04 #@! TA.AperFunction,ComponentPad*
%ADD20C,1.600000*%
G04 #@! TD*
G04 #@! TA.AperFunction,ComponentPad*
%ADD21R,1.905000X2.000000*%
G04 #@! TD*
G04 #@! TA.AperFunction,ComponentPad*
%ADD22O,1.905000X2.000000*%
G04 #@! TD*
G04 #@! TA.AperFunction,SMDPad,CuDef*
%ADD23RoundRect,0.250000X-0.650000X0.412500X-0.650000X-0.412500X0.650000X-0.412500X0.650000X0.412500X0*%
G04 #@! TD*
G04 #@! TA.AperFunction,SMDPad,CuDef*
%ADD24R,2.000000X1.500000*%
G04 #@! TD*
G04 #@! TA.AperFunction,SMDPad,CuDef*
%ADD25R,2.000000X3.800000*%
G04 #@! TD*
G04 #@! TA.AperFunction,SMDPad,CuDef*
%ADD26RoundRect,0.250000X-0.925000X0.875000X-0.925000X-0.875000X0.925000X-0.875000X0.925000X0.875000X0*%
G04 #@! TD*
G04 #@! TA.AperFunction,ViaPad*
%ADD27C,0.800000*%
G04 #@! TD*
G04 #@! TA.AperFunction,Conductor*
%ADD28C,1.000000*%
G04 #@! TD*
G04 #@! TA.AperFunction,Conductor*
%ADD29C,2.000000*%
G04 #@! TD*
G04 #@! TA.AperFunction,Conductor*
%ADD30C,0.500000*%
G04 #@! TD*
G04 #@! TA.AperFunction,Conductor*
%ADD31C,0.250000*%
G04 #@! TD*
G04 APERTURE END LIST*
D10*
X215500000Y-126900000D03*
D11*
X218000000Y-126900000D03*
X220500000Y-126900000D03*
D12*
X213058000Y-107696000D03*
D13*
X213058000Y-110236000D03*
X213058000Y-112776000D03*
X213058000Y-115316000D03*
X213058000Y-117856000D03*
X213058000Y-120396000D03*
D14*
X180850000Y-104695000D03*
D15*
X182550000Y-104695000D03*
X184250000Y-104695000D03*
X185950000Y-104695000D03*
X187650000Y-104695000D03*
D16*
X196250000Y-108867677D03*
D17*
X196250000Y-103867677D03*
D18*
X169500000Y-105000000D03*
D12*
X204000000Y-107696000D03*
D13*
X204000000Y-110236000D03*
X204000000Y-112776000D03*
X204000000Y-115316000D03*
X204000000Y-117856000D03*
X204000000Y-120396000D03*
D18*
X169500000Y-127500000D03*
D19*
X176000000Y-103500000D03*
D20*
X176000000Y-105500000D03*
D10*
X228250000Y-127075000D03*
D11*
X230750000Y-127075000D03*
X233250000Y-127075000D03*
X235750000Y-127075000D03*
D21*
X181750000Y-129250000D03*
D22*
X184290000Y-129250000D03*
X186830000Y-129250000D03*
D18*
X169500000Y-120000000D03*
D10*
X243364000Y-127100000D03*
D11*
X245864000Y-127100000D03*
X248364000Y-127100000D03*
D18*
X169500000Y-112500000D03*
D23*
X216000000Y-119437500D03*
X216000000Y-122562500D03*
D24*
X223450000Y-123300000D03*
D25*
X229750000Y-121000000D03*
D24*
X223450000Y-121000000D03*
X223450000Y-118700000D03*
D26*
X219250000Y-118450000D03*
X219250000Y-123550000D03*
D23*
X233250000Y-119937500D03*
X233250000Y-123062500D03*
D27*
X230500000Y-104849500D03*
X245000000Y-109250000D03*
X174000000Y-117000000D03*
X175000000Y-113500000D03*
X174000000Y-119000000D03*
X174000000Y-114000000D03*
X174000000Y-116000000D03*
X179250000Y-118500000D03*
X178500000Y-114500000D03*
X216500000Y-122500000D03*
X177000000Y-113500000D03*
X250000000Y-108500000D03*
X176000000Y-113500000D03*
X174000000Y-120000000D03*
X194250000Y-128250000D03*
X178000000Y-113500000D03*
X215500000Y-110750000D03*
X192500000Y-126500000D03*
X174000000Y-115000000D03*
X174000000Y-118000000D03*
X227500000Y-123750000D03*
X250250000Y-120750000D03*
X195500000Y-118250000D03*
X187655000Y-121095000D03*
X218750000Y-113000000D03*
X200500000Y-126750000D03*
X201000000Y-116250000D03*
X224250000Y-107250000D03*
X246500000Y-107750000D03*
X217250000Y-109750000D03*
X248500000Y-110500000D03*
X219000000Y-116725500D03*
X222500000Y-117313502D03*
X202273912Y-128726088D03*
X204000000Y-125250000D03*
X202524980Y-122250000D03*
X203500000Y-123000000D03*
X226750000Y-112750000D03*
X234000000Y-125500000D03*
X226750000Y-107000000D03*
X235500000Y-112750000D03*
X235000000Y-116250000D03*
X229000000Y-116250000D03*
X237466286Y-115716286D03*
X220245370Y-110798752D03*
X217250000Y-108000000D03*
X225250000Y-108000000D03*
X227500000Y-108000000D03*
X236500000Y-108000000D03*
X219836500Y-108000000D03*
D28*
X248364000Y-127100000D02*
X244326500Y-123062500D01*
X223450000Y-123300000D02*
X223900000Y-123750000D01*
X235750000Y-127075000D02*
X235750000Y-125562500D01*
X235750000Y-125562500D02*
X233250000Y-123062500D01*
X244326500Y-123062500D02*
X233250000Y-123062500D01*
X247496500Y-119892500D02*
X249392500Y-119892500D01*
X219250000Y-123550000D02*
X223200000Y-123550000D01*
X247496500Y-119892500D02*
X244326500Y-123062500D01*
X216000000Y-122562500D02*
X218262500Y-122562500D01*
X250250000Y-120750000D02*
X250250000Y-108750000D01*
X220500000Y-124800000D02*
X219250000Y-123550000D01*
D29*
X186830000Y-129250000D02*
X186830000Y-126080000D01*
D30*
X194250000Y-128250000D02*
X192500000Y-126500000D01*
D28*
X230750000Y-123750000D02*
X232562500Y-123750000D01*
X249250000Y-109250000D02*
X246000000Y-109250000D01*
X213058000Y-120396000D02*
X213833500Y-120396000D01*
X232562500Y-123750000D02*
X233250000Y-123062500D01*
X250000000Y-108500000D02*
X249250000Y-109250000D01*
X220500000Y-126900000D02*
X220500000Y-124800000D01*
X246000000Y-109250000D02*
X245000000Y-109250000D01*
X218262500Y-122562500D02*
X219250000Y-123550000D01*
D29*
X186830000Y-126080000D02*
X179250000Y-118500000D01*
D28*
X223200000Y-123550000D02*
X223450000Y-123300000D01*
X213833500Y-120396000D02*
X216000000Y-122562500D01*
X223900000Y-123750000D02*
X230750000Y-123750000D01*
X249392500Y-119892500D02*
X250250000Y-120750000D01*
X250250000Y-108750000D02*
X250000000Y-108500000D01*
X230750000Y-127075000D02*
X230750000Y-123750000D01*
X213058000Y-117856000D02*
X214418500Y-117856000D01*
D30*
X217886536Y-113027464D02*
X213058000Y-117856000D01*
X192655000Y-121095000D02*
X187655000Y-121095000D01*
X195500000Y-118250000D02*
X192655000Y-121095000D01*
X218722536Y-113027464D02*
X218750000Y-113000000D01*
D28*
X219250000Y-118450000D02*
X223200000Y-118450000D01*
X223200000Y-118450000D02*
X223450000Y-118700000D01*
X216000000Y-119437500D02*
X218262500Y-119437500D01*
X214418500Y-117856000D02*
X216000000Y-119437500D01*
D30*
X217886536Y-113027464D02*
X218722536Y-113027464D01*
D28*
X218262500Y-119437500D02*
X219250000Y-118450000D01*
D31*
X200500000Y-116750000D02*
X201000000Y-116250000D01*
X200500000Y-126750000D02*
X200500000Y-116750000D01*
X246500000Y-107750000D02*
X244750000Y-106000000D01*
X224750000Y-106000000D02*
X224250000Y-106500000D01*
X244750000Y-106000000D02*
X224750000Y-106000000D01*
X224250000Y-106500000D02*
X224250000Y-107250000D01*
D28*
X244812500Y-119937500D02*
X248500000Y-116250000D01*
X225149511Y-117649511D02*
X217250000Y-109750000D01*
X248500000Y-116250000D02*
X248500000Y-110500000D01*
X225000000Y-121000000D02*
X229750000Y-121000000D01*
X225000000Y-121000000D02*
X225149511Y-120850489D01*
X229750000Y-121000000D02*
X232187500Y-121000000D01*
X233250000Y-119937500D02*
X244812500Y-119937500D01*
X232187500Y-121000000D02*
X233250000Y-119937500D01*
X225149511Y-120850489D02*
X225149511Y-117649511D01*
X223450000Y-121000000D02*
X225000000Y-121000000D01*
D31*
X219250000Y-117000000D02*
X219000000Y-116750000D01*
X222500000Y-117313502D02*
X222186498Y-117000000D01*
X222186498Y-117000000D02*
X219250000Y-117000000D01*
X219000000Y-116750000D02*
X219000000Y-116725500D01*
X204000000Y-107696000D02*
X201800480Y-109895520D01*
X201800480Y-128252656D02*
X202273912Y-128726088D01*
X201800480Y-109895520D02*
X201800480Y-128252656D01*
X202273912Y-128726088D02*
X204000000Y-127000000D01*
X204000000Y-127000000D02*
X204000000Y-125250000D01*
X202250000Y-111986000D02*
X202250000Y-122000000D01*
X202500000Y-122250000D02*
X202524980Y-122250000D01*
X204000000Y-110236000D02*
X202250000Y-111986000D01*
X202250000Y-122000000D02*
X202500000Y-122250000D01*
X203500000Y-122200406D02*
X203500000Y-123000000D01*
X202825489Y-121525895D02*
X203500000Y-122200406D01*
X204000000Y-112776000D02*
X202825489Y-113950511D01*
X202825489Y-113950511D02*
X202825489Y-121525895D01*
X226750000Y-107000000D02*
X226750000Y-112750000D01*
X229925000Y-128750000D02*
X228250000Y-127075000D01*
X234000000Y-125500000D02*
X234424520Y-125924520D01*
X234424520Y-128325480D02*
X234000000Y-128750000D01*
X234000000Y-128750000D02*
X229925000Y-128750000D01*
X226750000Y-112750000D02*
X235500000Y-112750000D01*
X234424520Y-125924520D02*
X234424520Y-128325480D01*
X229000000Y-116250000D02*
X235000000Y-116250000D01*
X236000000Y-114250000D02*
X237466286Y-115716286D01*
X222798752Y-110798752D02*
X226250000Y-114250000D01*
X226250000Y-114250000D02*
X236000000Y-114250000D01*
X220245370Y-110798752D02*
X222798752Y-110798752D01*
X228000000Y-108000000D02*
X227500000Y-108000000D01*
X217250000Y-108000000D02*
X219836500Y-108000000D01*
X225250000Y-108000000D02*
X219836500Y-108000000D01*
X236500000Y-108000000D02*
X228000000Y-108000000D01*
G04 #@! TA.AperFunction,Conductor*
G36*
X251434121Y-100028002D02*
G01*
X251480614Y-100081658D01*
X251492000Y-100134000D01*
X251492000Y-131866000D01*
X251471998Y-131934121D01*
X251418342Y-131980614D01*
X251366000Y-131992000D01*
X211134000Y-131992000D01*
X211065879Y-131971998D01*
X211019386Y-131918342D01*
X211008000Y-131866000D01*
X211008000Y-127675400D01*
X214141500Y-127675400D01*
X214141837Y-127678646D01*
X214141837Y-127678650D01*
X214149991Y-127757232D01*
X214152474Y-127781166D01*
X214154655Y-127787702D01*
X214154655Y-127787704D01*
X214186405Y-127882870D01*
X214208450Y-127948946D01*
X214301522Y-128099348D01*
X214426697Y-128224305D01*
X214432927Y-128228145D01*
X214432928Y-128228146D01*
X214570090Y-128312694D01*
X214577262Y-128317115D01*
X214618844Y-128330907D01*
X214738611Y-128370632D01*
X214738613Y-128370632D01*
X214745139Y-128372797D01*
X214751975Y-128373497D01*
X214751978Y-128373498D01*
X214787663Y-128377154D01*
X214849600Y-128383500D01*
X216150400Y-128383500D01*
X216153646Y-128383163D01*
X216153650Y-128383163D01*
X216249308Y-128373238D01*
X216249312Y-128373237D01*
X216256166Y-128372526D01*
X216262702Y-128370345D01*
X216262704Y-128370345D01*
X216405452Y-128322720D01*
X216423946Y-128316550D01*
X216574348Y-128223478D01*
X216699305Y-128098303D01*
X216789081Y-127952660D01*
X216841852Y-127905168D01*
X216911924Y-127893744D01*
X216977048Y-127922018D01*
X216987510Y-127931805D01*
X217028056Y-127974308D01*
X217096576Y-128046135D01*
X217281542Y-128183754D01*
X217286293Y-128186170D01*
X217286297Y-128186172D01*
X217349481Y-128218296D01*
X217487051Y-128288240D01*
X217492145Y-128289822D01*
X217492148Y-128289823D01*
X217657583Y-128341192D01*
X217707227Y-128356607D01*
X217712516Y-128357308D01*
X217930489Y-128386198D01*
X217930494Y-128386198D01*
X217935774Y-128386898D01*
X217941103Y-128386698D01*
X217941105Y-128386698D01*
X218050966Y-128382573D01*
X218166158Y-128378249D01*
X218188802Y-128373498D01*
X218386572Y-128332002D01*
X218391791Y-128330907D01*
X218396750Y-128328949D01*
X218396752Y-128328948D01*
X218601256Y-128248185D01*
X218601258Y-128248184D01*
X218606221Y-128246224D01*
X218611525Y-128243006D01*
X218768521Y-128147738D01*
X218803317Y-128126623D01*
X218863294Y-128074578D01*
X218973412Y-127979023D01*
X218973414Y-127979021D01*
X218977445Y-127975523D01*
X219021316Y-127922018D01*
X219120240Y-127801373D01*
X219120244Y-127801367D01*
X219123624Y-127797245D01*
X219133520Y-127779861D01*
X219141829Y-127765265D01*
X219192912Y-127715959D01*
X219262542Y-127702098D01*
X219328613Y-127728082D01*
X219355851Y-127757232D01*
X219434852Y-127874578D01*
X219441519Y-127882870D01*
X219593228Y-128041900D01*
X219601186Y-128048941D01*
X219777525Y-128180141D01*
X219786562Y-128185745D01*
X219982484Y-128285357D01*
X219992335Y-128289357D01*
X220202240Y-128354534D01*
X220212624Y-128356817D01*
X220228043Y-128358861D01*
X220242207Y-128356665D01*
X220246000Y-128343478D01*
X220246000Y-128341192D01*
X220754000Y-128341192D01*
X220757973Y-128354723D01*
X220768580Y-128356248D01*
X220886421Y-128331523D01*
X220896617Y-128328463D01*
X221101029Y-128247737D01*
X221110561Y-128243006D01*
X221298462Y-128128984D01*
X221307052Y-128122720D01*
X221473052Y-127978673D01*
X221480472Y-127971042D01*
X221579393Y-127850400D01*
X226891500Y-127850400D01*
X226891837Y-127853646D01*
X226891837Y-127853650D01*
X226901725Y-127948946D01*
X226902474Y-127956166D01*
X226904655Y-127962702D01*
X226904655Y-127962704D01*
X226941979Y-128074578D01*
X226958450Y-128123946D01*
X227051522Y-128274348D01*
X227176697Y-128399305D01*
X227182927Y-128403145D01*
X227182928Y-128403146D01*
X227320976Y-128488240D01*
X227327262Y-128492115D01*
X227361964Y-128503625D01*
X227488611Y-128545632D01*
X227488613Y-128545632D01*
X227495139Y-128547797D01*
X227501975Y-128548497D01*
X227501978Y-128548498D01*
X227544593Y-128552864D01*
X227599600Y-128558500D01*
X228785406Y-128558500D01*
X228853527Y-128578502D01*
X228874501Y-128595405D01*
X229421343Y-129142247D01*
X229428887Y-129150537D01*
X229433000Y-129157018D01*
X229438777Y-129162443D01*
X229482667Y-129203658D01*
X229485509Y-129206413D01*
X229505231Y-129226135D01*
X229508373Y-129228572D01*
X229508433Y-129228619D01*
X229517445Y-129236317D01*
X229530880Y-129248933D01*
X229549679Y-129266586D01*
X229556622Y-129270403D01*
X229567431Y-129276345D01*
X229583953Y-129287198D01*
X229599959Y-129299614D01*
X229607237Y-129302764D01*
X229607238Y-129302764D01*
X229640537Y-129317174D01*
X229651187Y-129322391D01*
X229689940Y-129343695D01*
X229697615Y-129345666D01*
X229697616Y-129345666D01*
X229709562Y-129348733D01*
X229728267Y-129355137D01*
X229746855Y-129363181D01*
X229754678Y-129364420D01*
X229754688Y-129364423D01*
X229790524Y-129370099D01*
X229802144Y-129372505D01*
X229833959Y-129380673D01*
X229844970Y-129383500D01*
X229865224Y-129383500D01*
X229884934Y-129385051D01*
X229904943Y-129388220D01*
X229912835Y-129387474D01*
X229931580Y-129385702D01*
X229948962Y-129384059D01*
X229960819Y-129383500D01*
X233921233Y-129383500D01*
X233932416Y-129384027D01*
X233939909Y-129385702D01*
X233947835Y-129385453D01*
X233947836Y-129385453D01*
X234007986Y-129383562D01*
X234011945Y-129383500D01*
X234039856Y-129383500D01*
X234043791Y-129383003D01*
X234043856Y-129382995D01*
X234055693Y-129382062D01*
X234087951Y-129381048D01*
X234091970Y-129380922D01*
X234099889Y-129380673D01*
X234119343Y-129375021D01*
X234138700Y-129371013D01*
X234150930Y-129369468D01*
X234150931Y-129369468D01*
X234158797Y-129368474D01*
X234166168Y-129365555D01*
X234166170Y-129365555D01*
X234199912Y-129352196D01*
X234211142Y-129348351D01*
X234245983Y-129338229D01*
X234245984Y-129338229D01*
X234253593Y-129336018D01*
X234260412Y-129331985D01*
X234260417Y-129331983D01*
X234271028Y-129325707D01*
X234288776Y-129317012D01*
X234307617Y-129309552D01*
X234343387Y-129283564D01*
X234353307Y-129277048D01*
X234380170Y-129261161D01*
X234391362Y-129254542D01*
X234396969Y-129248936D01*
X234405685Y-129240220D01*
X234420719Y-129227379D01*
X234430695Y-129220131D01*
X234430696Y-129220130D01*
X234437107Y-129215472D01*
X234465288Y-129181407D01*
X234473278Y-129172626D01*
X234816779Y-128829126D01*
X234825057Y-128821593D01*
X234831538Y-128817480D01*
X234878150Y-128767842D01*
X234880905Y-128764999D01*
X234897854Y-128748051D01*
X234900655Y-128745250D01*
X234903135Y-128742053D01*
X234910840Y-128733031D01*
X234935679Y-128706580D01*
X234941106Y-128700801D01*
X234944925Y-128693855D01*
X234944927Y-128693852D01*
X234950868Y-128683046D01*
X234961719Y-128666527D01*
X234969278Y-128656781D01*
X234974134Y-128650521D01*
X234977279Y-128643252D01*
X234977282Y-128643248D01*
X234991694Y-128609943D01*
X234996911Y-128599293D01*
X235018215Y-128560540D01*
X235023253Y-128540917D01*
X235029656Y-128522216D01*
X235031105Y-128518868D01*
X235034933Y-128510022D01*
X235080341Y-128455448D01*
X235148048Y-128434086D01*
X235207673Y-128447743D01*
X235232483Y-128460357D01*
X235242335Y-128464357D01*
X235452240Y-128529534D01*
X235462624Y-128531817D01*
X235478043Y-128533861D01*
X235492207Y-128531665D01*
X235496000Y-128518478D01*
X235496000Y-128516192D01*
X236004000Y-128516192D01*
X236007973Y-128529723D01*
X236018580Y-128531248D01*
X236136421Y-128506523D01*
X236146617Y-128503463D01*
X236351029Y-128422737D01*
X236360561Y-128418006D01*
X236548462Y-128303984D01*
X236557052Y-128297720D01*
X236723052Y-128153673D01*
X236730472Y-128146042D01*
X236869826Y-127976089D01*
X236875850Y-127967322D01*
X236928175Y-127875400D01*
X242005500Y-127875400D01*
X242005837Y-127878646D01*
X242005837Y-127878650D01*
X242015460Y-127971392D01*
X242016474Y-127981166D01*
X242018655Y-127987702D01*
X242018655Y-127987704D01*
X242050405Y-128082870D01*
X242072450Y-128148946D01*
X242165522Y-128299348D01*
X242290697Y-128424305D01*
X242296927Y-128428145D01*
X242296928Y-128428146D01*
X242434090Y-128512694D01*
X242441262Y-128517115D01*
X242486145Y-128532002D01*
X242602611Y-128570632D01*
X242602613Y-128570632D01*
X242609139Y-128572797D01*
X242615975Y-128573497D01*
X242615978Y-128573498D01*
X242651663Y-128577154D01*
X242713600Y-128583500D01*
X244014400Y-128583500D01*
X244017646Y-128583163D01*
X244017650Y-128583163D01*
X244113308Y-128573238D01*
X244113312Y-128573237D01*
X244120166Y-128572526D01*
X244126702Y-128570345D01*
X244126704Y-128570345D01*
X244270963Y-128522216D01*
X244287946Y-128516550D01*
X244438348Y-128423478D01*
X244563305Y-128298303D01*
X244568820Y-128289357D01*
X244598072Y-128241900D01*
X244653081Y-128152660D01*
X244705852Y-128105168D01*
X244775924Y-128093744D01*
X244841048Y-128122018D01*
X244851510Y-128131805D01*
X244893215Y-128175523D01*
X244960576Y-128246135D01*
X244964854Y-128249318D01*
X245005448Y-128279521D01*
X245145542Y-128383754D01*
X245150293Y-128386170D01*
X245150297Y-128386172D01*
X245213481Y-128418296D01*
X245351051Y-128488240D01*
X245356145Y-128489822D01*
X245356148Y-128489823D01*
X245521583Y-128541192D01*
X245571227Y-128556607D01*
X245576516Y-128557308D01*
X245794489Y-128586198D01*
X245794494Y-128586198D01*
X245799774Y-128586898D01*
X245805103Y-128586698D01*
X245805105Y-128586698D01*
X245914966Y-128582573D01*
X246030158Y-128578249D01*
X246052802Y-128573498D01*
X246250572Y-128532002D01*
X246255791Y-128530907D01*
X246260750Y-128528949D01*
X246260752Y-128528948D01*
X246465256Y-128448185D01*
X246465258Y-128448184D01*
X246470221Y-128446224D01*
X246475525Y-128443006D01*
X246662757Y-128329390D01*
X246662756Y-128329390D01*
X246667317Y-128326623D01*
X246707134Y-128292072D01*
X246837412Y-128179023D01*
X246837414Y-128179021D01*
X246841445Y-128175523D01*
X246908500Y-128093744D01*
X246984240Y-128001373D01*
X246984244Y-128001367D01*
X246987624Y-127997245D01*
X247000681Y-127974308D01*
X247005829Y-127965265D01*
X247056912Y-127915959D01*
X247126542Y-127902098D01*
X247192613Y-127928082D01*
X247219851Y-127957232D01*
X247298852Y-128074578D01*
X247305519Y-128082870D01*
X247457228Y-128241900D01*
X247465186Y-128248941D01*
X247641525Y-128380141D01*
X247650562Y-128385745D01*
X247846484Y-128485357D01*
X247856335Y-128489357D01*
X248066240Y-128554534D01*
X248076624Y-128556817D01*
X248092043Y-128558861D01*
X248106207Y-128556665D01*
X248110000Y-128543478D01*
X248110000Y-128541192D01*
X248618000Y-128541192D01*
X248621973Y-128554723D01*
X248632580Y-128556248D01*
X248750421Y-128531523D01*
X248760617Y-128528463D01*
X248965029Y-128447737D01*
X248974561Y-128443006D01*
X249162462Y-128328984D01*
X249171052Y-128322720D01*
X249337052Y-128178673D01*
X249344472Y-128171042D01*
X249483826Y-128001089D01*
X249489850Y-127992322D01*
X249598576Y-127801318D01*
X249603041Y-127791654D01*
X249678031Y-127585059D01*
X249680802Y-127574792D01*
X249717504Y-127371826D01*
X249716085Y-127358586D01*
X249701450Y-127354000D01*
X248636115Y-127354000D01*
X248620876Y-127358475D01*
X248619671Y-127359865D01*
X248618000Y-127367548D01*
X248618000Y-128541192D01*
X248110000Y-128541192D01*
X248110000Y-126827885D01*
X248618000Y-126827885D01*
X248622475Y-126843124D01*
X248623865Y-126844329D01*
X248631548Y-126846000D01*
X249697849Y-126846000D01*
X249712527Y-126841690D01*
X249714590Y-126829807D01*
X249707876Y-126750675D01*
X249706086Y-126740203D01*
X249650870Y-126527465D01*
X249647335Y-126517425D01*
X249557063Y-126317030D01*
X249551894Y-126307744D01*
X249429150Y-126125425D01*
X249422481Y-126117130D01*
X249270772Y-125958100D01*
X249262814Y-125951059D01*
X249086475Y-125819859D01*
X249077438Y-125814255D01*
X248881516Y-125714643D01*
X248871665Y-125710643D01*
X248661760Y-125645466D01*
X248651376Y-125643183D01*
X248635957Y-125641139D01*
X248621793Y-125643335D01*
X248618000Y-125656522D01*
X248618000Y-126827885D01*
X248110000Y-126827885D01*
X248110000Y-125658808D01*
X248106027Y-125645277D01*
X248095420Y-125643752D01*
X247977579Y-125668477D01*
X247967383Y-125671537D01*
X247762971Y-125752263D01*
X247753439Y-125756994D01*
X247565538Y-125871016D01*
X247556948Y-125877280D01*
X247390948Y-126021327D01*
X247383528Y-126028958D01*
X247244174Y-126198911D01*
X247238152Y-126207674D01*
X247222762Y-126234711D01*
X247171680Y-126284018D01*
X247102049Y-126297880D01*
X247035978Y-126271897D01*
X247008739Y-126242747D01*
X246931363Y-126127817D01*
X246926559Y-126120681D01*
X246885363Y-126077496D01*
X246839059Y-126028958D01*
X246767424Y-125953865D01*
X246582458Y-125816246D01*
X246577707Y-125813830D01*
X246577703Y-125813828D01*
X246463699Y-125755866D01*
X246376949Y-125711760D01*
X246371855Y-125710178D01*
X246371852Y-125710177D01*
X246161871Y-125644976D01*
X246156773Y-125643393D01*
X246151484Y-125642692D01*
X245933511Y-125613802D01*
X245933506Y-125613802D01*
X245928226Y-125613102D01*
X245922897Y-125613302D01*
X245922895Y-125613302D01*
X245813034Y-125617426D01*
X245697842Y-125621751D01*
X245692623Y-125622846D01*
X245670566Y-125627474D01*
X245472209Y-125669093D01*
X245467250Y-125671051D01*
X245467248Y-125671052D01*
X245262744Y-125751815D01*
X245262742Y-125751816D01*
X245257779Y-125753776D01*
X245253220Y-125756543D01*
X245253217Y-125756544D01*
X245141014Y-125824631D01*
X245060683Y-125873377D01*
X245056653Y-125876874D01*
X244905919Y-126007674D01*
X244886555Y-126024477D01*
X244857330Y-126060120D01*
X244798671Y-126100114D01*
X244727701Y-126102046D01*
X244666952Y-126065302D01*
X244652752Y-126046532D01*
X244566332Y-125906880D01*
X244562478Y-125900652D01*
X244437303Y-125775695D01*
X244431072Y-125771854D01*
X244292968Y-125686725D01*
X244292966Y-125686724D01*
X244286738Y-125682885D01*
X244177152Y-125646537D01*
X244125389Y-125629368D01*
X244125387Y-125629368D01*
X244118861Y-125627203D01*
X244112025Y-125626503D01*
X244112022Y-125626502D01*
X244068969Y-125622091D01*
X244014400Y-125616500D01*
X242713600Y-125616500D01*
X242710354Y-125616837D01*
X242710350Y-125616837D01*
X242614692Y-125626762D01*
X242614688Y-125626763D01*
X242607834Y-125627474D01*
X242601298Y-125629655D01*
X242601296Y-125629655D01*
X242470246Y-125673377D01*
X242440054Y-125683450D01*
X242289652Y-125776522D01*
X242164695Y-125901697D01*
X242160855Y-125907927D01*
X242160854Y-125907928D01*
X242082704Y-126034711D01*
X242071885Y-126052262D01*
X242016203Y-126220139D01*
X242015503Y-126226975D01*
X242015502Y-126226978D01*
X242013459Y-126246918D01*
X242005500Y-126324600D01*
X242005500Y-127875400D01*
X236928175Y-127875400D01*
X236984576Y-127776318D01*
X236989041Y-127766654D01*
X237064031Y-127560059D01*
X237066802Y-127549792D01*
X237103504Y-127346826D01*
X237102085Y-127333586D01*
X237087450Y-127329000D01*
X236022115Y-127329000D01*
X236006876Y-127333475D01*
X236005671Y-127334865D01*
X236004000Y-127342548D01*
X236004000Y-128516192D01*
X235496000Y-128516192D01*
X235496000Y-126802885D01*
X236004000Y-126802885D01*
X236008475Y-126818124D01*
X236009865Y-126819329D01*
X236017548Y-126821000D01*
X237083849Y-126821000D01*
X237098527Y-126816690D01*
X237100590Y-126804807D01*
X237093876Y-126725675D01*
X237092086Y-126715203D01*
X237036870Y-126502465D01*
X237033335Y-126492425D01*
X236943063Y-126292030D01*
X236937894Y-126282744D01*
X236815150Y-126100425D01*
X236808481Y-126092130D01*
X236656772Y-125933100D01*
X236648814Y-125926059D01*
X236472475Y-125794859D01*
X236463438Y-125789255D01*
X236267516Y-125689643D01*
X236257665Y-125685643D01*
X236047760Y-125620466D01*
X236037376Y-125618183D01*
X236021957Y-125616139D01*
X236007793Y-125618335D01*
X236004000Y-125631522D01*
X236004000Y-126802885D01*
X235496000Y-126802885D01*
X235496000Y-125633808D01*
X235492027Y-125620277D01*
X235481420Y-125618752D01*
X235363579Y-125643477D01*
X235353383Y-125646537D01*
X235163760Y-125721422D01*
X235093054Y-125727840D01*
X235030103Y-125695012D01*
X235009027Y-125668372D01*
X235005096Y-125661725D01*
X235000226Y-125653490D01*
X234991532Y-125635744D01*
X234984072Y-125616903D01*
X234975174Y-125604655D01*
X234958084Y-125581133D01*
X234951568Y-125571213D01*
X234929062Y-125533158D01*
X234931736Y-125531577D01*
X234911542Y-125481333D01*
X234894232Y-125316635D01*
X234894232Y-125316633D01*
X234893542Y-125310072D01*
X234834527Y-125128444D01*
X234739040Y-124963056D01*
X234685120Y-124903171D01*
X234615675Y-124826045D01*
X234615674Y-124826044D01*
X234611253Y-124821134D01*
X234456752Y-124708882D01*
X234450724Y-124706198D01*
X234450722Y-124706197D01*
X234288319Y-124633891D01*
X234288318Y-124633891D01*
X234282288Y-124631206D01*
X234188887Y-124611353D01*
X234101944Y-124592872D01*
X234101939Y-124592872D01*
X234095487Y-124591500D01*
X233904513Y-124591500D01*
X233898061Y-124592872D01*
X233898056Y-124592872D01*
X233811113Y-124611353D01*
X233717712Y-124631206D01*
X233711682Y-124633891D01*
X233711681Y-124633891D01*
X233549278Y-124706197D01*
X233549276Y-124706198D01*
X233543248Y-124708882D01*
X233388747Y-124821134D01*
X233384326Y-124826044D01*
X233384325Y-124826045D01*
X233314881Y-124903171D01*
X233260960Y-124963056D01*
X233165473Y-125128444D01*
X233106458Y-125310072D01*
X233105768Y-125316633D01*
X233105768Y-125316635D01*
X233089488Y-125471537D01*
X233086496Y-125500000D01*
X233085383Y-125499883D01*
X233067184Y-125561864D01*
X233013528Y-125608357D01*
X232987060Y-125617058D01*
X232978985Y-125618752D01*
X232863430Y-125642997D01*
X232863424Y-125642999D01*
X232858209Y-125644093D01*
X232853250Y-125646051D01*
X232853248Y-125646052D01*
X232648744Y-125726815D01*
X232648742Y-125726816D01*
X232643779Y-125728776D01*
X232639220Y-125731543D01*
X232639217Y-125731544D01*
X232544113Y-125789255D01*
X232446683Y-125848377D01*
X232442653Y-125851874D01*
X232289687Y-125984611D01*
X232272555Y-125999477D01*
X232265834Y-126007674D01*
X232129760Y-126173627D01*
X232129756Y-126173633D01*
X232126376Y-126177755D01*
X232123733Y-126182398D01*
X232108171Y-126209735D01*
X232057088Y-126259041D01*
X231987458Y-126272902D01*
X231921387Y-126246918D01*
X231894149Y-126217768D01*
X231815148Y-126100422D01*
X231808481Y-126092130D01*
X231656772Y-125933100D01*
X231648814Y-125926059D01*
X231472475Y-125794859D01*
X231463438Y-125789255D01*
X231267516Y-125689643D01*
X231257665Y-125685643D01*
X231047760Y-125620466D01*
X231037376Y-125618183D01*
X231021957Y-125616139D01*
X231007793Y-125618335D01*
X231004000Y-125631522D01*
X231004000Y-127203000D01*
X230983998Y-127271121D01*
X230930342Y-127317614D01*
X230878000Y-127329000D01*
X230622000Y-127329000D01*
X230553879Y-127308998D01*
X230507386Y-127255342D01*
X230496000Y-127203000D01*
X230496000Y-125633808D01*
X230492027Y-125620277D01*
X230481420Y-125618752D01*
X230363579Y-125643477D01*
X230353383Y-125646537D01*
X230148971Y-125727263D01*
X230139439Y-125731994D01*
X229951538Y-125846016D01*
X229942948Y-125852280D01*
X229776948Y-125996327D01*
X229769530Y-126003956D01*
X229743609Y-126035569D01*
X229684949Y-126075564D01*
X229613979Y-126077496D01*
X229553230Y-126040752D01*
X229539030Y-126021982D01*
X229525104Y-125999477D01*
X229448478Y-125875652D01*
X229323303Y-125750695D01*
X229292965Y-125731994D01*
X229178968Y-125661725D01*
X229178966Y-125661724D01*
X229172738Y-125657885D01*
X229078121Y-125626502D01*
X229011389Y-125604368D01*
X229011387Y-125604368D01*
X229004861Y-125602203D01*
X228998025Y-125601503D01*
X228998022Y-125601502D01*
X228954969Y-125597091D01*
X228900400Y-125591500D01*
X227599600Y-125591500D01*
X227596354Y-125591837D01*
X227596350Y-125591837D01*
X227500692Y-125601762D01*
X227500688Y-125601763D01*
X227493834Y-125602474D01*
X227487298Y-125604655D01*
X227487296Y-125604655D01*
X227355194Y-125648728D01*
X227326054Y-125658450D01*
X227175652Y-125751522D01*
X227050695Y-125876697D01*
X227046855Y-125882927D01*
X227046854Y-125882928D01*
X226962276Y-126020139D01*
X226957885Y-126027262D01*
X226902203Y-126195139D01*
X226901503Y-126201975D01*
X226901502Y-126201978D01*
X226898941Y-126226978D01*
X226891500Y-126299600D01*
X226891500Y-127850400D01*
X221579393Y-127850400D01*
X221619826Y-127801089D01*
X221625850Y-127792322D01*
X221734576Y-127601318D01*
X221739041Y-127591654D01*
X221814031Y-127385059D01*
X221816802Y-127374792D01*
X221853504Y-127171826D01*
X221852085Y-127158586D01*
X221837450Y-127154000D01*
X220772115Y-127154000D01*
X220756876Y-127158475D01*
X220755671Y-127159865D01*
X220754000Y-127167548D01*
X220754000Y-128341192D01*
X220246000Y-128341192D01*
X220246000Y-126627885D01*
X220754000Y-126627885D01*
X220758475Y-126643124D01*
X220759865Y-126644329D01*
X220767548Y-126646000D01*
X221833849Y-126646000D01*
X221848527Y-126641690D01*
X221850590Y-126629807D01*
X221843876Y-126550675D01*
X221842086Y-126540203D01*
X221786870Y-126327465D01*
X221783335Y-126317425D01*
X221693063Y-126117030D01*
X221687894Y-126107744D01*
X221565150Y-125925425D01*
X221558481Y-125917130D01*
X221406772Y-125758100D01*
X221398814Y-125751059D01*
X221222475Y-125619859D01*
X221213438Y-125614255D01*
X221017516Y-125514643D01*
X221007665Y-125510643D01*
X220797760Y-125445466D01*
X220787376Y-125443183D01*
X220771957Y-125441139D01*
X220757793Y-125443335D01*
X220754000Y-125456522D01*
X220754000Y-126627885D01*
X220246000Y-126627885D01*
X220246000Y-125458808D01*
X220242027Y-125445277D01*
X220231420Y-125443752D01*
X220113579Y-125468477D01*
X220103383Y-125471537D01*
X219898971Y-125552263D01*
X219889439Y-125556994D01*
X219701538Y-125671016D01*
X219692948Y-125677280D01*
X219526948Y-125821327D01*
X219519528Y-125828958D01*
X219380174Y-125998911D01*
X219374152Y-126007674D01*
X219358762Y-126034711D01*
X219307680Y-126084018D01*
X219238049Y-126097880D01*
X219171978Y-126071897D01*
X219144739Y-126042747D01*
X219084900Y-125953865D01*
X219062559Y-125920681D01*
X219056709Y-125914548D01*
X218975059Y-125828958D01*
X218903424Y-125753865D01*
X218718458Y-125616246D01*
X218713707Y-125613830D01*
X218713703Y-125613828D01*
X218595588Y-125553776D01*
X218512949Y-125511760D01*
X218507855Y-125510178D01*
X218507852Y-125510177D01*
X218297871Y-125444976D01*
X218292773Y-125443393D01*
X218287484Y-125442692D01*
X218069511Y-125413802D01*
X218069506Y-125413802D01*
X218064226Y-125413102D01*
X218058897Y-125413302D01*
X218058895Y-125413302D01*
X217949034Y-125417426D01*
X217833842Y-125421751D01*
X217828623Y-125422846D01*
X217806566Y-125427474D01*
X217608209Y-125469093D01*
X217603250Y-125471051D01*
X217603248Y-125471052D01*
X217398744Y-125551815D01*
X217398742Y-125551816D01*
X217393779Y-125553776D01*
X217389220Y-125556543D01*
X217389217Y-125556544D01*
X217294113Y-125614255D01*
X217196683Y-125673377D01*
X217192653Y-125676874D01*
X217027877Y-125819859D01*
X217022555Y-125824477D01*
X216993330Y-125860120D01*
X216934671Y-125900114D01*
X216863701Y-125902046D01*
X216802952Y-125865302D01*
X216788752Y-125846532D01*
X216702332Y-125706880D01*
X216698478Y-125700652D01*
X216573303Y-125575695D01*
X216542965Y-125556994D01*
X216428968Y-125486725D01*
X216428966Y-125486724D01*
X216422738Y-125482885D01*
X216309353Y-125445277D01*
X216261389Y-125429368D01*
X216261387Y-125429368D01*
X216254861Y-125427203D01*
X216248025Y-125426503D01*
X216248022Y-125426502D01*
X216204969Y-125422091D01*
X216150400Y-125416500D01*
X214849600Y-125416500D01*
X214846354Y-125416837D01*
X214846350Y-125416837D01*
X214750692Y-125426762D01*
X214750688Y-125426763D01*
X214743834Y-125427474D01*
X214737298Y-125429655D01*
X214737296Y-125429655D01*
X214605194Y-125473728D01*
X214576054Y-125483450D01*
X214425652Y-125576522D01*
X214420479Y-125581704D01*
X214400456Y-125601762D01*
X214300695Y-125701697D01*
X214296855Y-125707927D01*
X214296854Y-125707928D01*
X214226954Y-125821327D01*
X214207885Y-125852262D01*
X214189769Y-125906880D01*
X214157571Y-126003956D01*
X214152203Y-126020139D01*
X214151503Y-126026975D01*
X214151502Y-126026978D01*
X214149550Y-126046032D01*
X214141500Y-126124600D01*
X214141500Y-127675400D01*
X211008000Y-127675400D01*
X211008000Y-124472095D01*
X217567001Y-124472095D01*
X217567338Y-124478614D01*
X217577257Y-124574206D01*
X217580149Y-124587600D01*
X217631588Y-124741784D01*
X217637761Y-124754962D01*
X217723063Y-124892807D01*
X217732099Y-124904208D01*
X217846829Y-125018739D01*
X217858240Y-125027751D01*
X217996243Y-125112816D01*
X218009424Y-125118963D01*
X218163710Y-125170138D01*
X218177086Y-125173005D01*
X218271438Y-125182672D01*
X218277854Y-125183000D01*
X218977885Y-125183000D01*
X218993124Y-125178525D01*
X218994329Y-125177135D01*
X218996000Y-125169452D01*
X218996000Y-125164884D01*
X219504000Y-125164884D01*
X219508475Y-125180123D01*
X219509865Y-125181328D01*
X219517548Y-125182999D01*
X220222095Y-125182999D01*
X220228614Y-125182662D01*
X220324206Y-125172743D01*
X220337600Y-125169851D01*
X220491784Y-125118412D01*
X220504962Y-125112239D01*
X220642807Y-125026937D01*
X220654208Y-125017901D01*
X220768739Y-124903171D01*
X220777751Y-124891760D01*
X220862816Y-124753757D01*
X220868963Y-124740576D01*
X220920138Y-124586290D01*
X220923005Y-124572914D01*
X220932672Y-124478562D01*
X220933000Y-124472146D01*
X220933000Y-124094669D01*
X221942001Y-124094669D01*
X221942371Y-124101490D01*
X221947895Y-124152352D01*
X221951521Y-124167604D01*
X221996676Y-124288054D01*
X222005214Y-124303649D01*
X222081715Y-124405724D01*
X222094276Y-124418285D01*
X222196351Y-124494786D01*
X222211946Y-124503324D01*
X222332394Y-124548478D01*
X222347649Y-124552105D01*
X222398514Y-124557631D01*
X222405328Y-124558000D01*
X223177885Y-124558000D01*
X223193124Y-124553525D01*
X223194329Y-124552135D01*
X223196000Y-124544452D01*
X223196000Y-124539884D01*
X223704000Y-124539884D01*
X223708475Y-124555123D01*
X223709865Y-124556328D01*
X223717548Y-124557999D01*
X224494669Y-124557999D01*
X224501490Y-124557629D01*
X224552352Y-124552105D01*
X224567604Y-124548479D01*
X224688054Y-124503324D01*
X224703649Y-124494786D01*
X224805724Y-124418285D01*
X224818285Y-124405724D01*
X224894786Y-124303649D01*
X224903324Y-124288054D01*
X224948478Y-124167606D01*
X224952105Y-124152351D01*
X224957631Y-124101486D01*
X224958000Y-124094672D01*
X224958000Y-123572115D01*
X224953525Y-123556876D01*
X224952135Y-123555671D01*
X224944452Y-123554000D01*
X223722115Y-123554000D01*
X223706876Y-123558475D01*
X223705671Y-123559865D01*
X223704000Y-123567548D01*
X223704000Y-124539884D01*
X223196000Y-124539884D01*
X223196000Y-123572115D01*
X223191525Y-123556876D01*
X223190135Y-123555671D01*
X223182452Y-123554000D01*
X221960116Y-123554000D01*
X221944877Y-123558475D01*
X221943672Y-123559865D01*
X221942001Y-123567548D01*
X221942001Y-124094669D01*
X220933000Y-124094669D01*
X220933000Y-123822115D01*
X220928525Y-123806876D01*
X220927135Y-123805671D01*
X220919452Y-123804000D01*
X219522115Y-123804000D01*
X219506876Y-123808475D01*
X219505671Y-123809865D01*
X219504000Y-123817548D01*
X219504000Y-125164884D01*
X218996000Y-125164884D01*
X218996000Y-123822115D01*
X218991525Y-123806876D01*
X218990135Y-123805671D01*
X218982452Y-123804000D01*
X217585116Y-123804000D01*
X217569877Y-123808475D01*
X217568672Y-123809865D01*
X217567001Y-123817548D01*
X217567001Y-124472095D01*
X211008000Y-124472095D01*
X211008000Y-123553207D01*
X211009746Y-123532303D01*
X211012264Y-123517335D01*
X211013071Y-123512539D01*
X211013224Y-123500000D01*
X211012534Y-123495185D01*
X211012373Y-123492710D01*
X211011805Y-123487115D01*
X210994495Y-123200938D01*
X210994494Y-123200932D01*
X210994265Y-123197142D01*
X210962186Y-123022095D01*
X214592001Y-123022095D01*
X214592338Y-123028614D01*
X214602257Y-123124206D01*
X214605149Y-123137600D01*
X214656588Y-123291784D01*
X214662761Y-123304962D01*
X214748063Y-123442807D01*
X214757099Y-123454208D01*
X214871829Y-123568739D01*
X214883240Y-123577751D01*
X215021243Y-123662816D01*
X215034424Y-123668963D01*
X215188710Y-123720138D01*
X215202086Y-123723005D01*
X215296438Y-123732672D01*
X215302854Y-123733000D01*
X215727885Y-123733000D01*
X215743124Y-123728525D01*
X215744329Y-123727135D01*
X215746000Y-123719452D01*
X215746000Y-123714884D01*
X216254000Y-123714884D01*
X216258475Y-123730123D01*
X216259865Y-123731328D01*
X216267548Y-123732999D01*
X216697095Y-123732999D01*
X216703614Y-123732662D01*
X216799206Y-123722743D01*
X216812600Y-123719851D01*
X216966784Y-123668412D01*
X216979962Y-123662239D01*
X217117807Y-123576937D01*
X217129208Y-123567901D01*
X217174935Y-123522095D01*
X231842001Y-123522095D01*
X231842338Y-123528614D01*
X231852257Y-123624206D01*
X231855149Y-123637600D01*
X231906588Y-123791784D01*
X231912761Y-123804962D01*
X231998063Y-123942807D01*
X232007099Y-123954208D01*
X232121829Y-124068739D01*
X232133240Y-124077751D01*
X232271243Y-124162816D01*
X232284424Y-124168963D01*
X232438710Y-124220138D01*
X232452086Y-124223005D01*
X232546438Y-124232672D01*
X232552854Y-124233000D01*
X232977885Y-124233000D01*
X232993124Y-124228525D01*
X232994329Y-124227135D01*
X232996000Y-124219452D01*
X232996000Y-124214884D01*
X233504000Y-124214884D01*
X233508475Y-124230123D01*
X233509865Y-124231328D01*
X233517548Y-124232999D01*
X233947095Y-124232999D01*
X233953614Y-124232662D01*
X234049206Y-124222743D01*
X234062600Y-124219851D01*
X234216784Y-124168412D01*
X234229962Y-124162239D01*
X234367807Y-124076937D01*
X234379208Y-124067901D01*
X234493739Y-123953171D01*
X234502751Y-123941760D01*
X234587816Y-123803757D01*
X234593963Y-123790576D01*
X234645138Y-123636290D01*
X234648005Y-123622914D01*
X234657672Y-123528562D01*
X234658000Y-123522146D01*
X234658000Y-123334615D01*
X234653525Y-123319376D01*
X234652135Y-123318171D01*
X234644452Y-123316500D01*
X233522115Y-123316500D01*
X233506876Y-123320975D01*
X233505671Y-123322365D01*
X233504000Y-123330048D01*
X233504000Y-124214884D01*
X232996000Y-124214884D01*
X232996000Y-123334615D01*
X232991525Y-123319376D01*
X232990135Y-123318171D01*
X232982452Y-123316500D01*
X231860116Y-123316500D01*
X231844877Y-123320975D01*
X231843672Y-123322365D01*
X231842001Y-123330048D01*
X231842001Y-123522095D01*
X217174935Y-123522095D01*
X217243739Y-123453171D01*
X217252751Y-123441760D01*
X217337817Y-123303756D01*
X217342050Y-123294678D01*
X217388966Y-123241392D01*
X217457242Y-123221929D01*
X217525203Y-123242469D01*
X217559694Y-123282916D01*
X217572865Y-123294329D01*
X217580548Y-123296000D01*
X218977885Y-123296000D01*
X218993124Y-123291525D01*
X218994329Y-123290135D01*
X218996000Y-123282452D01*
X218996000Y-123277885D01*
X219504000Y-123277885D01*
X219508475Y-123293124D01*
X219509865Y-123294329D01*
X219517548Y-123296000D01*
X220914884Y-123296000D01*
X220930123Y-123291525D01*
X220931328Y-123290135D01*
X220932999Y-123282452D01*
X220932999Y-122627905D01*
X220932662Y-122621386D01*
X220922743Y-122525794D01*
X220919851Y-122512400D01*
X220868412Y-122358216D01*
X220862239Y-122345038D01*
X220776937Y-122207193D01*
X220767901Y-122195792D01*
X220653171Y-122081261D01*
X220641760Y-122072249D01*
X220503757Y-121987184D01*
X220490576Y-121981037D01*
X220336290Y-121929862D01*
X220322914Y-121926995D01*
X220228562Y-121917328D01*
X220222145Y-121917000D01*
X219522115Y-121917000D01*
X219506876Y-121921475D01*
X219505671Y-121922865D01*
X219504000Y-121930548D01*
X219504000Y-123277885D01*
X218996000Y-123277885D01*
X218996000Y-121935116D01*
X218991525Y-121919877D01*
X218990135Y-121918672D01*
X218982452Y-121917001D01*
X218277905Y-121917001D01*
X218271386Y-121917338D01*
X218175794Y-121927257D01*
X218162400Y-121930149D01*
X218008216Y-121981588D01*
X217995038Y-121987761D01*
X217857193Y-122073063D01*
X217845792Y-122082099D01*
X217731261Y-122196829D01*
X217722249Y-122208240D01*
X217641259Y-122339631D01*
X217588487Y-122387124D01*
X217518415Y-122398548D01*
X217453292Y-122370274D01*
X217413792Y-122311280D01*
X217407999Y-122273515D01*
X217407999Y-122102905D01*
X217407662Y-122096386D01*
X217397743Y-122000794D01*
X217394851Y-121987400D01*
X217343412Y-121833216D01*
X217337239Y-121820038D01*
X217251937Y-121682193D01*
X217242901Y-121670792D01*
X217128171Y-121556261D01*
X217116760Y-121547249D01*
X216978757Y-121462184D01*
X216965576Y-121456037D01*
X216811290Y-121404862D01*
X216797914Y-121401995D01*
X216703562Y-121392328D01*
X216697145Y-121392000D01*
X216272115Y-121392000D01*
X216256876Y-121396475D01*
X216255671Y-121397865D01*
X216254000Y-121405548D01*
X216254000Y-123714884D01*
X215746000Y-123714884D01*
X215746000Y-122834615D01*
X215741525Y-122819376D01*
X215740135Y-122818171D01*
X215732452Y-122816500D01*
X214610116Y-122816500D01*
X214594877Y-122820975D01*
X214593672Y-122822365D01*
X214592001Y-122830048D01*
X214592001Y-123022095D01*
X210962186Y-123022095D01*
X210939573Y-122898699D01*
X210918181Y-122830048D01*
X210850440Y-122612661D01*
X210849307Y-122609025D01*
X210846531Y-122602855D01*
X210787045Y-122470684D01*
X210724783Y-122332344D01*
X210718073Y-122321243D01*
X210699418Y-122290385D01*
X214592000Y-122290385D01*
X214596475Y-122305624D01*
X214597865Y-122306829D01*
X214605548Y-122308500D01*
X215727885Y-122308500D01*
X215743124Y-122304025D01*
X215744329Y-122302635D01*
X215746000Y-122294952D01*
X215746000Y-121410116D01*
X215741525Y-121394877D01*
X215740135Y-121393672D01*
X215732452Y-121392001D01*
X215302905Y-121392001D01*
X215296386Y-121392338D01*
X215200794Y-121402257D01*
X215187400Y-121405149D01*
X215033216Y-121456588D01*
X215020038Y-121462761D01*
X214882193Y-121548063D01*
X214870792Y-121557099D01*
X214756261Y-121671829D01*
X214747249Y-121683240D01*
X214662184Y-121821243D01*
X214656037Y-121834424D01*
X214604862Y-121988710D01*
X214601995Y-122002086D01*
X214592328Y-122096438D01*
X214592000Y-122102855D01*
X214592000Y-122290385D01*
X210699418Y-122290385D01*
X210649759Y-122208240D01*
X210567816Y-122072689D01*
X210562873Y-122066379D01*
X210526815Y-122020355D01*
X210500549Y-121954396D01*
X210500000Y-121942649D01*
X210500000Y-120663966D01*
X211726257Y-120663966D01*
X211756565Y-120798446D01*
X211759645Y-120808275D01*
X211839770Y-121005603D01*
X211844413Y-121014794D01*
X211955694Y-121196388D01*
X211961777Y-121204699D01*
X212101213Y-121365667D01*
X212108580Y-121372883D01*
X212272434Y-121508916D01*
X212280881Y-121514831D01*
X212464756Y-121622279D01*
X212474042Y-121626729D01*
X212673001Y-121702703D01*
X212682899Y-121705579D01*
X212786250Y-121726606D01*
X212800299Y-121725410D01*
X212804000Y-121715065D01*
X212804000Y-121714517D01*
X213312000Y-121714517D01*
X213316064Y-121728359D01*
X213329478Y-121730393D01*
X213336184Y-121729534D01*
X213346262Y-121727392D01*
X213550255Y-121666191D01*
X213559842Y-121662433D01*
X213751095Y-121568739D01*
X213759945Y-121563464D01*
X213933328Y-121439792D01*
X213941200Y-121433139D01*
X214092052Y-121282812D01*
X214098730Y-121274965D01*
X214223003Y-121102020D01*
X214228313Y-121093183D01*
X214322670Y-120902267D01*
X214326469Y-120892672D01*
X214388377Y-120688910D01*
X214390555Y-120678837D01*
X214391986Y-120667962D01*
X214389775Y-120653778D01*
X214376617Y-120650000D01*
X213330115Y-120650000D01*
X213314876Y-120654475D01*
X213313671Y-120655865D01*
X213312000Y-120663548D01*
X213312000Y-121714517D01*
X212804000Y-121714517D01*
X212804000Y-120668115D01*
X212799525Y-120652876D01*
X212798135Y-120651671D01*
X212790452Y-120650000D01*
X211741225Y-120650000D01*
X211727694Y-120653973D01*
X211726257Y-120663966D01*
X210500000Y-120663966D01*
X210500000Y-117822695D01*
X211695251Y-117822695D01*
X211708110Y-118045715D01*
X211709247Y-118050761D01*
X211709248Y-118050767D01*
X211733304Y-118157508D01*
X211757222Y-118263639D01*
X211841266Y-118470616D01*
X211843965Y-118475020D01*
X211915344Y-118591500D01*
X211957987Y-118661088D01*
X212104250Y-118829938D01*
X212276126Y-118972632D01*
X212305307Y-118989684D01*
X212349955Y-119015774D01*
X212398679Y-119067412D01*
X212411750Y-119137195D01*
X212385019Y-119202967D01*
X212344562Y-119236327D01*
X212336457Y-119240546D01*
X212327738Y-119246036D01*
X212157433Y-119373905D01*
X212149726Y-119380748D01*
X212002590Y-119534717D01*
X211996104Y-119542727D01*
X211876098Y-119718649D01*
X211871000Y-119727623D01*
X211781338Y-119920783D01*
X211777775Y-119930470D01*
X211722389Y-120130183D01*
X211723912Y-120138607D01*
X211736292Y-120142000D01*
X214376344Y-120142000D01*
X214389873Y-120138027D01*
X214391388Y-120127493D01*
X214420881Y-120062912D01*
X214457349Y-120039475D01*
X214394066Y-120018138D01*
X214349734Y-119962683D01*
X214347051Y-119955523D01*
X214345892Y-119952119D01*
X214260972Y-119756814D01*
X214256105Y-119747739D01*
X214140426Y-119568926D01*
X214134136Y-119560757D01*
X213990806Y-119403240D01*
X213983273Y-119396215D01*
X213816139Y-119264222D01*
X213807556Y-119258520D01*
X213770602Y-119238120D01*
X213720631Y-119187687D01*
X213705859Y-119118245D01*
X213730975Y-119051839D01*
X213758327Y-119025232D01*
X213906808Y-118919322D01*
X213973881Y-118896048D01*
X214042890Y-118912732D01*
X214069071Y-118932806D01*
X214554595Y-119418330D01*
X214588621Y-119480642D01*
X214591500Y-119507425D01*
X214591500Y-119900400D01*
X214591837Y-119903650D01*
X214592005Y-119906892D01*
X214590735Y-119906958D01*
X214578781Y-119971759D01*
X214530200Y-120023532D01*
X214526233Y-120024528D01*
X214551603Y-120024528D01*
X214611330Y-120062911D01*
X214635629Y-120105547D01*
X214656129Y-120166993D01*
X214656133Y-120167003D01*
X214658450Y-120173946D01*
X214751522Y-120324348D01*
X214876697Y-120449305D01*
X214882927Y-120453145D01*
X214882928Y-120453146D01*
X215020090Y-120537694D01*
X215027262Y-120542115D01*
X215107005Y-120568564D01*
X215188611Y-120595632D01*
X215188613Y-120595632D01*
X215195139Y-120597797D01*
X215201975Y-120598497D01*
X215201978Y-120598498D01*
X215245031Y-120602909D01*
X215299600Y-120608500D01*
X216700400Y-120608500D01*
X216703646Y-120608163D01*
X216703650Y-120608163D01*
X216799308Y-120598238D01*
X216799312Y-120598237D01*
X216806166Y-120597526D01*
X216812702Y-120595345D01*
X216812704Y-120595345D01*
X216944806Y-120551272D01*
X216973946Y-120541550D01*
X217097881Y-120464856D01*
X217164185Y-120446000D01*
X218200657Y-120446000D01*
X218214264Y-120446737D01*
X218245762Y-120450159D01*
X218245767Y-120450159D01*
X218251888Y-120450824D01*
X218278704Y-120448478D01*
X218301888Y-120446450D01*
X218306714Y-120446121D01*
X218309186Y-120446000D01*
X218312269Y-120446000D01*
X218324238Y-120444826D01*
X218355006Y-120441810D01*
X218356319Y-120441688D01*
X218400584Y-120437815D01*
X218448913Y-120433587D01*
X218454032Y-120432100D01*
X218459333Y-120431580D01*
X218548334Y-120404709D01*
X218549467Y-120404374D01*
X218632914Y-120380130D01*
X218632918Y-120380128D01*
X218638836Y-120378409D01*
X218643568Y-120375956D01*
X218648669Y-120374416D01*
X218654112Y-120371522D01*
X218730760Y-120330769D01*
X218731926Y-120330157D01*
X218808953Y-120290229D01*
X218814426Y-120287392D01*
X218818589Y-120284069D01*
X218823296Y-120281566D01*
X218895418Y-120222745D01*
X218896274Y-120222054D01*
X218935473Y-120190762D01*
X218937977Y-120188258D01*
X218938695Y-120187616D01*
X218943028Y-120183915D01*
X218976562Y-120156565D01*
X218984029Y-120147540D01*
X218999214Y-120129184D01*
X219058048Y-120089446D01*
X219096298Y-120083500D01*
X220225400Y-120083500D01*
X220228646Y-120083163D01*
X220228650Y-120083163D01*
X220324308Y-120073238D01*
X220324312Y-120073237D01*
X220331166Y-120072526D01*
X220337702Y-120070345D01*
X220337704Y-120070345D01*
X220491998Y-120018868D01*
X220498946Y-120016550D01*
X220649348Y-119923478D01*
X220774305Y-119798303D01*
X220867115Y-119647738D01*
X220901247Y-119544833D01*
X220941678Y-119486473D01*
X221007242Y-119459236D01*
X221020840Y-119458500D01*
X221825507Y-119458500D01*
X221893628Y-119478502D01*
X221940121Y-119532158D01*
X221947543Y-119553763D01*
X221948255Y-119560316D01*
X221951027Y-119567711D01*
X221951028Y-119567714D01*
X221978423Y-119640790D01*
X221999385Y-119696705D01*
X222004770Y-119703890D01*
X222004771Y-119703892D01*
X222057640Y-119774435D01*
X222082488Y-119840942D01*
X222067435Y-119910324D01*
X222057640Y-119925565D01*
X222023020Y-119971759D01*
X221999385Y-120003295D01*
X221948255Y-120139684D01*
X221941500Y-120201866D01*
X221941500Y-121798134D01*
X221948255Y-121860316D01*
X221999385Y-121996705D01*
X222054080Y-122069684D01*
X222057953Y-122074852D01*
X222082801Y-122141358D01*
X222067748Y-122210741D01*
X222057953Y-122225982D01*
X222005214Y-122296352D01*
X221996676Y-122311946D01*
X221951522Y-122432394D01*
X221947895Y-122447649D01*
X221942369Y-122498514D01*
X221942000Y-122505328D01*
X221942000Y-123027885D01*
X221946475Y-123043124D01*
X221947865Y-123044329D01*
X221955548Y-123046000D01*
X224939884Y-123046000D01*
X224955123Y-123041525D01*
X224956328Y-123040135D01*
X224957999Y-123032452D01*
X224957999Y-122505331D01*
X224957629Y-122498510D01*
X224952105Y-122447648D01*
X224948479Y-122432396D01*
X224903324Y-122311946D01*
X224894786Y-122296352D01*
X224842047Y-122225982D01*
X224817199Y-122159476D01*
X224832252Y-122090093D01*
X224842047Y-122074852D01*
X224852723Y-122060607D01*
X224909582Y-122018092D01*
X224967157Y-122010909D01*
X224983263Y-122012659D01*
X224983267Y-122012659D01*
X224989388Y-122013324D01*
X225039053Y-122008979D01*
X225050034Y-122008500D01*
X228115500Y-122008500D01*
X228183621Y-122028502D01*
X228230114Y-122082158D01*
X228241500Y-122134500D01*
X228241500Y-122948134D01*
X228248255Y-123010316D01*
X228299385Y-123146705D01*
X228386739Y-123263261D01*
X228503295Y-123350615D01*
X228639684Y-123401745D01*
X228701866Y-123408500D01*
X230798134Y-123408500D01*
X230860316Y-123401745D01*
X230996705Y-123350615D01*
X231113261Y-123263261D01*
X231200615Y-123146705D01*
X231251745Y-123010316D01*
X231258500Y-122948134D01*
X231258500Y-122134500D01*
X231278502Y-122066379D01*
X231332158Y-122019886D01*
X231384500Y-122008500D01*
X231879279Y-122008500D01*
X231947400Y-122028502D01*
X231993893Y-122082158D01*
X232003997Y-122152432D01*
X231986539Y-122200616D01*
X231912184Y-122321243D01*
X231906037Y-122334424D01*
X231854862Y-122488710D01*
X231851995Y-122502086D01*
X231842328Y-122596438D01*
X231842000Y-122602855D01*
X231842000Y-122790385D01*
X231846475Y-122805624D01*
X231847865Y-122806829D01*
X231855548Y-122808500D01*
X232977885Y-122808500D01*
X232993124Y-122804025D01*
X232994329Y-122802635D01*
X232996000Y-122794952D01*
X232996000Y-122790385D01*
X233504000Y-122790385D01*
X233508475Y-122805624D01*
X233509865Y-122806829D01*
X233517548Y-122808500D01*
X234639884Y-122808500D01*
X234655123Y-122804025D01*
X234656328Y-122802635D01*
X234657999Y-122794952D01*
X234657999Y-122602905D01*
X234657662Y-122596386D01*
X234647743Y-122500794D01*
X234644851Y-122487400D01*
X234593412Y-122333216D01*
X234587239Y-122320038D01*
X234501937Y-122182193D01*
X234492901Y-122170792D01*
X234378171Y-122056261D01*
X234366760Y-122047249D01*
X234228757Y-121962184D01*
X234215576Y-121956037D01*
X234061290Y-121904862D01*
X234047914Y-121901995D01*
X233953562Y-121892328D01*
X233947145Y-121892000D01*
X233522115Y-121892000D01*
X233506876Y-121896475D01*
X233505671Y-121897865D01*
X233504000Y-121905548D01*
X233504000Y-122790385D01*
X232996000Y-122790385D01*
X232996000Y-121910116D01*
X232991525Y-121894877D01*
X232985288Y-121889472D01*
X232932551Y-121860677D01*
X232898525Y-121798366D01*
X232903588Y-121727550D01*
X232924562Y-121691263D01*
X232930785Y-121683741D01*
X232938772Y-121674963D01*
X233189594Y-121424141D01*
X233468329Y-121145405D01*
X233530642Y-121111380D01*
X233557425Y-121108500D01*
X233950400Y-121108500D01*
X233953646Y-121108163D01*
X233953650Y-121108163D01*
X234049308Y-121098238D01*
X234049312Y-121098237D01*
X234056166Y-121097526D01*
X234062702Y-121095345D01*
X234062704Y-121095345D01*
X234216998Y-121043868D01*
X234223946Y-121041550D01*
X234267183Y-121014794D01*
X234347882Y-120964856D01*
X234414185Y-120946000D01*
X244750657Y-120946000D01*
X244764264Y-120946737D01*
X244795762Y-120950159D01*
X244795767Y-120950159D01*
X244801888Y-120950824D01*
X244828704Y-120948478D01*
X244851888Y-120946450D01*
X244856714Y-120946121D01*
X244859186Y-120946000D01*
X244862269Y-120946000D01*
X244874238Y-120944826D01*
X244905006Y-120941810D01*
X244906319Y-120941688D01*
X244950584Y-120937815D01*
X244998913Y-120933587D01*
X245004032Y-120932100D01*
X245009333Y-120931580D01*
X245098334Y-120904709D01*
X245099467Y-120904374D01*
X245182914Y-120880130D01*
X245182918Y-120880128D01*
X245188836Y-120878409D01*
X245193568Y-120875956D01*
X245198669Y-120874416D01*
X245204112Y-120871522D01*
X245280760Y-120830769D01*
X245281926Y-120830157D01*
X245358953Y-120790229D01*
X245364426Y-120787392D01*
X245368589Y-120784069D01*
X245373296Y-120781566D01*
X245445418Y-120722745D01*
X245446274Y-120722054D01*
X245485473Y-120690762D01*
X245487977Y-120688258D01*
X245488695Y-120687616D01*
X245493028Y-120683915D01*
X245526562Y-120656565D01*
X245555788Y-120621237D01*
X245563777Y-120612458D01*
X249169384Y-117006851D01*
X249179527Y-116997749D01*
X249204218Y-116977897D01*
X249209025Y-116974032D01*
X249241315Y-116935550D01*
X249244467Y-116931938D01*
X249246123Y-116930112D01*
X249248310Y-116927925D01*
X249268372Y-116903502D01*
X249275576Y-116894732D01*
X249276418Y-116893717D01*
X249281258Y-116887949D01*
X249336154Y-116822526D01*
X249338723Y-116817853D01*
X249342103Y-116813738D01*
X249353839Y-116791852D01*
X249386028Y-116731820D01*
X249386657Y-116730662D01*
X249428465Y-116654612D01*
X249428465Y-116654611D01*
X249431433Y-116649213D01*
X249433044Y-116644135D01*
X249435563Y-116639437D01*
X249462753Y-116550502D01*
X249463136Y-116549272D01*
X249469474Y-116529294D01*
X249491235Y-116460694D01*
X249491828Y-116455403D01*
X249493388Y-116450302D01*
X249502795Y-116357689D01*
X249502915Y-116356569D01*
X249508500Y-116306773D01*
X249508500Y-116303244D01*
X249508555Y-116302261D01*
X249509004Y-116296556D01*
X249509677Y-116289938D01*
X249513374Y-116253537D01*
X249509059Y-116207888D01*
X249508500Y-116196031D01*
X249508500Y-110450231D01*
X249507814Y-110443227D01*
X249501682Y-110380696D01*
X249494080Y-110303167D01*
X249487740Y-110282166D01*
X249456207Y-110177725D01*
X249436916Y-110113831D01*
X249344066Y-109939204D01*
X249223972Y-109791954D01*
X249222960Y-109790713D01*
X249222957Y-109790710D01*
X249219065Y-109785938D01*
X249212724Y-109780692D01*
X249071425Y-109663799D01*
X249071421Y-109663797D01*
X249066675Y-109659870D01*
X248892701Y-109565802D01*
X248703768Y-109507318D01*
X248697643Y-109506674D01*
X248697642Y-109506674D01*
X248513204Y-109487289D01*
X248513202Y-109487289D01*
X248507075Y-109486645D01*
X248424576Y-109494153D01*
X248316251Y-109504011D01*
X248316248Y-109504012D01*
X248310112Y-109504570D01*
X248304206Y-109506308D01*
X248304202Y-109506309D01*
X248200310Y-109536886D01*
X248120381Y-109560410D01*
X248114923Y-109563263D01*
X248114919Y-109563265D01*
X248068578Y-109587492D01*
X247945110Y-109652040D01*
X247790975Y-109775968D01*
X247663846Y-109927474D01*
X247660879Y-109932872D01*
X247660875Y-109932877D01*
X247613792Y-110018522D01*
X247568567Y-110100787D01*
X247566706Y-110106654D01*
X247566705Y-110106656D01*
X247536240Y-110202695D01*
X247508765Y-110289306D01*
X247491500Y-110443227D01*
X247491500Y-115780076D01*
X247471498Y-115848197D01*
X247454595Y-115869171D01*
X244431671Y-118892095D01*
X244369359Y-118926121D01*
X244342576Y-118929000D01*
X234414379Y-118929000D01*
X234348263Y-118910260D01*
X234228968Y-118836725D01*
X234228966Y-118836724D01*
X234222738Y-118832885D01*
X234062254Y-118779655D01*
X234061389Y-118779368D01*
X234061387Y-118779368D01*
X234054861Y-118777203D01*
X234048025Y-118776503D01*
X234048022Y-118776502D01*
X234004969Y-118772091D01*
X233950400Y-118766500D01*
X232549600Y-118766500D01*
X232546354Y-118766837D01*
X232546350Y-118766837D01*
X232450692Y-118776762D01*
X232450688Y-118776763D01*
X232443834Y-118777474D01*
X232437298Y-118779655D01*
X232437296Y-118779655D01*
X232305194Y-118823728D01*
X232276054Y-118833450D01*
X232125652Y-118926522D01*
X232000695Y-119051697D01*
X231907885Y-119202262D01*
X231852203Y-119370139D01*
X231841500Y-119474600D01*
X231841500Y-119865500D01*
X231821498Y-119933621D01*
X231767842Y-119980114D01*
X231715500Y-119991500D01*
X231384500Y-119991500D01*
X231316379Y-119971498D01*
X231269886Y-119917842D01*
X231258500Y-119865500D01*
X231258500Y-119051866D01*
X231251745Y-118989684D01*
X231200615Y-118853295D01*
X231113261Y-118736739D01*
X230996705Y-118649385D01*
X230860316Y-118598255D01*
X230798134Y-118591500D01*
X228701866Y-118591500D01*
X228639684Y-118598255D01*
X228503295Y-118649385D01*
X228386739Y-118736739D01*
X228299385Y-118853295D01*
X228248255Y-118989684D01*
X228241500Y-119051866D01*
X228241500Y-119865500D01*
X228221498Y-119933621D01*
X228167842Y-119980114D01*
X228115500Y-119991500D01*
X226284011Y-119991500D01*
X226215890Y-119971498D01*
X226169397Y-119917842D01*
X226158011Y-119865500D01*
X226158011Y-117711361D01*
X226158748Y-117697753D01*
X226162170Y-117666250D01*
X226162836Y-117660123D01*
X226158458Y-117610081D01*
X226158132Y-117605299D01*
X226158011Y-117602821D01*
X226158011Y-117599742D01*
X226157712Y-117596688D01*
X226157711Y-117596677D01*
X226153824Y-117557040D01*
X226153702Y-117555726D01*
X226146134Y-117469229D01*
X226145598Y-117463098D01*
X226144111Y-117457979D01*
X226143591Y-117452678D01*
X226116720Y-117363677D01*
X226116385Y-117362544D01*
X226092141Y-117279097D01*
X226092139Y-117279093D01*
X226090420Y-117273175D01*
X226087967Y-117268443D01*
X226086427Y-117263342D01*
X226045635Y-117186621D01*
X226042780Y-117181251D01*
X226042168Y-117180085D01*
X226002240Y-117103058D01*
X225999403Y-117097585D01*
X225996080Y-117093422D01*
X225993577Y-117088715D01*
X225934772Y-117016613D01*
X225933944Y-117015586D01*
X225904980Y-116979303D01*
X225904975Y-116979298D01*
X225902773Y-116976539D01*
X225900272Y-116974038D01*
X225899630Y-116973320D01*
X225895917Y-116968972D01*
X225888153Y-116959452D01*
X225868576Y-116935449D01*
X225863834Y-116931526D01*
X225863832Y-116931524D01*
X225833238Y-116906214D01*
X225824458Y-116898224D01*
X225176234Y-116250000D01*
X228086496Y-116250000D01*
X228106458Y-116439928D01*
X228165473Y-116621556D01*
X228168776Y-116627278D01*
X228168777Y-116627279D01*
X228184558Y-116654612D01*
X228260960Y-116786944D01*
X228265378Y-116791851D01*
X228265379Y-116791852D01*
X228358013Y-116894732D01*
X228388747Y-116928866D01*
X228543248Y-117041118D01*
X228549276Y-117043802D01*
X228549278Y-117043803D01*
X228701392Y-117111528D01*
X228717712Y-117118794D01*
X228811112Y-117138647D01*
X228898056Y-117157128D01*
X228898061Y-117157128D01*
X228904513Y-117158500D01*
X229095487Y-117158500D01*
X229101939Y-117157128D01*
X229101944Y-117157128D01*
X229188888Y-117138647D01*
X229282288Y-117118794D01*
X229298608Y-117111528D01*
X229450722Y-117043803D01*
X229450724Y-117043802D01*
X229456752Y-117041118D01*
X229486031Y-117019846D01*
X229602192Y-116935449D01*
X229611253Y-116928866D01*
X229615668Y-116923963D01*
X229620580Y-116919540D01*
X229621705Y-116920789D01*
X229675014Y-116887949D01*
X229708200Y-116883500D01*
X234291800Y-116883500D01*
X234359921Y-116903502D01*
X234379147Y-116919843D01*
X234379420Y-116919540D01*
X234384332Y-116923963D01*
X234388747Y-116928866D01*
X234397808Y-116935449D01*
X234513970Y-117019846D01*
X234543248Y-117041118D01*
X234549276Y-117043802D01*
X234549278Y-117043803D01*
X234701392Y-117111528D01*
X234717712Y-117118794D01*
X234811112Y-117138647D01*
X234898056Y-117157128D01*
X234898061Y-117157128D01*
X234904513Y-117158500D01*
X235095487Y-117158500D01*
X235101939Y-117157128D01*
X235101944Y-117157128D01*
X235188888Y-117138647D01*
X235282288Y-117118794D01*
X235298608Y-117111528D01*
X235450722Y-117043803D01*
X235450724Y-117043802D01*
X235456752Y-117041118D01*
X235611253Y-116928866D01*
X235641987Y-116894732D01*
X235734621Y-116791852D01*
X235734622Y-116791851D01*
X235739040Y-116786944D01*
X235815442Y-116654612D01*
X235831223Y-116627279D01*
X235831224Y-116627278D01*
X235834527Y-116621556D01*
X235893542Y-116439928D01*
X235913504Y-116250000D01*
X235893542Y-116060072D01*
X235834527Y-115878444D01*
X235821185Y-115855334D01*
X235742341Y-115718774D01*
X235739040Y-115713056D01*
X235727609Y-115700360D01*
X235615675Y-115576045D01*
X235615674Y-115576044D01*
X235611253Y-115571134D01*
X235456752Y-115458882D01*
X235450724Y-115456198D01*
X235450722Y-115456197D01*
X235288319Y-115383891D01*
X235288318Y-115383891D01*
X235282288Y-115381206D01*
X235188887Y-115361353D01*
X235101944Y-115342872D01*
X235101939Y-115342872D01*
X235095487Y-115341500D01*
X234904513Y-115341500D01*
X234898061Y-115342872D01*
X234898056Y-115342872D01*
X234811113Y-115361353D01*
X234717712Y-115381206D01*
X234711682Y-115383891D01*
X234711681Y-115383891D01*
X234549278Y-115456197D01*
X234549276Y-115456198D01*
X234543248Y-115458882D01*
X234537907Y-115462762D01*
X234537906Y-115462763D01*
X234450376Y-115526358D01*
X234388747Y-115571134D01*
X234384332Y-115576037D01*
X234379420Y-115580460D01*
X234378295Y-115579211D01*
X234324986Y-115612051D01*
X234291800Y-115616500D01*
X229708200Y-115616500D01*
X229640079Y-115596498D01*
X229620853Y-115580157D01*
X229620580Y-115580460D01*
X229615668Y-115576037D01*
X229611253Y-115571134D01*
X229549624Y-115526358D01*
X229462094Y-115462763D01*
X229462093Y-115462762D01*
X229456752Y-115458882D01*
X229450724Y-115456198D01*
X229450722Y-115456197D01*
X229288319Y-115383891D01*
X229288318Y-115383891D01*
X229282288Y-115381206D01*
X229188887Y-115361353D01*
X229101944Y-115342872D01*
X229101939Y-115342872D01*
X229095487Y-115341500D01*
X228904513Y-115341500D01*
X228898061Y-115342872D01*
X228898056Y-115342872D01*
X228811113Y-115361353D01*
X228717712Y-115381206D01*
X228711682Y-115383891D01*
X228711681Y-115383891D01*
X228549278Y-115456197D01*
X228549276Y-115456198D01*
X228543248Y-115458882D01*
X228388747Y-115571134D01*
X228384326Y-115576044D01*
X228384325Y-115576045D01*
X228272392Y-115700360D01*
X228260960Y-115713056D01*
X228257659Y-115718774D01*
X228178816Y-115855334D01*
X228165473Y-115878444D01*
X228106458Y-116060072D01*
X228086496Y-116250000D01*
X225176234Y-116250000D01*
X220698699Y-111772465D01*
X220664673Y-111710153D01*
X220669738Y-111639338D01*
X220713733Y-111581434D01*
X220851284Y-111481497D01*
X220856623Y-111477618D01*
X220861038Y-111472715D01*
X220865950Y-111468292D01*
X220867075Y-111469541D01*
X220920384Y-111436701D01*
X220953570Y-111432252D01*
X222484158Y-111432252D01*
X222552279Y-111452254D01*
X222573253Y-111469157D01*
X225746348Y-114642253D01*
X225753888Y-114650539D01*
X225758000Y-114657018D01*
X225763777Y-114662443D01*
X225807651Y-114703643D01*
X225810493Y-114706398D01*
X225830230Y-114726135D01*
X225833427Y-114728615D01*
X225842447Y-114736318D01*
X225874679Y-114766586D01*
X225881625Y-114770405D01*
X225881628Y-114770407D01*
X225892434Y-114776348D01*
X225908953Y-114787199D01*
X225924959Y-114799614D01*
X225932228Y-114802759D01*
X225932232Y-114802762D01*
X225965537Y-114817174D01*
X225976187Y-114822391D01*
X226014940Y-114843695D01*
X226022615Y-114845666D01*
X226022616Y-114845666D01*
X226034562Y-114848733D01*
X226053267Y-114855137D01*
X226071855Y-114863181D01*
X226079678Y-114864420D01*
X226079688Y-114864423D01*
X226115524Y-114870099D01*
X226127144Y-114872505D01*
X226162289Y-114881528D01*
X226169970Y-114883500D01*
X226190224Y-114883500D01*
X226209934Y-114885051D01*
X226229943Y-114888220D01*
X226237835Y-114887474D01*
X226273961Y-114884059D01*
X226285819Y-114883500D01*
X235685406Y-114883500D01*
X235753527Y-114903502D01*
X235774501Y-114920405D01*
X236519164Y-115665068D01*
X236553190Y-115727380D01*
X236555379Y-115740993D01*
X236567541Y-115856706D01*
X236572744Y-115906214D01*
X236631759Y-116087842D01*
X236727246Y-116253230D01*
X236731664Y-116258137D01*
X236731665Y-116258138D01*
X236829235Y-116366500D01*
X236855033Y-116395152D01*
X237009534Y-116507404D01*
X237015562Y-116510088D01*
X237015564Y-116510089D01*
X237177967Y-116582395D01*
X237183998Y-116585080D01*
X237251166Y-116599357D01*
X237364342Y-116623414D01*
X237364347Y-116623414D01*
X237370799Y-116624786D01*
X237561773Y-116624786D01*
X237568225Y-116623414D01*
X237568230Y-116623414D01*
X237681406Y-116599357D01*
X237748574Y-116585080D01*
X237754605Y-116582395D01*
X237917008Y-116510089D01*
X237917010Y-116510088D01*
X237923038Y-116507404D01*
X238077539Y-116395152D01*
X238103337Y-116366500D01*
X238200907Y-116258138D01*
X238200908Y-116258137D01*
X238205326Y-116253230D01*
X238300813Y-116087842D01*
X238359828Y-115906214D01*
X238363722Y-115869171D01*
X238379100Y-115722851D01*
X238379790Y-115716286D01*
X238365514Y-115580460D01*
X238360518Y-115532921D01*
X238360518Y-115532919D01*
X238359828Y-115526358D01*
X238300813Y-115344730D01*
X238205326Y-115179342D01*
X238127909Y-115093361D01*
X238081961Y-115042331D01*
X238081960Y-115042330D01*
X238077539Y-115037420D01*
X237923038Y-114925168D01*
X237917010Y-114922484D01*
X237917008Y-114922483D01*
X237754605Y-114850177D01*
X237754604Y-114850177D01*
X237748574Y-114847492D01*
X237655173Y-114827639D01*
X237568230Y-114809158D01*
X237568225Y-114809158D01*
X237561773Y-114807786D01*
X237505881Y-114807786D01*
X237437760Y-114787784D01*
X237416785Y-114770881D01*
X236968775Y-114322870D01*
X236503647Y-113857742D01*
X236496113Y-113849463D01*
X236492000Y-113842982D01*
X236442348Y-113796356D01*
X236439507Y-113793602D01*
X236419770Y-113773865D01*
X236416573Y-113771385D01*
X236407551Y-113763680D01*
X236375321Y-113733414D01*
X236368375Y-113729595D01*
X236368372Y-113729593D01*
X236357566Y-113723652D01*
X236341047Y-113712801D01*
X236340583Y-113712441D01*
X236325041Y-113700386D01*
X236317772Y-113697241D01*
X236317768Y-113697238D01*
X236284463Y-113682826D01*
X236273813Y-113677609D01*
X236235060Y-113656305D01*
X236215437Y-113651267D01*
X236196734Y-113644863D01*
X236185424Y-113639969D01*
X236185425Y-113639969D01*
X236178145Y-113636819D01*
X236170316Y-113635579D01*
X236168692Y-113635107D01*
X236108858Y-113596891D01*
X236079184Y-113532394D01*
X236089089Y-113462092D01*
X236112551Y-113430035D01*
X236111253Y-113428866D01*
X236234621Y-113291852D01*
X236234622Y-113291851D01*
X236239040Y-113286944D01*
X236334527Y-113121556D01*
X236393542Y-112939928D01*
X236413504Y-112750000D01*
X236393542Y-112560072D01*
X236334527Y-112378444D01*
X236239040Y-112213056D01*
X236215576Y-112186996D01*
X236115675Y-112076045D01*
X236115674Y-112076044D01*
X236111253Y-112071134D01*
X235956752Y-111958882D01*
X235950724Y-111956198D01*
X235950722Y-111956197D01*
X235788319Y-111883891D01*
X235788318Y-111883891D01*
X235782288Y-111881206D01*
X235688888Y-111861353D01*
X235601944Y-111842872D01*
X235601939Y-111842872D01*
X235595487Y-111841500D01*
X235404513Y-111841500D01*
X235398061Y-111842872D01*
X235398056Y-111842872D01*
X235311113Y-111861353D01*
X235217712Y-111881206D01*
X235211682Y-111883891D01*
X235211681Y-111883891D01*
X235049278Y-111956197D01*
X235049276Y-111956198D01*
X235043248Y-111958882D01*
X234888747Y-112071134D01*
X234884332Y-112076037D01*
X234879420Y-112080460D01*
X234878295Y-112079211D01*
X234824986Y-112112051D01*
X234791800Y-112116500D01*
X227509500Y-112116500D01*
X227441379Y-112096498D01*
X227394886Y-112042842D01*
X227383500Y-111990500D01*
X227383500Y-109034500D01*
X227403502Y-108966379D01*
X227457158Y-108919886D01*
X227509500Y-108908500D01*
X227595487Y-108908500D01*
X227601939Y-108907128D01*
X227601944Y-108907128D01*
X227688887Y-108888647D01*
X227782288Y-108868794D01*
X227788319Y-108866109D01*
X227950722Y-108793803D01*
X227950724Y-108793802D01*
X227956752Y-108791118D01*
X227966141Y-108784297D01*
X228089671Y-108694546D01*
X228111253Y-108678866D01*
X228115668Y-108673963D01*
X228120580Y-108669540D01*
X228121705Y-108670789D01*
X228175014Y-108637949D01*
X228208200Y-108633500D01*
X235791800Y-108633500D01*
X235859921Y-108653502D01*
X235879147Y-108669843D01*
X235879420Y-108669540D01*
X235884332Y-108673963D01*
X235888747Y-108678866D01*
X235910329Y-108694546D01*
X236033860Y-108784297D01*
X236043248Y-108791118D01*
X236049276Y-108793802D01*
X236049278Y-108793803D01*
X236211681Y-108866109D01*
X236217712Y-108868794D01*
X236311113Y-108888647D01*
X236398056Y-108907128D01*
X236398061Y-108907128D01*
X236404513Y-108908500D01*
X236595487Y-108908500D01*
X236601939Y-108907128D01*
X236601944Y-108907128D01*
X236688887Y-108888647D01*
X236782288Y-108868794D01*
X236788319Y-108866109D01*
X236950722Y-108793803D01*
X236950724Y-108793802D01*
X236956752Y-108791118D01*
X236966141Y-108784297D01*
X237049646Y-108723626D01*
X237111253Y-108678866D01*
X237239040Y-108536944D01*
X237334527Y-108371556D01*
X237393542Y-108189928D01*
X237413504Y-108000000D01*
X237407190Y-107939928D01*
X237394232Y-107816635D01*
X237394232Y-107816633D01*
X237393542Y-107810072D01*
X237334527Y-107628444D01*
X237239040Y-107463056D01*
X237111253Y-107321134D01*
X236956752Y-107208882D01*
X236950724Y-107206198D01*
X236950722Y-107206197D01*
X236788319Y-107133891D01*
X236788318Y-107133891D01*
X236782288Y-107131206D01*
X236688888Y-107111353D01*
X236601944Y-107092872D01*
X236601939Y-107092872D01*
X236595487Y-107091500D01*
X236404513Y-107091500D01*
X236398061Y-107092872D01*
X236398056Y-107092872D01*
X236311112Y-107111353D01*
X236217712Y-107131206D01*
X236211682Y-107133891D01*
X236211681Y-107133891D01*
X236049278Y-107206197D01*
X236049276Y-107206198D01*
X236043248Y-107208882D01*
X235888747Y-107321134D01*
X235884332Y-107326037D01*
X235879420Y-107330460D01*
X235878295Y-107329211D01*
X235824986Y-107362051D01*
X235791800Y-107366500D01*
X228208200Y-107366500D01*
X228140079Y-107346498D01*
X228120853Y-107330157D01*
X228120580Y-107330460D01*
X228115668Y-107326037D01*
X228111253Y-107321134D01*
X227956752Y-107208882D01*
X227950724Y-107206198D01*
X227950722Y-107206197D01*
X227788319Y-107133891D01*
X227788318Y-107133891D01*
X227782288Y-107131206D01*
X227775833Y-107129834D01*
X227775830Y-107129833D01*
X227762618Y-107127025D01*
X227700145Y-107093297D01*
X227665823Y-107031148D01*
X227662964Y-107005140D01*
X227663504Y-107000000D01*
X227651301Y-106883891D01*
X227644232Y-106816635D01*
X227644232Y-106816633D01*
X227643542Y-106810072D01*
X227641503Y-106803797D01*
X227641502Y-106803792D01*
X227639762Y-106798438D01*
X227637733Y-106727471D01*
X227674394Y-106666672D01*
X227738106Y-106635346D01*
X227759594Y-106633500D01*
X244435406Y-106633500D01*
X244503527Y-106653502D01*
X244524501Y-106670405D01*
X245044023Y-107189928D01*
X245552878Y-107698783D01*
X245586904Y-107761095D01*
X245589093Y-107774706D01*
X245606458Y-107939928D01*
X245665473Y-108121556D01*
X245760960Y-108286944D01*
X245888747Y-108428866D01*
X245936448Y-108463523D01*
X246010521Y-108517340D01*
X246043248Y-108541118D01*
X246049276Y-108543802D01*
X246049278Y-108543803D01*
X246183199Y-108603428D01*
X246217712Y-108618794D01*
X246307829Y-108637949D01*
X246398056Y-108657128D01*
X246398061Y-108657128D01*
X246404513Y-108658500D01*
X246595487Y-108658500D01*
X246601939Y-108657128D01*
X246601944Y-108657128D01*
X246692171Y-108637949D01*
X246782288Y-108618794D01*
X246816801Y-108603428D01*
X246950722Y-108543803D01*
X246950724Y-108543802D01*
X246956752Y-108541118D01*
X246989480Y-108517340D01*
X247063552Y-108463523D01*
X247111253Y-108428866D01*
X247239040Y-108286944D01*
X247334527Y-108121556D01*
X247393542Y-107939928D01*
X247406501Y-107816635D01*
X247412814Y-107756565D01*
X247413504Y-107750000D01*
X247393542Y-107560072D01*
X247334527Y-107378444D01*
X247325063Y-107362051D01*
X247294215Y-107308621D01*
X247239040Y-107213056D01*
X247219157Y-107190973D01*
X247115675Y-107076045D01*
X247115674Y-107076044D01*
X247111253Y-107071134D01*
X246956752Y-106958882D01*
X246950724Y-106956198D01*
X246950722Y-106956197D01*
X246788319Y-106883891D01*
X246788318Y-106883891D01*
X246782288Y-106881206D01*
X246688887Y-106861353D01*
X246601944Y-106842872D01*
X246601939Y-106842872D01*
X246595487Y-106841500D01*
X246539594Y-106841500D01*
X246471473Y-106821498D01*
X246450499Y-106804595D01*
X245866894Y-106220989D01*
X245253652Y-105607747D01*
X245246112Y-105599461D01*
X245242000Y-105592982D01*
X245192348Y-105546356D01*
X245189507Y-105543602D01*
X245169770Y-105523865D01*
X245166573Y-105521385D01*
X245157551Y-105513680D01*
X245144122Y-105501069D01*
X245125321Y-105483414D01*
X245118375Y-105479595D01*
X245118372Y-105479593D01*
X245107566Y-105473652D01*
X245091047Y-105462801D01*
X245090583Y-105462441D01*
X245075041Y-105450386D01*
X245067772Y-105447241D01*
X245067768Y-105447238D01*
X245034463Y-105432826D01*
X245023813Y-105427609D01*
X244985060Y-105406305D01*
X244965437Y-105401267D01*
X244946734Y-105394863D01*
X244935420Y-105389967D01*
X244935419Y-105389967D01*
X244928145Y-105386819D01*
X244920322Y-105385580D01*
X244920312Y-105385577D01*
X244884476Y-105379901D01*
X244872856Y-105377495D01*
X244837711Y-105368472D01*
X244837710Y-105368472D01*
X244830030Y-105366500D01*
X244809776Y-105366500D01*
X244790065Y-105364949D01*
X244777886Y-105363020D01*
X244770057Y-105361780D01*
X244740786Y-105364547D01*
X244726039Y-105365941D01*
X244714181Y-105366500D01*
X224828768Y-105366500D01*
X224817585Y-105365973D01*
X224810092Y-105364298D01*
X224802166Y-105364547D01*
X224802165Y-105364547D01*
X224742002Y-105366438D01*
X224738044Y-105366500D01*
X224710144Y-105366500D01*
X224706154Y-105367004D01*
X224694320Y-105367936D01*
X224650111Y-105369326D01*
X224642497Y-105371538D01*
X224642492Y-105371539D01*
X224630659Y-105374977D01*
X224611296Y-105378988D01*
X224591203Y-105381526D01*
X224583836Y-105384443D01*
X224583831Y-105384444D01*
X224550092Y-105397802D01*
X224538865Y-105401646D01*
X224496407Y-105413982D01*
X224489581Y-105418019D01*
X224478972Y-105424293D01*
X224461224Y-105432988D01*
X224442383Y-105440448D01*
X224435967Y-105445110D01*
X224435966Y-105445110D01*
X224406613Y-105466436D01*
X224396693Y-105472952D01*
X224365465Y-105491420D01*
X224365462Y-105491422D01*
X224358638Y-105495458D01*
X224344317Y-105509779D01*
X224329284Y-105522619D01*
X224312893Y-105534528D01*
X224286516Y-105566413D01*
X224284712Y-105568593D01*
X224276722Y-105577374D01*
X223857742Y-105996353D01*
X223849463Y-106003887D01*
X223842982Y-106008000D01*
X223796357Y-106057651D01*
X223793602Y-106060493D01*
X223773865Y-106080230D01*
X223771385Y-106083427D01*
X223763682Y-106092447D01*
X223733414Y-106124679D01*
X223729595Y-106131625D01*
X223729593Y-106131628D01*
X223723652Y-106142434D01*
X223712801Y-106158953D01*
X223700386Y-106174959D01*
X223697241Y-106182228D01*
X223697238Y-106182232D01*
X223682826Y-106215537D01*
X223677609Y-106226187D01*
X223656305Y-106264940D01*
X223654334Y-106272615D01*
X223654334Y-106272616D01*
X223651267Y-106284562D01*
X223644863Y-106303266D01*
X223636819Y-106321855D01*
X223635580Y-106329678D01*
X223635577Y-106329688D01*
X223629901Y-106365524D01*
X223627495Y-106377144D01*
X223616500Y-106419970D01*
X223616500Y-106440224D01*
X223614949Y-106459934D01*
X223611780Y-106479943D01*
X223612526Y-106487835D01*
X223615941Y-106523961D01*
X223616500Y-106535819D01*
X223616500Y-106547476D01*
X223596498Y-106615597D01*
X223584142Y-106631779D01*
X223510960Y-106713056D01*
X223463956Y-106794469D01*
X223436011Y-106842872D01*
X223415473Y-106878444D01*
X223356458Y-107060072D01*
X223355768Y-107066633D01*
X223355768Y-107066635D01*
X223348842Y-107132535D01*
X223336496Y-107250000D01*
X223334459Y-107249786D01*
X223317184Y-107308621D01*
X223263528Y-107355114D01*
X223211186Y-107366500D01*
X220544700Y-107366500D01*
X220476579Y-107346498D01*
X220457353Y-107330157D01*
X220457080Y-107330460D01*
X220452168Y-107326037D01*
X220447753Y-107321134D01*
X220293252Y-107208882D01*
X220287224Y-107206198D01*
X220287222Y-107206197D01*
X220124819Y-107133891D01*
X220124818Y-107133891D01*
X220118788Y-107131206D01*
X220025388Y-107111353D01*
X219938444Y-107092872D01*
X219938439Y-107092872D01*
X219931987Y-107091500D01*
X219741013Y-107091500D01*
X219734561Y-107092872D01*
X219734556Y-107092872D01*
X219647612Y-107111353D01*
X219554212Y-107131206D01*
X219548182Y-107133891D01*
X219548181Y-107133891D01*
X219385778Y-107206197D01*
X219385776Y-107206198D01*
X219379748Y-107208882D01*
X219225247Y-107321134D01*
X219220832Y-107326037D01*
X219215920Y-107330460D01*
X219214795Y-107329211D01*
X219161486Y-107362051D01*
X219128300Y-107366500D01*
X217958200Y-107366500D01*
X217890079Y-107346498D01*
X217870853Y-107330157D01*
X217870580Y-107330460D01*
X217865668Y-107326037D01*
X217861253Y-107321134D01*
X217706752Y-107208882D01*
X217700724Y-107206198D01*
X217700722Y-107206197D01*
X217538319Y-107133891D01*
X217538318Y-107133891D01*
X217532288Y-107131206D01*
X217438888Y-107111353D01*
X217351944Y-107092872D01*
X217351939Y-107092872D01*
X217345487Y-107091500D01*
X217154513Y-107091500D01*
X217148061Y-107092872D01*
X217148056Y-107092872D01*
X217061112Y-107111353D01*
X216967712Y-107131206D01*
X216961682Y-107133891D01*
X216961681Y-107133891D01*
X216799278Y-107206197D01*
X216799276Y-107206198D01*
X216793248Y-107208882D01*
X216638747Y-107321134D01*
X216510960Y-107463056D01*
X216415473Y-107628444D01*
X216356458Y-107810072D01*
X216355768Y-107816633D01*
X216355768Y-107816635D01*
X216342810Y-107939928D01*
X216336496Y-108000000D01*
X216356458Y-108189928D01*
X216415473Y-108371556D01*
X216510960Y-108536944D01*
X216638747Y-108678866D01*
X216680026Y-108708857D01*
X216680581Y-108709260D01*
X216723934Y-108765483D01*
X216730009Y-108836219D01*
X216696877Y-108899011D01*
X216685814Y-108909116D01*
X216573869Y-108999768D01*
X216538453Y-109028447D01*
X216534508Y-109033182D01*
X216474727Y-109104934D01*
X216411854Y-109180396D01*
X216317178Y-109354041D01*
X216301435Y-109404277D01*
X216270181Y-109504011D01*
X216258035Y-109542768D01*
X216257370Y-109548891D01*
X216257369Y-109548895D01*
X216245314Y-109659870D01*
X216236676Y-109739388D01*
X216253913Y-109936413D01*
X216255632Y-109942330D01*
X216255633Y-109942335D01*
X216277768Y-110018522D01*
X216309091Y-110126336D01*
X216400108Y-110301926D01*
X216408495Y-110312432D01*
X216494542Y-110420223D01*
X216494549Y-110420230D01*
X216496738Y-110422973D01*
X218127634Y-112053869D01*
X218161660Y-112116181D01*
X218156595Y-112186996D01*
X218114048Y-112243832D01*
X218047528Y-112268643D01*
X218038539Y-112268964D01*
X217953606Y-112268964D01*
X217934656Y-112267531D01*
X217920421Y-112265365D01*
X217920417Y-112265365D01*
X217913187Y-112264265D01*
X217905895Y-112264858D01*
X217905892Y-112264858D01*
X217860518Y-112268549D01*
X217850303Y-112268964D01*
X217842243Y-112268964D01*
X217828953Y-112270513D01*
X217814029Y-112272253D01*
X217809654Y-112272686D01*
X217744197Y-112278010D01*
X217744194Y-112278011D01*
X217736899Y-112278604D01*
X217729935Y-112280860D01*
X217723976Y-112282051D01*
X217718121Y-112283435D01*
X217710855Y-112284282D01*
X217642209Y-112309199D01*
X217638081Y-112310616D01*
X217575600Y-112330857D01*
X217575598Y-112330858D01*
X217568637Y-112333113D01*
X217562382Y-112336909D01*
X217556908Y-112339415D01*
X217551478Y-112342134D01*
X217544599Y-112344631D01*
X217538479Y-112348644D01*
X217538478Y-112348644D01*
X217483560Y-112384650D01*
X217479856Y-112386987D01*
X217417429Y-112424869D01*
X217409052Y-112432267D01*
X217409028Y-112432240D01*
X217406036Y-112434893D01*
X217402803Y-112437596D01*
X217396684Y-112441608D01*
X217391652Y-112446920D01*
X217343408Y-112497847D01*
X217341030Y-112500289D01*
X214621448Y-115219871D01*
X214559136Y-115253897D01*
X214488321Y-115248832D01*
X214431485Y-115206285D01*
X214406777Y-115141101D01*
X214403276Y-115098521D01*
X214402852Y-115093361D01*
X214348431Y-114876702D01*
X214259354Y-114671840D01*
X214138014Y-114484277D01*
X213987670Y-114319051D01*
X213983619Y-114315852D01*
X213983615Y-114315848D01*
X213816414Y-114183800D01*
X213816410Y-114183798D01*
X213812359Y-114180598D01*
X213771053Y-114157796D01*
X213721084Y-114107364D01*
X213706312Y-114037921D01*
X213731428Y-113971516D01*
X213758780Y-113944909D01*
X213802603Y-113913650D01*
X213937860Y-113817173D01*
X214096096Y-113659489D01*
X214110123Y-113639969D01*
X214223435Y-113482277D01*
X214226453Y-113478077D01*
X214234354Y-113462092D01*
X214323136Y-113282453D01*
X214323137Y-113282451D01*
X214325430Y-113277811D01*
X214390370Y-113064069D01*
X214419529Y-112842590D01*
X214421156Y-112776000D01*
X214402852Y-112553361D01*
X214348431Y-112336702D01*
X214259354Y-112131840D01*
X214208912Y-112053869D01*
X214140822Y-111948617D01*
X214140820Y-111948614D01*
X214138014Y-111944277D01*
X213987670Y-111779051D01*
X213983619Y-111775852D01*
X213983615Y-111775848D01*
X213816414Y-111643800D01*
X213816410Y-111643798D01*
X213812359Y-111640598D01*
X213771053Y-111617796D01*
X213721084Y-111567364D01*
X213706312Y-111497921D01*
X213731428Y-111431516D01*
X213758780Y-111404909D01*
X213802603Y-111373650D01*
X213937860Y-111277173D01*
X214096096Y-111119489D01*
X214155594Y-111036689D01*
X214223435Y-110942277D01*
X214226453Y-110938077D01*
X214325430Y-110737811D01*
X214390370Y-110524069D01*
X214419529Y-110302590D01*
X214419854Y-110289306D01*
X214421074Y-110239365D01*
X214421074Y-110239361D01*
X214421156Y-110236000D01*
X214402852Y-110013361D01*
X214348431Y-109796702D01*
X214259354Y-109591840D01*
X214204258Y-109506674D01*
X214140822Y-109408617D01*
X214140820Y-109408614D01*
X214138014Y-109404277D01*
X214122602Y-109387339D01*
X213990798Y-109242488D01*
X213959746Y-109178642D01*
X213968141Y-109108143D01*
X214013317Y-109053375D01*
X214039761Y-109039706D01*
X214146297Y-108999767D01*
X214154705Y-108996615D01*
X214271261Y-108909261D01*
X214358615Y-108792705D01*
X214409745Y-108656316D01*
X214416500Y-108594134D01*
X214416500Y-106797866D01*
X214409745Y-106735684D01*
X214358615Y-106599295D01*
X214271261Y-106482739D01*
X214154705Y-106395385D01*
X214018316Y-106344255D01*
X213956134Y-106337500D01*
X212159866Y-106337500D01*
X212097684Y-106344255D01*
X211961295Y-106395385D01*
X211844739Y-106482739D01*
X211757385Y-106599295D01*
X211706255Y-106735684D01*
X211699500Y-106797866D01*
X211699500Y-108594134D01*
X211706255Y-108656316D01*
X211757385Y-108792705D01*
X211844739Y-108909261D01*
X211961295Y-108996615D01*
X211969704Y-108999767D01*
X211969705Y-108999768D01*
X212078451Y-109040535D01*
X212135216Y-109083176D01*
X212159916Y-109149738D01*
X212144709Y-109219087D01*
X212125316Y-109245568D01*
X211998629Y-109378138D01*
X211995715Y-109382410D01*
X211995714Y-109382411D01*
X211989872Y-109390975D01*
X211872743Y-109562680D01*
X211778688Y-109765305D01*
X211718989Y-109980570D01*
X211695251Y-110202695D01*
X211695548Y-110207848D01*
X211695548Y-110207851D01*
X211705514Y-110380696D01*
X211708110Y-110425715D01*
X211709247Y-110430761D01*
X211709248Y-110430767D01*
X211718209Y-110470529D01*
X211757222Y-110643639D01*
X211841266Y-110850616D01*
X211957987Y-111041088D01*
X212104250Y-111209938D01*
X212276126Y-111352632D01*
X212346595Y-111393811D01*
X212349445Y-111395476D01*
X212398169Y-111447114D01*
X212411240Y-111516897D01*
X212384509Y-111582669D01*
X212344055Y-111616027D01*
X212331607Y-111622507D01*
X212327474Y-111625610D01*
X212327471Y-111625612D01*
X212214873Y-111710153D01*
X212152965Y-111756635D01*
X211998629Y-111918138D01*
X211872743Y-112102680D01*
X211857003Y-112136590D01*
X211788447Y-112284282D01*
X211778688Y-112305305D01*
X211718989Y-112520570D01*
X211695251Y-112742695D01*
X211695548Y-112747848D01*
X211695548Y-112747851D01*
X211701011Y-112842590D01*
X211708110Y-112965715D01*
X211709247Y-112970761D01*
X211709248Y-112970767D01*
X211729119Y-113058939D01*
X211757222Y-113183639D01*
X211818673Y-113334976D01*
X211838377Y-113383500D01*
X211841266Y-113390616D01*
X211843965Y-113395020D01*
X211930936Y-113536944D01*
X211957987Y-113581088D01*
X212104250Y-113749938D01*
X212276126Y-113892632D01*
X212300933Y-113907128D01*
X212349445Y-113935476D01*
X212398169Y-113987114D01*
X212411240Y-114056897D01*
X212384509Y-114122669D01*
X212344055Y-114156027D01*
X212331607Y-114162507D01*
X212327474Y-114165610D01*
X212327471Y-114165612D01*
X212303247Y-114183800D01*
X212152965Y-114296635D01*
X211998629Y-114458138D01*
X211872743Y-114642680D01*
X211832857Y-114728608D01*
X211781207Y-114839879D01*
X211778688Y-114845305D01*
X211718989Y-115060570D01*
X211695251Y-115282695D01*
X211695548Y-115287848D01*
X211695548Y-115287851D01*
X211698828Y-115344730D01*
X211708110Y-115505715D01*
X211709247Y-115510761D01*
X211709248Y-115510767D01*
X211711347Y-115520080D01*
X211757222Y-115723639D01*
X211812345Y-115859391D01*
X211828693Y-115899651D01*
X211841266Y-115930616D01*
X211957987Y-116121088D01*
X212104250Y-116289938D01*
X212276126Y-116432632D01*
X212324149Y-116460694D01*
X212349445Y-116475476D01*
X212398169Y-116527114D01*
X212411240Y-116596897D01*
X212384509Y-116662669D01*
X212344055Y-116696027D01*
X212331607Y-116702507D01*
X212327474Y-116705610D01*
X212327471Y-116705612D01*
X212165471Y-116827245D01*
X212152965Y-116836635D01*
X212149393Y-116840373D01*
X212019270Y-116976539D01*
X211998629Y-116998138D01*
X211995715Y-117002410D01*
X211995714Y-117002411D01*
X211934002Y-117092878D01*
X211872743Y-117182680D01*
X211827988Y-117279097D01*
X211788996Y-117363099D01*
X211778688Y-117385305D01*
X211718989Y-117600570D01*
X211695251Y-117822695D01*
X210500000Y-117822695D01*
X210500000Y-110057351D01*
X210520002Y-109989230D01*
X210526815Y-109979645D01*
X210565462Y-109930316D01*
X210565464Y-109930313D01*
X210567816Y-109927311D01*
X210677711Y-109745523D01*
X210722812Y-109670917D01*
X210722814Y-109670913D01*
X210724783Y-109667656D01*
X210805998Y-109487204D01*
X210847743Y-109394451D01*
X210847745Y-109394445D01*
X210849307Y-109390975D01*
X210902869Y-109219087D01*
X210938441Y-109104934D01*
X210938441Y-109104933D01*
X210939573Y-109101301D01*
X210994265Y-108802858D01*
X210999058Y-108723626D01*
X211010721Y-108530790D01*
X211012239Y-108517483D01*
X211012263Y-108517340D01*
X211013071Y-108512539D01*
X211013224Y-108500000D01*
X211009273Y-108472412D01*
X211008000Y-108454549D01*
X211008000Y-100134000D01*
X211028002Y-100065879D01*
X211081658Y-100019386D01*
X211134000Y-100008000D01*
X251366000Y-100008000D01*
X251434121Y-100028002D01*
G37*
G04 #@! TD.AperFunction*
G04 #@! TA.AperFunction,Conductor*
G36*
X205934121Y-100028002D02*
G01*
X205980614Y-100081658D01*
X205992000Y-100134000D01*
X205992000Y-108446793D01*
X205990254Y-108467697D01*
X205986929Y-108487461D01*
X205986776Y-108500000D01*
X205987466Y-108504815D01*
X205987627Y-108507290D01*
X205988195Y-108512885D01*
X206005505Y-108799062D01*
X206005735Y-108802858D01*
X206060427Y-109101301D01*
X206061559Y-109104933D01*
X206061559Y-109104934D01*
X206066191Y-109119799D01*
X206150693Y-109390975D01*
X206152255Y-109394445D01*
X206152257Y-109394451D01*
X206190254Y-109478876D01*
X206275217Y-109667656D01*
X206277186Y-109670913D01*
X206277188Y-109670917D01*
X206294036Y-109698786D01*
X206432184Y-109927311D01*
X206434536Y-109930313D01*
X206434538Y-109930316D01*
X206473185Y-109979645D01*
X206499451Y-110045604D01*
X206500000Y-110057351D01*
X206500000Y-121942649D01*
X206479998Y-122010770D01*
X206473185Y-122020355D01*
X206456534Y-122041609D01*
X206432184Y-122072689D01*
X206275217Y-122332344D01*
X206273653Y-122335820D01*
X206189434Y-122522947D01*
X206150693Y-122609025D01*
X206060427Y-122898699D01*
X206005735Y-123197142D01*
X206005506Y-123200933D01*
X206005505Y-123200939D01*
X205989279Y-123469210D01*
X205987761Y-123482517D01*
X205986929Y-123487461D01*
X205986776Y-123500000D01*
X205987466Y-123504815D01*
X205990727Y-123527588D01*
X205992000Y-123545451D01*
X205992000Y-131866000D01*
X205971998Y-131934121D01*
X205918342Y-131980614D01*
X205866000Y-131992000D01*
X165634000Y-131992000D01*
X165565879Y-131971998D01*
X165519386Y-131918342D01*
X165508000Y-131866000D01*
X165508000Y-127500000D01*
X165786411Y-127500000D01*
X165806754Y-127888176D01*
X165807267Y-127891416D01*
X165807268Y-127891424D01*
X165827932Y-128021885D01*
X165867562Y-128272099D01*
X165968167Y-128647562D01*
X165969352Y-128650650D01*
X165969353Y-128650652D01*
X166001819Y-128735229D01*
X166107468Y-129010453D01*
X166108966Y-129013393D01*
X166238665Y-129267940D01*
X166283938Y-129356794D01*
X166285734Y-129359560D01*
X166285736Y-129359563D01*
X166464338Y-129634588D01*
X166495643Y-129682793D01*
X166740266Y-129984876D01*
X167015124Y-130259734D01*
X167317207Y-130504357D01*
X167319970Y-130506152D01*
X167319971Y-130506152D01*
X167638712Y-130713144D01*
X167643205Y-130716062D01*
X167646139Y-130717557D01*
X167646146Y-130717561D01*
X167986607Y-130891034D01*
X167989547Y-130892532D01*
X168352438Y-131031833D01*
X168727901Y-131132438D01*
X168931793Y-131164732D01*
X169108576Y-131192732D01*
X169108584Y-131192733D01*
X169111824Y-131193246D01*
X169500000Y-131213589D01*
X169888176Y-131193246D01*
X169891416Y-131192733D01*
X169891424Y-131192732D01*
X170068207Y-131164732D01*
X170272099Y-131132438D01*
X170647562Y-131031833D01*
X171010453Y-130892532D01*
X171013393Y-130891034D01*
X171353854Y-130717561D01*
X171353861Y-130717557D01*
X171356795Y-130716062D01*
X171361289Y-130713144D01*
X171680029Y-130506152D01*
X171680030Y-130506152D01*
X171682793Y-130504357D01*
X171937456Y-130298134D01*
X180289000Y-130298134D01*
X180295755Y-130360316D01*
X180346885Y-130496705D01*
X180434239Y-130613261D01*
X180550795Y-130700615D01*
X180687184Y-130751745D01*
X180749366Y-130758500D01*
X182750634Y-130758500D01*
X182812816Y-130751745D01*
X182949205Y-130700615D01*
X183065761Y-130613261D01*
X183153115Y-130496705D01*
X183160573Y-130476811D01*
X183203213Y-130420047D01*
X183269774Y-130395346D01*
X183339123Y-130410553D01*
X183356647Y-130422158D01*
X183474670Y-130515367D01*
X183474675Y-130515370D01*
X183478724Y-130518568D01*
X183483240Y-130521061D01*
X183483243Y-130521063D01*
X183684526Y-130632177D01*
X183684530Y-130632179D01*
X183689050Y-130634674D01*
X183693919Y-130636398D01*
X183693923Y-130636400D01*
X183910640Y-130713144D01*
X183910644Y-130713145D01*
X183915515Y-130714870D01*
X183920608Y-130715777D01*
X183920611Y-130715778D01*
X184146948Y-130756095D01*
X184146954Y-130756096D01*
X184152037Y-130757001D01*
X184239400Y-130758068D01*
X184387093Y-130759873D01*
X184387095Y-130759873D01*
X184392263Y-130759936D01*
X184629744Y-130723596D01*
X184741997Y-130686906D01*
X184853183Y-130650566D01*
X184853189Y-130650563D01*
X184858101Y-130648958D01*
X184862687Y-130646571D01*
X184862691Y-130646569D01*
X185066607Y-130540416D01*
X185071200Y-130538025D01*
X185114191Y-130505746D01*
X185259185Y-130396882D01*
X185259188Y-130396880D01*
X185263320Y-130393777D01*
X185389432Y-130261809D01*
X185425730Y-130223825D01*
X185425731Y-130223824D01*
X185429301Y-130220088D01*
X185454840Y-130182649D01*
X185509751Y-130137648D01*
X185580275Y-130129477D01*
X185644022Y-130160731D01*
X185664716Y-130185210D01*
X185666085Y-130187326D01*
X185672378Y-130195498D01*
X185827050Y-130365480D01*
X185834583Y-130372506D01*
X186014944Y-130514945D01*
X186023531Y-130520650D01*
X186224722Y-130631714D01*
X186234134Y-130635944D01*
X186450768Y-130712659D01*
X186460739Y-130715293D01*
X186558163Y-130732647D01*
X186571460Y-130731187D01*
X186575543Y-130718096D01*
X187084000Y-130718096D01*
X187087918Y-130731440D01*
X187102194Y-130733427D01*
X187164515Y-130723890D01*
X187174543Y-130721501D01*
X187392988Y-130650102D01*
X187402497Y-130646105D01*
X187606344Y-130539989D01*
X187615069Y-130534495D01*
X187798852Y-130396507D01*
X187806559Y-130389664D01*
X187965339Y-130223509D01*
X187971826Y-130215499D01*
X188101330Y-130025653D01*
X188106429Y-130016679D01*
X188203187Y-129808231D01*
X188206750Y-129798544D01*
X188268165Y-129577092D01*
X188270096Y-129566970D01*
X188274901Y-129522013D01*
X188272253Y-129507392D01*
X188259876Y-129504000D01*
X187102115Y-129504000D01*
X187086876Y-129508475D01*
X187085671Y-129509865D01*
X187084000Y-129517548D01*
X187084000Y-130718096D01*
X186575543Y-130718096D01*
X186576000Y-130716630D01*
X186576000Y-128977885D01*
X187084000Y-128977885D01*
X187088475Y-128993124D01*
X187089865Y-128994329D01*
X187097548Y-128996000D01*
X188260412Y-128996000D01*
X188275141Y-128991675D01*
X188277202Y-128979889D01*
X188276249Y-128968296D01*
X188274567Y-128958134D01*
X188218578Y-128735229D01*
X188215259Y-128725481D01*
X188123615Y-128514711D01*
X188118749Y-128505636D01*
X187993915Y-128312673D01*
X187987622Y-128304502D01*
X187832950Y-128134520D01*
X187825417Y-128127494D01*
X187645056Y-127985055D01*
X187636469Y-127979350D01*
X187435278Y-127868286D01*
X187425866Y-127864056D01*
X187209232Y-127787341D01*
X187199261Y-127784707D01*
X187101837Y-127767353D01*
X187088540Y-127768813D01*
X187084000Y-127783370D01*
X187084000Y-128977885D01*
X186576000Y-128977885D01*
X186576000Y-127781904D01*
X186572082Y-127768560D01*
X186557806Y-127766573D01*
X186495485Y-127776110D01*
X186485457Y-127778499D01*
X186267012Y-127849898D01*
X186257503Y-127853895D01*
X186053656Y-127960011D01*
X186044931Y-127965505D01*
X185861148Y-128103493D01*
X185853441Y-128110336D01*
X185694661Y-128276491D01*
X185688177Y-128284498D01*
X185665763Y-128317356D01*
X185610852Y-128362359D01*
X185540328Y-128370532D01*
X185476580Y-128339278D01*
X185455884Y-128314796D01*
X185454311Y-128312365D01*
X185451502Y-128308023D01*
X185289814Y-128130330D01*
X185212983Y-128069653D01*
X185105330Y-127984633D01*
X185105325Y-127984630D01*
X185101276Y-127981432D01*
X185096760Y-127978939D01*
X185096757Y-127978937D01*
X184895474Y-127867823D01*
X184895470Y-127867821D01*
X184890950Y-127865326D01*
X184886081Y-127863602D01*
X184886077Y-127863600D01*
X184669360Y-127786856D01*
X184669356Y-127786855D01*
X184664485Y-127785130D01*
X184659392Y-127784223D01*
X184659389Y-127784222D01*
X184433052Y-127743905D01*
X184433046Y-127743904D01*
X184427963Y-127742999D01*
X184335474Y-127741869D01*
X184192907Y-127740127D01*
X184192905Y-127740127D01*
X184187737Y-127740064D01*
X183950256Y-127776404D01*
X183838003Y-127813094D01*
X183726817Y-127849434D01*
X183726811Y-127849437D01*
X183721899Y-127851042D01*
X183717313Y-127853429D01*
X183717309Y-127853431D01*
X183513393Y-127959584D01*
X183508800Y-127961975D01*
X183353717Y-128078415D01*
X183287235Y-128103320D01*
X183217839Y-128088328D01*
X183167565Y-128038198D01*
X183160085Y-128021885D01*
X183156269Y-128011707D01*
X183156267Y-128011703D01*
X183153115Y-128003295D01*
X183065761Y-127886739D01*
X182949205Y-127799385D01*
X182812816Y-127748255D01*
X182750634Y-127741500D01*
X180749366Y-127741500D01*
X180687184Y-127748255D01*
X180550795Y-127799385D01*
X180434239Y-127886739D01*
X180346885Y-128003295D01*
X180295755Y-128139684D01*
X180289000Y-128201866D01*
X180289000Y-130298134D01*
X171937456Y-130298134D01*
X171984876Y-130259734D01*
X172259734Y-129984876D01*
X172504357Y-129682793D01*
X172535662Y-129634588D01*
X172714264Y-129359563D01*
X172714266Y-129359560D01*
X172716062Y-129356794D01*
X172761336Y-129267940D01*
X172891034Y-129013393D01*
X172892532Y-129010453D01*
X172998181Y-128735229D01*
X173030647Y-128650652D01*
X173030648Y-128650650D01*
X173031833Y-128647562D01*
X173132438Y-128272099D01*
X173172068Y-128021885D01*
X173192732Y-127891424D01*
X173192733Y-127891416D01*
X173193246Y-127888176D01*
X173213589Y-127500000D01*
X173193246Y-127111824D01*
X173188211Y-127080030D01*
X173164732Y-126931793D01*
X173135938Y-126750000D01*
X199586496Y-126750000D01*
X199606458Y-126939928D01*
X199665473Y-127121556D01*
X199760960Y-127286944D01*
X199765378Y-127291851D01*
X199765379Y-127291852D01*
X199877742Y-127416644D01*
X199888747Y-127428866D01*
X200043248Y-127541118D01*
X200049276Y-127543802D01*
X200049278Y-127543803D01*
X200123537Y-127576865D01*
X200217712Y-127618794D01*
X200297093Y-127635667D01*
X200398056Y-127657128D01*
X200398061Y-127657128D01*
X200404513Y-127658500D01*
X200595487Y-127658500D01*
X200601939Y-127657128D01*
X200601944Y-127657128D01*
X200702907Y-127635667D01*
X200782288Y-127618794D01*
X200876463Y-127576865D01*
X200950722Y-127543803D01*
X200950724Y-127543802D01*
X200956752Y-127541118D01*
X200966919Y-127533731D01*
X201033785Y-127509873D01*
X201102937Y-127525952D01*
X201152418Y-127576865D01*
X201166980Y-127635667D01*
X201166980Y-128173889D01*
X201166453Y-128185072D01*
X201164778Y-128192565D01*
X201165027Y-128200491D01*
X201165027Y-128200492D01*
X201166918Y-128260642D01*
X201166980Y-128264601D01*
X201166980Y-128292512D01*
X201167477Y-128296446D01*
X201167477Y-128296447D01*
X201167485Y-128296512D01*
X201168418Y-128308349D01*
X201169807Y-128352545D01*
X201175033Y-128370532D01*
X201175458Y-128371995D01*
X201179467Y-128391356D01*
X201182006Y-128411453D01*
X201184925Y-128418824D01*
X201184925Y-128418826D01*
X201198284Y-128452568D01*
X201202129Y-128463798D01*
X201214462Y-128506249D01*
X201218495Y-128513068D01*
X201218497Y-128513073D01*
X201224773Y-128523684D01*
X201233468Y-128541432D01*
X201240928Y-128560273D01*
X201245590Y-128566689D01*
X201245590Y-128566690D01*
X201266916Y-128596043D01*
X201273432Y-128605963D01*
X201295938Y-128644018D01*
X201310259Y-128658339D01*
X201323100Y-128673373D01*
X201335008Y-128689763D01*
X201333892Y-128690574D01*
X201362161Y-128746438D01*
X201363570Y-128756170D01*
X201380370Y-128916016D01*
X201439385Y-129097644D01*
X201534872Y-129263032D01*
X201539290Y-129267939D01*
X201539291Y-129267940D01*
X201658237Y-129400043D01*
X201662659Y-129404954D01*
X201761755Y-129476952D01*
X201798984Y-129504000D01*
X201817160Y-129517206D01*
X201823188Y-129519890D01*
X201823190Y-129519891D01*
X201985593Y-129592197D01*
X201991624Y-129594882D01*
X202085025Y-129614735D01*
X202171968Y-129633216D01*
X202171973Y-129633216D01*
X202178425Y-129634588D01*
X202369399Y-129634588D01*
X202375851Y-129633216D01*
X202375856Y-129633216D01*
X202462799Y-129614735D01*
X202556200Y-129594882D01*
X202562231Y-129592197D01*
X202724634Y-129519891D01*
X202724636Y-129519890D01*
X202730664Y-129517206D01*
X202748841Y-129504000D01*
X202786069Y-129476952D01*
X202885165Y-129404954D01*
X202889587Y-129400043D01*
X203008533Y-129267940D01*
X203008534Y-129267939D01*
X203012952Y-129263032D01*
X203108439Y-129097644D01*
X203167454Y-128916016D01*
X203184819Y-128750794D01*
X203211832Y-128685138D01*
X203221034Y-128674870D01*
X203792412Y-128103493D01*
X204392253Y-127503652D01*
X204400539Y-127496112D01*
X204407018Y-127492000D01*
X204453644Y-127442348D01*
X204456398Y-127439507D01*
X204476135Y-127419770D01*
X204478615Y-127416573D01*
X204486320Y-127407551D01*
X204511159Y-127381100D01*
X204516586Y-127375321D01*
X204520405Y-127368375D01*
X204520407Y-127368372D01*
X204526348Y-127357566D01*
X204537199Y-127341047D01*
X204544758Y-127331301D01*
X204549614Y-127325041D01*
X204552759Y-127317772D01*
X204552762Y-127317768D01*
X204567174Y-127284463D01*
X204572391Y-127273813D01*
X204593695Y-127235060D01*
X204598733Y-127215437D01*
X204605137Y-127196734D01*
X204610033Y-127185420D01*
X204610033Y-127185419D01*
X204613181Y-127178145D01*
X204614420Y-127170322D01*
X204614423Y-127170312D01*
X204620099Y-127134476D01*
X204622505Y-127122856D01*
X204631528Y-127087711D01*
X204631528Y-127087710D01*
X204633500Y-127080030D01*
X204633500Y-127059776D01*
X204635051Y-127040065D01*
X204636980Y-127027886D01*
X204638220Y-127020057D01*
X204634059Y-126976038D01*
X204633500Y-126964181D01*
X204633500Y-125952524D01*
X204653502Y-125884403D01*
X204665858Y-125868221D01*
X204739040Y-125786944D01*
X204834527Y-125621556D01*
X204893542Y-125439928D01*
X204913504Y-125250000D01*
X204893542Y-125060072D01*
X204834527Y-124878444D01*
X204739040Y-124713056D01*
X204611253Y-124571134D01*
X204456752Y-124458882D01*
X204450724Y-124456198D01*
X204450722Y-124456197D01*
X204288319Y-124383891D01*
X204288318Y-124383891D01*
X204282288Y-124381206D01*
X204188887Y-124361353D01*
X204101944Y-124342872D01*
X204101939Y-124342872D01*
X204095487Y-124341500D01*
X203904513Y-124341500D01*
X203898061Y-124342872D01*
X203898056Y-124342872D01*
X203811113Y-124361353D01*
X203717712Y-124381206D01*
X203711682Y-124383891D01*
X203711681Y-124383891D01*
X203549278Y-124456197D01*
X203549276Y-124456198D01*
X203543248Y-124458882D01*
X203388747Y-124571134D01*
X203260960Y-124713056D01*
X203165473Y-124878444D01*
X203106458Y-125060072D01*
X203086496Y-125250000D01*
X203106458Y-125439928D01*
X203165473Y-125621556D01*
X203260960Y-125786944D01*
X203334137Y-125868215D01*
X203364853Y-125932221D01*
X203366500Y-125952524D01*
X203366500Y-126685405D01*
X203346498Y-126753526D01*
X203329595Y-126774501D01*
X202649075Y-127455020D01*
X202586763Y-127489045D01*
X202515947Y-127483980D01*
X202459112Y-127441433D01*
X202434301Y-127374913D01*
X202433980Y-127365924D01*
X202433980Y-123440836D01*
X202453982Y-123372715D01*
X202507638Y-123326222D01*
X202577912Y-123316118D01*
X202642492Y-123345612D01*
X202669098Y-123377835D01*
X202760960Y-123536944D01*
X202765378Y-123541851D01*
X202765379Y-123541852D01*
X202884325Y-123673955D01*
X202888747Y-123678866D01*
X202918386Y-123700400D01*
X203015414Y-123770895D01*
X203043248Y-123791118D01*
X203049276Y-123793802D01*
X203049278Y-123793803D01*
X203185263Y-123854347D01*
X203217712Y-123868794D01*
X203311112Y-123888647D01*
X203398056Y-123907128D01*
X203398061Y-123907128D01*
X203404513Y-123908500D01*
X203595487Y-123908500D01*
X203601939Y-123907128D01*
X203601944Y-123907128D01*
X203688888Y-123888647D01*
X203782288Y-123868794D01*
X203814737Y-123854347D01*
X203950722Y-123793803D01*
X203950724Y-123793802D01*
X203956752Y-123791118D01*
X203984587Y-123770895D01*
X204081614Y-123700400D01*
X204111253Y-123678866D01*
X204115675Y-123673955D01*
X204234621Y-123541852D01*
X204234622Y-123541851D01*
X204239040Y-123536944D01*
X204321733Y-123393716D01*
X204331223Y-123377279D01*
X204331224Y-123377278D01*
X204334527Y-123371556D01*
X204393542Y-123189928D01*
X204413504Y-123000000D01*
X204393542Y-122810072D01*
X204334527Y-122628444D01*
X204323316Y-122609025D01*
X204251638Y-122484876D01*
X204239040Y-122463056D01*
X204165863Y-122381785D01*
X204135147Y-122317779D01*
X204133500Y-122297476D01*
X204133500Y-122279174D01*
X204134027Y-122267991D01*
X204135702Y-122260498D01*
X204133562Y-122192407D01*
X204133500Y-122188450D01*
X204133500Y-122160550D01*
X204132996Y-122156559D01*
X204132063Y-122144717D01*
X204130923Y-122108442D01*
X204130674Y-122100517D01*
X204125021Y-122081058D01*
X204121012Y-122061699D01*
X204120846Y-122060389D01*
X204118474Y-122041609D01*
X204115558Y-122034243D01*
X204115556Y-122034237D01*
X204102200Y-122000504D01*
X204098355Y-121989274D01*
X204088230Y-121954423D01*
X204088230Y-121954422D01*
X204086019Y-121946813D01*
X204081987Y-121939995D01*
X204081984Y-121939988D01*
X204077561Y-121932510D01*
X204060101Y-121863694D01*
X204082618Y-121796363D01*
X204137962Y-121751894D01*
X204170004Y-121743392D01*
X204278184Y-121729534D01*
X204288262Y-121727392D01*
X204492255Y-121666191D01*
X204501842Y-121662433D01*
X204693095Y-121568739D01*
X204701945Y-121563464D01*
X204875328Y-121439792D01*
X204883200Y-121433139D01*
X205034052Y-121282812D01*
X205040730Y-121274965D01*
X205165003Y-121102020D01*
X205170313Y-121093183D01*
X205264670Y-120902267D01*
X205268469Y-120892672D01*
X205330377Y-120688910D01*
X205332555Y-120678837D01*
X205333986Y-120667962D01*
X205331775Y-120653778D01*
X205318617Y-120650000D01*
X203872000Y-120650000D01*
X203803879Y-120629998D01*
X203757386Y-120576342D01*
X203746000Y-120524000D01*
X203746000Y-120268000D01*
X203766002Y-120199879D01*
X203819658Y-120153386D01*
X203872000Y-120142000D01*
X205318344Y-120142000D01*
X205331875Y-120138027D01*
X205333180Y-120128947D01*
X205291214Y-119961875D01*
X205287894Y-119952124D01*
X205202972Y-119756814D01*
X205198105Y-119747739D01*
X205082426Y-119568926D01*
X205076136Y-119560757D01*
X204932806Y-119403240D01*
X204925273Y-119396215D01*
X204758139Y-119264222D01*
X204749556Y-119258520D01*
X204712602Y-119238120D01*
X204662631Y-119187687D01*
X204647859Y-119118245D01*
X204672975Y-119051839D01*
X204700327Y-119025232D01*
X204723797Y-119008491D01*
X204879860Y-118897173D01*
X204921549Y-118855630D01*
X205034435Y-118743137D01*
X205038096Y-118739489D01*
X205168453Y-118558077D01*
X205202323Y-118489547D01*
X205265136Y-118362453D01*
X205265137Y-118362451D01*
X205267430Y-118357811D01*
X205332370Y-118144069D01*
X205361529Y-117922590D01*
X205362608Y-117878444D01*
X205363074Y-117859365D01*
X205363074Y-117859361D01*
X205363156Y-117856000D01*
X205344852Y-117633361D01*
X205290431Y-117416702D01*
X205201354Y-117211840D01*
X205080014Y-117024277D01*
X204929670Y-116859051D01*
X204925619Y-116855852D01*
X204925615Y-116855848D01*
X204758414Y-116723800D01*
X204758410Y-116723798D01*
X204754359Y-116720598D01*
X204713053Y-116697796D01*
X204663084Y-116647364D01*
X204648312Y-116577921D01*
X204673428Y-116511516D01*
X204700780Y-116484909D01*
X204744603Y-116453650D01*
X204879860Y-116357173D01*
X204902357Y-116334755D01*
X205012882Y-116224615D01*
X205038096Y-116199489D01*
X205168453Y-116018077D01*
X205234358Y-115884729D01*
X205265136Y-115822453D01*
X205265137Y-115822451D01*
X205267430Y-115817811D01*
X205332370Y-115604069D01*
X205361529Y-115382590D01*
X205362162Y-115356696D01*
X205363074Y-115319365D01*
X205363074Y-115319361D01*
X205363156Y-115316000D01*
X205344852Y-115093361D01*
X205290431Y-114876702D01*
X205201354Y-114671840D01*
X205080014Y-114484277D01*
X204929670Y-114319051D01*
X204925619Y-114315852D01*
X204925615Y-114315848D01*
X204758414Y-114183800D01*
X204758410Y-114183798D01*
X204754359Y-114180598D01*
X204713053Y-114157796D01*
X204663084Y-114107364D01*
X204648312Y-114037921D01*
X204673428Y-113971516D01*
X204700780Y-113944909D01*
X204744603Y-113913650D01*
X204879860Y-113817173D01*
X205038096Y-113659489D01*
X205046667Y-113647562D01*
X205165435Y-113482277D01*
X205168453Y-113478077D01*
X205267430Y-113277811D01*
X205332370Y-113064069D01*
X205361529Y-112842590D01*
X205363156Y-112776000D01*
X205344852Y-112553361D01*
X205290431Y-112336702D01*
X205201354Y-112131840D01*
X205080014Y-111944277D01*
X204929670Y-111779051D01*
X204925619Y-111775852D01*
X204925615Y-111775848D01*
X204758414Y-111643800D01*
X204758410Y-111643798D01*
X204754359Y-111640598D01*
X204713053Y-111617796D01*
X204663084Y-111567364D01*
X204648312Y-111497921D01*
X204673428Y-111431516D01*
X204700780Y-111404909D01*
X204778674Y-111349348D01*
X204879860Y-111277173D01*
X205038096Y-111119489D01*
X205129252Y-110992632D01*
X205165435Y-110942277D01*
X205168453Y-110938077D01*
X205267430Y-110737811D01*
X205305984Y-110610914D01*
X205330865Y-110529023D01*
X205330865Y-110529021D01*
X205332370Y-110524069D01*
X205361529Y-110302590D01*
X205363156Y-110236000D01*
X205344852Y-110013361D01*
X205290431Y-109796702D01*
X205201354Y-109591840D01*
X205080014Y-109404277D01*
X204991168Y-109306636D01*
X204932798Y-109242488D01*
X204901746Y-109178642D01*
X204910141Y-109108143D01*
X204955317Y-109053375D01*
X204981761Y-109039706D01*
X205088297Y-108999767D01*
X205096705Y-108996615D01*
X205213261Y-108909261D01*
X205300615Y-108792705D01*
X205351745Y-108656316D01*
X205358500Y-108594134D01*
X205358500Y-106797866D01*
X205351745Y-106735684D01*
X205300615Y-106599295D01*
X205213261Y-106482739D01*
X205096705Y-106395385D01*
X204960316Y-106344255D01*
X204898134Y-106337500D01*
X203101866Y-106337500D01*
X203039684Y-106344255D01*
X202903295Y-106395385D01*
X202786739Y-106482739D01*
X202699385Y-106599295D01*
X202648255Y-106735684D01*
X202641500Y-106797866D01*
X202641500Y-108106406D01*
X202621498Y-108174527D01*
X202604595Y-108195501D01*
X202001033Y-108799062D01*
X201408227Y-109391868D01*
X201399941Y-109399408D01*
X201393462Y-109403520D01*
X201388037Y-109409297D01*
X201346837Y-109453171D01*
X201344082Y-109456013D01*
X201324345Y-109475750D01*
X201321865Y-109478947D01*
X201314162Y-109487967D01*
X201283894Y-109520199D01*
X201280075Y-109527145D01*
X201280073Y-109527148D01*
X201274132Y-109537954D01*
X201263281Y-109554473D01*
X201250866Y-109570479D01*
X201247721Y-109577748D01*
X201247718Y-109577752D01*
X201233306Y-109611057D01*
X201228089Y-109621707D01*
X201206785Y-109660460D01*
X201204814Y-109668135D01*
X201204814Y-109668136D01*
X201201747Y-109680082D01*
X201195343Y-109698786D01*
X201187299Y-109717375D01*
X201186060Y-109725198D01*
X201186057Y-109725208D01*
X201180381Y-109761044D01*
X201177975Y-109772664D01*
X201166980Y-109815490D01*
X201166980Y-109835744D01*
X201165429Y-109855454D01*
X201162260Y-109875463D01*
X201163006Y-109883355D01*
X201166421Y-109919481D01*
X201166980Y-109931339D01*
X201166980Y-115215500D01*
X201146978Y-115283621D01*
X201093322Y-115330114D01*
X201040980Y-115341500D01*
X200904513Y-115341500D01*
X200898061Y-115342872D01*
X200898056Y-115342872D01*
X200811113Y-115361353D01*
X200717712Y-115381206D01*
X200711682Y-115383891D01*
X200711681Y-115383891D01*
X200549278Y-115456197D01*
X200549276Y-115456198D01*
X200543248Y-115458882D01*
X200388747Y-115571134D01*
X200384326Y-115576044D01*
X200384325Y-115576045D01*
X200354632Y-115609023D01*
X200260960Y-115713056D01*
X200165473Y-115878444D01*
X200106458Y-116060072D01*
X200105769Y-116066631D01*
X200105768Y-116066634D01*
X200089164Y-116224615D01*
X200062151Y-116290271D01*
X200055705Y-116297695D01*
X200046356Y-116307651D01*
X200043600Y-116310495D01*
X200023865Y-116330230D01*
X200021385Y-116333427D01*
X200013682Y-116342447D01*
X199983414Y-116374679D01*
X199979595Y-116381625D01*
X199979593Y-116381628D01*
X199973652Y-116392434D01*
X199962801Y-116408953D01*
X199950386Y-116424959D01*
X199947241Y-116432228D01*
X199947238Y-116432232D01*
X199932826Y-116465537D01*
X199927609Y-116476187D01*
X199906305Y-116514940D01*
X199904334Y-116522615D01*
X199904334Y-116522616D01*
X199901267Y-116534562D01*
X199894863Y-116553266D01*
X199886819Y-116571855D01*
X199885580Y-116579678D01*
X199885577Y-116579688D01*
X199879901Y-116615524D01*
X199877495Y-116627144D01*
X199866500Y-116669970D01*
X199866500Y-116690224D01*
X199864949Y-116709934D01*
X199861780Y-116729943D01*
X199862526Y-116737835D01*
X199865941Y-116773961D01*
X199866500Y-116785819D01*
X199866500Y-126047476D01*
X199846498Y-126115597D01*
X199834142Y-126131779D01*
X199760960Y-126213056D01*
X199757659Y-126218774D01*
X199680488Y-126352438D01*
X199665473Y-126378444D01*
X199606458Y-126560072D01*
X199586496Y-126750000D01*
X173135938Y-126750000D01*
X173132438Y-126727901D01*
X173031833Y-126352438D01*
X172892532Y-125989547D01*
X172791799Y-125791847D01*
X172717561Y-125646147D01*
X172717557Y-125646140D01*
X172716062Y-125643206D01*
X172702003Y-125621556D01*
X172506152Y-125319971D01*
X172506152Y-125319970D01*
X172504357Y-125317207D01*
X172301447Y-125066635D01*
X172261809Y-125017686D01*
X172261806Y-125017682D01*
X172259734Y-125015124D01*
X171984876Y-124740266D01*
X171682793Y-124495643D01*
X171356795Y-124283938D01*
X171353861Y-124282443D01*
X171353854Y-124282439D01*
X171013393Y-124108966D01*
X171010453Y-124107468D01*
X170647562Y-123968167D01*
X170287568Y-123871707D01*
X170226945Y-123834755D01*
X170195924Y-123770895D01*
X170204352Y-123700400D01*
X170249555Y-123645653D01*
X170287568Y-123628293D01*
X170647562Y-123531833D01*
X171010453Y-123392532D01*
X171160424Y-123316118D01*
X171353854Y-123217561D01*
X171353861Y-123217557D01*
X171356795Y-123216062D01*
X171380083Y-123200939D01*
X171680029Y-123006152D01*
X171680030Y-123006152D01*
X171682793Y-123004357D01*
X171836112Y-122880201D01*
X171982314Y-122761809D01*
X171982318Y-122761806D01*
X171984876Y-122759734D01*
X172259734Y-122484876D01*
X172504357Y-122182793D01*
X172576606Y-122071539D01*
X172714264Y-121859563D01*
X172714266Y-121859560D01*
X172716062Y-121856794D01*
X172717741Y-121853500D01*
X172891034Y-121513393D01*
X172892532Y-121510453D01*
X173031833Y-121147562D01*
X173045917Y-121095000D01*
X186741496Y-121095000D01*
X186742186Y-121101565D01*
X186747350Y-121150693D01*
X186761458Y-121284928D01*
X186820473Y-121466556D01*
X186915960Y-121631944D01*
X186920378Y-121636851D01*
X186920379Y-121636852D01*
X187011286Y-121737814D01*
X187043747Y-121773866D01*
X187092165Y-121809044D01*
X187192904Y-121882235D01*
X187198248Y-121886118D01*
X187204276Y-121888802D01*
X187204278Y-121888803D01*
X187351664Y-121954423D01*
X187372712Y-121963794D01*
X187466112Y-121983647D01*
X187553056Y-122002128D01*
X187553061Y-122002128D01*
X187559513Y-122003500D01*
X187750487Y-122003500D01*
X187756939Y-122002128D01*
X187756944Y-122002128D01*
X187843888Y-121983647D01*
X187937288Y-121963794D01*
X187958336Y-121954423D01*
X188105722Y-121888803D01*
X188105724Y-121888802D01*
X188111752Y-121886118D01*
X188117091Y-121882239D01*
X188117098Y-121882235D01*
X188123528Y-121877563D01*
X188197587Y-121853500D01*
X192587930Y-121853500D01*
X192606880Y-121854933D01*
X192621115Y-121857099D01*
X192621119Y-121857099D01*
X192628349Y-121858199D01*
X192635641Y-121857606D01*
X192635644Y-121857606D01*
X192681018Y-121853915D01*
X192691233Y-121853500D01*
X192699293Y-121853500D01*
X192712583Y-121851951D01*
X192727507Y-121850211D01*
X192731882Y-121849778D01*
X192797339Y-121844454D01*
X192797342Y-121844453D01*
X192804637Y-121843860D01*
X192811601Y-121841604D01*
X192817560Y-121840413D01*
X192823415Y-121839029D01*
X192830681Y-121838182D01*
X192899327Y-121813265D01*
X192903455Y-121811848D01*
X192965936Y-121791607D01*
X192965938Y-121791606D01*
X192972899Y-121789351D01*
X192979154Y-121785555D01*
X192984628Y-121783049D01*
X192990058Y-121780330D01*
X192996937Y-121777833D01*
X193019105Y-121763299D01*
X193057976Y-121737814D01*
X193061680Y-121735477D01*
X193124107Y-121697595D01*
X193132484Y-121690197D01*
X193132508Y-121690224D01*
X193135500Y-121687571D01*
X193138733Y-121684868D01*
X193144852Y-121680856D01*
X193198128Y-121624617D01*
X193200506Y-121622175D01*
X195656331Y-119166350D01*
X195719228Y-119132199D01*
X195775824Y-119120169D01*
X195775833Y-119120166D01*
X195782288Y-119118794D01*
X195816273Y-119103663D01*
X195950722Y-119043803D01*
X195950724Y-119043802D01*
X195956752Y-119041118D01*
X196111253Y-118928866D01*
X196137090Y-118900171D01*
X196234621Y-118791852D01*
X196234622Y-118791851D01*
X196239040Y-118786944D01*
X196334527Y-118621556D01*
X196393542Y-118439928D01*
X196402694Y-118352857D01*
X196412814Y-118256565D01*
X196413504Y-118250000D01*
X196393542Y-118060072D01*
X196334527Y-117878444D01*
X196319633Y-117852646D01*
X196242341Y-117718774D01*
X196239040Y-117713056D01*
X196171930Y-117638522D01*
X196115675Y-117576045D01*
X196115674Y-117576044D01*
X196111253Y-117571134D01*
X195956752Y-117458882D01*
X195950724Y-117456198D01*
X195950722Y-117456197D01*
X195788319Y-117383891D01*
X195788318Y-117383891D01*
X195782288Y-117381206D01*
X195688888Y-117361353D01*
X195601944Y-117342872D01*
X195601939Y-117342872D01*
X195595487Y-117341500D01*
X195404513Y-117341500D01*
X195398061Y-117342872D01*
X195398056Y-117342872D01*
X195311112Y-117361353D01*
X195217712Y-117381206D01*
X195211682Y-117383891D01*
X195211681Y-117383891D01*
X195049278Y-117456197D01*
X195049276Y-117456198D01*
X195043248Y-117458882D01*
X194888747Y-117571134D01*
X194884326Y-117576044D01*
X194884325Y-117576045D01*
X194828071Y-117638522D01*
X194760960Y-117713056D01*
X194757659Y-117718774D01*
X194680368Y-117852646D01*
X194665473Y-117878444D01*
X194652218Y-117919240D01*
X194610613Y-118047285D01*
X194579875Y-118097444D01*
X192377724Y-120299595D01*
X192315412Y-120333621D01*
X192288629Y-120336500D01*
X188197587Y-120336500D01*
X188123528Y-120312437D01*
X188117098Y-120307765D01*
X188117091Y-120307761D01*
X188111752Y-120303882D01*
X188105724Y-120301198D01*
X188105722Y-120301197D01*
X187943319Y-120228891D01*
X187943318Y-120228891D01*
X187937288Y-120226206D01*
X187843887Y-120206353D01*
X187756944Y-120187872D01*
X187756939Y-120187872D01*
X187750487Y-120186500D01*
X187559513Y-120186500D01*
X187553061Y-120187872D01*
X187553056Y-120187872D01*
X187466113Y-120206353D01*
X187372712Y-120226206D01*
X187366682Y-120228891D01*
X187366681Y-120228891D01*
X187204278Y-120301197D01*
X187204276Y-120301198D01*
X187198248Y-120303882D01*
X187192907Y-120307762D01*
X187192906Y-120307763D01*
X187186473Y-120312437D01*
X187043747Y-120416134D01*
X186915960Y-120558056D01*
X186820473Y-120723444D01*
X186761458Y-120905072D01*
X186760768Y-120911633D01*
X186760768Y-120911635D01*
X186752754Y-120987884D01*
X186741496Y-121095000D01*
X173045917Y-121095000D01*
X173132438Y-120772099D01*
X173193246Y-120388176D01*
X173213589Y-120000000D01*
X173193246Y-119611824D01*
X173132438Y-119227901D01*
X173031833Y-118852438D01*
X172892532Y-118489547D01*
X172822885Y-118352857D01*
X172717561Y-118146147D01*
X172717557Y-118146140D01*
X172716062Y-118143206D01*
X172666337Y-118066635D01*
X172506152Y-117819971D01*
X172506152Y-117819970D01*
X172504357Y-117817207D01*
X172259734Y-117515124D01*
X171984876Y-117240266D01*
X171682793Y-116995643D01*
X171467527Y-116855848D01*
X171359564Y-116785736D01*
X171359561Y-116785734D01*
X171356795Y-116783938D01*
X171353861Y-116782443D01*
X171353854Y-116782439D01*
X171013393Y-116608966D01*
X171010453Y-116607468D01*
X170696353Y-116486896D01*
X170650652Y-116469353D01*
X170650650Y-116469352D01*
X170647562Y-116468167D01*
X170287568Y-116371707D01*
X170226945Y-116334755D01*
X170195924Y-116270895D01*
X170204352Y-116200400D01*
X170249555Y-116145653D01*
X170287568Y-116128293D01*
X170647562Y-116031833D01*
X170672457Y-116022277D01*
X170789452Y-115977366D01*
X171010453Y-115892532D01*
X171147991Y-115822453D01*
X171353854Y-115717561D01*
X171353861Y-115717557D01*
X171356795Y-115716062D01*
X171585945Y-115567251D01*
X171680029Y-115506152D01*
X171680030Y-115506152D01*
X171682793Y-115504357D01*
X171915394Y-115316000D01*
X171982314Y-115261809D01*
X171982318Y-115261806D01*
X171984876Y-115259734D01*
X172259734Y-114984876D01*
X172343269Y-114881720D01*
X172502282Y-114685355D01*
X172504357Y-114682793D01*
X172716062Y-114356794D01*
X172733348Y-114322870D01*
X172891034Y-114013393D01*
X172892532Y-114010453D01*
X173031833Y-113647562D01*
X173132438Y-113272099D01*
X173193246Y-112888176D01*
X173213589Y-112500000D01*
X173193246Y-112111824D01*
X173132438Y-111727901D01*
X173031833Y-111352438D01*
X173002942Y-111277173D01*
X172893716Y-110992632D01*
X172892532Y-110989547D01*
X172821076Y-110849307D01*
X172717561Y-110646147D01*
X172717557Y-110646140D01*
X172716062Y-110643206D01*
X172695092Y-110610914D01*
X172506152Y-110319971D01*
X172506152Y-110319970D01*
X172504357Y-110317207D01*
X172333303Y-110105974D01*
X172261809Y-110017686D01*
X172261806Y-110017682D01*
X172259734Y-110015124D01*
X172160421Y-109915811D01*
X194741500Y-109915811D01*
X194748255Y-109977993D01*
X194799385Y-110114382D01*
X194886739Y-110230938D01*
X195003295Y-110318292D01*
X195139684Y-110369422D01*
X195201866Y-110376177D01*
X197298134Y-110376177D01*
X197360316Y-110369422D01*
X197496705Y-110318292D01*
X197613261Y-110230938D01*
X197700615Y-110114382D01*
X197751745Y-109977993D01*
X197758500Y-109915811D01*
X197758500Y-107819543D01*
X197751745Y-107757361D01*
X197700615Y-107620972D01*
X197613261Y-107504416D01*
X197496705Y-107417062D01*
X197360316Y-107365932D01*
X197298134Y-107359177D01*
X195201866Y-107359177D01*
X195139684Y-107365932D01*
X195003295Y-107417062D01*
X194886739Y-107504416D01*
X194799385Y-107620972D01*
X194748255Y-107757361D01*
X194741500Y-107819543D01*
X194741500Y-109915811D01*
X172160421Y-109915811D01*
X171984876Y-109740266D01*
X171947625Y-109710100D01*
X171801586Y-109591840D01*
X171682793Y-109495643D01*
X171617392Y-109453171D01*
X171359564Y-109285736D01*
X171359561Y-109285734D01*
X171356795Y-109283938D01*
X171353861Y-109282443D01*
X171353854Y-109282439D01*
X171013393Y-109108966D01*
X171010453Y-109107468D01*
X170729883Y-108999767D01*
X170650652Y-108969353D01*
X170650650Y-108969352D01*
X170647562Y-108968167D01*
X170287568Y-108871707D01*
X170226945Y-108834755D01*
X170195924Y-108770895D01*
X170204352Y-108700400D01*
X170249555Y-108645653D01*
X170287568Y-108628293D01*
X170647562Y-108531833D01*
X171010453Y-108392532D01*
X171013393Y-108391034D01*
X171353854Y-108217561D01*
X171353861Y-108217557D01*
X171356795Y-108216062D01*
X171388457Y-108195501D01*
X171680029Y-108006152D01*
X171680030Y-108006152D01*
X171682793Y-108004357D01*
X171906799Y-107822960D01*
X171982314Y-107761809D01*
X171982318Y-107761806D01*
X171984876Y-107759734D01*
X172259734Y-107484876D01*
X172310288Y-107422448D01*
X172502282Y-107185355D01*
X172504357Y-107182793D01*
X172716062Y-106856794D01*
X172738623Y-106812517D01*
X172854007Y-106586062D01*
X175278493Y-106586062D01*
X175287789Y-106598077D01*
X175338994Y-106633931D01*
X175348489Y-106639414D01*
X175545947Y-106731490D01*
X175556239Y-106735236D01*
X175766688Y-106791625D01*
X175777481Y-106793528D01*
X175994525Y-106812517D01*
X176005475Y-106812517D01*
X176222519Y-106793528D01*
X176233312Y-106791625D01*
X176443761Y-106735236D01*
X176454053Y-106731490D01*
X176651511Y-106639414D01*
X176661006Y-106633931D01*
X176713048Y-106597491D01*
X176721424Y-106587012D01*
X176714356Y-106573566D01*
X176012812Y-105872022D01*
X175998868Y-105864408D01*
X175997035Y-105864539D01*
X175990420Y-105868790D01*
X175284923Y-106574287D01*
X175278493Y-106586062D01*
X172854007Y-106586062D01*
X172891034Y-106513393D01*
X172892532Y-106510453D01*
X173031833Y-106147562D01*
X173132438Y-105772099D01*
X173166214Y-105558849D01*
X173174668Y-105505475D01*
X174687483Y-105505475D01*
X174706472Y-105722519D01*
X174708375Y-105733312D01*
X174764764Y-105943761D01*
X174768510Y-105954053D01*
X174860586Y-106151511D01*
X174866069Y-106161006D01*
X174902509Y-106213048D01*
X174912988Y-106221424D01*
X174926434Y-106214356D01*
X175910905Y-105229885D01*
X175973217Y-105195859D01*
X176044032Y-105200924D01*
X176089095Y-105229885D01*
X177074287Y-106215077D01*
X177086062Y-106221507D01*
X177098077Y-106212211D01*
X177133931Y-106161006D01*
X177139414Y-106151511D01*
X177231490Y-105954053D01*
X177235236Y-105943761D01*
X177291625Y-105733312D01*
X177293528Y-105722519D01*
X177300473Y-105643134D01*
X179704000Y-105643134D01*
X179710755Y-105705316D01*
X179761885Y-105841705D01*
X179849239Y-105958261D01*
X179965795Y-106045615D01*
X180102184Y-106096745D01*
X180164366Y-106103500D01*
X181535634Y-106103500D01*
X181597816Y-106096745D01*
X181734205Y-106045615D01*
X181844219Y-105963164D01*
X181910725Y-105938316D01*
X181980108Y-105953369D01*
X181987019Y-105957428D01*
X182022614Y-105979887D01*
X182022619Y-105979889D01*
X182027498Y-105982968D01*
X182223124Y-106061015D01*
X182228784Y-106062141D01*
X182228788Y-106062142D01*
X182424030Y-106100978D01*
X182424033Y-106100978D01*
X182429697Y-106102105D01*
X182435472Y-106102181D01*
X182435476Y-106102181D01*
X182540969Y-106103562D01*
X182640299Y-106104862D01*
X182645997Y-106103883D01*
X182842180Y-106070173D01*
X182842181Y-106070173D01*
X182847877Y-106069194D01*
X183045480Y-105996294D01*
X183073058Y-105979887D01*
X183221520Y-105891562D01*
X183221523Y-105891560D01*
X183226488Y-105888606D01*
X183317268Y-105808994D01*
X183381673Y-105779117D01*
X183452005Y-105788803D01*
X183485874Y-105811201D01*
X183545430Y-105866254D01*
X183554564Y-105873262D01*
X183722846Y-105979441D01*
X183733089Y-105984660D01*
X183917903Y-106058393D01*
X183928930Y-106061659D01*
X183978230Y-106071465D01*
X183991106Y-106070313D01*
X183995047Y-106058110D01*
X184504000Y-106058110D01*
X184507806Y-106071072D01*
X184522722Y-106073008D01*
X184542050Y-106069687D01*
X184553170Y-106066707D01*
X184739847Y-105997838D01*
X184750225Y-105992888D01*
X184921227Y-105891153D01*
X184930530Y-105884394D01*
X185016518Y-105808984D01*
X185080922Y-105779107D01*
X185151255Y-105788793D01*
X185185125Y-105811191D01*
X185218135Y-105841705D01*
X185249370Y-105870578D01*
X185254255Y-105873660D01*
X185422614Y-105979887D01*
X185422619Y-105979889D01*
X185427498Y-105982968D01*
X185623124Y-106061015D01*
X185628784Y-106062141D01*
X185628788Y-106062142D01*
X185824030Y-106100978D01*
X185824033Y-106100978D01*
X185829697Y-106102105D01*
X185835472Y-106102181D01*
X185835476Y-106102181D01*
X185940969Y-106103562D01*
X186040299Y-106104862D01*
X186045997Y-106103883D01*
X186242180Y-106070173D01*
X186242181Y-106070173D01*
X186247877Y-106069194D01*
X186445480Y-105996294D01*
X186473058Y-105979887D01*
X186621520Y-105891562D01*
X186621523Y-105891560D01*
X186626488Y-105888606D01*
X186717268Y-105808994D01*
X186781673Y-105779117D01*
X186852005Y-105788803D01*
X186885874Y-105811201D01*
X186945430Y-105866254D01*
X186954564Y-105873262D01*
X187122846Y-105979441D01*
X187133089Y-105984660D01*
X187317903Y-106058393D01*
X187328930Y-106061659D01*
X187378230Y-106071465D01*
X187391106Y-106070313D01*
X187395047Y-106058110D01*
X187904000Y-106058110D01*
X187907806Y-106071072D01*
X187922722Y-106073008D01*
X187942050Y-106069687D01*
X187953170Y-106066707D01*
X188139847Y-105997838D01*
X188150225Y-105992888D01*
X188321227Y-105891153D01*
X188330536Y-105884389D01*
X188480137Y-105753193D01*
X188488047Y-105744858D01*
X188611234Y-105588596D01*
X188617505Y-105578939D01*
X188710145Y-105402859D01*
X188714551Y-105392222D01*
X188773554Y-105202204D01*
X188775947Y-105190946D01*
X188786670Y-105100347D01*
X195382160Y-105100347D01*
X195387887Y-105107997D01*
X195559042Y-105212882D01*
X195567837Y-105217364D01*
X195777988Y-105304411D01*
X195787373Y-105307460D01*
X196008554Y-105360562D01*
X196018301Y-105362105D01*
X196245070Y-105379952D01*
X196254930Y-105379952D01*
X196481699Y-105362105D01*
X196491446Y-105360562D01*
X196712627Y-105307460D01*
X196722012Y-105304411D01*
X196932163Y-105217364D01*
X196940958Y-105212882D01*
X197108445Y-105110245D01*
X197117907Y-105099787D01*
X197114124Y-105091011D01*
X196262812Y-104239699D01*
X196248868Y-104232085D01*
X196247035Y-104232216D01*
X196240420Y-104236467D01*
X195388920Y-105087967D01*
X195382160Y-105100347D01*
X188786670Y-105100347D01*
X188795064Y-105029431D01*
X188795500Y-105022028D01*
X188795500Y-104967115D01*
X188791025Y-104951876D01*
X188789635Y-104950671D01*
X188781952Y-104949000D01*
X187922115Y-104949000D01*
X187906876Y-104953475D01*
X187905671Y-104954865D01*
X187904000Y-104962548D01*
X187904000Y-106058110D01*
X187395047Y-106058110D01*
X187396000Y-106055160D01*
X187396000Y-104422885D01*
X187904000Y-104422885D01*
X187908475Y-104438124D01*
X187909865Y-104439329D01*
X187917548Y-104441000D01*
X188777385Y-104441000D01*
X188792624Y-104436525D01*
X188793829Y-104435135D01*
X188795500Y-104427452D01*
X188795500Y-104381996D01*
X188795234Y-104376207D01*
X188781672Y-104228609D01*
X188779575Y-104217294D01*
X188725565Y-104025790D01*
X188721443Y-104015051D01*
X188651197Y-103872607D01*
X194737725Y-103872607D01*
X194755572Y-104099376D01*
X194757115Y-104109123D01*
X194810217Y-104330304D01*
X194813266Y-104339689D01*
X194900313Y-104549840D01*
X194904795Y-104558635D01*
X195007432Y-104726122D01*
X195017890Y-104735584D01*
X195026666Y-104731801D01*
X195877978Y-103880489D01*
X195884356Y-103868809D01*
X196614408Y-103868809D01*
X196614539Y-103870642D01*
X196618790Y-103877257D01*
X197470290Y-104728757D01*
X197482670Y-104735517D01*
X197490320Y-104729790D01*
X197595205Y-104558635D01*
X197599687Y-104549840D01*
X197686734Y-104339689D01*
X197689783Y-104330304D01*
X197742885Y-104109123D01*
X197744428Y-104099376D01*
X197762275Y-103872607D01*
X197762275Y-103862747D01*
X197744428Y-103635978D01*
X197742885Y-103626231D01*
X197689783Y-103405050D01*
X197686734Y-103395665D01*
X197599687Y-103185514D01*
X197595205Y-103176719D01*
X197492568Y-103009232D01*
X197482110Y-102999770D01*
X197473334Y-103003553D01*
X196622022Y-103854865D01*
X196614408Y-103868809D01*
X195884356Y-103868809D01*
X195885592Y-103866545D01*
X195885461Y-103864712D01*
X195881210Y-103858097D01*
X195029710Y-103006597D01*
X195017330Y-102999837D01*
X195009680Y-103005564D01*
X194904795Y-103176719D01*
X194900313Y-103185514D01*
X194813266Y-103395665D01*
X194810217Y-103405050D01*
X194757115Y-103626231D01*
X194755572Y-103635978D01*
X194737725Y-103862747D01*
X194737725Y-103872607D01*
X188651197Y-103872607D01*
X188633438Y-103836595D01*
X188627428Y-103826787D01*
X188508372Y-103667351D01*
X188500683Y-103658811D01*
X188354564Y-103523741D01*
X188345440Y-103516740D01*
X188177154Y-103410559D01*
X188166911Y-103405340D01*
X187982097Y-103331607D01*
X187971070Y-103328341D01*
X187921770Y-103318535D01*
X187908894Y-103319687D01*
X187904000Y-103334840D01*
X187904000Y-104422885D01*
X187396000Y-104422885D01*
X187396000Y-103331890D01*
X187392194Y-103318928D01*
X187377278Y-103316992D01*
X187357950Y-103320313D01*
X187346830Y-103323293D01*
X187160153Y-103392162D01*
X187149775Y-103397112D01*
X186978773Y-103498847D01*
X186969470Y-103505606D01*
X186883482Y-103581016D01*
X186819078Y-103610893D01*
X186748745Y-103601207D01*
X186714875Y-103578809D01*
X186654870Y-103523341D01*
X186654867Y-103523339D01*
X186650630Y-103519422D01*
X186544768Y-103452628D01*
X186477386Y-103410113D01*
X186477381Y-103410111D01*
X186472502Y-103407032D01*
X186276876Y-103328985D01*
X186271216Y-103327859D01*
X186271212Y-103327858D01*
X186075970Y-103289022D01*
X186075967Y-103289022D01*
X186070303Y-103287895D01*
X186064528Y-103287819D01*
X186064524Y-103287819D01*
X185959031Y-103286438D01*
X185859701Y-103285138D01*
X185854004Y-103286117D01*
X185854003Y-103286117D01*
X185657820Y-103319827D01*
X185657819Y-103319827D01*
X185652123Y-103320806D01*
X185454520Y-103393706D01*
X185449559Y-103396658D01*
X185449558Y-103396658D01*
X185278480Y-103498438D01*
X185278477Y-103498440D01*
X185273512Y-103501394D01*
X185228226Y-103541109D01*
X185182732Y-103581006D01*
X185118327Y-103610883D01*
X185047995Y-103601197D01*
X185014126Y-103578799D01*
X184954570Y-103523746D01*
X184945436Y-103516738D01*
X184777154Y-103410559D01*
X184766911Y-103405340D01*
X184582097Y-103331607D01*
X184571070Y-103328341D01*
X184521770Y-103318535D01*
X184508894Y-103319687D01*
X184504000Y-103334840D01*
X184504000Y-106058110D01*
X183995047Y-106058110D01*
X183996000Y-106055160D01*
X183996000Y-103331890D01*
X183992194Y-103318928D01*
X183977278Y-103316992D01*
X183957950Y-103320313D01*
X183946830Y-103323293D01*
X183760153Y-103392162D01*
X183749775Y-103397112D01*
X183578773Y-103498847D01*
X183569470Y-103505606D01*
X183483482Y-103581016D01*
X183419078Y-103610893D01*
X183348745Y-103601207D01*
X183314875Y-103578809D01*
X183254870Y-103523341D01*
X183254867Y-103523339D01*
X183250630Y-103519422D01*
X183144768Y-103452628D01*
X183077386Y-103410113D01*
X183077381Y-103410111D01*
X183072502Y-103407032D01*
X182876876Y-103328985D01*
X182871216Y-103327859D01*
X182871212Y-103327858D01*
X182675970Y-103289022D01*
X182675967Y-103289022D01*
X182670303Y-103287895D01*
X182664528Y-103287819D01*
X182664524Y-103287819D01*
X182559031Y-103286438D01*
X182459701Y-103285138D01*
X182454004Y-103286117D01*
X182454003Y-103286117D01*
X182257820Y-103319827D01*
X182257819Y-103319827D01*
X182252123Y-103320806D01*
X182054520Y-103393706D01*
X182049559Y-103396658D01*
X182049558Y-103396658D01*
X181985131Y-103434988D01*
X181916360Y-103452628D01*
X181845144Y-103427529D01*
X181734205Y-103344385D01*
X181597816Y-103293255D01*
X181535634Y-103286500D01*
X180164366Y-103286500D01*
X180102184Y-103293255D01*
X179965795Y-103344385D01*
X179849239Y-103431739D01*
X179761885Y-103548295D01*
X179710755Y-103684684D01*
X179704000Y-103746866D01*
X179704000Y-105643134D01*
X177300473Y-105643134D01*
X177312517Y-105505475D01*
X177312517Y-105494525D01*
X177293528Y-105277481D01*
X177291625Y-105266688D01*
X177235236Y-105056239D01*
X177231490Y-105045947D01*
X177139414Y-104848489D01*
X177133929Y-104838989D01*
X177133299Y-104838090D01*
X177133144Y-104837630D01*
X177131182Y-104834232D01*
X177131865Y-104833838D01*
X177110612Y-104770816D01*
X177127898Y-104701956D01*
X177150934Y-104676197D01*
X177149730Y-104674993D01*
X177156081Y-104668642D01*
X177163261Y-104663261D01*
X177168642Y-104656081D01*
X177168645Y-104656078D01*
X177245229Y-104553891D01*
X177250615Y-104546705D01*
X177301745Y-104410316D01*
X177308500Y-104348134D01*
X177308500Y-102651866D01*
X177306729Y-102635567D01*
X195382093Y-102635567D01*
X195385876Y-102644343D01*
X196237188Y-103495655D01*
X196251132Y-103503269D01*
X196252965Y-103503138D01*
X196259580Y-103498887D01*
X197111080Y-102647387D01*
X197117840Y-102635007D01*
X197112113Y-102627357D01*
X196940958Y-102522472D01*
X196932163Y-102517990D01*
X196722012Y-102430943D01*
X196712627Y-102427894D01*
X196491446Y-102374792D01*
X196481699Y-102373249D01*
X196254930Y-102355402D01*
X196245070Y-102355402D01*
X196018301Y-102373249D01*
X196008554Y-102374792D01*
X195787373Y-102427894D01*
X195777988Y-102430943D01*
X195567837Y-102517990D01*
X195559042Y-102522472D01*
X195391555Y-102625109D01*
X195382093Y-102635567D01*
X177306729Y-102635567D01*
X177301745Y-102589684D01*
X177250615Y-102453295D01*
X177163261Y-102336739D01*
X177046705Y-102249385D01*
X176910316Y-102198255D01*
X176848134Y-102191500D01*
X175151866Y-102191500D01*
X175089684Y-102198255D01*
X174953295Y-102249385D01*
X174836739Y-102336739D01*
X174749385Y-102453295D01*
X174698255Y-102589684D01*
X174691500Y-102651866D01*
X174691500Y-104348134D01*
X174698255Y-104410316D01*
X174749385Y-104546705D01*
X174754771Y-104553891D01*
X174831355Y-104656078D01*
X174831358Y-104656081D01*
X174836739Y-104663261D01*
X174843919Y-104668642D01*
X174850270Y-104674993D01*
X174848128Y-104677135D01*
X174881564Y-104721846D01*
X174886594Y-104792664D01*
X174868477Y-104834035D01*
X174868818Y-104834232D01*
X174867048Y-104837298D01*
X174866701Y-104838090D01*
X174866071Y-104838989D01*
X174860586Y-104848489D01*
X174768510Y-105045947D01*
X174764764Y-105056239D01*
X174708375Y-105266688D01*
X174706472Y-105277481D01*
X174687483Y-105494525D01*
X174687483Y-105505475D01*
X173174668Y-105505475D01*
X173192732Y-105391424D01*
X173192733Y-105391416D01*
X173193246Y-105388176D01*
X173213589Y-105000000D01*
X173193246Y-104611824D01*
X173184071Y-104553891D01*
X173156380Y-104379065D01*
X173132438Y-104227901D01*
X173031833Y-103852438D01*
X173025752Y-103836595D01*
X172939112Y-103610893D01*
X172892532Y-103489547D01*
X172852058Y-103410113D01*
X172717561Y-103146147D01*
X172717557Y-103146140D01*
X172716062Y-103143206D01*
X172504357Y-102817207D01*
X172350619Y-102627357D01*
X172261809Y-102517686D01*
X172261806Y-102517682D01*
X172259734Y-102515124D01*
X171984876Y-102240266D01*
X171682793Y-101995643D01*
X171356795Y-101783938D01*
X171353861Y-101782443D01*
X171353854Y-101782439D01*
X171013393Y-101608966D01*
X171010453Y-101607468D01*
X170647562Y-101468167D01*
X170272099Y-101367562D01*
X170068207Y-101335268D01*
X169891424Y-101307268D01*
X169891416Y-101307267D01*
X169888176Y-101306754D01*
X169500000Y-101286411D01*
X169111824Y-101306754D01*
X169108584Y-101307267D01*
X169108576Y-101307268D01*
X168931793Y-101335268D01*
X168727901Y-101367562D01*
X168352438Y-101468167D01*
X167989547Y-101607468D01*
X167986607Y-101608966D01*
X167646147Y-101782439D01*
X167646140Y-101782443D01*
X167643206Y-101783938D01*
X167317207Y-101995643D01*
X167015124Y-102240266D01*
X166740266Y-102515124D01*
X166738194Y-102517682D01*
X166738191Y-102517686D01*
X166649381Y-102627357D01*
X166495643Y-102817207D01*
X166283938Y-103143206D01*
X166282443Y-103146140D01*
X166282439Y-103146147D01*
X166147942Y-103410113D01*
X166107468Y-103489547D01*
X166060888Y-103610893D01*
X165974249Y-103836595D01*
X165968167Y-103852438D01*
X165867562Y-104227901D01*
X165843620Y-104379065D01*
X165815930Y-104553891D01*
X165806754Y-104611824D01*
X165786411Y-105000000D01*
X165806754Y-105388176D01*
X165807267Y-105391416D01*
X165807268Y-105391424D01*
X165833786Y-105558849D01*
X165867562Y-105772099D01*
X165968167Y-106147562D01*
X166107468Y-106510453D01*
X166108966Y-106513393D01*
X166261378Y-106812517D01*
X166283938Y-106856794D01*
X166495643Y-107182793D01*
X166497718Y-107185355D01*
X166689713Y-107422448D01*
X166740266Y-107484876D01*
X167015124Y-107759734D01*
X167017682Y-107761806D01*
X167017686Y-107761809D01*
X167093201Y-107822960D01*
X167317207Y-108004357D01*
X167319970Y-108006152D01*
X167319971Y-108006152D01*
X167611544Y-108195501D01*
X167643205Y-108216062D01*
X167646139Y-108217557D01*
X167646146Y-108217561D01*
X167986607Y-108391034D01*
X167989547Y-108392532D01*
X168352438Y-108531833D01*
X168712432Y-108628293D01*
X168773055Y-108665245D01*
X168804076Y-108729105D01*
X168795648Y-108799600D01*
X168750445Y-108854347D01*
X168712432Y-108871707D01*
X168352438Y-108968167D01*
X168349350Y-108969352D01*
X168349348Y-108969353D01*
X168270117Y-108999767D01*
X167989547Y-109107468D01*
X167986607Y-109108966D01*
X167646147Y-109282439D01*
X167646140Y-109282443D01*
X167643206Y-109283938D01*
X167640440Y-109285734D01*
X167640437Y-109285736D01*
X167347840Y-109475750D01*
X167317207Y-109495643D01*
X167198414Y-109591840D01*
X167052376Y-109710100D01*
X167015124Y-109740266D01*
X166740266Y-110015124D01*
X166738194Y-110017682D01*
X166738191Y-110017686D01*
X166666697Y-110105974D01*
X166495643Y-110317207D01*
X166493848Y-110319970D01*
X166493848Y-110319971D01*
X166304909Y-110610914D01*
X166283938Y-110643206D01*
X166282443Y-110646140D01*
X166282439Y-110646147D01*
X166178924Y-110849307D01*
X166107468Y-110989547D01*
X166106284Y-110992632D01*
X165997059Y-111277173D01*
X165968167Y-111352438D01*
X165867562Y-111727901D01*
X165806754Y-112111824D01*
X165786411Y-112500000D01*
X165806754Y-112888176D01*
X165867562Y-113272099D01*
X165968167Y-113647562D01*
X166107468Y-114010453D01*
X166108966Y-114013393D01*
X166266653Y-114322870D01*
X166283938Y-114356794D01*
X166495643Y-114682793D01*
X166497718Y-114685355D01*
X166656732Y-114881720D01*
X166740266Y-114984876D01*
X167015124Y-115259734D01*
X167017682Y-115261806D01*
X167017686Y-115261809D01*
X167084606Y-115316000D01*
X167317207Y-115504357D01*
X167319970Y-115506152D01*
X167319971Y-115506152D01*
X167414056Y-115567251D01*
X167643205Y-115716062D01*
X167646139Y-115717557D01*
X167646146Y-115717561D01*
X167852009Y-115822453D01*
X167989547Y-115892532D01*
X168210548Y-115977366D01*
X168327544Y-116022277D01*
X168352438Y-116031833D01*
X168712432Y-116128293D01*
X168773055Y-116165245D01*
X168804076Y-116229105D01*
X168795648Y-116299600D01*
X168750445Y-116354347D01*
X168712432Y-116371707D01*
X168352438Y-116468167D01*
X168349350Y-116469352D01*
X168349348Y-116469353D01*
X168303647Y-116486896D01*
X167989547Y-116607468D01*
X167986607Y-116608966D01*
X167646147Y-116782439D01*
X167646140Y-116782443D01*
X167643206Y-116783938D01*
X167640440Y-116785734D01*
X167640437Y-116785736D01*
X167319971Y-116993848D01*
X167317207Y-116995643D01*
X167015124Y-117240266D01*
X166740266Y-117515124D01*
X166495643Y-117817207D01*
X166493848Y-117819970D01*
X166493848Y-117819971D01*
X166333664Y-118066635D01*
X166283938Y-118143206D01*
X166282443Y-118146140D01*
X166282439Y-118146147D01*
X166177115Y-118352857D01*
X166107468Y-118489547D01*
X165968167Y-118852438D01*
X165867562Y-119227901D01*
X165806754Y-119611824D01*
X165786411Y-120000000D01*
X165806754Y-120388176D01*
X165867562Y-120772099D01*
X165968167Y-121147562D01*
X166107468Y-121510453D01*
X166108966Y-121513393D01*
X166282260Y-121853500D01*
X166283938Y-121856794D01*
X166285734Y-121859560D01*
X166285736Y-121859563D01*
X166423394Y-122071539D01*
X166495643Y-122182793D01*
X166740266Y-122484876D01*
X167015124Y-122759734D01*
X167017682Y-122761806D01*
X167017686Y-122761809D01*
X167163888Y-122880201D01*
X167317207Y-123004357D01*
X167319970Y-123006152D01*
X167319971Y-123006152D01*
X167619918Y-123200939D01*
X167643205Y-123216062D01*
X167646139Y-123217557D01*
X167646146Y-123217561D01*
X167839576Y-123316118D01*
X167989547Y-123392532D01*
X168352438Y-123531833D01*
X168712432Y-123628293D01*
X168773055Y-123665245D01*
X168804076Y-123729105D01*
X168795648Y-123799600D01*
X168750445Y-123854347D01*
X168712432Y-123871707D01*
X168352438Y-123968167D01*
X167989547Y-124107468D01*
X167986607Y-124108966D01*
X167646147Y-124282439D01*
X167646140Y-124282443D01*
X167643206Y-124283938D01*
X167640440Y-124285734D01*
X167640437Y-124285736D01*
X167489291Y-124383891D01*
X167317207Y-124495643D01*
X167015124Y-124740266D01*
X166740266Y-125015124D01*
X166738194Y-125017682D01*
X166738191Y-125017686D01*
X166698553Y-125066635D01*
X166495643Y-125317207D01*
X166493848Y-125319970D01*
X166493848Y-125319971D01*
X166297998Y-125621556D01*
X166283938Y-125643206D01*
X166282443Y-125646140D01*
X166282439Y-125646147D01*
X166208201Y-125791847D01*
X166107468Y-125989547D01*
X165968167Y-126352438D01*
X165867562Y-126727901D01*
X165835268Y-126931793D01*
X165811790Y-127080030D01*
X165806754Y-127111824D01*
X165786411Y-127500000D01*
X165508000Y-127500000D01*
X165508000Y-100134000D01*
X165528002Y-100065879D01*
X165581658Y-100019386D01*
X165634000Y-100008000D01*
X205866000Y-100008000D01*
X205934121Y-100028002D01*
G37*
G04 #@! TD.AperFunction*
M02*
